G04 #@! TF.FileFunction,Copper,L2,Bot,Signal*
%FSLAX46Y46*%
G04 Gerber Fmt 4.6, Leading zero omitted, Abs format (unit mm)*
G04 Created by KiCad (PCBNEW (2015-06-05 BZR 5717)-product) date Fri 31 Jul 2015 19:12:08 PDT*
%MOMM*%
G01*
G04 APERTURE LIST*
%ADD10C,0.100000*%
%ADD11R,0.800000X0.800000*%
%ADD12R,0.900000X0.800000*%
%ADD13R,1.524000X1.524000*%
%ADD14C,1.524000*%
%ADD15R,0.950000X0.950000*%
%ADD16R,1.100000X1.400000*%
%ADD17C,1.750000*%
%ADD18C,0.609600*%
%ADD19C,0.203200*%
%ADD20C,0.609600*%
%ADD21C,0.254000*%
G04 APERTURE END LIST*
D10*
D11*
X146250000Y-96240000D03*
X147750000Y-96240000D03*
D12*
X134138000Y-97099600D03*
X136138000Y-98049600D03*
X136138000Y-96149600D03*
X138990000Y-89030000D03*
X136990000Y-88080000D03*
X136990000Y-89980000D03*
D13*
X167000000Y-96730000D03*
D14*
X167000000Y-99270000D03*
D13*
X125000000Y-94890000D03*
D14*
X125000000Y-92350000D03*
X125000000Y-89810000D03*
X125000000Y-87270000D03*
X125000000Y-84730000D03*
X125000000Y-82190000D03*
X125000000Y-79650000D03*
X125000000Y-77110000D03*
D13*
X167000000Y-90350000D03*
D14*
X167000000Y-87810000D03*
X167000000Y-85270000D03*
X167000000Y-82730000D03*
X167000000Y-80190000D03*
X167000000Y-77650000D03*
D15*
X156525000Y-88740000D03*
X157975000Y-88740000D03*
X156525000Y-90740000D03*
X157975000Y-90740000D03*
X152225000Y-90510000D03*
X150775000Y-90510000D03*
X152225000Y-92510000D03*
X150775000Y-92510000D03*
X151975000Y-80510000D03*
X150525000Y-80510000D03*
X156525000Y-84490000D03*
X157975000Y-84490000D03*
X156525000Y-86740000D03*
X157975000Y-86740000D03*
D16*
X150625000Y-87990000D03*
X152375000Y-87990000D03*
D17*
X141250000Y-69250000D03*
X136750000Y-69250000D03*
X141250000Y-62750000D03*
X136750000Y-62750000D03*
D18*
X160731200Y-61772800D03*
X129235200Y-61772800D03*
X156057600Y-98755200D03*
X149148800Y-95707200D03*
X138988800Y-87376000D03*
X133705600Y-92049600D03*
X134112000Y-96113600D03*
X130657600Y-98145600D03*
X122123200Y-101193600D03*
X130657600Y-106070400D03*
X129438400Y-106070400D03*
X160934400Y-106070400D03*
X160934400Y-104444800D03*
X160934400Y-108712000D03*
X160934400Y-107086400D03*
X160934400Y-107899200D03*
X160934400Y-105257600D03*
X137769600Y-82296000D03*
X148336000Y-82296000D03*
X139229169Y-91682989D03*
X152196800Y-99974400D03*
X159715200Y-94488000D03*
X159715200Y-92456000D03*
X145288000Y-104648000D03*
X143052800Y-106070400D03*
X143052800Y-106883200D03*
X142036800Y-104851200D03*
X141224000Y-104851200D03*
X142849600Y-104851200D03*
X138988800Y-104851200D03*
X139801600Y-104851200D03*
X138176000Y-104851200D03*
X142849600Y-82296000D03*
X141224000Y-84531200D03*
X141020800Y-94488000D03*
X151993600Y-94488000D03*
X156464000Y-95300800D03*
X145897600Y-95300800D03*
X154635200Y-80467200D03*
X155041600Y-90424000D03*
X141020800Y-88188800D03*
X135940800Y-90017600D03*
X135940800Y-88188800D03*
X135940800Y-95300800D03*
X161544000Y-96926400D03*
X153822400Y-96926400D03*
X153822400Y-88188800D03*
X159308800Y-88798400D03*
X134924800Y-84734400D03*
X133908800Y-83515200D03*
X134112000Y-80467200D03*
X149352000Y-81483200D03*
X149758400Y-86156800D03*
X153212790Y-95954991D03*
X159308800Y-90627200D03*
X148742400Y-90424000D03*
X143256000Y-95820990D03*
X143256000Y-93587190D03*
X148742400Y-92252800D03*
X148945600Y-80264000D03*
X159308800Y-84328000D03*
X159308800Y-86563200D03*
X149148800Y-87985600D03*
D19*
X136750000Y-62750000D02*
X130212400Y-62750000D01*
X130212400Y-62750000D02*
X129235200Y-61772800D01*
X147750000Y-96240000D02*
X148616000Y-96240000D01*
X148616000Y-96240000D02*
X149148800Y-95707200D01*
X138990000Y-89030000D02*
X138990000Y-87377200D01*
X138990000Y-87377200D02*
X138988800Y-87376000D01*
X134138000Y-97099600D02*
X134138000Y-96139600D01*
X134138000Y-96139600D02*
X134112000Y-96113600D01*
X129438400Y-106070400D02*
X130657600Y-106070400D01*
X160934400Y-105257600D02*
X160934400Y-104444800D01*
X160934400Y-107086400D02*
X160934400Y-108712000D01*
D20*
X141020800Y-84734400D02*
X141224000Y-84531200D01*
X141020800Y-88188800D02*
X141020800Y-84734400D01*
X141020800Y-94488000D02*
X141020800Y-88188800D01*
X152225000Y-92510000D02*
X152225000Y-94256600D01*
X152225000Y-94256600D02*
X151993600Y-94488000D01*
X155041600Y-90510000D02*
X156295000Y-90510000D01*
X152225000Y-90510000D02*
X155041600Y-90510000D01*
X156295000Y-90510000D02*
X156525000Y-90740000D01*
X152225000Y-90510000D02*
X152225000Y-92510000D01*
X156525000Y-88740000D02*
X156525000Y-90740000D01*
X156464000Y-95300800D02*
X156464000Y-90801000D01*
X156464000Y-90801000D02*
X156525000Y-90740000D01*
D19*
X145897600Y-95300800D02*
X145897600Y-95887600D01*
X145897600Y-95887600D02*
X146250000Y-96240000D01*
D20*
X154592400Y-80510000D02*
X154635200Y-80467200D01*
X155041600Y-90424000D02*
X155041600Y-90510000D01*
X151975000Y-80510000D02*
X154592400Y-80510000D01*
D19*
X135978400Y-89980000D02*
X135940800Y-90017600D01*
X136990000Y-89980000D02*
X135978400Y-89980000D01*
X136049600Y-88080000D02*
X135940800Y-88188800D01*
X136990000Y-88080000D02*
X136049600Y-88080000D01*
X136138000Y-96149600D02*
X136138000Y-95498000D01*
X136138000Y-95498000D02*
X135940800Y-95300800D01*
X153822400Y-96926400D02*
X161544000Y-96926400D01*
X152375000Y-87990000D02*
X153623600Y-87990000D01*
X153623600Y-87990000D02*
X153822400Y-88188800D01*
X159308800Y-88798400D02*
X158033400Y-88798400D01*
X158033400Y-88798400D02*
X157975000Y-88740000D01*
D20*
X134920400Y-84730000D02*
X134924800Y-84734400D01*
X125000000Y-84730000D02*
X134920400Y-84730000D01*
D19*
X133908800Y-83515200D02*
X134315200Y-83108800D01*
X134315200Y-83108800D02*
X155854400Y-83108800D01*
X155854400Y-83108800D02*
X156525000Y-83779400D01*
X156525000Y-83779400D02*
X156525000Y-84490000D01*
X134112000Y-80467200D02*
X135128000Y-81483200D01*
X135128000Y-81483200D02*
X149352000Y-81483200D01*
X149758400Y-86156800D02*
X150341600Y-86740000D01*
X150341600Y-86740000D02*
X156525000Y-86740000D01*
X159308800Y-91440000D02*
X159308800Y-90627200D01*
X158902400Y-91846400D02*
X159308800Y-91440000D01*
X158089600Y-91846400D02*
X158902400Y-91846400D01*
X157638609Y-95954991D02*
X157638609Y-92297391D01*
X157638609Y-92297391D02*
X158089600Y-91846400D01*
X153212790Y-95954991D02*
X157638609Y-95954991D01*
X159308800Y-90627200D02*
X158087800Y-90627200D01*
X158087800Y-90627200D02*
X157975000Y-90740000D01*
X148742400Y-90424000D02*
X150689000Y-90424000D01*
X150689000Y-90424000D02*
X150775000Y-90510000D01*
X143256000Y-93587190D02*
X143256000Y-95820990D01*
X148742400Y-92252800D02*
X150517800Y-92252800D01*
X150517800Y-92252800D02*
X150775000Y-92510000D01*
X149191600Y-80510000D02*
X148945600Y-80264000D01*
X150525000Y-80510000D02*
X149191600Y-80510000D01*
X159308800Y-84328000D02*
X158137000Y-84328000D01*
X158137000Y-84328000D02*
X157975000Y-84490000D01*
X159308800Y-86563200D02*
X158151800Y-86563200D01*
X158151800Y-86563200D02*
X157975000Y-86740000D01*
X149148800Y-87985600D02*
X150620600Y-87985600D01*
X150620600Y-87985600D02*
X150625000Y-87990000D01*
D21*
G36*
X169138600Y-101879400D02*
X168409144Y-101879400D01*
X168409144Y-99477698D01*
X168397000Y-99235068D01*
X168397000Y-91238309D01*
X168397000Y-90635750D01*
X168397000Y-90064250D01*
X168397000Y-89461691D01*
X168300327Y-89228302D01*
X168121699Y-89049673D01*
X168092389Y-89037532D01*
X168092389Y-87593701D01*
X168092389Y-85053701D01*
X168092389Y-82513701D01*
X168092389Y-79973701D01*
X168092389Y-77433701D01*
X167926462Y-77032127D01*
X167619489Y-76724618D01*
X167218205Y-76557990D01*
X166783701Y-76557611D01*
X166382127Y-76723538D01*
X166074618Y-77030511D01*
X165907990Y-77431795D01*
X165907611Y-77866299D01*
X166073538Y-78267873D01*
X166380511Y-78575382D01*
X166781795Y-78742010D01*
X167216299Y-78742389D01*
X167617873Y-78576462D01*
X167925382Y-78269489D01*
X168092010Y-77868205D01*
X168092389Y-77433701D01*
X168092389Y-79973701D01*
X167926462Y-79572127D01*
X167619489Y-79264618D01*
X167218205Y-79097990D01*
X166783701Y-79097611D01*
X166382127Y-79263538D01*
X166074618Y-79570511D01*
X165907990Y-79971795D01*
X165907611Y-80406299D01*
X166073538Y-80807873D01*
X166380511Y-81115382D01*
X166781795Y-81282010D01*
X167216299Y-81282389D01*
X167617873Y-81116462D01*
X167925382Y-80809489D01*
X168092010Y-80408205D01*
X168092389Y-79973701D01*
X168092389Y-82513701D01*
X167926462Y-82112127D01*
X167619489Y-81804618D01*
X167218205Y-81637990D01*
X166783701Y-81637611D01*
X166382127Y-81803538D01*
X166074618Y-82110511D01*
X165907990Y-82511795D01*
X165907611Y-82946299D01*
X166073538Y-83347873D01*
X166380511Y-83655382D01*
X166781795Y-83822010D01*
X167216299Y-83822389D01*
X167617873Y-83656462D01*
X167925382Y-83349489D01*
X168092010Y-82948205D01*
X168092389Y-82513701D01*
X168092389Y-85053701D01*
X167926462Y-84652127D01*
X167619489Y-84344618D01*
X167218205Y-84177990D01*
X166783701Y-84177611D01*
X166382127Y-84343538D01*
X166074618Y-84650511D01*
X165907990Y-85051795D01*
X165907611Y-85486299D01*
X166073538Y-85887873D01*
X166380511Y-86195382D01*
X166781795Y-86362010D01*
X167216299Y-86362389D01*
X167617873Y-86196462D01*
X167925382Y-85889489D01*
X168092010Y-85488205D01*
X168092389Y-85053701D01*
X168092389Y-87593701D01*
X167926462Y-87192127D01*
X167619489Y-86884618D01*
X167218205Y-86717990D01*
X166783701Y-86717611D01*
X166382127Y-86883538D01*
X166074618Y-87190511D01*
X165907990Y-87591795D01*
X165907611Y-88026299D01*
X166073538Y-88427873D01*
X166380511Y-88735382D01*
X166781795Y-88902010D01*
X167216299Y-88902389D01*
X167617873Y-88736462D01*
X167925382Y-88429489D01*
X168092010Y-88028205D01*
X168092389Y-87593701D01*
X168092389Y-89037532D01*
X167888310Y-88953000D01*
X167635691Y-88953000D01*
X167285750Y-88953000D01*
X167127000Y-89111750D01*
X167127000Y-90223000D01*
X168238250Y-90223000D01*
X168397000Y-90064250D01*
X168397000Y-90635750D01*
X168238250Y-90477000D01*
X167127000Y-90477000D01*
X167127000Y-91588250D01*
X167285750Y-91747000D01*
X167635691Y-91747000D01*
X167888310Y-91747000D01*
X168121699Y-91650327D01*
X168300327Y-91471698D01*
X168397000Y-91238309D01*
X168397000Y-99235068D01*
X168381362Y-98922632D01*
X168222397Y-98538857D01*
X168098669Y-98503368D01*
X168098669Y-97492000D01*
X168098669Y-95968000D01*
X168074241Y-95842096D01*
X168001550Y-95731438D01*
X167891813Y-95657364D01*
X167762000Y-95631331D01*
X166873000Y-95631331D01*
X166873000Y-91588250D01*
X166873000Y-90477000D01*
X166873000Y-90223000D01*
X166873000Y-89111750D01*
X166714250Y-88953000D01*
X166364309Y-88953000D01*
X166111690Y-88953000D01*
X165878301Y-89049673D01*
X165699673Y-89228302D01*
X165603000Y-89461691D01*
X165603000Y-90064250D01*
X165761750Y-90223000D01*
X166873000Y-90223000D01*
X166873000Y-90477000D01*
X165761750Y-90477000D01*
X165603000Y-90635750D01*
X165603000Y-91238309D01*
X165699673Y-91471698D01*
X165878301Y-91650327D01*
X166111690Y-91747000D01*
X166364309Y-91747000D01*
X166714250Y-91747000D01*
X166873000Y-91588250D01*
X166873000Y-95631331D01*
X166238000Y-95631331D01*
X166112096Y-95655759D01*
X166001438Y-95728450D01*
X165927364Y-95838187D01*
X165901331Y-95968000D01*
X165901331Y-97492000D01*
X165925759Y-97617904D01*
X165998450Y-97728562D01*
X166108187Y-97802636D01*
X166238000Y-97828669D01*
X167762000Y-97828669D01*
X167887904Y-97804241D01*
X167998562Y-97731550D01*
X168072636Y-97621813D01*
X168098669Y-97492000D01*
X168098669Y-98503368D01*
X167980213Y-98469392D01*
X167800608Y-98648997D01*
X167800608Y-98289787D01*
X167731143Y-98047603D01*
X167207698Y-97860856D01*
X166652632Y-97888638D01*
X166268857Y-98047603D01*
X166199392Y-98289787D01*
X167000000Y-99090395D01*
X167800608Y-98289787D01*
X167800608Y-98648997D01*
X167179605Y-99270000D01*
X167980213Y-100070608D01*
X168222397Y-100001143D01*
X168409144Y-99477698D01*
X168409144Y-101879400D01*
X167800608Y-101879400D01*
X167800608Y-100250213D01*
X167000000Y-99449605D01*
X166820395Y-99629210D01*
X166820395Y-99270000D01*
X166019787Y-98469392D01*
X165777603Y-98538857D01*
X165590856Y-99062302D01*
X165618638Y-99617368D01*
X165777603Y-100001143D01*
X166019787Y-100070608D01*
X166820395Y-99270000D01*
X166820395Y-99629210D01*
X166199392Y-100250213D01*
X166268857Y-100492397D01*
X166792302Y-100679144D01*
X167347368Y-100651362D01*
X167731143Y-100492397D01*
X167800608Y-100250213D01*
X167800608Y-101879400D01*
X163906200Y-101879400D01*
X163906200Y-79248000D01*
X163906200Y-71120000D01*
X163896533Y-71071399D01*
X163869003Y-71030197D01*
X163827801Y-71002667D01*
X163779200Y-70993000D01*
X144272000Y-70993000D01*
X144223399Y-71002667D01*
X144182197Y-71030197D01*
X144154667Y-71071399D01*
X144145000Y-71120000D01*
X144145000Y-71323200D01*
X144145000Y-79248000D01*
X144154667Y-79296601D01*
X144182197Y-79337803D01*
X144223399Y-79365333D01*
X144272000Y-79375000D01*
X163779200Y-79375000D01*
X163827801Y-79365333D01*
X163869003Y-79337803D01*
X163896533Y-79296601D01*
X163906200Y-79248000D01*
X163906200Y-101879400D01*
X162179110Y-101879400D01*
X162179110Y-96800645D01*
X162082640Y-96567172D01*
X161904168Y-96388387D01*
X161670863Y-96291511D01*
X161418245Y-96291290D01*
X161184772Y-96387760D01*
X161077744Y-96494600D01*
X154288595Y-96494600D01*
X154182568Y-96388387D01*
X154178724Y-96386791D01*
X157638609Y-96386791D01*
X157803852Y-96353922D01*
X157943938Y-96260320D01*
X158037540Y-96120234D01*
X158070409Y-95954991D01*
X158070409Y-92476248D01*
X158268457Y-92278200D01*
X158902400Y-92278200D01*
X159067642Y-92245331D01*
X159067643Y-92245331D01*
X159207729Y-92151729D01*
X159614125Y-91745331D01*
X159614128Y-91745329D01*
X159614129Y-91745329D01*
X159707731Y-91605243D01*
X159740600Y-91440000D01*
X159740600Y-91093395D01*
X159846813Y-90987368D01*
X159943689Y-90754063D01*
X159943910Y-90501445D01*
X159847440Y-90267972D01*
X159668968Y-90089187D01*
X159435663Y-89992311D01*
X159183045Y-89992090D01*
X158949572Y-90088560D01*
X158842544Y-90195400D01*
X158773165Y-90195400D01*
X158762241Y-90139096D01*
X158689550Y-90028438D01*
X158579813Y-89954364D01*
X158450000Y-89928331D01*
X157500000Y-89928331D01*
X157374096Y-89952759D01*
X157263438Y-90025450D01*
X157250336Y-90044858D01*
X157239550Y-90028438D01*
X157160000Y-89974740D01*
X157160000Y-89504843D01*
X157236562Y-89454550D01*
X157249663Y-89435141D01*
X157260450Y-89451562D01*
X157370187Y-89525636D01*
X157500000Y-89551669D01*
X158450000Y-89551669D01*
X158575904Y-89527241D01*
X158686562Y-89454550D01*
X158760636Y-89344813D01*
X158783620Y-89230200D01*
X158842604Y-89230200D01*
X158948632Y-89336413D01*
X159181937Y-89433289D01*
X159434555Y-89433510D01*
X159668028Y-89337040D01*
X159846813Y-89158568D01*
X159943689Y-88925263D01*
X159943910Y-88672645D01*
X159943910Y-86437445D01*
X159943910Y-84202245D01*
X159847440Y-83968772D01*
X159668968Y-83789987D01*
X159435663Y-83693111D01*
X159183045Y-83692890D01*
X158949572Y-83789360D01*
X158842544Y-83896200D01*
X158763619Y-83896200D01*
X158762241Y-83889096D01*
X158689550Y-83778438D01*
X158579813Y-83704364D01*
X158450000Y-83678331D01*
X157500000Y-83678331D01*
X157374096Y-83702759D01*
X157263438Y-83775450D01*
X157250336Y-83794858D01*
X157239550Y-83778438D01*
X157129813Y-83704364D01*
X157000000Y-83678331D01*
X156936696Y-83678331D01*
X156923932Y-83614158D01*
X156923931Y-83614157D01*
X156892872Y-83567674D01*
X156830329Y-83474072D01*
X156830329Y-83474071D01*
X156830325Y-83474068D01*
X156159729Y-82803471D01*
X156019643Y-82709869D01*
X155854400Y-82677000D01*
X155270310Y-82677000D01*
X155270310Y-80341445D01*
X155221864Y-80224199D01*
X155221864Y-80224196D01*
X155221862Y-80224193D01*
X155173840Y-80107972D01*
X155084214Y-80018189D01*
X155084213Y-80018187D01*
X155084210Y-80018185D01*
X154995368Y-79929187D01*
X154878206Y-79880537D01*
X154878204Y-79880536D01*
X154878201Y-79880535D01*
X154762063Y-79832311D01*
X154635200Y-79832200D01*
X154635199Y-79832200D01*
X154509445Y-79832090D01*
X154405595Y-79875000D01*
X152739843Y-79875000D01*
X152689550Y-79798438D01*
X152579813Y-79724364D01*
X152450000Y-79698331D01*
X151500000Y-79698331D01*
X151374096Y-79722759D01*
X151263438Y-79795450D01*
X151250336Y-79814858D01*
X151239550Y-79798438D01*
X151129813Y-79724364D01*
X151000000Y-79698331D01*
X150050000Y-79698331D01*
X149924096Y-79722759D01*
X149813438Y-79795450D01*
X149739364Y-79905187D01*
X149713331Y-80035000D01*
X149713331Y-80078200D01*
X149555899Y-80078200D01*
X149484240Y-79904772D01*
X149305768Y-79725987D01*
X149072463Y-79629111D01*
X148819845Y-79628890D01*
X148586372Y-79725360D01*
X148407587Y-79903832D01*
X148310711Y-80137137D01*
X148310490Y-80389755D01*
X148406960Y-80623228D01*
X148585432Y-80802013D01*
X148818737Y-80898889D01*
X149011580Y-80899057D01*
X149026357Y-80908931D01*
X149026358Y-80908932D01*
X149061891Y-80916000D01*
X148992772Y-80944560D01*
X148885744Y-81051400D01*
X142455408Y-81051400D01*
X142455408Y-69011323D01*
X142455408Y-62511323D01*
X142272314Y-62068201D01*
X141933582Y-61728877D01*
X141490781Y-61545010D01*
X141011323Y-61544592D01*
X140568201Y-61727686D01*
X140228877Y-62066418D01*
X140045010Y-62509219D01*
X140044592Y-62988677D01*
X140227686Y-63431799D01*
X140566418Y-63771123D01*
X141009219Y-63954990D01*
X141488677Y-63955408D01*
X141931799Y-63772314D01*
X142271123Y-63433582D01*
X142454990Y-62990781D01*
X142455408Y-62511323D01*
X142455408Y-69011323D01*
X142272314Y-68568201D01*
X141933582Y-68228877D01*
X141490781Y-68045010D01*
X141011323Y-68044592D01*
X140568201Y-68227686D01*
X140228877Y-68566418D01*
X140045010Y-69009219D01*
X140044592Y-69488677D01*
X140227686Y-69931799D01*
X140566418Y-70271123D01*
X141009219Y-70454990D01*
X141488677Y-70455408D01*
X141931799Y-70272314D01*
X142271123Y-69933582D01*
X142454990Y-69490781D01*
X142455408Y-69011323D01*
X142455408Y-81051400D01*
X138271590Y-81051400D01*
X138271590Y-69484694D01*
X138271590Y-62984694D01*
X138245579Y-62384542D01*
X138065953Y-61950884D01*
X137812060Y-61867545D01*
X137632455Y-62047150D01*
X137632455Y-61687940D01*
X137549116Y-61434047D01*
X136984694Y-61228410D01*
X136384542Y-61254421D01*
X135950884Y-61434047D01*
X135867545Y-61687940D01*
X136750000Y-62570395D01*
X137632455Y-61687940D01*
X137632455Y-62047150D01*
X136929605Y-62750000D01*
X137812060Y-63632455D01*
X138065953Y-63549116D01*
X138271590Y-62984694D01*
X138271590Y-69484694D01*
X138245579Y-68884542D01*
X138065953Y-68450884D01*
X137812060Y-68367545D01*
X137632455Y-68547150D01*
X137632455Y-68187940D01*
X137632455Y-63812060D01*
X136750000Y-62929605D01*
X136570395Y-63109210D01*
X136570395Y-62750000D01*
X135687940Y-61867545D01*
X135434047Y-61950884D01*
X135228410Y-62515306D01*
X135254421Y-63115458D01*
X135434047Y-63549116D01*
X135687940Y-63632455D01*
X136570395Y-62750000D01*
X136570395Y-63109210D01*
X135867545Y-63812060D01*
X135950884Y-64065953D01*
X136515306Y-64271590D01*
X137115458Y-64245579D01*
X137549116Y-64065953D01*
X137632455Y-63812060D01*
X137632455Y-68187940D01*
X137549116Y-67934047D01*
X136984694Y-67728410D01*
X136384542Y-67754421D01*
X135950884Y-67934047D01*
X135867545Y-68187940D01*
X136750000Y-69070395D01*
X137632455Y-68187940D01*
X137632455Y-68547150D01*
X136929605Y-69250000D01*
X137812060Y-70132455D01*
X138065953Y-70049116D01*
X138271590Y-69484694D01*
X138271590Y-81051400D01*
X137632455Y-81051400D01*
X137632455Y-70312060D01*
X136750000Y-69429605D01*
X136570395Y-69609210D01*
X136570395Y-69250000D01*
X135687940Y-68367545D01*
X135434047Y-68450884D01*
X135228410Y-69015306D01*
X135254421Y-69615458D01*
X135434047Y-70049116D01*
X135687940Y-70132455D01*
X136570395Y-69250000D01*
X136570395Y-69609210D01*
X135867545Y-70312060D01*
X135950884Y-70565953D01*
X136515306Y-70771590D01*
X137115458Y-70745579D01*
X137549116Y-70565953D01*
X137632455Y-70312060D01*
X137632455Y-81051400D01*
X135306858Y-81051400D01*
X134746978Y-80491520D01*
X134747110Y-80341445D01*
X134650640Y-80107972D01*
X134472168Y-79929187D01*
X134238863Y-79832311D01*
X133986245Y-79832090D01*
X133752772Y-79928560D01*
X133573987Y-80107032D01*
X133477111Y-80340337D01*
X133476890Y-80592955D01*
X133573360Y-80826428D01*
X133751832Y-81005213D01*
X133985137Y-81102089D01*
X134136363Y-81102221D01*
X134822671Y-81788529D01*
X134962757Y-81882131D01*
X134962758Y-81882131D01*
X135128000Y-81915000D01*
X148885804Y-81915000D01*
X148991832Y-82021213D01*
X149225137Y-82118089D01*
X149477755Y-82118310D01*
X149711228Y-82021840D01*
X149890013Y-81843368D01*
X149986889Y-81610063D01*
X149987110Y-81357445D01*
X149965309Y-81304685D01*
X150050000Y-81321669D01*
X151000000Y-81321669D01*
X151125904Y-81297241D01*
X151236562Y-81224550D01*
X151249663Y-81205141D01*
X151260450Y-81221562D01*
X151370187Y-81295636D01*
X151500000Y-81321669D01*
X152450000Y-81321669D01*
X152575904Y-81297241D01*
X152686562Y-81224550D01*
X152740259Y-81145000D01*
X154592400Y-81145000D01*
X154835404Y-81096664D01*
X154933904Y-81030848D01*
X154994428Y-81005840D01*
X155041183Y-80959166D01*
X155041413Y-80959013D01*
X155084213Y-80916213D01*
X155084214Y-80916210D01*
X155173213Y-80827368D01*
X155221861Y-80710209D01*
X155221864Y-80710205D01*
X155221864Y-80710200D01*
X155270089Y-80594063D01*
X155270199Y-80467200D01*
X155270200Y-80467200D01*
X155270199Y-80467199D01*
X155270310Y-80341445D01*
X155270310Y-82677000D01*
X134315200Y-82677000D01*
X134149957Y-82709869D01*
X134009871Y-82803471D01*
X134009868Y-82803474D01*
X133933121Y-82880221D01*
X133783045Y-82880090D01*
X133549572Y-82976560D01*
X133370787Y-83155032D01*
X133273911Y-83388337D01*
X133273690Y-83640955D01*
X133370160Y-83874428D01*
X133548632Y-84053213D01*
X133649266Y-84095000D01*
X126409144Y-84095000D01*
X126409144Y-77317698D01*
X126381362Y-76762632D01*
X126222397Y-76378857D01*
X125980213Y-76309392D01*
X125800608Y-76488997D01*
X125800608Y-76129787D01*
X125731143Y-75887603D01*
X125207698Y-75700856D01*
X124652632Y-75728638D01*
X124268857Y-75887603D01*
X124199392Y-76129787D01*
X125000000Y-76930395D01*
X125800608Y-76129787D01*
X125800608Y-76488997D01*
X125179605Y-77110000D01*
X125980213Y-77910608D01*
X126222397Y-77841143D01*
X126409144Y-77317698D01*
X126409144Y-84095000D01*
X126092389Y-84095000D01*
X126092389Y-81973701D01*
X126092389Y-79433701D01*
X125926462Y-79032127D01*
X125800608Y-78906053D01*
X125800608Y-78090213D01*
X125000000Y-77289605D01*
X124820395Y-77469210D01*
X124820395Y-77110000D01*
X124019787Y-76309392D01*
X123777603Y-76378857D01*
X123590856Y-76902302D01*
X123618638Y-77457368D01*
X123777603Y-77841143D01*
X124019787Y-77910608D01*
X124820395Y-77110000D01*
X124820395Y-77469210D01*
X124199392Y-78090213D01*
X124268857Y-78332397D01*
X124792302Y-78519144D01*
X125347368Y-78491362D01*
X125731143Y-78332397D01*
X125800608Y-78090213D01*
X125800608Y-78906053D01*
X125619489Y-78724618D01*
X125218205Y-78557990D01*
X124783701Y-78557611D01*
X124382127Y-78723538D01*
X124074618Y-79030511D01*
X123907990Y-79431795D01*
X123907611Y-79866299D01*
X124073538Y-80267873D01*
X124380511Y-80575382D01*
X124781795Y-80742010D01*
X125216299Y-80742389D01*
X125617873Y-80576462D01*
X125925382Y-80269489D01*
X126092010Y-79868205D01*
X126092389Y-79433701D01*
X126092389Y-81973701D01*
X125926462Y-81572127D01*
X125619489Y-81264618D01*
X125218205Y-81097990D01*
X124783701Y-81097611D01*
X124382127Y-81263538D01*
X124074618Y-81570511D01*
X123907990Y-81971795D01*
X123907611Y-82406299D01*
X124073538Y-82807873D01*
X124380511Y-83115382D01*
X124781795Y-83282010D01*
X125216299Y-83282389D01*
X125617873Y-83116462D01*
X125925382Y-82809489D01*
X126092010Y-82408205D01*
X126092389Y-81973701D01*
X126092389Y-84095000D01*
X125909364Y-84095000D01*
X125619489Y-83804618D01*
X125218205Y-83637990D01*
X124783701Y-83637611D01*
X124382127Y-83803538D01*
X124074618Y-84110511D01*
X123907990Y-84511795D01*
X123907611Y-84946299D01*
X124073538Y-85347873D01*
X124380511Y-85655382D01*
X124781795Y-85822010D01*
X125216299Y-85822389D01*
X125617873Y-85656462D01*
X125909843Y-85365000D01*
X134787607Y-85365000D01*
X134797937Y-85369289D01*
X134924794Y-85369399D01*
X134924800Y-85369401D01*
X134924805Y-85369399D01*
X135050555Y-85369510D01*
X135167799Y-85321065D01*
X135167805Y-85321064D01*
X135167809Y-85321060D01*
X135284028Y-85273040D01*
X135373810Y-85183414D01*
X135373813Y-85183413D01*
X135373814Y-85183410D01*
X135462813Y-85094568D01*
X135511461Y-84977409D01*
X135511464Y-84977405D01*
X135511464Y-84977400D01*
X135559689Y-84861263D01*
X135559799Y-84734405D01*
X135559801Y-84734400D01*
X135559799Y-84734394D01*
X135559910Y-84608645D01*
X135511464Y-84491399D01*
X135511464Y-84491396D01*
X135511462Y-84491393D01*
X135463440Y-84375172D01*
X135373813Y-84285388D01*
X135284968Y-84196387D01*
X135173578Y-84150134D01*
X135163404Y-84143336D01*
X135151507Y-84140969D01*
X135051663Y-84099511D01*
X134942598Y-84099415D01*
X134920400Y-84095000D01*
X134168414Y-84095000D01*
X134268028Y-84053840D01*
X134446813Y-83875368D01*
X134543689Y-83642063D01*
X134543777Y-83540600D01*
X155675542Y-83540600D01*
X155871953Y-83737011D01*
X155813438Y-83775450D01*
X155739364Y-83885187D01*
X155713331Y-84015000D01*
X155713331Y-84965000D01*
X155737759Y-85090904D01*
X155810450Y-85201562D01*
X155920187Y-85275636D01*
X156050000Y-85301669D01*
X157000000Y-85301669D01*
X157125904Y-85277241D01*
X157236562Y-85204550D01*
X157249663Y-85185141D01*
X157260450Y-85201562D01*
X157370187Y-85275636D01*
X157500000Y-85301669D01*
X158450000Y-85301669D01*
X158575904Y-85277241D01*
X158686562Y-85204550D01*
X158760636Y-85094813D01*
X158786669Y-84965000D01*
X158786669Y-84759800D01*
X158842604Y-84759800D01*
X158948632Y-84866013D01*
X159181937Y-84962889D01*
X159434555Y-84963110D01*
X159668028Y-84866640D01*
X159846813Y-84688168D01*
X159943689Y-84454863D01*
X159943910Y-84202245D01*
X159943910Y-86437445D01*
X159847440Y-86203972D01*
X159668968Y-86025187D01*
X159435663Y-85928311D01*
X159183045Y-85928090D01*
X158949572Y-86024560D01*
X158842544Y-86131400D01*
X158757185Y-86131400D01*
X158689550Y-86028438D01*
X158579813Y-85954364D01*
X158450000Y-85928331D01*
X157500000Y-85928331D01*
X157374096Y-85952759D01*
X157263438Y-86025450D01*
X157250336Y-86044858D01*
X157239550Y-86028438D01*
X157129813Y-85954364D01*
X157000000Y-85928331D01*
X156050000Y-85928331D01*
X155924096Y-85952759D01*
X155813438Y-86025450D01*
X155739364Y-86135187D01*
X155713331Y-86265000D01*
X155713331Y-86308200D01*
X150520457Y-86308200D01*
X150393378Y-86181121D01*
X150393510Y-86031045D01*
X150297040Y-85797572D01*
X150118568Y-85618787D01*
X149885263Y-85521911D01*
X149632645Y-85521690D01*
X149399172Y-85618160D01*
X149220387Y-85796632D01*
X149123511Y-86029937D01*
X149123290Y-86282555D01*
X149219760Y-86516028D01*
X149398232Y-86694813D01*
X149631537Y-86791689D01*
X149782763Y-86791821D01*
X149965516Y-86974573D01*
X149949096Y-86977759D01*
X149838438Y-87050450D01*
X149764364Y-87160187D01*
X149738331Y-87290000D01*
X149738331Y-87553800D01*
X149614995Y-87553800D01*
X149508968Y-87447587D01*
X149275663Y-87350711D01*
X149023045Y-87350490D01*
X148789572Y-87446960D01*
X148610787Y-87625432D01*
X148513911Y-87858737D01*
X148513690Y-88111355D01*
X148610160Y-88344828D01*
X148788632Y-88523613D01*
X149021937Y-88620489D01*
X149274555Y-88620710D01*
X149508028Y-88524240D01*
X149615055Y-88417400D01*
X149738331Y-88417400D01*
X149738331Y-88690000D01*
X149762759Y-88815904D01*
X149835450Y-88926562D01*
X149945187Y-89000636D01*
X150075000Y-89026669D01*
X151175000Y-89026669D01*
X151300904Y-89002241D01*
X151411562Y-88929550D01*
X151485636Y-88819813D01*
X151499807Y-88749148D01*
X151512759Y-88815904D01*
X151585450Y-88926562D01*
X151695187Y-89000636D01*
X151825000Y-89026669D01*
X152925000Y-89026669D01*
X153050904Y-89002241D01*
X153161562Y-88929550D01*
X153235636Y-88819813D01*
X153261669Y-88690000D01*
X153261669Y-88494564D01*
X153283760Y-88548028D01*
X153462232Y-88726813D01*
X153695537Y-88823689D01*
X153948155Y-88823910D01*
X154181628Y-88727440D01*
X154360413Y-88548968D01*
X154457289Y-88315663D01*
X154457510Y-88063045D01*
X154361040Y-87829572D01*
X154182568Y-87650787D01*
X153949263Y-87553911D01*
X153696645Y-87553690D01*
X153665540Y-87566542D01*
X153665539Y-87566542D01*
X153623600Y-87558200D01*
X153261669Y-87558200D01*
X153261669Y-87290000D01*
X153238735Y-87171800D01*
X155713331Y-87171800D01*
X155713331Y-87215000D01*
X155737759Y-87340904D01*
X155810450Y-87451562D01*
X155920187Y-87525636D01*
X156050000Y-87551669D01*
X157000000Y-87551669D01*
X157125904Y-87527241D01*
X157236562Y-87454550D01*
X157249663Y-87435141D01*
X157260450Y-87451562D01*
X157370187Y-87525636D01*
X157500000Y-87551669D01*
X158450000Y-87551669D01*
X158575904Y-87527241D01*
X158686562Y-87454550D01*
X158760636Y-87344813D01*
X158786669Y-87215000D01*
X158786669Y-86995000D01*
X158842604Y-86995000D01*
X158948632Y-87101213D01*
X159181937Y-87198089D01*
X159434555Y-87198310D01*
X159668028Y-87101840D01*
X159846813Y-86923368D01*
X159943689Y-86690063D01*
X159943910Y-86437445D01*
X159943910Y-88672645D01*
X159847440Y-88439172D01*
X159668968Y-88260387D01*
X159435663Y-88163511D01*
X159183045Y-88163290D01*
X158949572Y-88259760D01*
X158842544Y-88366600D01*
X158786669Y-88366600D01*
X158786669Y-88265000D01*
X158762241Y-88139096D01*
X158689550Y-88028438D01*
X158579813Y-87954364D01*
X158450000Y-87928331D01*
X157500000Y-87928331D01*
X157374096Y-87952759D01*
X157263438Y-88025450D01*
X157250336Y-88044858D01*
X157239550Y-88028438D01*
X157129813Y-87954364D01*
X157000000Y-87928331D01*
X156050000Y-87928331D01*
X155924096Y-87952759D01*
X155813438Y-88025450D01*
X155739364Y-88135187D01*
X155713331Y-88265000D01*
X155713331Y-89215000D01*
X155737759Y-89340904D01*
X155810450Y-89451562D01*
X155890000Y-89505259D01*
X155890000Y-89875000D01*
X155375308Y-89875000D01*
X155284606Y-89837337D01*
X155284604Y-89837336D01*
X155284601Y-89837335D01*
X155168463Y-89789111D01*
X155041600Y-89789000D01*
X155041599Y-89789000D01*
X154915845Y-89788890D01*
X154798599Y-89837335D01*
X154798596Y-89837336D01*
X154798593Y-89837337D01*
X154707444Y-89875000D01*
X152989843Y-89875000D01*
X152939550Y-89798438D01*
X152829813Y-89724364D01*
X152700000Y-89698331D01*
X151750000Y-89698331D01*
X151624096Y-89722759D01*
X151513438Y-89795450D01*
X151500336Y-89814858D01*
X151489550Y-89798438D01*
X151379813Y-89724364D01*
X151250000Y-89698331D01*
X150300000Y-89698331D01*
X150174096Y-89722759D01*
X150063438Y-89795450D01*
X149989364Y-89905187D01*
X149971914Y-89992200D01*
X149208595Y-89992200D01*
X149102568Y-89885987D01*
X148869263Y-89789111D01*
X148616645Y-89788890D01*
X148383172Y-89885360D01*
X148204387Y-90063832D01*
X148107511Y-90297137D01*
X148107290Y-90549755D01*
X148203760Y-90783228D01*
X148382232Y-90962013D01*
X148615537Y-91058889D01*
X148868155Y-91059110D01*
X149101628Y-90962640D01*
X149208655Y-90855800D01*
X149963331Y-90855800D01*
X149963331Y-90985000D01*
X149987759Y-91110904D01*
X150060450Y-91221562D01*
X150170187Y-91295636D01*
X150300000Y-91321669D01*
X151250000Y-91321669D01*
X151375904Y-91297241D01*
X151486562Y-91224550D01*
X151499663Y-91205141D01*
X151510450Y-91221562D01*
X151590000Y-91275259D01*
X151590000Y-91745156D01*
X151513438Y-91795450D01*
X151500336Y-91814858D01*
X151489550Y-91798438D01*
X151379813Y-91724364D01*
X151250000Y-91698331D01*
X150300000Y-91698331D01*
X150174096Y-91722759D01*
X150063438Y-91795450D01*
X150046191Y-91821000D01*
X149208595Y-91821000D01*
X149102568Y-91714787D01*
X148869263Y-91617911D01*
X148616645Y-91617690D01*
X148383172Y-91714160D01*
X148204387Y-91892632D01*
X148107511Y-92125937D01*
X148107290Y-92378555D01*
X148203760Y-92612028D01*
X148382232Y-92790813D01*
X148615537Y-92887689D01*
X148868155Y-92887910D01*
X149101628Y-92791440D01*
X149208655Y-92684600D01*
X149963331Y-92684600D01*
X149963331Y-92985000D01*
X149987759Y-93110904D01*
X150060450Y-93221562D01*
X150170187Y-93295636D01*
X150300000Y-93321669D01*
X151250000Y-93321669D01*
X151375904Y-93297241D01*
X151486562Y-93224550D01*
X151499663Y-93205141D01*
X151510450Y-93221562D01*
X151590000Y-93275259D01*
X151590000Y-93993574D01*
X151544587Y-94038987D01*
X151544585Y-94038989D01*
X151455587Y-94127832D01*
X151406937Y-94244993D01*
X151406936Y-94244996D01*
X151406935Y-94244998D01*
X151358711Y-94361137D01*
X151358600Y-94487999D01*
X151358600Y-94488000D01*
X151358490Y-94613755D01*
X151406935Y-94731000D01*
X151406936Y-94731004D01*
X151406937Y-94731006D01*
X151454960Y-94847228D01*
X151544585Y-94937010D01*
X151544587Y-94937013D01*
X151544589Y-94937014D01*
X151633432Y-95026013D01*
X151750593Y-95074662D01*
X151750596Y-95074664D01*
X151750598Y-95074664D01*
X151866737Y-95122889D01*
X151993599Y-95122999D01*
X151993600Y-95123000D01*
X151993600Y-95122999D01*
X152119355Y-95123110D01*
X152236600Y-95074664D01*
X152236604Y-95074664D01*
X152236606Y-95074662D01*
X152352828Y-95026640D01*
X152442610Y-94937014D01*
X152442613Y-94937013D01*
X152443077Y-94936548D01*
X152531613Y-94848168D01*
X152531723Y-94847902D01*
X152674013Y-94705613D01*
X152811664Y-94499604D01*
X152860000Y-94256600D01*
X152860000Y-93274843D01*
X152936562Y-93224550D01*
X153010636Y-93114813D01*
X153036669Y-92985000D01*
X153036669Y-92035000D01*
X153012241Y-91909096D01*
X152939550Y-91798438D01*
X152860000Y-91744740D01*
X152860000Y-91274843D01*
X152936562Y-91224550D01*
X152990259Y-91145000D01*
X155041600Y-91145000D01*
X155713331Y-91145000D01*
X155713331Y-91215000D01*
X155737759Y-91340904D01*
X155810450Y-91451562D01*
X155829000Y-91464083D01*
X155829000Y-95300800D01*
X155828890Y-95426555D01*
X155868819Y-95523191D01*
X153678985Y-95523191D01*
X153572958Y-95416978D01*
X153339653Y-95320102D01*
X153087035Y-95319881D01*
X152853562Y-95416351D01*
X152674777Y-95594823D01*
X152577901Y-95828128D01*
X152577680Y-96080746D01*
X152674150Y-96314219D01*
X152852622Y-96493004D01*
X153085927Y-96589880D01*
X153274499Y-96590044D01*
X153187511Y-96799537D01*
X153187290Y-97052155D01*
X153283760Y-97285628D01*
X153462232Y-97464413D01*
X153695537Y-97561289D01*
X153948155Y-97561510D01*
X154181628Y-97465040D01*
X154288655Y-97358200D01*
X161077804Y-97358200D01*
X161183832Y-97464413D01*
X161417137Y-97561289D01*
X161669755Y-97561510D01*
X161903228Y-97465040D01*
X162082013Y-97286568D01*
X162178889Y-97053263D01*
X162179110Y-96800645D01*
X162179110Y-101879400D01*
X162153600Y-101879400D01*
X162104999Y-101889067D01*
X162063797Y-101916597D01*
X162036267Y-101957799D01*
X162026600Y-102006400D01*
X162026600Y-109194600D01*
X149682200Y-109194600D01*
X149682200Y-108712000D01*
X149682200Y-100584000D01*
X149672533Y-100535399D01*
X149645003Y-100494197D01*
X149603801Y-100466667D01*
X149555200Y-100457000D01*
X148785000Y-100457000D01*
X148785000Y-96766310D01*
X148785000Y-96525750D01*
X148785000Y-95954250D01*
X148785000Y-95713690D01*
X148688327Y-95480301D01*
X148509698Y-95301673D01*
X148276309Y-95205000D01*
X148035750Y-95205000D01*
X147877000Y-95363750D01*
X147877000Y-96113000D01*
X148626250Y-96113000D01*
X148785000Y-95954250D01*
X148785000Y-96525750D01*
X148626250Y-96367000D01*
X147877000Y-96367000D01*
X147877000Y-97116250D01*
X148035750Y-97275000D01*
X148276309Y-97275000D01*
X148509698Y-97178327D01*
X148688327Y-96999699D01*
X148785000Y-96766310D01*
X148785000Y-100457000D01*
X147623000Y-100457000D01*
X147623000Y-97116250D01*
X147623000Y-96367000D01*
X147603000Y-96367000D01*
X147603000Y-96113000D01*
X147623000Y-96113000D01*
X147623000Y-95363750D01*
X147464250Y-95205000D01*
X147223691Y-95205000D01*
X146990302Y-95301673D01*
X146811673Y-95480301D01*
X146788829Y-95535450D01*
X146779813Y-95529364D01*
X146650000Y-95503331D01*
X146501069Y-95503331D01*
X146532489Y-95427663D01*
X146532710Y-95175045D01*
X146436240Y-94941572D01*
X146257768Y-94762787D01*
X146024463Y-94665911D01*
X145771845Y-94665690D01*
X145538372Y-94762160D01*
X145359587Y-94940632D01*
X145262711Y-95173937D01*
X145262490Y-95426555D01*
X145358960Y-95660028D01*
X145465800Y-95767055D01*
X145465800Y-95887600D01*
X145498669Y-96052843D01*
X145513331Y-96074786D01*
X145513331Y-96640000D01*
X145537759Y-96765904D01*
X145610450Y-96876562D01*
X145720187Y-96950636D01*
X145850000Y-96976669D01*
X146650000Y-96976669D01*
X146775904Y-96952241D01*
X146788569Y-96943921D01*
X146811673Y-96999699D01*
X146990302Y-97178327D01*
X147223691Y-97275000D01*
X147464250Y-97275000D01*
X147623000Y-97116250D01*
X147623000Y-100457000D01*
X144068800Y-100457000D01*
X144020199Y-100466667D01*
X143978997Y-100494197D01*
X143951467Y-100535399D01*
X143941800Y-100584000D01*
X143941800Y-102616000D01*
X143951467Y-102664601D01*
X143978997Y-102705803D01*
X144020199Y-102733333D01*
X144068800Y-102743000D01*
X147048832Y-102743000D01*
X147396200Y-103264052D01*
X147396200Y-108712000D01*
X147405867Y-108760601D01*
X147433397Y-108801803D01*
X147474599Y-108829333D01*
X147523200Y-108839000D01*
X149555200Y-108839000D01*
X149603801Y-108829333D01*
X149645003Y-108801803D01*
X149672533Y-108760601D01*
X149682200Y-108712000D01*
X149682200Y-109194600D01*
X143891110Y-109194600D01*
X143891110Y-95695235D01*
X143794640Y-95461762D01*
X143687800Y-95354734D01*
X143687800Y-94053385D01*
X143794013Y-93947358D01*
X143890889Y-93714053D01*
X143891110Y-93461435D01*
X143794640Y-93227962D01*
X143616168Y-93049177D01*
X143382863Y-92952301D01*
X143130245Y-92952080D01*
X142896772Y-93048550D01*
X142717987Y-93227022D01*
X142621111Y-93460327D01*
X142620890Y-93712945D01*
X142717360Y-93946418D01*
X142824200Y-94053445D01*
X142824200Y-95354794D01*
X142717987Y-95460822D01*
X142621111Y-95694127D01*
X142620890Y-95946745D01*
X142717360Y-96180218D01*
X142895832Y-96359003D01*
X143129137Y-96455879D01*
X143381755Y-96456100D01*
X143615228Y-96359630D01*
X143794013Y-96181158D01*
X143890889Y-95947853D01*
X143891110Y-95695235D01*
X143891110Y-109194600D01*
X141859110Y-109194600D01*
X141859110Y-84405445D01*
X141810664Y-84288199D01*
X141810664Y-84288196D01*
X141810662Y-84288193D01*
X141762640Y-84171972D01*
X141673014Y-84082189D01*
X141673013Y-84082187D01*
X141673010Y-84082185D01*
X141584168Y-83993187D01*
X141467006Y-83944537D01*
X141467004Y-83944536D01*
X141467001Y-83944535D01*
X141350863Y-83896311D01*
X141224000Y-83896200D01*
X141223999Y-83896200D01*
X141098245Y-83896090D01*
X140980999Y-83944535D01*
X140980996Y-83944536D01*
X140980993Y-83944537D01*
X140864772Y-83992560D01*
X140774989Y-84082185D01*
X140774987Y-84082187D01*
X140774522Y-84082651D01*
X140685987Y-84171032D01*
X140685876Y-84171297D01*
X140571787Y-84285387D01*
X140434136Y-84491396D01*
X140385800Y-84734400D01*
X140385800Y-88188799D01*
X140385800Y-88188800D01*
X140385800Y-88188817D01*
X140385690Y-88314555D01*
X140385800Y-88314821D01*
X140385800Y-94488000D01*
X140385690Y-94613755D01*
X140434135Y-94731000D01*
X140434136Y-94731004D01*
X140434137Y-94731006D01*
X140482160Y-94847228D01*
X140571785Y-94937010D01*
X140571787Y-94937013D01*
X140571789Y-94937014D01*
X140660632Y-95026013D01*
X140777793Y-95074662D01*
X140777796Y-95074664D01*
X140777798Y-95074664D01*
X140893937Y-95122889D01*
X141020799Y-95122999D01*
X141020800Y-95123000D01*
X141020800Y-95122999D01*
X141146555Y-95123110D01*
X141263800Y-95074664D01*
X141263804Y-95074664D01*
X141263806Y-95074662D01*
X141380028Y-95026640D01*
X141469810Y-94937014D01*
X141469813Y-94937013D01*
X141469814Y-94937010D01*
X141558813Y-94848168D01*
X141607462Y-94731006D01*
X141607464Y-94731004D01*
X141607464Y-94731001D01*
X141655689Y-94614863D01*
X141655799Y-94488000D01*
X141655800Y-94488000D01*
X141655800Y-94487982D01*
X141655910Y-94362245D01*
X141655800Y-94361978D01*
X141655800Y-88188800D01*
X141655800Y-88188782D01*
X141655910Y-88063045D01*
X141655800Y-88062778D01*
X141655800Y-84997426D01*
X141673013Y-84980213D01*
X141673014Y-84980210D01*
X141762013Y-84891368D01*
X141810662Y-84774206D01*
X141810664Y-84774204D01*
X141810664Y-84774201D01*
X141858889Y-84658063D01*
X141858999Y-84531200D01*
X141859000Y-84531200D01*
X141858999Y-84531199D01*
X141859110Y-84405445D01*
X141859110Y-109194600D01*
X140075000Y-109194600D01*
X140075000Y-89556309D01*
X140075000Y-89315750D01*
X140075000Y-88744250D01*
X140075000Y-88503691D01*
X139978327Y-88270302D01*
X139799699Y-88091673D01*
X139566310Y-87995000D01*
X139313691Y-87995000D01*
X139275750Y-87995000D01*
X139117000Y-88153750D01*
X139117000Y-88903000D01*
X139916250Y-88903000D01*
X140075000Y-88744250D01*
X140075000Y-89315750D01*
X139916250Y-89157000D01*
X139117000Y-89157000D01*
X139117000Y-89906250D01*
X139275750Y-90065000D01*
X139313691Y-90065000D01*
X139566310Y-90065000D01*
X139799699Y-89968327D01*
X139978327Y-89789698D01*
X140075000Y-89556309D01*
X140075000Y-109194600D01*
X138863000Y-109194600D01*
X138863000Y-89906250D01*
X138863000Y-89157000D01*
X138863000Y-88903000D01*
X138863000Y-88153750D01*
X138704250Y-87995000D01*
X138666309Y-87995000D01*
X138413690Y-87995000D01*
X138180301Y-88091673D01*
X138001673Y-88270302D01*
X137905000Y-88503691D01*
X137905000Y-88744250D01*
X138063750Y-88903000D01*
X138863000Y-88903000D01*
X138863000Y-89157000D01*
X138063750Y-89157000D01*
X137905000Y-89315750D01*
X137905000Y-89556309D01*
X138001673Y-89789698D01*
X138180301Y-89968327D01*
X138413690Y-90065000D01*
X138666309Y-90065000D01*
X138704250Y-90065000D01*
X138863000Y-89906250D01*
X138863000Y-109194600D01*
X137776669Y-109194600D01*
X137776669Y-90380000D01*
X137776669Y-89580000D01*
X137776669Y-88480000D01*
X137776669Y-87680000D01*
X137752241Y-87554096D01*
X137679550Y-87443438D01*
X137569813Y-87369364D01*
X137440000Y-87343331D01*
X136540000Y-87343331D01*
X136414096Y-87367759D01*
X136303438Y-87440450D01*
X136229364Y-87550187D01*
X136216244Y-87615606D01*
X136067663Y-87553911D01*
X135815045Y-87553690D01*
X135581572Y-87650160D01*
X135402787Y-87828632D01*
X135305911Y-88061937D01*
X135305690Y-88314555D01*
X135402160Y-88548028D01*
X135580632Y-88726813D01*
X135813937Y-88823689D01*
X136066555Y-88823910D01*
X136300028Y-88727440D01*
X136306699Y-88720780D01*
X136410187Y-88790636D01*
X136540000Y-88816669D01*
X137440000Y-88816669D01*
X137565904Y-88792241D01*
X137676562Y-88719550D01*
X137750636Y-88609813D01*
X137776669Y-88480000D01*
X137776669Y-89580000D01*
X137752241Y-89454096D01*
X137679550Y-89343438D01*
X137569813Y-89269364D01*
X137440000Y-89243331D01*
X136540000Y-89243331D01*
X136414096Y-89267759D01*
X136303438Y-89340450D01*
X136229539Y-89449927D01*
X136067663Y-89382711D01*
X135815045Y-89382490D01*
X135581572Y-89478960D01*
X135402787Y-89657432D01*
X135305911Y-89890737D01*
X135305690Y-90143355D01*
X135402160Y-90376828D01*
X135580632Y-90555613D01*
X135813937Y-90652489D01*
X136066555Y-90652710D01*
X136269193Y-90568980D01*
X136300450Y-90616562D01*
X136410187Y-90690636D01*
X136540000Y-90716669D01*
X137440000Y-90716669D01*
X137565904Y-90692241D01*
X137676562Y-90619550D01*
X137750636Y-90509813D01*
X137776669Y-90380000D01*
X137776669Y-109194600D01*
X136924669Y-109194600D01*
X136924669Y-98449600D01*
X136924669Y-97649600D01*
X136924669Y-96549600D01*
X136924669Y-95749600D01*
X136900241Y-95623696D01*
X136827550Y-95513038D01*
X136717813Y-95438964D01*
X136588000Y-95412931D01*
X136575701Y-95412931D01*
X136575910Y-95175045D01*
X136479440Y-94941572D01*
X136300968Y-94762787D01*
X136067663Y-94665911D01*
X135815045Y-94665690D01*
X135581572Y-94762160D01*
X135402787Y-94940632D01*
X135305911Y-95173937D01*
X135305690Y-95426555D01*
X135382430Y-95612280D01*
X135377364Y-95619787D01*
X135351331Y-95749600D01*
X135351331Y-96549600D01*
X135375759Y-96675504D01*
X135448450Y-96786162D01*
X135558187Y-96860236D01*
X135688000Y-96886269D01*
X136588000Y-96886269D01*
X136713904Y-96861841D01*
X136824562Y-96789150D01*
X136898636Y-96679413D01*
X136924669Y-96549600D01*
X136924669Y-97649600D01*
X136900241Y-97523696D01*
X136827550Y-97413038D01*
X136717813Y-97338964D01*
X136588000Y-97312931D01*
X135688000Y-97312931D01*
X135562096Y-97337359D01*
X135451438Y-97410050D01*
X135377364Y-97519787D01*
X135351331Y-97649600D01*
X135351331Y-98449600D01*
X135375759Y-98575504D01*
X135448450Y-98686162D01*
X135558187Y-98760236D01*
X135688000Y-98786269D01*
X136588000Y-98786269D01*
X136713904Y-98761841D01*
X136824562Y-98689150D01*
X136898636Y-98579413D01*
X136924669Y-98449600D01*
X136924669Y-109194600D01*
X135223000Y-109194600D01*
X135223000Y-97625909D01*
X135223000Y-97385350D01*
X135223000Y-96813850D01*
X135223000Y-96573291D01*
X135126327Y-96339902D01*
X134947699Y-96161273D01*
X134714310Y-96064600D01*
X134461691Y-96064600D01*
X134423750Y-96064600D01*
X134265000Y-96223350D01*
X134265000Y-96972600D01*
X135064250Y-96972600D01*
X135223000Y-96813850D01*
X135223000Y-97385350D01*
X135064250Y-97226600D01*
X134265000Y-97226600D01*
X134265000Y-97975850D01*
X134423750Y-98134600D01*
X134461691Y-98134600D01*
X134714310Y-98134600D01*
X134947699Y-98037927D01*
X135126327Y-97859298D01*
X135223000Y-97625909D01*
X135223000Y-109194600D01*
X134011000Y-109194600D01*
X134011000Y-97975850D01*
X134011000Y-97226600D01*
X134011000Y-96972600D01*
X134011000Y-96223350D01*
X133852250Y-96064600D01*
X133814309Y-96064600D01*
X133561690Y-96064600D01*
X133328301Y-96161273D01*
X133149673Y-96339902D01*
X133053000Y-96573291D01*
X133053000Y-96813850D01*
X133211750Y-96972600D01*
X134011000Y-96972600D01*
X134011000Y-97226600D01*
X133211750Y-97226600D01*
X133053000Y-97385350D01*
X133053000Y-97625909D01*
X133149673Y-97859298D01*
X133328301Y-98037927D01*
X133561690Y-98134600D01*
X133814309Y-98134600D01*
X133852250Y-98134600D01*
X134011000Y-97975850D01*
X134011000Y-109194600D01*
X128143000Y-109194600D01*
X128143000Y-102006400D01*
X128133333Y-101957799D01*
X128105803Y-101916597D01*
X128064601Y-101889067D01*
X128016000Y-101879400D01*
X126098669Y-101879400D01*
X126098669Y-95652000D01*
X126098669Y-94128000D01*
X126092389Y-94095632D01*
X126092389Y-92133701D01*
X126092389Y-89593701D01*
X126092389Y-87053701D01*
X125926462Y-86652127D01*
X125619489Y-86344618D01*
X125218205Y-86177990D01*
X124783701Y-86177611D01*
X124382127Y-86343538D01*
X124074618Y-86650511D01*
X123907990Y-87051795D01*
X123907611Y-87486299D01*
X124073538Y-87887873D01*
X124380511Y-88195382D01*
X124781795Y-88362010D01*
X125216299Y-88362389D01*
X125617873Y-88196462D01*
X125925382Y-87889489D01*
X126092010Y-87488205D01*
X126092389Y-87053701D01*
X126092389Y-89593701D01*
X125926462Y-89192127D01*
X125619489Y-88884618D01*
X125218205Y-88717990D01*
X124783701Y-88717611D01*
X124382127Y-88883538D01*
X124074618Y-89190511D01*
X123907990Y-89591795D01*
X123907611Y-90026299D01*
X124073538Y-90427873D01*
X124380511Y-90735382D01*
X124781795Y-90902010D01*
X125216299Y-90902389D01*
X125617873Y-90736462D01*
X125925382Y-90429489D01*
X126092010Y-90028205D01*
X126092389Y-89593701D01*
X126092389Y-92133701D01*
X125926462Y-91732127D01*
X125619489Y-91424618D01*
X125218205Y-91257990D01*
X124783701Y-91257611D01*
X124382127Y-91423538D01*
X124074618Y-91730511D01*
X123907990Y-92131795D01*
X123907611Y-92566299D01*
X124073538Y-92967873D01*
X124380511Y-93275382D01*
X124781795Y-93442010D01*
X125216299Y-93442389D01*
X125617873Y-93276462D01*
X125925382Y-92969489D01*
X126092010Y-92568205D01*
X126092389Y-92133701D01*
X126092389Y-94095632D01*
X126074241Y-94002096D01*
X126001550Y-93891438D01*
X125891813Y-93817364D01*
X125762000Y-93791331D01*
X124238000Y-93791331D01*
X124112096Y-93815759D01*
X124001438Y-93888450D01*
X123927364Y-93998187D01*
X123901331Y-94128000D01*
X123901331Y-95652000D01*
X123925759Y-95777904D01*
X123998450Y-95888562D01*
X124108187Y-95962636D01*
X124238000Y-95988669D01*
X125762000Y-95988669D01*
X125887904Y-95964241D01*
X125998562Y-95891550D01*
X126072636Y-95781813D01*
X126098669Y-95652000D01*
X126098669Y-101879400D01*
X120827800Y-101879400D01*
X120827800Y-67995800D01*
X128016000Y-67995800D01*
X128064601Y-67986133D01*
X128105803Y-67958603D01*
X128133333Y-67917401D01*
X128143000Y-67868800D01*
X128143000Y-60680600D01*
X162026600Y-60680600D01*
X162026600Y-67868800D01*
X162036267Y-67917401D01*
X162063797Y-67958603D01*
X162104999Y-67986133D01*
X162153600Y-67995800D01*
X169138600Y-67995800D01*
X169138600Y-101879400D01*
X169138600Y-101879400D01*
G37*
X169138600Y-101879400D02*
X168409144Y-101879400D01*
X168409144Y-99477698D01*
X168397000Y-99235068D01*
X168397000Y-91238309D01*
X168397000Y-90635750D01*
X168397000Y-90064250D01*
X168397000Y-89461691D01*
X168300327Y-89228302D01*
X168121699Y-89049673D01*
X168092389Y-89037532D01*
X168092389Y-87593701D01*
X168092389Y-85053701D01*
X168092389Y-82513701D01*
X168092389Y-79973701D01*
X168092389Y-77433701D01*
X167926462Y-77032127D01*
X167619489Y-76724618D01*
X167218205Y-76557990D01*
X166783701Y-76557611D01*
X166382127Y-76723538D01*
X166074618Y-77030511D01*
X165907990Y-77431795D01*
X165907611Y-77866299D01*
X166073538Y-78267873D01*
X166380511Y-78575382D01*
X166781795Y-78742010D01*
X167216299Y-78742389D01*
X167617873Y-78576462D01*
X167925382Y-78269489D01*
X168092010Y-77868205D01*
X168092389Y-77433701D01*
X168092389Y-79973701D01*
X167926462Y-79572127D01*
X167619489Y-79264618D01*
X167218205Y-79097990D01*
X166783701Y-79097611D01*
X166382127Y-79263538D01*
X166074618Y-79570511D01*
X165907990Y-79971795D01*
X165907611Y-80406299D01*
X166073538Y-80807873D01*
X166380511Y-81115382D01*
X166781795Y-81282010D01*
X167216299Y-81282389D01*
X167617873Y-81116462D01*
X167925382Y-80809489D01*
X168092010Y-80408205D01*
X168092389Y-79973701D01*
X168092389Y-82513701D01*
X167926462Y-82112127D01*
X167619489Y-81804618D01*
X167218205Y-81637990D01*
X166783701Y-81637611D01*
X166382127Y-81803538D01*
X166074618Y-82110511D01*
X165907990Y-82511795D01*
X165907611Y-82946299D01*
X166073538Y-83347873D01*
X166380511Y-83655382D01*
X166781795Y-83822010D01*
X167216299Y-83822389D01*
X167617873Y-83656462D01*
X167925382Y-83349489D01*
X168092010Y-82948205D01*
X168092389Y-82513701D01*
X168092389Y-85053701D01*
X167926462Y-84652127D01*
X167619489Y-84344618D01*
X167218205Y-84177990D01*
X166783701Y-84177611D01*
X166382127Y-84343538D01*
X166074618Y-84650511D01*
X165907990Y-85051795D01*
X165907611Y-85486299D01*
X166073538Y-85887873D01*
X166380511Y-86195382D01*
X166781795Y-86362010D01*
X167216299Y-86362389D01*
X167617873Y-86196462D01*
X167925382Y-85889489D01*
X168092010Y-85488205D01*
X168092389Y-85053701D01*
X168092389Y-87593701D01*
X167926462Y-87192127D01*
X167619489Y-86884618D01*
X167218205Y-86717990D01*
X166783701Y-86717611D01*
X166382127Y-86883538D01*
X166074618Y-87190511D01*
X165907990Y-87591795D01*
X165907611Y-88026299D01*
X166073538Y-88427873D01*
X166380511Y-88735382D01*
X166781795Y-88902010D01*
X167216299Y-88902389D01*
X167617873Y-88736462D01*
X167925382Y-88429489D01*
X168092010Y-88028205D01*
X168092389Y-87593701D01*
X168092389Y-89037532D01*
X167888310Y-88953000D01*
X167635691Y-88953000D01*
X167285750Y-88953000D01*
X167127000Y-89111750D01*
X167127000Y-90223000D01*
X168238250Y-90223000D01*
X168397000Y-90064250D01*
X168397000Y-90635750D01*
X168238250Y-90477000D01*
X167127000Y-90477000D01*
X167127000Y-91588250D01*
X167285750Y-91747000D01*
X167635691Y-91747000D01*
X167888310Y-91747000D01*
X168121699Y-91650327D01*
X168300327Y-91471698D01*
X168397000Y-91238309D01*
X168397000Y-99235068D01*
X168381362Y-98922632D01*
X168222397Y-98538857D01*
X168098669Y-98503368D01*
X168098669Y-97492000D01*
X168098669Y-95968000D01*
X168074241Y-95842096D01*
X168001550Y-95731438D01*
X167891813Y-95657364D01*
X167762000Y-95631331D01*
X166873000Y-95631331D01*
X166873000Y-91588250D01*
X166873000Y-90477000D01*
X166873000Y-90223000D01*
X166873000Y-89111750D01*
X166714250Y-88953000D01*
X166364309Y-88953000D01*
X166111690Y-88953000D01*
X165878301Y-89049673D01*
X165699673Y-89228302D01*
X165603000Y-89461691D01*
X165603000Y-90064250D01*
X165761750Y-90223000D01*
X166873000Y-90223000D01*
X166873000Y-90477000D01*
X165761750Y-90477000D01*
X165603000Y-90635750D01*
X165603000Y-91238309D01*
X165699673Y-91471698D01*
X165878301Y-91650327D01*
X166111690Y-91747000D01*
X166364309Y-91747000D01*
X166714250Y-91747000D01*
X166873000Y-91588250D01*
X166873000Y-95631331D01*
X166238000Y-95631331D01*
X166112096Y-95655759D01*
X166001438Y-95728450D01*
X165927364Y-95838187D01*
X165901331Y-95968000D01*
X165901331Y-97492000D01*
X165925759Y-97617904D01*
X165998450Y-97728562D01*
X166108187Y-97802636D01*
X166238000Y-97828669D01*
X167762000Y-97828669D01*
X167887904Y-97804241D01*
X167998562Y-97731550D01*
X168072636Y-97621813D01*
X168098669Y-97492000D01*
X168098669Y-98503368D01*
X167980213Y-98469392D01*
X167800608Y-98648997D01*
X167800608Y-98289787D01*
X167731143Y-98047603D01*
X167207698Y-97860856D01*
X166652632Y-97888638D01*
X166268857Y-98047603D01*
X166199392Y-98289787D01*
X167000000Y-99090395D01*
X167800608Y-98289787D01*
X167800608Y-98648997D01*
X167179605Y-99270000D01*
X167980213Y-100070608D01*
X168222397Y-100001143D01*
X168409144Y-99477698D01*
X168409144Y-101879400D01*
X167800608Y-101879400D01*
X167800608Y-100250213D01*
X167000000Y-99449605D01*
X166820395Y-99629210D01*
X166820395Y-99270000D01*
X166019787Y-98469392D01*
X165777603Y-98538857D01*
X165590856Y-99062302D01*
X165618638Y-99617368D01*
X165777603Y-100001143D01*
X166019787Y-100070608D01*
X166820395Y-99270000D01*
X166820395Y-99629210D01*
X166199392Y-100250213D01*
X166268857Y-100492397D01*
X166792302Y-100679144D01*
X167347368Y-100651362D01*
X167731143Y-100492397D01*
X167800608Y-100250213D01*
X167800608Y-101879400D01*
X163906200Y-101879400D01*
X163906200Y-79248000D01*
X163906200Y-71120000D01*
X163896533Y-71071399D01*
X163869003Y-71030197D01*
X163827801Y-71002667D01*
X163779200Y-70993000D01*
X144272000Y-70993000D01*
X144223399Y-71002667D01*
X144182197Y-71030197D01*
X144154667Y-71071399D01*
X144145000Y-71120000D01*
X144145000Y-71323200D01*
X144145000Y-79248000D01*
X144154667Y-79296601D01*
X144182197Y-79337803D01*
X144223399Y-79365333D01*
X144272000Y-79375000D01*
X163779200Y-79375000D01*
X163827801Y-79365333D01*
X163869003Y-79337803D01*
X163896533Y-79296601D01*
X163906200Y-79248000D01*
X163906200Y-101879400D01*
X162179110Y-101879400D01*
X162179110Y-96800645D01*
X162082640Y-96567172D01*
X161904168Y-96388387D01*
X161670863Y-96291511D01*
X161418245Y-96291290D01*
X161184772Y-96387760D01*
X161077744Y-96494600D01*
X154288595Y-96494600D01*
X154182568Y-96388387D01*
X154178724Y-96386791D01*
X157638609Y-96386791D01*
X157803852Y-96353922D01*
X157943938Y-96260320D01*
X158037540Y-96120234D01*
X158070409Y-95954991D01*
X158070409Y-92476248D01*
X158268457Y-92278200D01*
X158902400Y-92278200D01*
X159067642Y-92245331D01*
X159067643Y-92245331D01*
X159207729Y-92151729D01*
X159614125Y-91745331D01*
X159614128Y-91745329D01*
X159614129Y-91745329D01*
X159707731Y-91605243D01*
X159740600Y-91440000D01*
X159740600Y-91093395D01*
X159846813Y-90987368D01*
X159943689Y-90754063D01*
X159943910Y-90501445D01*
X159847440Y-90267972D01*
X159668968Y-90089187D01*
X159435663Y-89992311D01*
X159183045Y-89992090D01*
X158949572Y-90088560D01*
X158842544Y-90195400D01*
X158773165Y-90195400D01*
X158762241Y-90139096D01*
X158689550Y-90028438D01*
X158579813Y-89954364D01*
X158450000Y-89928331D01*
X157500000Y-89928331D01*
X157374096Y-89952759D01*
X157263438Y-90025450D01*
X157250336Y-90044858D01*
X157239550Y-90028438D01*
X157160000Y-89974740D01*
X157160000Y-89504843D01*
X157236562Y-89454550D01*
X157249663Y-89435141D01*
X157260450Y-89451562D01*
X157370187Y-89525636D01*
X157500000Y-89551669D01*
X158450000Y-89551669D01*
X158575904Y-89527241D01*
X158686562Y-89454550D01*
X158760636Y-89344813D01*
X158783620Y-89230200D01*
X158842604Y-89230200D01*
X158948632Y-89336413D01*
X159181937Y-89433289D01*
X159434555Y-89433510D01*
X159668028Y-89337040D01*
X159846813Y-89158568D01*
X159943689Y-88925263D01*
X159943910Y-88672645D01*
X159943910Y-86437445D01*
X159943910Y-84202245D01*
X159847440Y-83968772D01*
X159668968Y-83789987D01*
X159435663Y-83693111D01*
X159183045Y-83692890D01*
X158949572Y-83789360D01*
X158842544Y-83896200D01*
X158763619Y-83896200D01*
X158762241Y-83889096D01*
X158689550Y-83778438D01*
X158579813Y-83704364D01*
X158450000Y-83678331D01*
X157500000Y-83678331D01*
X157374096Y-83702759D01*
X157263438Y-83775450D01*
X157250336Y-83794858D01*
X157239550Y-83778438D01*
X157129813Y-83704364D01*
X157000000Y-83678331D01*
X156936696Y-83678331D01*
X156923932Y-83614158D01*
X156923931Y-83614157D01*
X156892872Y-83567674D01*
X156830329Y-83474072D01*
X156830329Y-83474071D01*
X156830325Y-83474068D01*
X156159729Y-82803471D01*
X156019643Y-82709869D01*
X155854400Y-82677000D01*
X155270310Y-82677000D01*
X155270310Y-80341445D01*
X155221864Y-80224199D01*
X155221864Y-80224196D01*
X155221862Y-80224193D01*
X155173840Y-80107972D01*
X155084214Y-80018189D01*
X155084213Y-80018187D01*
X155084210Y-80018185D01*
X154995368Y-79929187D01*
X154878206Y-79880537D01*
X154878204Y-79880536D01*
X154878201Y-79880535D01*
X154762063Y-79832311D01*
X154635200Y-79832200D01*
X154635199Y-79832200D01*
X154509445Y-79832090D01*
X154405595Y-79875000D01*
X152739843Y-79875000D01*
X152689550Y-79798438D01*
X152579813Y-79724364D01*
X152450000Y-79698331D01*
X151500000Y-79698331D01*
X151374096Y-79722759D01*
X151263438Y-79795450D01*
X151250336Y-79814858D01*
X151239550Y-79798438D01*
X151129813Y-79724364D01*
X151000000Y-79698331D01*
X150050000Y-79698331D01*
X149924096Y-79722759D01*
X149813438Y-79795450D01*
X149739364Y-79905187D01*
X149713331Y-80035000D01*
X149713331Y-80078200D01*
X149555899Y-80078200D01*
X149484240Y-79904772D01*
X149305768Y-79725987D01*
X149072463Y-79629111D01*
X148819845Y-79628890D01*
X148586372Y-79725360D01*
X148407587Y-79903832D01*
X148310711Y-80137137D01*
X148310490Y-80389755D01*
X148406960Y-80623228D01*
X148585432Y-80802013D01*
X148818737Y-80898889D01*
X149011580Y-80899057D01*
X149026357Y-80908931D01*
X149026358Y-80908932D01*
X149061891Y-80916000D01*
X148992772Y-80944560D01*
X148885744Y-81051400D01*
X142455408Y-81051400D01*
X142455408Y-69011323D01*
X142455408Y-62511323D01*
X142272314Y-62068201D01*
X141933582Y-61728877D01*
X141490781Y-61545010D01*
X141011323Y-61544592D01*
X140568201Y-61727686D01*
X140228877Y-62066418D01*
X140045010Y-62509219D01*
X140044592Y-62988677D01*
X140227686Y-63431799D01*
X140566418Y-63771123D01*
X141009219Y-63954990D01*
X141488677Y-63955408D01*
X141931799Y-63772314D01*
X142271123Y-63433582D01*
X142454990Y-62990781D01*
X142455408Y-62511323D01*
X142455408Y-69011323D01*
X142272314Y-68568201D01*
X141933582Y-68228877D01*
X141490781Y-68045010D01*
X141011323Y-68044592D01*
X140568201Y-68227686D01*
X140228877Y-68566418D01*
X140045010Y-69009219D01*
X140044592Y-69488677D01*
X140227686Y-69931799D01*
X140566418Y-70271123D01*
X141009219Y-70454990D01*
X141488677Y-70455408D01*
X141931799Y-70272314D01*
X142271123Y-69933582D01*
X142454990Y-69490781D01*
X142455408Y-69011323D01*
X142455408Y-81051400D01*
X138271590Y-81051400D01*
X138271590Y-69484694D01*
X138271590Y-62984694D01*
X138245579Y-62384542D01*
X138065953Y-61950884D01*
X137812060Y-61867545D01*
X137632455Y-62047150D01*
X137632455Y-61687940D01*
X137549116Y-61434047D01*
X136984694Y-61228410D01*
X136384542Y-61254421D01*
X135950884Y-61434047D01*
X135867545Y-61687940D01*
X136750000Y-62570395D01*
X137632455Y-61687940D01*
X137632455Y-62047150D01*
X136929605Y-62750000D01*
X137812060Y-63632455D01*
X138065953Y-63549116D01*
X138271590Y-62984694D01*
X138271590Y-69484694D01*
X138245579Y-68884542D01*
X138065953Y-68450884D01*
X137812060Y-68367545D01*
X137632455Y-68547150D01*
X137632455Y-68187940D01*
X137632455Y-63812060D01*
X136750000Y-62929605D01*
X136570395Y-63109210D01*
X136570395Y-62750000D01*
X135687940Y-61867545D01*
X135434047Y-61950884D01*
X135228410Y-62515306D01*
X135254421Y-63115458D01*
X135434047Y-63549116D01*
X135687940Y-63632455D01*
X136570395Y-62750000D01*
X136570395Y-63109210D01*
X135867545Y-63812060D01*
X135950884Y-64065953D01*
X136515306Y-64271590D01*
X137115458Y-64245579D01*
X137549116Y-64065953D01*
X137632455Y-63812060D01*
X137632455Y-68187940D01*
X137549116Y-67934047D01*
X136984694Y-67728410D01*
X136384542Y-67754421D01*
X135950884Y-67934047D01*
X135867545Y-68187940D01*
X136750000Y-69070395D01*
X137632455Y-68187940D01*
X137632455Y-68547150D01*
X136929605Y-69250000D01*
X137812060Y-70132455D01*
X138065953Y-70049116D01*
X138271590Y-69484694D01*
X138271590Y-81051400D01*
X137632455Y-81051400D01*
X137632455Y-70312060D01*
X136750000Y-69429605D01*
X136570395Y-69609210D01*
X136570395Y-69250000D01*
X135687940Y-68367545D01*
X135434047Y-68450884D01*
X135228410Y-69015306D01*
X135254421Y-69615458D01*
X135434047Y-70049116D01*
X135687940Y-70132455D01*
X136570395Y-69250000D01*
X136570395Y-69609210D01*
X135867545Y-70312060D01*
X135950884Y-70565953D01*
X136515306Y-70771590D01*
X137115458Y-70745579D01*
X137549116Y-70565953D01*
X137632455Y-70312060D01*
X137632455Y-81051400D01*
X135306858Y-81051400D01*
X134746978Y-80491520D01*
X134747110Y-80341445D01*
X134650640Y-80107972D01*
X134472168Y-79929187D01*
X134238863Y-79832311D01*
X133986245Y-79832090D01*
X133752772Y-79928560D01*
X133573987Y-80107032D01*
X133477111Y-80340337D01*
X133476890Y-80592955D01*
X133573360Y-80826428D01*
X133751832Y-81005213D01*
X133985137Y-81102089D01*
X134136363Y-81102221D01*
X134822671Y-81788529D01*
X134962757Y-81882131D01*
X134962758Y-81882131D01*
X135128000Y-81915000D01*
X148885804Y-81915000D01*
X148991832Y-82021213D01*
X149225137Y-82118089D01*
X149477755Y-82118310D01*
X149711228Y-82021840D01*
X149890013Y-81843368D01*
X149986889Y-81610063D01*
X149987110Y-81357445D01*
X149965309Y-81304685D01*
X150050000Y-81321669D01*
X151000000Y-81321669D01*
X151125904Y-81297241D01*
X151236562Y-81224550D01*
X151249663Y-81205141D01*
X151260450Y-81221562D01*
X151370187Y-81295636D01*
X151500000Y-81321669D01*
X152450000Y-81321669D01*
X152575904Y-81297241D01*
X152686562Y-81224550D01*
X152740259Y-81145000D01*
X154592400Y-81145000D01*
X154835404Y-81096664D01*
X154933904Y-81030848D01*
X154994428Y-81005840D01*
X155041183Y-80959166D01*
X155041413Y-80959013D01*
X155084213Y-80916213D01*
X155084214Y-80916210D01*
X155173213Y-80827368D01*
X155221861Y-80710209D01*
X155221864Y-80710205D01*
X155221864Y-80710200D01*
X155270089Y-80594063D01*
X155270199Y-80467200D01*
X155270200Y-80467200D01*
X155270199Y-80467199D01*
X155270310Y-80341445D01*
X155270310Y-82677000D01*
X134315200Y-82677000D01*
X134149957Y-82709869D01*
X134009871Y-82803471D01*
X134009868Y-82803474D01*
X133933121Y-82880221D01*
X133783045Y-82880090D01*
X133549572Y-82976560D01*
X133370787Y-83155032D01*
X133273911Y-83388337D01*
X133273690Y-83640955D01*
X133370160Y-83874428D01*
X133548632Y-84053213D01*
X133649266Y-84095000D01*
X126409144Y-84095000D01*
X126409144Y-77317698D01*
X126381362Y-76762632D01*
X126222397Y-76378857D01*
X125980213Y-76309392D01*
X125800608Y-76488997D01*
X125800608Y-76129787D01*
X125731143Y-75887603D01*
X125207698Y-75700856D01*
X124652632Y-75728638D01*
X124268857Y-75887603D01*
X124199392Y-76129787D01*
X125000000Y-76930395D01*
X125800608Y-76129787D01*
X125800608Y-76488997D01*
X125179605Y-77110000D01*
X125980213Y-77910608D01*
X126222397Y-77841143D01*
X126409144Y-77317698D01*
X126409144Y-84095000D01*
X126092389Y-84095000D01*
X126092389Y-81973701D01*
X126092389Y-79433701D01*
X125926462Y-79032127D01*
X125800608Y-78906053D01*
X125800608Y-78090213D01*
X125000000Y-77289605D01*
X124820395Y-77469210D01*
X124820395Y-77110000D01*
X124019787Y-76309392D01*
X123777603Y-76378857D01*
X123590856Y-76902302D01*
X123618638Y-77457368D01*
X123777603Y-77841143D01*
X124019787Y-77910608D01*
X124820395Y-77110000D01*
X124820395Y-77469210D01*
X124199392Y-78090213D01*
X124268857Y-78332397D01*
X124792302Y-78519144D01*
X125347368Y-78491362D01*
X125731143Y-78332397D01*
X125800608Y-78090213D01*
X125800608Y-78906053D01*
X125619489Y-78724618D01*
X125218205Y-78557990D01*
X124783701Y-78557611D01*
X124382127Y-78723538D01*
X124074618Y-79030511D01*
X123907990Y-79431795D01*
X123907611Y-79866299D01*
X124073538Y-80267873D01*
X124380511Y-80575382D01*
X124781795Y-80742010D01*
X125216299Y-80742389D01*
X125617873Y-80576462D01*
X125925382Y-80269489D01*
X126092010Y-79868205D01*
X126092389Y-79433701D01*
X126092389Y-81973701D01*
X125926462Y-81572127D01*
X125619489Y-81264618D01*
X125218205Y-81097990D01*
X124783701Y-81097611D01*
X124382127Y-81263538D01*
X124074618Y-81570511D01*
X123907990Y-81971795D01*
X123907611Y-82406299D01*
X124073538Y-82807873D01*
X124380511Y-83115382D01*
X124781795Y-83282010D01*
X125216299Y-83282389D01*
X125617873Y-83116462D01*
X125925382Y-82809489D01*
X126092010Y-82408205D01*
X126092389Y-81973701D01*
X126092389Y-84095000D01*
X125909364Y-84095000D01*
X125619489Y-83804618D01*
X125218205Y-83637990D01*
X124783701Y-83637611D01*
X124382127Y-83803538D01*
X124074618Y-84110511D01*
X123907990Y-84511795D01*
X123907611Y-84946299D01*
X124073538Y-85347873D01*
X124380511Y-85655382D01*
X124781795Y-85822010D01*
X125216299Y-85822389D01*
X125617873Y-85656462D01*
X125909843Y-85365000D01*
X134787607Y-85365000D01*
X134797937Y-85369289D01*
X134924794Y-85369399D01*
X134924800Y-85369401D01*
X134924805Y-85369399D01*
X135050555Y-85369510D01*
X135167799Y-85321065D01*
X135167805Y-85321064D01*
X135167809Y-85321060D01*
X135284028Y-85273040D01*
X135373810Y-85183414D01*
X135373813Y-85183413D01*
X135373814Y-85183410D01*
X135462813Y-85094568D01*
X135511461Y-84977409D01*
X135511464Y-84977405D01*
X135511464Y-84977400D01*
X135559689Y-84861263D01*
X135559799Y-84734405D01*
X135559801Y-84734400D01*
X135559799Y-84734394D01*
X135559910Y-84608645D01*
X135511464Y-84491399D01*
X135511464Y-84491396D01*
X135511462Y-84491393D01*
X135463440Y-84375172D01*
X135373813Y-84285388D01*
X135284968Y-84196387D01*
X135173578Y-84150134D01*
X135163404Y-84143336D01*
X135151507Y-84140969D01*
X135051663Y-84099511D01*
X134942598Y-84099415D01*
X134920400Y-84095000D01*
X134168414Y-84095000D01*
X134268028Y-84053840D01*
X134446813Y-83875368D01*
X134543689Y-83642063D01*
X134543777Y-83540600D01*
X155675542Y-83540600D01*
X155871953Y-83737011D01*
X155813438Y-83775450D01*
X155739364Y-83885187D01*
X155713331Y-84015000D01*
X155713331Y-84965000D01*
X155737759Y-85090904D01*
X155810450Y-85201562D01*
X155920187Y-85275636D01*
X156050000Y-85301669D01*
X157000000Y-85301669D01*
X157125904Y-85277241D01*
X157236562Y-85204550D01*
X157249663Y-85185141D01*
X157260450Y-85201562D01*
X157370187Y-85275636D01*
X157500000Y-85301669D01*
X158450000Y-85301669D01*
X158575904Y-85277241D01*
X158686562Y-85204550D01*
X158760636Y-85094813D01*
X158786669Y-84965000D01*
X158786669Y-84759800D01*
X158842604Y-84759800D01*
X158948632Y-84866013D01*
X159181937Y-84962889D01*
X159434555Y-84963110D01*
X159668028Y-84866640D01*
X159846813Y-84688168D01*
X159943689Y-84454863D01*
X159943910Y-84202245D01*
X159943910Y-86437445D01*
X159847440Y-86203972D01*
X159668968Y-86025187D01*
X159435663Y-85928311D01*
X159183045Y-85928090D01*
X158949572Y-86024560D01*
X158842544Y-86131400D01*
X158757185Y-86131400D01*
X158689550Y-86028438D01*
X158579813Y-85954364D01*
X158450000Y-85928331D01*
X157500000Y-85928331D01*
X157374096Y-85952759D01*
X157263438Y-86025450D01*
X157250336Y-86044858D01*
X157239550Y-86028438D01*
X157129813Y-85954364D01*
X157000000Y-85928331D01*
X156050000Y-85928331D01*
X155924096Y-85952759D01*
X155813438Y-86025450D01*
X155739364Y-86135187D01*
X155713331Y-86265000D01*
X155713331Y-86308200D01*
X150520457Y-86308200D01*
X150393378Y-86181121D01*
X150393510Y-86031045D01*
X150297040Y-85797572D01*
X150118568Y-85618787D01*
X149885263Y-85521911D01*
X149632645Y-85521690D01*
X149399172Y-85618160D01*
X149220387Y-85796632D01*
X149123511Y-86029937D01*
X149123290Y-86282555D01*
X149219760Y-86516028D01*
X149398232Y-86694813D01*
X149631537Y-86791689D01*
X149782763Y-86791821D01*
X149965516Y-86974573D01*
X149949096Y-86977759D01*
X149838438Y-87050450D01*
X149764364Y-87160187D01*
X149738331Y-87290000D01*
X149738331Y-87553800D01*
X149614995Y-87553800D01*
X149508968Y-87447587D01*
X149275663Y-87350711D01*
X149023045Y-87350490D01*
X148789572Y-87446960D01*
X148610787Y-87625432D01*
X148513911Y-87858737D01*
X148513690Y-88111355D01*
X148610160Y-88344828D01*
X148788632Y-88523613D01*
X149021937Y-88620489D01*
X149274555Y-88620710D01*
X149508028Y-88524240D01*
X149615055Y-88417400D01*
X149738331Y-88417400D01*
X149738331Y-88690000D01*
X149762759Y-88815904D01*
X149835450Y-88926562D01*
X149945187Y-89000636D01*
X150075000Y-89026669D01*
X151175000Y-89026669D01*
X151300904Y-89002241D01*
X151411562Y-88929550D01*
X151485636Y-88819813D01*
X151499807Y-88749148D01*
X151512759Y-88815904D01*
X151585450Y-88926562D01*
X151695187Y-89000636D01*
X151825000Y-89026669D01*
X152925000Y-89026669D01*
X153050904Y-89002241D01*
X153161562Y-88929550D01*
X153235636Y-88819813D01*
X153261669Y-88690000D01*
X153261669Y-88494564D01*
X153283760Y-88548028D01*
X153462232Y-88726813D01*
X153695537Y-88823689D01*
X153948155Y-88823910D01*
X154181628Y-88727440D01*
X154360413Y-88548968D01*
X154457289Y-88315663D01*
X154457510Y-88063045D01*
X154361040Y-87829572D01*
X154182568Y-87650787D01*
X153949263Y-87553911D01*
X153696645Y-87553690D01*
X153665540Y-87566542D01*
X153665539Y-87566542D01*
X153623600Y-87558200D01*
X153261669Y-87558200D01*
X153261669Y-87290000D01*
X153238735Y-87171800D01*
X155713331Y-87171800D01*
X155713331Y-87215000D01*
X155737759Y-87340904D01*
X155810450Y-87451562D01*
X155920187Y-87525636D01*
X156050000Y-87551669D01*
X157000000Y-87551669D01*
X157125904Y-87527241D01*
X157236562Y-87454550D01*
X157249663Y-87435141D01*
X157260450Y-87451562D01*
X157370187Y-87525636D01*
X157500000Y-87551669D01*
X158450000Y-87551669D01*
X158575904Y-87527241D01*
X158686562Y-87454550D01*
X158760636Y-87344813D01*
X158786669Y-87215000D01*
X158786669Y-86995000D01*
X158842604Y-86995000D01*
X158948632Y-87101213D01*
X159181937Y-87198089D01*
X159434555Y-87198310D01*
X159668028Y-87101840D01*
X159846813Y-86923368D01*
X159943689Y-86690063D01*
X159943910Y-86437445D01*
X159943910Y-88672645D01*
X159847440Y-88439172D01*
X159668968Y-88260387D01*
X159435663Y-88163511D01*
X159183045Y-88163290D01*
X158949572Y-88259760D01*
X158842544Y-88366600D01*
X158786669Y-88366600D01*
X158786669Y-88265000D01*
X158762241Y-88139096D01*
X158689550Y-88028438D01*
X158579813Y-87954364D01*
X158450000Y-87928331D01*
X157500000Y-87928331D01*
X157374096Y-87952759D01*
X157263438Y-88025450D01*
X157250336Y-88044858D01*
X157239550Y-88028438D01*
X157129813Y-87954364D01*
X157000000Y-87928331D01*
X156050000Y-87928331D01*
X155924096Y-87952759D01*
X155813438Y-88025450D01*
X155739364Y-88135187D01*
X155713331Y-88265000D01*
X155713331Y-89215000D01*
X155737759Y-89340904D01*
X155810450Y-89451562D01*
X155890000Y-89505259D01*
X155890000Y-89875000D01*
X155375308Y-89875000D01*
X155284606Y-89837337D01*
X155284604Y-89837336D01*
X155284601Y-89837335D01*
X155168463Y-89789111D01*
X155041600Y-89789000D01*
X155041599Y-89789000D01*
X154915845Y-89788890D01*
X154798599Y-89837335D01*
X154798596Y-89837336D01*
X154798593Y-89837337D01*
X154707444Y-89875000D01*
X152989843Y-89875000D01*
X152939550Y-89798438D01*
X152829813Y-89724364D01*
X152700000Y-89698331D01*
X151750000Y-89698331D01*
X151624096Y-89722759D01*
X151513438Y-89795450D01*
X151500336Y-89814858D01*
X151489550Y-89798438D01*
X151379813Y-89724364D01*
X151250000Y-89698331D01*
X150300000Y-89698331D01*
X150174096Y-89722759D01*
X150063438Y-89795450D01*
X149989364Y-89905187D01*
X149971914Y-89992200D01*
X149208595Y-89992200D01*
X149102568Y-89885987D01*
X148869263Y-89789111D01*
X148616645Y-89788890D01*
X148383172Y-89885360D01*
X148204387Y-90063832D01*
X148107511Y-90297137D01*
X148107290Y-90549755D01*
X148203760Y-90783228D01*
X148382232Y-90962013D01*
X148615537Y-91058889D01*
X148868155Y-91059110D01*
X149101628Y-90962640D01*
X149208655Y-90855800D01*
X149963331Y-90855800D01*
X149963331Y-90985000D01*
X149987759Y-91110904D01*
X150060450Y-91221562D01*
X150170187Y-91295636D01*
X150300000Y-91321669D01*
X151250000Y-91321669D01*
X151375904Y-91297241D01*
X151486562Y-91224550D01*
X151499663Y-91205141D01*
X151510450Y-91221562D01*
X151590000Y-91275259D01*
X151590000Y-91745156D01*
X151513438Y-91795450D01*
X151500336Y-91814858D01*
X151489550Y-91798438D01*
X151379813Y-91724364D01*
X151250000Y-91698331D01*
X150300000Y-91698331D01*
X150174096Y-91722759D01*
X150063438Y-91795450D01*
X150046191Y-91821000D01*
X149208595Y-91821000D01*
X149102568Y-91714787D01*
X148869263Y-91617911D01*
X148616645Y-91617690D01*
X148383172Y-91714160D01*
X148204387Y-91892632D01*
X148107511Y-92125937D01*
X148107290Y-92378555D01*
X148203760Y-92612028D01*
X148382232Y-92790813D01*
X148615537Y-92887689D01*
X148868155Y-92887910D01*
X149101628Y-92791440D01*
X149208655Y-92684600D01*
X149963331Y-92684600D01*
X149963331Y-92985000D01*
X149987759Y-93110904D01*
X150060450Y-93221562D01*
X150170187Y-93295636D01*
X150300000Y-93321669D01*
X151250000Y-93321669D01*
X151375904Y-93297241D01*
X151486562Y-93224550D01*
X151499663Y-93205141D01*
X151510450Y-93221562D01*
X151590000Y-93275259D01*
X151590000Y-93993574D01*
X151544587Y-94038987D01*
X151544585Y-94038989D01*
X151455587Y-94127832D01*
X151406937Y-94244993D01*
X151406936Y-94244996D01*
X151406935Y-94244998D01*
X151358711Y-94361137D01*
X151358600Y-94487999D01*
X151358600Y-94488000D01*
X151358490Y-94613755D01*
X151406935Y-94731000D01*
X151406936Y-94731004D01*
X151406937Y-94731006D01*
X151454960Y-94847228D01*
X151544585Y-94937010D01*
X151544587Y-94937013D01*
X151544589Y-94937014D01*
X151633432Y-95026013D01*
X151750593Y-95074662D01*
X151750596Y-95074664D01*
X151750598Y-95074664D01*
X151866737Y-95122889D01*
X151993599Y-95122999D01*
X151993600Y-95123000D01*
X151993600Y-95122999D01*
X152119355Y-95123110D01*
X152236600Y-95074664D01*
X152236604Y-95074664D01*
X152236606Y-95074662D01*
X152352828Y-95026640D01*
X152442610Y-94937014D01*
X152442613Y-94937013D01*
X152443077Y-94936548D01*
X152531613Y-94848168D01*
X152531723Y-94847902D01*
X152674013Y-94705613D01*
X152811664Y-94499604D01*
X152860000Y-94256600D01*
X152860000Y-93274843D01*
X152936562Y-93224550D01*
X153010636Y-93114813D01*
X153036669Y-92985000D01*
X153036669Y-92035000D01*
X153012241Y-91909096D01*
X152939550Y-91798438D01*
X152860000Y-91744740D01*
X152860000Y-91274843D01*
X152936562Y-91224550D01*
X152990259Y-91145000D01*
X155041600Y-91145000D01*
X155713331Y-91145000D01*
X155713331Y-91215000D01*
X155737759Y-91340904D01*
X155810450Y-91451562D01*
X155829000Y-91464083D01*
X155829000Y-95300800D01*
X155828890Y-95426555D01*
X155868819Y-95523191D01*
X153678985Y-95523191D01*
X153572958Y-95416978D01*
X153339653Y-95320102D01*
X153087035Y-95319881D01*
X152853562Y-95416351D01*
X152674777Y-95594823D01*
X152577901Y-95828128D01*
X152577680Y-96080746D01*
X152674150Y-96314219D01*
X152852622Y-96493004D01*
X153085927Y-96589880D01*
X153274499Y-96590044D01*
X153187511Y-96799537D01*
X153187290Y-97052155D01*
X153283760Y-97285628D01*
X153462232Y-97464413D01*
X153695537Y-97561289D01*
X153948155Y-97561510D01*
X154181628Y-97465040D01*
X154288655Y-97358200D01*
X161077804Y-97358200D01*
X161183832Y-97464413D01*
X161417137Y-97561289D01*
X161669755Y-97561510D01*
X161903228Y-97465040D01*
X162082013Y-97286568D01*
X162178889Y-97053263D01*
X162179110Y-96800645D01*
X162179110Y-101879400D01*
X162153600Y-101879400D01*
X162104999Y-101889067D01*
X162063797Y-101916597D01*
X162036267Y-101957799D01*
X162026600Y-102006400D01*
X162026600Y-109194600D01*
X149682200Y-109194600D01*
X149682200Y-108712000D01*
X149682200Y-100584000D01*
X149672533Y-100535399D01*
X149645003Y-100494197D01*
X149603801Y-100466667D01*
X149555200Y-100457000D01*
X148785000Y-100457000D01*
X148785000Y-96766310D01*
X148785000Y-96525750D01*
X148785000Y-95954250D01*
X148785000Y-95713690D01*
X148688327Y-95480301D01*
X148509698Y-95301673D01*
X148276309Y-95205000D01*
X148035750Y-95205000D01*
X147877000Y-95363750D01*
X147877000Y-96113000D01*
X148626250Y-96113000D01*
X148785000Y-95954250D01*
X148785000Y-96525750D01*
X148626250Y-96367000D01*
X147877000Y-96367000D01*
X147877000Y-97116250D01*
X148035750Y-97275000D01*
X148276309Y-97275000D01*
X148509698Y-97178327D01*
X148688327Y-96999699D01*
X148785000Y-96766310D01*
X148785000Y-100457000D01*
X147623000Y-100457000D01*
X147623000Y-97116250D01*
X147623000Y-96367000D01*
X147603000Y-96367000D01*
X147603000Y-96113000D01*
X147623000Y-96113000D01*
X147623000Y-95363750D01*
X147464250Y-95205000D01*
X147223691Y-95205000D01*
X146990302Y-95301673D01*
X146811673Y-95480301D01*
X146788829Y-95535450D01*
X146779813Y-95529364D01*
X146650000Y-95503331D01*
X146501069Y-95503331D01*
X146532489Y-95427663D01*
X146532710Y-95175045D01*
X146436240Y-94941572D01*
X146257768Y-94762787D01*
X146024463Y-94665911D01*
X145771845Y-94665690D01*
X145538372Y-94762160D01*
X145359587Y-94940632D01*
X145262711Y-95173937D01*
X145262490Y-95426555D01*
X145358960Y-95660028D01*
X145465800Y-95767055D01*
X145465800Y-95887600D01*
X145498669Y-96052843D01*
X145513331Y-96074786D01*
X145513331Y-96640000D01*
X145537759Y-96765904D01*
X145610450Y-96876562D01*
X145720187Y-96950636D01*
X145850000Y-96976669D01*
X146650000Y-96976669D01*
X146775904Y-96952241D01*
X146788569Y-96943921D01*
X146811673Y-96999699D01*
X146990302Y-97178327D01*
X147223691Y-97275000D01*
X147464250Y-97275000D01*
X147623000Y-97116250D01*
X147623000Y-100457000D01*
X144068800Y-100457000D01*
X144020199Y-100466667D01*
X143978997Y-100494197D01*
X143951467Y-100535399D01*
X143941800Y-100584000D01*
X143941800Y-102616000D01*
X143951467Y-102664601D01*
X143978997Y-102705803D01*
X144020199Y-102733333D01*
X144068800Y-102743000D01*
X147048832Y-102743000D01*
X147396200Y-103264052D01*
X147396200Y-108712000D01*
X147405867Y-108760601D01*
X147433397Y-108801803D01*
X147474599Y-108829333D01*
X147523200Y-108839000D01*
X149555200Y-108839000D01*
X149603801Y-108829333D01*
X149645003Y-108801803D01*
X149672533Y-108760601D01*
X149682200Y-108712000D01*
X149682200Y-109194600D01*
X143891110Y-109194600D01*
X143891110Y-95695235D01*
X143794640Y-95461762D01*
X143687800Y-95354734D01*
X143687800Y-94053385D01*
X143794013Y-93947358D01*
X143890889Y-93714053D01*
X143891110Y-93461435D01*
X143794640Y-93227962D01*
X143616168Y-93049177D01*
X143382863Y-92952301D01*
X143130245Y-92952080D01*
X142896772Y-93048550D01*
X142717987Y-93227022D01*
X142621111Y-93460327D01*
X142620890Y-93712945D01*
X142717360Y-93946418D01*
X142824200Y-94053445D01*
X142824200Y-95354794D01*
X142717987Y-95460822D01*
X142621111Y-95694127D01*
X142620890Y-95946745D01*
X142717360Y-96180218D01*
X142895832Y-96359003D01*
X143129137Y-96455879D01*
X143381755Y-96456100D01*
X143615228Y-96359630D01*
X143794013Y-96181158D01*
X143890889Y-95947853D01*
X143891110Y-95695235D01*
X143891110Y-109194600D01*
X141859110Y-109194600D01*
X141859110Y-84405445D01*
X141810664Y-84288199D01*
X141810664Y-84288196D01*
X141810662Y-84288193D01*
X141762640Y-84171972D01*
X141673014Y-84082189D01*
X141673013Y-84082187D01*
X141673010Y-84082185D01*
X141584168Y-83993187D01*
X141467006Y-83944537D01*
X141467004Y-83944536D01*
X141467001Y-83944535D01*
X141350863Y-83896311D01*
X141224000Y-83896200D01*
X141223999Y-83896200D01*
X141098245Y-83896090D01*
X140980999Y-83944535D01*
X140980996Y-83944536D01*
X140980993Y-83944537D01*
X140864772Y-83992560D01*
X140774989Y-84082185D01*
X140774987Y-84082187D01*
X140774522Y-84082651D01*
X140685987Y-84171032D01*
X140685876Y-84171297D01*
X140571787Y-84285387D01*
X140434136Y-84491396D01*
X140385800Y-84734400D01*
X140385800Y-88188799D01*
X140385800Y-88188800D01*
X140385800Y-88188817D01*
X140385690Y-88314555D01*
X140385800Y-88314821D01*
X140385800Y-94488000D01*
X140385690Y-94613755D01*
X140434135Y-94731000D01*
X140434136Y-94731004D01*
X140434137Y-94731006D01*
X140482160Y-94847228D01*
X140571785Y-94937010D01*
X140571787Y-94937013D01*
X140571789Y-94937014D01*
X140660632Y-95026013D01*
X140777793Y-95074662D01*
X140777796Y-95074664D01*
X140777798Y-95074664D01*
X140893937Y-95122889D01*
X141020799Y-95122999D01*
X141020800Y-95123000D01*
X141020800Y-95122999D01*
X141146555Y-95123110D01*
X141263800Y-95074664D01*
X141263804Y-95074664D01*
X141263806Y-95074662D01*
X141380028Y-95026640D01*
X141469810Y-94937014D01*
X141469813Y-94937013D01*
X141469814Y-94937010D01*
X141558813Y-94848168D01*
X141607462Y-94731006D01*
X141607464Y-94731004D01*
X141607464Y-94731001D01*
X141655689Y-94614863D01*
X141655799Y-94488000D01*
X141655800Y-94488000D01*
X141655800Y-94487982D01*
X141655910Y-94362245D01*
X141655800Y-94361978D01*
X141655800Y-88188800D01*
X141655800Y-88188782D01*
X141655910Y-88063045D01*
X141655800Y-88062778D01*
X141655800Y-84997426D01*
X141673013Y-84980213D01*
X141673014Y-84980210D01*
X141762013Y-84891368D01*
X141810662Y-84774206D01*
X141810664Y-84774204D01*
X141810664Y-84774201D01*
X141858889Y-84658063D01*
X141858999Y-84531200D01*
X141859000Y-84531200D01*
X141858999Y-84531199D01*
X141859110Y-84405445D01*
X141859110Y-109194600D01*
X140075000Y-109194600D01*
X140075000Y-89556309D01*
X140075000Y-89315750D01*
X140075000Y-88744250D01*
X140075000Y-88503691D01*
X139978327Y-88270302D01*
X139799699Y-88091673D01*
X139566310Y-87995000D01*
X139313691Y-87995000D01*
X139275750Y-87995000D01*
X139117000Y-88153750D01*
X139117000Y-88903000D01*
X139916250Y-88903000D01*
X140075000Y-88744250D01*
X140075000Y-89315750D01*
X139916250Y-89157000D01*
X139117000Y-89157000D01*
X139117000Y-89906250D01*
X139275750Y-90065000D01*
X139313691Y-90065000D01*
X139566310Y-90065000D01*
X139799699Y-89968327D01*
X139978327Y-89789698D01*
X140075000Y-89556309D01*
X140075000Y-109194600D01*
X138863000Y-109194600D01*
X138863000Y-89906250D01*
X138863000Y-89157000D01*
X138863000Y-88903000D01*
X138863000Y-88153750D01*
X138704250Y-87995000D01*
X138666309Y-87995000D01*
X138413690Y-87995000D01*
X138180301Y-88091673D01*
X138001673Y-88270302D01*
X137905000Y-88503691D01*
X137905000Y-88744250D01*
X138063750Y-88903000D01*
X138863000Y-88903000D01*
X138863000Y-89157000D01*
X138063750Y-89157000D01*
X137905000Y-89315750D01*
X137905000Y-89556309D01*
X138001673Y-89789698D01*
X138180301Y-89968327D01*
X138413690Y-90065000D01*
X138666309Y-90065000D01*
X138704250Y-90065000D01*
X138863000Y-89906250D01*
X138863000Y-109194600D01*
X137776669Y-109194600D01*
X137776669Y-90380000D01*
X137776669Y-89580000D01*
X137776669Y-88480000D01*
X137776669Y-87680000D01*
X137752241Y-87554096D01*
X137679550Y-87443438D01*
X137569813Y-87369364D01*
X137440000Y-87343331D01*
X136540000Y-87343331D01*
X136414096Y-87367759D01*
X136303438Y-87440450D01*
X136229364Y-87550187D01*
X136216244Y-87615606D01*
X136067663Y-87553911D01*
X135815045Y-87553690D01*
X135581572Y-87650160D01*
X135402787Y-87828632D01*
X135305911Y-88061937D01*
X135305690Y-88314555D01*
X135402160Y-88548028D01*
X135580632Y-88726813D01*
X135813937Y-88823689D01*
X136066555Y-88823910D01*
X136300028Y-88727440D01*
X136306699Y-88720780D01*
X136410187Y-88790636D01*
X136540000Y-88816669D01*
X137440000Y-88816669D01*
X137565904Y-88792241D01*
X137676562Y-88719550D01*
X137750636Y-88609813D01*
X137776669Y-88480000D01*
X137776669Y-89580000D01*
X137752241Y-89454096D01*
X137679550Y-89343438D01*
X137569813Y-89269364D01*
X137440000Y-89243331D01*
X136540000Y-89243331D01*
X136414096Y-89267759D01*
X136303438Y-89340450D01*
X136229539Y-89449927D01*
X136067663Y-89382711D01*
X135815045Y-89382490D01*
X135581572Y-89478960D01*
X135402787Y-89657432D01*
X135305911Y-89890737D01*
X135305690Y-90143355D01*
X135402160Y-90376828D01*
X135580632Y-90555613D01*
X135813937Y-90652489D01*
X136066555Y-90652710D01*
X136269193Y-90568980D01*
X136300450Y-90616562D01*
X136410187Y-90690636D01*
X136540000Y-90716669D01*
X137440000Y-90716669D01*
X137565904Y-90692241D01*
X137676562Y-90619550D01*
X137750636Y-90509813D01*
X137776669Y-90380000D01*
X137776669Y-109194600D01*
X136924669Y-109194600D01*
X136924669Y-98449600D01*
X136924669Y-97649600D01*
X136924669Y-96549600D01*
X136924669Y-95749600D01*
X136900241Y-95623696D01*
X136827550Y-95513038D01*
X136717813Y-95438964D01*
X136588000Y-95412931D01*
X136575701Y-95412931D01*
X136575910Y-95175045D01*
X136479440Y-94941572D01*
X136300968Y-94762787D01*
X136067663Y-94665911D01*
X135815045Y-94665690D01*
X135581572Y-94762160D01*
X135402787Y-94940632D01*
X135305911Y-95173937D01*
X135305690Y-95426555D01*
X135382430Y-95612280D01*
X135377364Y-95619787D01*
X135351331Y-95749600D01*
X135351331Y-96549600D01*
X135375759Y-96675504D01*
X135448450Y-96786162D01*
X135558187Y-96860236D01*
X135688000Y-96886269D01*
X136588000Y-96886269D01*
X136713904Y-96861841D01*
X136824562Y-96789150D01*
X136898636Y-96679413D01*
X136924669Y-96549600D01*
X136924669Y-97649600D01*
X136900241Y-97523696D01*
X136827550Y-97413038D01*
X136717813Y-97338964D01*
X136588000Y-97312931D01*
X135688000Y-97312931D01*
X135562096Y-97337359D01*
X135451438Y-97410050D01*
X135377364Y-97519787D01*
X135351331Y-97649600D01*
X135351331Y-98449600D01*
X135375759Y-98575504D01*
X135448450Y-98686162D01*
X135558187Y-98760236D01*
X135688000Y-98786269D01*
X136588000Y-98786269D01*
X136713904Y-98761841D01*
X136824562Y-98689150D01*
X136898636Y-98579413D01*
X136924669Y-98449600D01*
X136924669Y-109194600D01*
X135223000Y-109194600D01*
X135223000Y-97625909D01*
X135223000Y-97385350D01*
X135223000Y-96813850D01*
X135223000Y-96573291D01*
X135126327Y-96339902D01*
X134947699Y-96161273D01*
X134714310Y-96064600D01*
X134461691Y-96064600D01*
X134423750Y-96064600D01*
X134265000Y-96223350D01*
X134265000Y-96972600D01*
X135064250Y-96972600D01*
X135223000Y-96813850D01*
X135223000Y-97385350D01*
X135064250Y-97226600D01*
X134265000Y-97226600D01*
X134265000Y-97975850D01*
X134423750Y-98134600D01*
X134461691Y-98134600D01*
X134714310Y-98134600D01*
X134947699Y-98037927D01*
X135126327Y-97859298D01*
X135223000Y-97625909D01*
X135223000Y-109194600D01*
X134011000Y-109194600D01*
X134011000Y-97975850D01*
X134011000Y-97226600D01*
X134011000Y-96972600D01*
X134011000Y-96223350D01*
X133852250Y-96064600D01*
X133814309Y-96064600D01*
X133561690Y-96064600D01*
X133328301Y-96161273D01*
X133149673Y-96339902D01*
X133053000Y-96573291D01*
X133053000Y-96813850D01*
X133211750Y-96972600D01*
X134011000Y-96972600D01*
X134011000Y-97226600D01*
X133211750Y-97226600D01*
X133053000Y-97385350D01*
X133053000Y-97625909D01*
X133149673Y-97859298D01*
X133328301Y-98037927D01*
X133561690Y-98134600D01*
X133814309Y-98134600D01*
X133852250Y-98134600D01*
X134011000Y-97975850D01*
X134011000Y-109194600D01*
X128143000Y-109194600D01*
X128143000Y-102006400D01*
X128133333Y-101957799D01*
X128105803Y-101916597D01*
X128064601Y-101889067D01*
X128016000Y-101879400D01*
X126098669Y-101879400D01*
X126098669Y-95652000D01*
X126098669Y-94128000D01*
X126092389Y-94095632D01*
X126092389Y-92133701D01*
X126092389Y-89593701D01*
X126092389Y-87053701D01*
X125926462Y-86652127D01*
X125619489Y-86344618D01*
X125218205Y-86177990D01*
X124783701Y-86177611D01*
X124382127Y-86343538D01*
X124074618Y-86650511D01*
X123907990Y-87051795D01*
X123907611Y-87486299D01*
X124073538Y-87887873D01*
X124380511Y-88195382D01*
X124781795Y-88362010D01*
X125216299Y-88362389D01*
X125617873Y-88196462D01*
X125925382Y-87889489D01*
X126092010Y-87488205D01*
X126092389Y-87053701D01*
X126092389Y-89593701D01*
X125926462Y-89192127D01*
X125619489Y-88884618D01*
X125218205Y-88717990D01*
X124783701Y-88717611D01*
X124382127Y-88883538D01*
X124074618Y-89190511D01*
X123907990Y-89591795D01*
X123907611Y-90026299D01*
X124073538Y-90427873D01*
X124380511Y-90735382D01*
X124781795Y-90902010D01*
X125216299Y-90902389D01*
X125617873Y-90736462D01*
X125925382Y-90429489D01*
X126092010Y-90028205D01*
X126092389Y-89593701D01*
X126092389Y-92133701D01*
X125926462Y-91732127D01*
X125619489Y-91424618D01*
X125218205Y-91257990D01*
X124783701Y-91257611D01*
X124382127Y-91423538D01*
X124074618Y-91730511D01*
X123907990Y-92131795D01*
X123907611Y-92566299D01*
X124073538Y-92967873D01*
X124380511Y-93275382D01*
X124781795Y-93442010D01*
X125216299Y-93442389D01*
X125617873Y-93276462D01*
X125925382Y-92969489D01*
X126092010Y-92568205D01*
X126092389Y-92133701D01*
X126092389Y-94095632D01*
X126074241Y-94002096D01*
X126001550Y-93891438D01*
X125891813Y-93817364D01*
X125762000Y-93791331D01*
X124238000Y-93791331D01*
X124112096Y-93815759D01*
X124001438Y-93888450D01*
X123927364Y-93998187D01*
X123901331Y-94128000D01*
X123901331Y-95652000D01*
X123925759Y-95777904D01*
X123998450Y-95888562D01*
X124108187Y-95962636D01*
X124238000Y-95988669D01*
X125762000Y-95988669D01*
X125887904Y-95964241D01*
X125998562Y-95891550D01*
X126072636Y-95781813D01*
X126098669Y-95652000D01*
X126098669Y-101879400D01*
X120827800Y-101879400D01*
X120827800Y-67995800D01*
X128016000Y-67995800D01*
X128064601Y-67986133D01*
X128105803Y-67958603D01*
X128133333Y-67917401D01*
X128143000Y-67868800D01*
X128143000Y-60680600D01*
X162026600Y-60680600D01*
X162026600Y-67868800D01*
X162036267Y-67917401D01*
X162063797Y-67958603D01*
X162104999Y-67986133D01*
X162153600Y-67995800D01*
X169138600Y-67995800D01*
X169138600Y-101879400D01*
M02*
