G04 #@! TF.FileFunction,Legend,Bot*
%FSLAX46Y46*%
G04 Gerber Fmt 4.6, Leading zero omitted, Abs format (unit mm)*
G04 Created by KiCad (PCBNEW (2015-06-05 BZR 5717)-product) date Fri 31 Jul 2015 19:12:08 PDT*
%MOMM*%
G01*
G04 APERTURE LIST*
%ADD10C,0.100000*%
%ADD11C,0.152400*%
%ADD12C,0.150000*%
G04 APERTURE END LIST*
D10*
D11*
X147505380Y-95529760D02*
X148455000Y-95529760D01*
X146504620Y-95529760D02*
X145555000Y-95529760D01*
X147505380Y-96970240D02*
X148455000Y-96970240D01*
X145555000Y-96970240D02*
X146504620Y-96970240D01*
X148455000Y-96970240D02*
X148455000Y-95529760D01*
X145555000Y-95529760D02*
X145555000Y-96970240D01*
X134698000Y-98429600D02*
X135558000Y-98429600D01*
X134698000Y-95826100D02*
X135558000Y-95826100D01*
X135558000Y-98429600D02*
X135558000Y-95826100D01*
X134698000Y-95826100D02*
X134698000Y-98429600D01*
X138430000Y-87700000D02*
X137570000Y-87700000D01*
X138430000Y-90303500D02*
X137570000Y-90303500D01*
X137570000Y-87700000D02*
X137570000Y-90303500D01*
X138430000Y-90303500D02*
X138430000Y-87700000D01*
X156754620Y-89488500D02*
X155770000Y-89488500D01*
X155770000Y-89488500D02*
X155770000Y-88011500D01*
X155770000Y-88011500D02*
X156754620Y-88011500D01*
X158730000Y-89488500D02*
X157755380Y-89488500D01*
X158730000Y-89488500D02*
X158730000Y-88011500D01*
X158730000Y-88011500D02*
X157755380Y-88011500D01*
X156754620Y-91488500D02*
X155770000Y-91488500D01*
X155770000Y-91488500D02*
X155770000Y-90011500D01*
X155770000Y-90011500D02*
X156754620Y-90011500D01*
X158730000Y-91488500D02*
X157755380Y-91488500D01*
X158730000Y-91488500D02*
X158730000Y-90011500D01*
X158730000Y-90011500D02*
X157755380Y-90011500D01*
X151995380Y-89761500D02*
X152980000Y-89761500D01*
X152980000Y-89761500D02*
X152980000Y-91238500D01*
X152980000Y-91238500D02*
X151995380Y-91238500D01*
X150020000Y-89761500D02*
X150994620Y-89761500D01*
X150020000Y-89761500D02*
X150020000Y-91238500D01*
X150020000Y-91238500D02*
X150994620Y-91238500D01*
X151995380Y-91761500D02*
X152980000Y-91761500D01*
X152980000Y-91761500D02*
X152980000Y-93238500D01*
X152980000Y-93238500D02*
X151995380Y-93238500D01*
X150020000Y-91761500D02*
X150994620Y-91761500D01*
X150020000Y-91761500D02*
X150020000Y-93238500D01*
X150020000Y-93238500D02*
X150994620Y-93238500D01*
X151745380Y-79761500D02*
X152730000Y-79761500D01*
X152730000Y-79761500D02*
X152730000Y-81238500D01*
X152730000Y-81238500D02*
X151745380Y-81238500D01*
X149770000Y-79761500D02*
X150744620Y-79761500D01*
X149770000Y-79761500D02*
X149770000Y-81238500D01*
X149770000Y-81238500D02*
X150744620Y-81238500D01*
X156754620Y-85238500D02*
X155770000Y-85238500D01*
X155770000Y-85238500D02*
X155770000Y-83761500D01*
X155770000Y-83761500D02*
X156754620Y-83761500D01*
X158730000Y-85238500D02*
X157755380Y-85238500D01*
X158730000Y-85238500D02*
X158730000Y-83761500D01*
X158730000Y-83761500D02*
X157755380Y-83761500D01*
X156754620Y-87488500D02*
X155770000Y-87488500D01*
X155770000Y-87488500D02*
X155770000Y-86011500D01*
X155770000Y-86011500D02*
X156754620Y-86011500D01*
X158730000Y-87488500D02*
X157755380Y-87488500D01*
X158730000Y-87488500D02*
X158730000Y-86011500D01*
X158730000Y-86011500D02*
X157755380Y-86011500D01*
X151002000Y-87015000D02*
X149810000Y-87015000D01*
X149810000Y-87015000D02*
X149810000Y-88985000D01*
X149810000Y-88985000D02*
X151002000Y-88985000D01*
X152018000Y-88985000D02*
X153200000Y-88985000D01*
X153200000Y-88985000D02*
X153200000Y-87015000D01*
D12*
X153200000Y-87015000D02*
X152018000Y-87015000D01*
D11*
X149479000Y-96588943D02*
X149515286Y-96625229D01*
X149624143Y-96661514D01*
X149696714Y-96661514D01*
X149805571Y-96625229D01*
X149878143Y-96552657D01*
X149914428Y-96480086D01*
X149950714Y-96334943D01*
X149950714Y-96226086D01*
X149914428Y-96080943D01*
X149878143Y-96008371D01*
X149805571Y-95935800D01*
X149696714Y-95899514D01*
X149624143Y-95899514D01*
X149515286Y-95935800D01*
X149479000Y-95972086D01*
X148789571Y-95899514D02*
X149152428Y-95899514D01*
X149188714Y-96262371D01*
X149152428Y-96226086D01*
X149079857Y-96189800D01*
X148898428Y-96189800D01*
X148825857Y-96226086D01*
X148789571Y-96262371D01*
X148753286Y-96334943D01*
X148753286Y-96516371D01*
X148789571Y-96588943D01*
X148825857Y-96625229D01*
X148898428Y-96661514D01*
X149079857Y-96661514D01*
X149152428Y-96625229D01*
X149188714Y-96588943D01*
X136042400Y-100043343D02*
X136078686Y-100079629D01*
X136187543Y-100115914D01*
X136260114Y-100115914D01*
X136368971Y-100079629D01*
X136441543Y-100007057D01*
X136477828Y-99934486D01*
X136514114Y-99789343D01*
X136514114Y-99680486D01*
X136477828Y-99535343D01*
X136441543Y-99462771D01*
X136368971Y-99390200D01*
X136260114Y-99353914D01*
X136187543Y-99353914D01*
X136078686Y-99390200D01*
X136042400Y-99426486D01*
X135280400Y-100115914D02*
X135534400Y-99753057D01*
X135715828Y-100115914D02*
X135715828Y-99353914D01*
X135425543Y-99353914D01*
X135352971Y-99390200D01*
X135316686Y-99426486D01*
X135280400Y-99499057D01*
X135280400Y-99607914D01*
X135316686Y-99680486D01*
X135352971Y-99716771D01*
X135425543Y-99753057D01*
X135715828Y-99753057D01*
X134990114Y-99426486D02*
X134953828Y-99390200D01*
X134881257Y-99353914D01*
X134699828Y-99353914D01*
X134627257Y-99390200D01*
X134590971Y-99426486D01*
X134554686Y-99499057D01*
X134554686Y-99571629D01*
X134590971Y-99680486D01*
X135026400Y-100115914D01*
X134554686Y-100115914D01*
X137871200Y-86835343D02*
X137907486Y-86871629D01*
X138016343Y-86907914D01*
X138088914Y-86907914D01*
X138197771Y-86871629D01*
X138270343Y-86799057D01*
X138306628Y-86726486D01*
X138342914Y-86581343D01*
X138342914Y-86472486D01*
X138306628Y-86327343D01*
X138270343Y-86254771D01*
X138197771Y-86182200D01*
X138088914Y-86145914D01*
X138016343Y-86145914D01*
X137907486Y-86182200D01*
X137871200Y-86218486D01*
X137109200Y-86907914D02*
X137363200Y-86545057D01*
X137544628Y-86907914D02*
X137544628Y-86145914D01*
X137254343Y-86145914D01*
X137181771Y-86182200D01*
X137145486Y-86218486D01*
X137109200Y-86291057D01*
X137109200Y-86399914D01*
X137145486Y-86472486D01*
X137181771Y-86508771D01*
X137254343Y-86545057D01*
X137544628Y-86545057D01*
X136855200Y-86145914D02*
X136383486Y-86145914D01*
X136637486Y-86436200D01*
X136528628Y-86436200D01*
X136456057Y-86472486D01*
X136419771Y-86508771D01*
X136383486Y-86581343D01*
X136383486Y-86762771D01*
X136419771Y-86835343D01*
X136456057Y-86871629D01*
X136528628Y-86907914D01*
X136746343Y-86907914D01*
X136818914Y-86871629D01*
X136855200Y-86835343D01*
X154965400Y-88939914D02*
X155219400Y-88577057D01*
X155400828Y-88939914D02*
X155400828Y-88177914D01*
X155110543Y-88177914D01*
X155037971Y-88214200D01*
X155001686Y-88250486D01*
X154965400Y-88323057D01*
X154965400Y-88431914D01*
X155001686Y-88504486D01*
X155037971Y-88540771D01*
X155110543Y-88577057D01*
X155400828Y-88577057D01*
X154239686Y-88939914D02*
X154675114Y-88939914D01*
X154457400Y-88939914D02*
X154457400Y-88177914D01*
X154529971Y-88286771D01*
X154602543Y-88359343D01*
X154675114Y-88395629D01*
X157200600Y-92597514D02*
X157454600Y-92234657D01*
X157636028Y-92597514D02*
X157636028Y-91835514D01*
X157345743Y-91835514D01*
X157273171Y-91871800D01*
X157236886Y-91908086D01*
X157200600Y-91980657D01*
X157200600Y-92089514D01*
X157236886Y-92162086D01*
X157273171Y-92198371D01*
X157345743Y-92234657D01*
X157636028Y-92234657D01*
X156910314Y-91908086D02*
X156874028Y-91871800D01*
X156801457Y-91835514D01*
X156620028Y-91835514D01*
X156547457Y-91871800D01*
X156511171Y-91908086D01*
X156474886Y-91980657D01*
X156474886Y-92053229D01*
X156511171Y-92162086D01*
X156946600Y-92597514D01*
X156474886Y-92597514D01*
X153949400Y-90971914D02*
X154203400Y-90609057D01*
X154384828Y-90971914D02*
X154384828Y-90209914D01*
X154094543Y-90209914D01*
X154021971Y-90246200D01*
X153985686Y-90282486D01*
X153949400Y-90355057D01*
X153949400Y-90463914D01*
X153985686Y-90536486D01*
X154021971Y-90572771D01*
X154094543Y-90609057D01*
X154384828Y-90609057D01*
X153259971Y-90209914D02*
X153622828Y-90209914D01*
X153659114Y-90572771D01*
X153622828Y-90536486D01*
X153550257Y-90500200D01*
X153368828Y-90500200D01*
X153296257Y-90536486D01*
X153259971Y-90572771D01*
X153223686Y-90645343D01*
X153223686Y-90826771D01*
X153259971Y-90899343D01*
X153296257Y-90935629D01*
X153368828Y-90971914D01*
X153550257Y-90971914D01*
X153622828Y-90935629D01*
X153659114Y-90899343D01*
X153949400Y-92800714D02*
X154203400Y-92437857D01*
X154384828Y-92800714D02*
X154384828Y-92038714D01*
X154094543Y-92038714D01*
X154021971Y-92075000D01*
X153985686Y-92111286D01*
X153949400Y-92183857D01*
X153949400Y-92292714D01*
X153985686Y-92365286D01*
X154021971Y-92401571D01*
X154094543Y-92437857D01*
X154384828Y-92437857D01*
X153296257Y-92038714D02*
X153441400Y-92038714D01*
X153513971Y-92075000D01*
X153550257Y-92111286D01*
X153622828Y-92220143D01*
X153659114Y-92365286D01*
X153659114Y-92655571D01*
X153622828Y-92728143D01*
X153586543Y-92764429D01*
X153513971Y-92800714D01*
X153368828Y-92800714D01*
X153296257Y-92764429D01*
X153259971Y-92728143D01*
X153223686Y-92655571D01*
X153223686Y-92474143D01*
X153259971Y-92401571D01*
X153296257Y-92365286D01*
X153368828Y-92329000D01*
X153513971Y-92329000D01*
X153586543Y-92365286D01*
X153622828Y-92401571D01*
X153659114Y-92474143D01*
X151714200Y-82437514D02*
X151968200Y-82074657D01*
X152149628Y-82437514D02*
X152149628Y-81675514D01*
X151859343Y-81675514D01*
X151786771Y-81711800D01*
X151750486Y-81748086D01*
X151714200Y-81820657D01*
X151714200Y-81929514D01*
X151750486Y-82002086D01*
X151786771Y-82038371D01*
X151859343Y-82074657D01*
X152149628Y-82074657D01*
X151460200Y-81675514D02*
X150952200Y-81675514D01*
X151278771Y-82437514D01*
X157766657Y-83250314D02*
X158020657Y-82887457D01*
X158202085Y-83250314D02*
X158202085Y-82488314D01*
X157911800Y-82488314D01*
X157839228Y-82524600D01*
X157802943Y-82560886D01*
X157766657Y-82633457D01*
X157766657Y-82742314D01*
X157802943Y-82814886D01*
X157839228Y-82851171D01*
X157911800Y-82887457D01*
X158202085Y-82887457D01*
X157040943Y-83250314D02*
X157476371Y-83250314D01*
X157258657Y-83250314D02*
X157258657Y-82488314D01*
X157331228Y-82597171D01*
X157403800Y-82669743D01*
X157476371Y-82706029D01*
X156315229Y-83250314D02*
X156750657Y-83250314D01*
X156532943Y-83250314D02*
X156532943Y-82488314D01*
X156605514Y-82597171D01*
X156678086Y-82669743D01*
X156750657Y-82706029D01*
X154921857Y-86704714D02*
X155175857Y-86341857D01*
X155357285Y-86704714D02*
X155357285Y-85942714D01*
X155067000Y-85942714D01*
X154994428Y-85979000D01*
X154958143Y-86015286D01*
X154921857Y-86087857D01*
X154921857Y-86196714D01*
X154958143Y-86269286D01*
X154994428Y-86305571D01*
X155067000Y-86341857D01*
X155357285Y-86341857D01*
X154196143Y-86704714D02*
X154631571Y-86704714D01*
X154413857Y-86704714D02*
X154413857Y-85942714D01*
X154486428Y-86051571D01*
X154559000Y-86124143D01*
X154631571Y-86160429D01*
X153905857Y-86015286D02*
X153869571Y-85979000D01*
X153797000Y-85942714D01*
X153615571Y-85942714D01*
X153543000Y-85979000D01*
X153506714Y-86015286D01*
X153470429Y-86087857D01*
X153470429Y-86160429D01*
X153506714Y-86269286D01*
X153942143Y-86704714D01*
X153470429Y-86704714D01*
X152077057Y-86704714D02*
X152331057Y-86341857D01*
X152512485Y-86704714D02*
X152512485Y-85942714D01*
X152222200Y-85942714D01*
X152149628Y-85979000D01*
X152113343Y-86015286D01*
X152077057Y-86087857D01*
X152077057Y-86196714D01*
X152113343Y-86269286D01*
X152149628Y-86305571D01*
X152222200Y-86341857D01*
X152512485Y-86341857D01*
X151351343Y-86704714D02*
X151786771Y-86704714D01*
X151569057Y-86704714D02*
X151569057Y-85942714D01*
X151641628Y-86051571D01*
X151714200Y-86124143D01*
X151786771Y-86160429D01*
X150661914Y-85942714D02*
X151024771Y-85942714D01*
X151061057Y-86305571D01*
X151024771Y-86269286D01*
X150952200Y-86233000D01*
X150770771Y-86233000D01*
X150698200Y-86269286D01*
X150661914Y-86305571D01*
X150625629Y-86378143D01*
X150625629Y-86559571D01*
X150661914Y-86632143D01*
X150698200Y-86668429D01*
X150770771Y-86704714D01*
X150952200Y-86704714D01*
X151024771Y-86668429D01*
X151061057Y-86632143D01*
M02*
