G04 #@! TF.FileFunction,Legend,Top*
%FSLAX46Y46*%
G04 Gerber Fmt 4.6, Leading zero omitted, Abs format (unit mm)*
G04 Created by KiCad (PCBNEW (2015-06-05 BZR 5717)-product) date Fri 31 Jul 2015 19:12:08 PDT*
%MOMM*%
G01*
G04 APERTURE LIST*
%ADD10C,0.100000*%
%ADD11C,0.152400*%
%ADD12C,0.200000*%
%ADD13C,0.150000*%
%ADD14C,0.127000*%
%ADD15C,0.304800*%
%ADD16C,0.228600*%
G04 APERTURE END LIST*
D10*
D11*
X121593429Y-70093114D02*
X121774858Y-70855114D01*
X121920001Y-70310829D01*
X122065143Y-70855114D01*
X122246572Y-70093114D01*
X122536858Y-70855114D02*
X122536858Y-70093114D01*
X123153715Y-70455971D02*
X122899715Y-70455971D01*
X122899715Y-70855114D02*
X122899715Y-70093114D01*
X123262572Y-70093114D01*
X123552858Y-70855114D02*
X123552858Y-70093114D01*
X124750286Y-70455971D02*
X124859143Y-70492257D01*
X124895428Y-70528543D01*
X124931714Y-70601114D01*
X124931714Y-70709971D01*
X124895428Y-70782543D01*
X124859143Y-70818829D01*
X124786571Y-70855114D01*
X124496286Y-70855114D01*
X124496286Y-70093114D01*
X124750286Y-70093114D01*
X124822857Y-70129400D01*
X124859143Y-70165686D01*
X124895428Y-70238257D01*
X124895428Y-70310829D01*
X124859143Y-70383400D01*
X124822857Y-70419686D01*
X124750286Y-70455971D01*
X124496286Y-70455971D01*
X125222000Y-70637400D02*
X125584857Y-70637400D01*
X125149428Y-70855114D02*
X125403428Y-70093114D01*
X125657428Y-70855114D01*
X125802571Y-70093114D02*
X126238000Y-70093114D01*
X126020286Y-70855114D02*
X126020286Y-70093114D01*
X126383142Y-70093114D02*
X126818571Y-70093114D01*
X126600857Y-70855114D02*
X126600857Y-70093114D01*
X127072571Y-70455971D02*
X127326571Y-70455971D01*
X127435428Y-70855114D02*
X127072571Y-70855114D01*
X127072571Y-70093114D01*
X127435428Y-70093114D01*
X128197428Y-70855114D02*
X127943428Y-70492257D01*
X127762000Y-70855114D02*
X127762000Y-70093114D01*
X128052285Y-70093114D01*
X128124857Y-70129400D01*
X128161142Y-70165686D01*
X128197428Y-70238257D01*
X128197428Y-70347114D01*
X128161142Y-70419686D01*
X128124857Y-70455971D01*
X128052285Y-70492257D01*
X127762000Y-70492257D01*
X128669142Y-70492257D02*
X128669142Y-70855114D01*
X128415142Y-70093114D02*
X128669142Y-70492257D01*
X128923142Y-70093114D01*
X129757714Y-70855114D02*
X129757714Y-70093114D01*
X130011714Y-70637400D01*
X130265714Y-70093114D01*
X130265714Y-70855114D01*
X130773713Y-70093114D02*
X130918856Y-70093114D01*
X130991428Y-70129400D01*
X131063999Y-70201971D01*
X131100285Y-70347114D01*
X131100285Y-70601114D01*
X131063999Y-70746257D01*
X130991428Y-70818829D01*
X130918856Y-70855114D01*
X130773713Y-70855114D01*
X130701142Y-70818829D01*
X130628571Y-70746257D01*
X130592285Y-70601114D01*
X130592285Y-70347114D01*
X130628571Y-70201971D01*
X130701142Y-70129400D01*
X130773713Y-70093114D01*
X131426857Y-70855114D02*
X131426857Y-70093114D01*
X131862285Y-70855114D01*
X131862285Y-70093114D01*
X132225143Y-70855114D02*
X132225143Y-70093114D01*
X132479142Y-70093114D02*
X132914571Y-70093114D01*
X132696857Y-70855114D02*
X132696857Y-70093114D01*
X133313713Y-70093114D02*
X133458856Y-70093114D01*
X133531428Y-70129400D01*
X133603999Y-70201971D01*
X133640285Y-70347114D01*
X133640285Y-70601114D01*
X133603999Y-70746257D01*
X133531428Y-70818829D01*
X133458856Y-70855114D01*
X133313713Y-70855114D01*
X133241142Y-70818829D01*
X133168571Y-70746257D01*
X133132285Y-70601114D01*
X133132285Y-70347114D01*
X133168571Y-70201971D01*
X133241142Y-70129400D01*
X133313713Y-70093114D01*
X134402285Y-70855114D02*
X134148285Y-70492257D01*
X133966857Y-70855114D02*
X133966857Y-70093114D01*
X134257142Y-70093114D01*
X134329714Y-70129400D01*
X134365999Y-70165686D01*
X134402285Y-70238257D01*
X134402285Y-70347114D01*
X134365999Y-70419686D01*
X134329714Y-70455971D01*
X134257142Y-70492257D01*
X133966857Y-70492257D01*
X121571659Y-71312314D02*
X121426516Y-71312314D01*
X121353945Y-71348600D01*
X121317659Y-71384886D01*
X121245088Y-71493743D01*
X121208802Y-71638886D01*
X121208802Y-71929171D01*
X121245088Y-72001743D01*
X121281373Y-72038029D01*
X121353945Y-72074314D01*
X121499088Y-72074314D01*
X121571659Y-72038029D01*
X121607945Y-72001743D01*
X121644230Y-71929171D01*
X121644230Y-71747743D01*
X121607945Y-71675171D01*
X121571659Y-71638886D01*
X121499088Y-71602600D01*
X121353945Y-71602600D01*
X121281373Y-71638886D01*
X121245088Y-71675171D01*
X121208802Y-71747743D01*
X122297373Y-71312314D02*
X122152230Y-71312314D01*
X122079659Y-71348600D01*
X122043373Y-71384886D01*
X121970802Y-71493743D01*
X121934516Y-71638886D01*
X121934516Y-71929171D01*
X121970802Y-72001743D01*
X122007087Y-72038029D01*
X122079659Y-72074314D01*
X122224802Y-72074314D01*
X122297373Y-72038029D01*
X122333659Y-72001743D01*
X122369944Y-71929171D01*
X122369944Y-71747743D01*
X122333659Y-71675171D01*
X122297373Y-71638886D01*
X122224802Y-71602600D01*
X122079659Y-71602600D01*
X122007087Y-71638886D01*
X121970802Y-71675171D01*
X121934516Y-71747743D01*
X122696516Y-71784029D02*
X123277087Y-71784029D01*
X124039087Y-72074314D02*
X123603659Y-72074314D01*
X123821373Y-72074314D02*
X123821373Y-71312314D01*
X123748802Y-71421171D01*
X123676230Y-71493743D01*
X123603659Y-71530029D01*
X124510801Y-71312314D02*
X124583373Y-71312314D01*
X124655944Y-71348600D01*
X124692230Y-71384886D01*
X124728516Y-71457457D01*
X124764801Y-71602600D01*
X124764801Y-71784029D01*
X124728516Y-71929171D01*
X124692230Y-72001743D01*
X124655944Y-72038029D01*
X124583373Y-72074314D01*
X124510801Y-72074314D01*
X124438230Y-72038029D01*
X124401944Y-72001743D01*
X124365659Y-71929171D01*
X124329373Y-71784029D01*
X124329373Y-71602600D01*
X124365659Y-71457457D01*
X124401944Y-71384886D01*
X124438230Y-71348600D01*
X124510801Y-71312314D01*
X125236515Y-71312314D02*
X125309087Y-71312314D01*
X125381658Y-71348600D01*
X125417944Y-71384886D01*
X125454230Y-71457457D01*
X125490515Y-71602600D01*
X125490515Y-71784029D01*
X125454230Y-71929171D01*
X125417944Y-72001743D01*
X125381658Y-72038029D01*
X125309087Y-72074314D01*
X125236515Y-72074314D01*
X125163944Y-72038029D01*
X125127658Y-72001743D01*
X125091373Y-71929171D01*
X125055087Y-71784029D01*
X125055087Y-71602600D01*
X125091373Y-71457457D01*
X125127658Y-71384886D01*
X125163944Y-71348600D01*
X125236515Y-71312314D01*
X126216229Y-72074314D02*
X125780801Y-72074314D01*
X125998515Y-72074314D02*
X125998515Y-71312314D01*
X125925944Y-71421171D01*
X125853372Y-71493743D01*
X125780801Y-71530029D01*
X126687943Y-71312314D02*
X126760515Y-71312314D01*
X126833086Y-71348600D01*
X126869372Y-71384886D01*
X126905658Y-71457457D01*
X126941943Y-71602600D01*
X126941943Y-71784029D01*
X126905658Y-71929171D01*
X126869372Y-72001743D01*
X126833086Y-72038029D01*
X126760515Y-72074314D01*
X126687943Y-72074314D01*
X126615372Y-72038029D01*
X126579086Y-72001743D01*
X126542801Y-71929171D01*
X126506515Y-71784029D01*
X126506515Y-71602600D01*
X126542801Y-71457457D01*
X126579086Y-71384886D01*
X126615372Y-71348600D01*
X126687943Y-71312314D01*
X127595086Y-71566314D02*
X127595086Y-72074314D01*
X127413657Y-71276029D02*
X127232229Y-71820314D01*
X127703943Y-71820314D01*
X129010228Y-72074314D02*
X128756228Y-71711457D01*
X128574800Y-72074314D02*
X128574800Y-71312314D01*
X128865085Y-71312314D01*
X128937657Y-71348600D01*
X128973942Y-71384886D01*
X129010228Y-71457457D01*
X129010228Y-71566314D01*
X128973942Y-71638886D01*
X128937657Y-71675171D01*
X128865085Y-71711457D01*
X128574800Y-71711457D01*
X129336800Y-71675171D02*
X129590800Y-71675171D01*
X129699657Y-72074314D02*
X129336800Y-72074314D01*
X129336800Y-71312314D01*
X129699657Y-71312314D01*
X129917371Y-71312314D02*
X130171371Y-72074314D01*
X130425371Y-71312314D01*
X131187371Y-71312314D02*
X131695371Y-72074314D01*
X131695371Y-71312314D02*
X131187371Y-72074314D01*
X131949371Y-71384886D02*
X131985657Y-71348600D01*
X132058228Y-71312314D01*
X132239657Y-71312314D01*
X132312228Y-71348600D01*
X132348514Y-71384886D01*
X132384799Y-71457457D01*
X132384799Y-71530029D01*
X132348514Y-71638886D01*
X131913085Y-72074314D01*
X132384799Y-72074314D01*
X131894944Y-74512714D02*
X131894944Y-73750714D01*
X131894944Y-74113571D02*
X132330372Y-74113571D01*
X132330372Y-74512714D02*
X132330372Y-73750714D01*
X132620658Y-73750714D02*
X132802087Y-74512714D01*
X132947230Y-73968429D01*
X133092372Y-74512714D01*
X133273801Y-73750714D01*
X133527801Y-74476429D02*
X133636658Y-74512714D01*
X133818087Y-74512714D01*
X133890658Y-74476429D01*
X133926944Y-74440143D01*
X133963229Y-74367571D01*
X133963229Y-74295000D01*
X133926944Y-74222429D01*
X133890658Y-74186143D01*
X133818087Y-74149857D01*
X133672944Y-74113571D01*
X133600372Y-74077286D01*
X133564087Y-74041000D01*
X133527801Y-73968429D01*
X133527801Y-73895857D01*
X133564087Y-73823286D01*
X133600372Y-73787000D01*
X133672944Y-73750714D01*
X133854372Y-73750714D01*
X133963229Y-73787000D01*
X134180943Y-73750714D02*
X134616372Y-73750714D01*
X134398658Y-74512714D02*
X134398658Y-73750714D01*
X134834086Y-74295000D02*
X135196943Y-74295000D01*
X134761514Y-74512714D02*
X135015514Y-73750714D01*
X135269514Y-74512714D01*
X135958943Y-74512714D02*
X135704943Y-74149857D01*
X135523515Y-74512714D02*
X135523515Y-73750714D01*
X135813800Y-73750714D01*
X135886372Y-73787000D01*
X135922657Y-73823286D01*
X135958943Y-73895857D01*
X135958943Y-74004714D01*
X135922657Y-74077286D01*
X135886372Y-74113571D01*
X135813800Y-74149857D01*
X135523515Y-74149857D01*
X122101429Y-73220943D02*
X122065143Y-73257229D01*
X121956286Y-73293514D01*
X121883715Y-73293514D01*
X121774858Y-73257229D01*
X121702286Y-73184657D01*
X121666001Y-73112086D01*
X121629715Y-72966943D01*
X121629715Y-72858086D01*
X121666001Y-72712943D01*
X121702286Y-72640371D01*
X121774858Y-72567800D01*
X121883715Y-72531514D01*
X121956286Y-72531514D01*
X122065143Y-72567800D01*
X122101429Y-72604086D01*
X122573143Y-72531514D02*
X122718286Y-72531514D01*
X122790858Y-72567800D01*
X122863429Y-72640371D01*
X122899715Y-72785514D01*
X122899715Y-73039514D01*
X122863429Y-73184657D01*
X122790858Y-73257229D01*
X122718286Y-73293514D01*
X122573143Y-73293514D01*
X122500572Y-73257229D01*
X122428001Y-73184657D01*
X122391715Y-73039514D01*
X122391715Y-72785514D01*
X122428001Y-72640371D01*
X122500572Y-72567800D01*
X122573143Y-72531514D01*
X123226287Y-73293514D02*
X123226287Y-72531514D01*
X123516572Y-72531514D01*
X123589144Y-72567800D01*
X123625429Y-72604086D01*
X123661715Y-72676657D01*
X123661715Y-72785514D01*
X123625429Y-72858086D01*
X123589144Y-72894371D01*
X123516572Y-72930657D01*
X123226287Y-72930657D01*
X124133429Y-72930657D02*
X124133429Y-73293514D01*
X123879429Y-72531514D02*
X124133429Y-72930657D01*
X124387429Y-72531514D01*
X125076858Y-73293514D02*
X124822858Y-72930657D01*
X124641430Y-73293514D02*
X124641430Y-72531514D01*
X124931715Y-72531514D01*
X125004287Y-72567800D01*
X125040572Y-72604086D01*
X125076858Y-72676657D01*
X125076858Y-72785514D01*
X125040572Y-72858086D01*
X125004287Y-72894371D01*
X124931715Y-72930657D01*
X124641430Y-72930657D01*
X125403430Y-73293514D02*
X125403430Y-72531514D01*
X126165429Y-72567800D02*
X126092858Y-72531514D01*
X125984001Y-72531514D01*
X125875144Y-72567800D01*
X125802572Y-72640371D01*
X125766287Y-72712943D01*
X125730001Y-72858086D01*
X125730001Y-72966943D01*
X125766287Y-73112086D01*
X125802572Y-73184657D01*
X125875144Y-73257229D01*
X125984001Y-73293514D01*
X126056572Y-73293514D01*
X126165429Y-73257229D01*
X126201715Y-73220943D01*
X126201715Y-72966943D01*
X126056572Y-72966943D01*
X126528287Y-73293514D02*
X126528287Y-72531514D01*
X126528287Y-72894371D02*
X126963715Y-72894371D01*
X126963715Y-73293514D02*
X126963715Y-72531514D01*
X127217715Y-72531514D02*
X127653144Y-72531514D01*
X127435430Y-73293514D02*
X127435430Y-72531514D01*
X128451429Y-72604086D02*
X128487715Y-72567800D01*
X128560286Y-72531514D01*
X128741715Y-72531514D01*
X128814286Y-72567800D01*
X128850572Y-72604086D01*
X128886857Y-72676657D01*
X128886857Y-72749229D01*
X128850572Y-72858086D01*
X128415143Y-73293514D01*
X128886857Y-73293514D01*
X129358571Y-72531514D02*
X129431143Y-72531514D01*
X129503714Y-72567800D01*
X129540000Y-72604086D01*
X129576286Y-72676657D01*
X129612571Y-72821800D01*
X129612571Y-73003229D01*
X129576286Y-73148371D01*
X129540000Y-73220943D01*
X129503714Y-73257229D01*
X129431143Y-73293514D01*
X129358571Y-73293514D01*
X129286000Y-73257229D01*
X129249714Y-73220943D01*
X129213429Y-73148371D01*
X129177143Y-73003229D01*
X129177143Y-72821800D01*
X129213429Y-72676657D01*
X129249714Y-72604086D01*
X129286000Y-72567800D01*
X129358571Y-72531514D01*
X130338285Y-73293514D02*
X129902857Y-73293514D01*
X130120571Y-73293514D02*
X130120571Y-72531514D01*
X130048000Y-72640371D01*
X129975428Y-72712943D01*
X129902857Y-72749229D01*
X131027714Y-72531514D02*
X130664857Y-72531514D01*
X130628571Y-72894371D01*
X130664857Y-72858086D01*
X130737428Y-72821800D01*
X130918857Y-72821800D01*
X130991428Y-72858086D01*
X131027714Y-72894371D01*
X131063999Y-72966943D01*
X131063999Y-73148371D01*
X131027714Y-73220943D01*
X130991428Y-73257229D01*
X130918857Y-73293514D01*
X130737428Y-73293514D01*
X130664857Y-73257229D01*
X130628571Y-73220943D01*
X131934856Y-73257229D02*
X132043713Y-73293514D01*
X132225142Y-73293514D01*
X132297713Y-73257229D01*
X132333999Y-73220943D01*
X132370284Y-73148371D01*
X132370284Y-73075800D01*
X132333999Y-73003229D01*
X132297713Y-72966943D01*
X132225142Y-72930657D01*
X132079999Y-72894371D01*
X132007427Y-72858086D01*
X131971142Y-72821800D01*
X131934856Y-72749229D01*
X131934856Y-72676657D01*
X131971142Y-72604086D01*
X132007427Y-72567800D01*
X132079999Y-72531514D01*
X132261427Y-72531514D01*
X132370284Y-72567800D01*
X132587998Y-72531514D02*
X133023427Y-72531514D01*
X132805713Y-73293514D02*
X132805713Y-72531514D01*
X133277427Y-72894371D02*
X133531427Y-72894371D01*
X133640284Y-73293514D02*
X133277427Y-73293514D01*
X133277427Y-72531514D01*
X133640284Y-72531514D01*
X133966856Y-73293514D02*
X133966856Y-72531514D01*
X134257141Y-72531514D01*
X134329713Y-72567800D01*
X134365998Y-72604086D01*
X134402284Y-72676657D01*
X134402284Y-72785514D01*
X134365998Y-72858086D01*
X134329713Y-72894371D01*
X134257141Y-72930657D01*
X133966856Y-72930657D01*
X134728856Y-73293514D02*
X134728856Y-72531514D01*
X134728856Y-72894371D02*
X135164284Y-72894371D01*
X135164284Y-73293514D02*
X135164284Y-72531514D01*
X135527142Y-72894371D02*
X135781142Y-72894371D01*
X135889999Y-73293514D02*
X135527142Y-73293514D01*
X135527142Y-72531514D01*
X135889999Y-72531514D01*
X136216571Y-73293514D02*
X136216571Y-72531514D01*
X136651999Y-73293514D01*
X136651999Y-72531514D01*
X138030856Y-73293514D02*
X137776856Y-72930657D01*
X137595428Y-73293514D02*
X137595428Y-72531514D01*
X137885713Y-72531514D01*
X137958285Y-72567800D01*
X137994570Y-72604086D01*
X138030856Y-72676657D01*
X138030856Y-72785514D01*
X137994570Y-72858086D01*
X137958285Y-72894371D01*
X137885713Y-72930657D01*
X137595428Y-72930657D01*
X138502570Y-72531514D02*
X138647713Y-72531514D01*
X138720285Y-72567800D01*
X138792856Y-72640371D01*
X138829142Y-72785514D01*
X138829142Y-73039514D01*
X138792856Y-73184657D01*
X138720285Y-73257229D01*
X138647713Y-73293514D01*
X138502570Y-73293514D01*
X138429999Y-73257229D01*
X138357428Y-73184657D01*
X138321142Y-73039514D01*
X138321142Y-72785514D01*
X138357428Y-72640371D01*
X138429999Y-72567800D01*
X138502570Y-72531514D01*
X139155714Y-73293514D02*
X139155714Y-72531514D01*
X139337142Y-72531514D01*
X139445999Y-72567800D01*
X139518571Y-72640371D01*
X139554856Y-72712943D01*
X139591142Y-72858086D01*
X139591142Y-72966943D01*
X139554856Y-73112086D01*
X139518571Y-73184657D01*
X139445999Y-73257229D01*
X139337142Y-73293514D01*
X139155714Y-73293514D01*
X140316856Y-72567800D02*
X140244285Y-72531514D01*
X140135428Y-72531514D01*
X140026571Y-72567800D01*
X139953999Y-72640371D01*
X139917714Y-72712943D01*
X139881428Y-72858086D01*
X139881428Y-72966943D01*
X139917714Y-73112086D01*
X139953999Y-73184657D01*
X140026571Y-73257229D01*
X140135428Y-73293514D01*
X140207999Y-73293514D01*
X140316856Y-73257229D01*
X140353142Y-73220943D01*
X140353142Y-72966943D01*
X140207999Y-72966943D01*
X140679714Y-72894371D02*
X140933714Y-72894371D01*
X141042571Y-73293514D02*
X140679714Y-73293514D01*
X140679714Y-72531514D01*
X141042571Y-72531514D01*
X141804571Y-73293514D02*
X141550571Y-72930657D01*
X141369143Y-73293514D02*
X141369143Y-72531514D01*
X141659428Y-72531514D01*
X141732000Y-72567800D01*
X141768285Y-72604086D01*
X141804571Y-72676657D01*
X141804571Y-72785514D01*
X141768285Y-72858086D01*
X141732000Y-72894371D01*
X141659428Y-72930657D01*
X141369143Y-72930657D01*
X142094857Y-73257229D02*
X142203714Y-73293514D01*
X142385143Y-73293514D01*
X142457714Y-73257229D01*
X142494000Y-73220943D01*
X142530285Y-73148371D01*
X142530285Y-73075800D01*
X142494000Y-73003229D01*
X142457714Y-72966943D01*
X142385143Y-72930657D01*
X142240000Y-72894371D01*
X142167428Y-72858086D01*
X142131143Y-72821800D01*
X142094857Y-72749229D01*
X142094857Y-72676657D01*
X142131143Y-72604086D01*
X142167428Y-72567800D01*
X142240000Y-72531514D01*
X142421428Y-72531514D01*
X142530285Y-72567800D01*
X148383172Y-61152314D02*
X148383172Y-61696600D01*
X148346886Y-61805457D01*
X148274315Y-61878029D01*
X148165458Y-61914314D01*
X148092886Y-61914314D01*
X148709743Y-61224886D02*
X148746029Y-61188600D01*
X148818600Y-61152314D01*
X149000029Y-61152314D01*
X149072600Y-61188600D01*
X149108886Y-61224886D01*
X149145171Y-61297457D01*
X149145171Y-61370029D01*
X149108886Y-61478886D01*
X148673457Y-61914314D01*
X149145171Y-61914314D01*
X150052314Y-61914314D02*
X150052314Y-61152314D01*
X150342599Y-61152314D01*
X150415171Y-61188600D01*
X150451456Y-61224886D01*
X150487742Y-61297457D01*
X150487742Y-61406314D01*
X150451456Y-61478886D01*
X150415171Y-61515171D01*
X150342599Y-61551457D01*
X150052314Y-61551457D01*
X150814314Y-61914314D02*
X150814314Y-61152314D01*
X151177171Y-61914314D02*
X151177171Y-61152314D01*
X151612599Y-61914314D01*
X151612599Y-61152314D01*
X152120599Y-61152314D02*
X152265742Y-61152314D01*
X152338314Y-61188600D01*
X152410885Y-61261171D01*
X152447171Y-61406314D01*
X152447171Y-61660314D01*
X152410885Y-61805457D01*
X152338314Y-61878029D01*
X152265742Y-61914314D01*
X152120599Y-61914314D01*
X152048028Y-61878029D01*
X151975457Y-61805457D01*
X151939171Y-61660314D01*
X151939171Y-61406314D01*
X151975457Y-61261171D01*
X152048028Y-61188600D01*
X152120599Y-61152314D01*
X152773743Y-61152314D02*
X152773743Y-61769171D01*
X152810028Y-61841743D01*
X152846314Y-61878029D01*
X152918885Y-61914314D01*
X153064028Y-61914314D01*
X153136600Y-61878029D01*
X153172885Y-61841743D01*
X153209171Y-61769171D01*
X153209171Y-61152314D01*
X153463171Y-61152314D02*
X153898600Y-61152314D01*
X153680886Y-61914314D02*
X153680886Y-61152314D01*
D12*
X143865600Y-62179200D02*
X158496000Y-62179200D01*
D11*
X151565429Y-63539914D02*
X151565429Y-62777914D01*
X151855714Y-62777914D01*
X151928286Y-62814200D01*
X151964571Y-62850486D01*
X152000857Y-62923057D01*
X152000857Y-63031914D01*
X151964571Y-63104486D01*
X151928286Y-63140771D01*
X151855714Y-63177057D01*
X151565429Y-63177057D01*
X152327429Y-63539914D02*
X152327429Y-62777914D01*
X152690286Y-63539914D02*
X152690286Y-62777914D01*
X153125714Y-63539914D01*
X153125714Y-62777914D01*
X153851429Y-62777914D02*
X153488572Y-62777914D01*
X153452286Y-63140771D01*
X153488572Y-63104486D01*
X153561143Y-63068200D01*
X153742572Y-63068200D01*
X153815143Y-63104486D01*
X153851429Y-63140771D01*
X153887714Y-63213343D01*
X153887714Y-63394771D01*
X153851429Y-63467343D01*
X153815143Y-63503629D01*
X153742572Y-63539914D01*
X153561143Y-63539914D01*
X153488572Y-63503629D01*
X153452286Y-63467343D01*
X154214286Y-63467343D02*
X154250571Y-63503629D01*
X154214286Y-63539914D01*
X154178000Y-63503629D01*
X154214286Y-63467343D01*
X154214286Y-63539914D01*
X154214286Y-63068200D02*
X154250571Y-63104486D01*
X154214286Y-63140771D01*
X154178000Y-63104486D01*
X154214286Y-63068200D01*
X154214286Y-63140771D01*
X155302856Y-62777914D02*
X155447999Y-62777914D01*
X155520571Y-62814200D01*
X155593142Y-62886771D01*
X155629428Y-63031914D01*
X155629428Y-63285914D01*
X155593142Y-63431057D01*
X155520571Y-63503629D01*
X155447999Y-63539914D01*
X155302856Y-63539914D01*
X155230285Y-63503629D01*
X155157714Y-63431057D01*
X155121428Y-63285914D01*
X155121428Y-63031914D01*
X155157714Y-62886771D01*
X155230285Y-62814200D01*
X155302856Y-62777914D01*
X155956000Y-63539914D02*
X155956000Y-62777914D01*
X156137428Y-62777914D01*
X156246285Y-62814200D01*
X156318857Y-62886771D01*
X156355142Y-62959343D01*
X156391428Y-63104486D01*
X156391428Y-63213343D01*
X156355142Y-63358486D01*
X156318857Y-63431057D01*
X156246285Y-63503629D01*
X156137428Y-63539914D01*
X155956000Y-63539914D01*
X157153428Y-63539914D02*
X156899428Y-63177057D01*
X156718000Y-63539914D02*
X156718000Y-62777914D01*
X157008285Y-62777914D01*
X157080857Y-62814200D01*
X157117142Y-62850486D01*
X157153428Y-62923057D01*
X157153428Y-63031914D01*
X157117142Y-63104486D01*
X157080857Y-63140771D01*
X157008285Y-63177057D01*
X156718000Y-63177057D01*
X157371142Y-62777914D02*
X157806571Y-62777914D01*
X157588857Y-63539914D02*
X157588857Y-62777914D01*
X158060571Y-63539914D02*
X158060571Y-62777914D01*
X158495999Y-63539914D01*
X158495999Y-62777914D01*
X151565429Y-64759114D02*
X151565429Y-63997114D01*
X151855714Y-63997114D01*
X151928286Y-64033400D01*
X151964571Y-64069686D01*
X152000857Y-64142257D01*
X152000857Y-64251114D01*
X151964571Y-64323686D01*
X151928286Y-64359971D01*
X151855714Y-64396257D01*
X151565429Y-64396257D01*
X152327429Y-64759114D02*
X152327429Y-63997114D01*
X152690286Y-64759114D02*
X152690286Y-63997114D01*
X153125714Y-64759114D01*
X153125714Y-63997114D01*
X153815143Y-63997114D02*
X153670000Y-63997114D01*
X153597429Y-64033400D01*
X153561143Y-64069686D01*
X153488572Y-64178543D01*
X153452286Y-64323686D01*
X153452286Y-64613971D01*
X153488572Y-64686543D01*
X153524857Y-64722829D01*
X153597429Y-64759114D01*
X153742572Y-64759114D01*
X153815143Y-64722829D01*
X153851429Y-64686543D01*
X153887714Y-64613971D01*
X153887714Y-64432543D01*
X153851429Y-64359971D01*
X153815143Y-64323686D01*
X153742572Y-64287400D01*
X153597429Y-64287400D01*
X153524857Y-64323686D01*
X153488572Y-64359971D01*
X153452286Y-64432543D01*
X154214286Y-64686543D02*
X154250571Y-64722829D01*
X154214286Y-64759114D01*
X154178000Y-64722829D01*
X154214286Y-64686543D01*
X154214286Y-64759114D01*
X154214286Y-64287400D02*
X154250571Y-64323686D01*
X154214286Y-64359971D01*
X154178000Y-64323686D01*
X154214286Y-64287400D01*
X154214286Y-64359971D01*
X155302856Y-63997114D02*
X155447999Y-63997114D01*
X155520571Y-64033400D01*
X155593142Y-64105971D01*
X155629428Y-64251114D01*
X155629428Y-64505114D01*
X155593142Y-64650257D01*
X155520571Y-64722829D01*
X155447999Y-64759114D01*
X155302856Y-64759114D01*
X155230285Y-64722829D01*
X155157714Y-64650257D01*
X155121428Y-64505114D01*
X155121428Y-64251114D01*
X155157714Y-64105971D01*
X155230285Y-64033400D01*
X155302856Y-63997114D01*
X155956000Y-64759114D02*
X155956000Y-63997114D01*
X156137428Y-63997114D01*
X156246285Y-64033400D01*
X156318857Y-64105971D01*
X156355142Y-64178543D01*
X156391428Y-64323686D01*
X156391428Y-64432543D01*
X156355142Y-64577686D01*
X156318857Y-64650257D01*
X156246285Y-64722829D01*
X156137428Y-64759114D01*
X155956000Y-64759114D01*
X157117142Y-64759114D02*
X156681714Y-64759114D01*
X156899428Y-64759114D02*
X156899428Y-63997114D01*
X156826857Y-64105971D01*
X156754285Y-64178543D01*
X156681714Y-64214829D01*
X151565429Y-65978314D02*
X151565429Y-65216314D01*
X151855714Y-65216314D01*
X151928286Y-65252600D01*
X151964571Y-65288886D01*
X152000857Y-65361457D01*
X152000857Y-65470314D01*
X151964571Y-65542886D01*
X151928286Y-65579171D01*
X151855714Y-65615457D01*
X151565429Y-65615457D01*
X152327429Y-65978314D02*
X152327429Y-65216314D01*
X152690286Y-65978314D02*
X152690286Y-65216314D01*
X153125714Y-65978314D01*
X153125714Y-65216314D01*
X153416000Y-65216314D02*
X153924000Y-65216314D01*
X153597429Y-65978314D01*
X154214286Y-65905743D02*
X154250571Y-65942029D01*
X154214286Y-65978314D01*
X154178000Y-65942029D01*
X154214286Y-65905743D01*
X154214286Y-65978314D01*
X154214286Y-65506600D02*
X154250571Y-65542886D01*
X154214286Y-65579171D01*
X154178000Y-65542886D01*
X154214286Y-65506600D01*
X154214286Y-65579171D01*
X155302856Y-65216314D02*
X155447999Y-65216314D01*
X155520571Y-65252600D01*
X155593142Y-65325171D01*
X155629428Y-65470314D01*
X155629428Y-65724314D01*
X155593142Y-65869457D01*
X155520571Y-65942029D01*
X155447999Y-65978314D01*
X155302856Y-65978314D01*
X155230285Y-65942029D01*
X155157714Y-65869457D01*
X155121428Y-65724314D01*
X155121428Y-65470314D01*
X155157714Y-65325171D01*
X155230285Y-65252600D01*
X155302856Y-65216314D01*
X155956000Y-65978314D02*
X155956000Y-65216314D01*
X156137428Y-65216314D01*
X156246285Y-65252600D01*
X156318857Y-65325171D01*
X156355142Y-65397743D01*
X156391428Y-65542886D01*
X156391428Y-65651743D01*
X156355142Y-65796886D01*
X156318857Y-65869457D01*
X156246285Y-65942029D01*
X156137428Y-65978314D01*
X155956000Y-65978314D01*
X156681714Y-65288886D02*
X156718000Y-65252600D01*
X156790571Y-65216314D01*
X156972000Y-65216314D01*
X157044571Y-65252600D01*
X157080857Y-65288886D01*
X157117142Y-65361457D01*
X157117142Y-65434029D01*
X157080857Y-65542886D01*
X156645428Y-65978314D01*
X157117142Y-65978314D01*
X151565429Y-67197514D02*
X151565429Y-66435514D01*
X151855714Y-66435514D01*
X151928286Y-66471800D01*
X151964571Y-66508086D01*
X152000857Y-66580657D01*
X152000857Y-66689514D01*
X151964571Y-66762086D01*
X151928286Y-66798371D01*
X151855714Y-66834657D01*
X151565429Y-66834657D01*
X152327429Y-67197514D02*
X152327429Y-66435514D01*
X152690286Y-67197514D02*
X152690286Y-66435514D01*
X153125714Y-67197514D01*
X153125714Y-66435514D01*
X153597429Y-66762086D02*
X153524857Y-66725800D01*
X153488572Y-66689514D01*
X153452286Y-66616943D01*
X153452286Y-66580657D01*
X153488572Y-66508086D01*
X153524857Y-66471800D01*
X153597429Y-66435514D01*
X153742572Y-66435514D01*
X153815143Y-66471800D01*
X153851429Y-66508086D01*
X153887714Y-66580657D01*
X153887714Y-66616943D01*
X153851429Y-66689514D01*
X153815143Y-66725800D01*
X153742572Y-66762086D01*
X153597429Y-66762086D01*
X153524857Y-66798371D01*
X153488572Y-66834657D01*
X153452286Y-66907229D01*
X153452286Y-67052371D01*
X153488572Y-67124943D01*
X153524857Y-67161229D01*
X153597429Y-67197514D01*
X153742572Y-67197514D01*
X153815143Y-67161229D01*
X153851429Y-67124943D01*
X153887714Y-67052371D01*
X153887714Y-66907229D01*
X153851429Y-66834657D01*
X153815143Y-66798371D01*
X153742572Y-66762086D01*
X154214286Y-67124943D02*
X154250571Y-67161229D01*
X154214286Y-67197514D01*
X154178000Y-67161229D01*
X154214286Y-67124943D01*
X154214286Y-67197514D01*
X154214286Y-66725800D02*
X154250571Y-66762086D01*
X154214286Y-66798371D01*
X154178000Y-66762086D01*
X154214286Y-66725800D01*
X154214286Y-66798371D01*
X155556856Y-66471800D02*
X155484285Y-66435514D01*
X155375428Y-66435514D01*
X155266571Y-66471800D01*
X155193999Y-66544371D01*
X155157714Y-66616943D01*
X155121428Y-66762086D01*
X155121428Y-66870943D01*
X155157714Y-67016086D01*
X155193999Y-67088657D01*
X155266571Y-67161229D01*
X155375428Y-67197514D01*
X155447999Y-67197514D01*
X155556856Y-67161229D01*
X155593142Y-67124943D01*
X155593142Y-66870943D01*
X155447999Y-66870943D01*
X155919714Y-67197514D02*
X155919714Y-66435514D01*
X156355142Y-67197514D01*
X156355142Y-66435514D01*
X156718000Y-67197514D02*
X156718000Y-66435514D01*
X156899428Y-66435514D01*
X157008285Y-66471800D01*
X157080857Y-66544371D01*
X157117142Y-66616943D01*
X157153428Y-66762086D01*
X157153428Y-66870943D01*
X157117142Y-67016086D01*
X157080857Y-67088657D01*
X157008285Y-67161229D01*
X156899428Y-67197514D01*
X156718000Y-67197514D01*
X144047029Y-63539914D02*
X144047029Y-62777914D01*
X144337314Y-62777914D01*
X144409886Y-62814200D01*
X144446171Y-62850486D01*
X144482457Y-62923057D01*
X144482457Y-63031914D01*
X144446171Y-63104486D01*
X144409886Y-63140771D01*
X144337314Y-63177057D01*
X144047029Y-63177057D01*
X144809029Y-63539914D02*
X144809029Y-62777914D01*
X145171886Y-63539914D02*
X145171886Y-62777914D01*
X145607314Y-63539914D01*
X145607314Y-62777914D01*
X146369314Y-63539914D02*
X145933886Y-63539914D01*
X146151600Y-63539914D02*
X146151600Y-62777914D01*
X146079029Y-62886771D01*
X146006457Y-62959343D01*
X145933886Y-62995629D01*
X146695886Y-63467343D02*
X146732171Y-63503629D01*
X146695886Y-63539914D01*
X146659600Y-63503629D01*
X146695886Y-63467343D01*
X146695886Y-63539914D01*
X146695886Y-63068200D02*
X146732171Y-63104486D01*
X146695886Y-63140771D01*
X146659600Y-63104486D01*
X146695886Y-63068200D01*
X146695886Y-63140771D01*
X147530456Y-62777914D02*
X147784456Y-63539914D01*
X148038456Y-62777914D01*
X148546457Y-63140771D02*
X148655314Y-63177057D01*
X148691599Y-63213343D01*
X148727885Y-63285914D01*
X148727885Y-63394771D01*
X148691599Y-63467343D01*
X148655314Y-63503629D01*
X148582742Y-63539914D01*
X148292457Y-63539914D01*
X148292457Y-62777914D01*
X148546457Y-62777914D01*
X148619028Y-62814200D01*
X148655314Y-62850486D01*
X148691599Y-62923057D01*
X148691599Y-62995629D01*
X148655314Y-63068200D01*
X148619028Y-63104486D01*
X148546457Y-63140771D01*
X148292457Y-63140771D01*
X149018171Y-63322200D02*
X149381028Y-63322200D01*
X148945599Y-63539914D02*
X149199599Y-62777914D01*
X149453599Y-63539914D01*
X149598742Y-62777914D02*
X150034171Y-62777914D01*
X149816457Y-63539914D02*
X149816457Y-62777914D01*
X150179313Y-62777914D02*
X150614742Y-62777914D01*
X150397028Y-63539914D02*
X150397028Y-62777914D01*
X144047029Y-64759114D02*
X144047029Y-63997114D01*
X144337314Y-63997114D01*
X144409886Y-64033400D01*
X144446171Y-64069686D01*
X144482457Y-64142257D01*
X144482457Y-64251114D01*
X144446171Y-64323686D01*
X144409886Y-64359971D01*
X144337314Y-64396257D01*
X144047029Y-64396257D01*
X144809029Y-64759114D02*
X144809029Y-63997114D01*
X145171886Y-64759114D02*
X145171886Y-63997114D01*
X145607314Y-64759114D01*
X145607314Y-63997114D01*
X145933886Y-64069686D02*
X145970172Y-64033400D01*
X146042743Y-63997114D01*
X146224172Y-63997114D01*
X146296743Y-64033400D01*
X146333029Y-64069686D01*
X146369314Y-64142257D01*
X146369314Y-64214829D01*
X146333029Y-64323686D01*
X145897600Y-64759114D01*
X146369314Y-64759114D01*
X146695886Y-64686543D02*
X146732171Y-64722829D01*
X146695886Y-64759114D01*
X146659600Y-64722829D01*
X146695886Y-64686543D01*
X146695886Y-64759114D01*
X146695886Y-64287400D02*
X146732171Y-64323686D01*
X146695886Y-64359971D01*
X146659600Y-64323686D01*
X146695886Y-64287400D01*
X146695886Y-64359971D01*
X147530456Y-63997114D02*
X147784456Y-64759114D01*
X148038456Y-63997114D01*
X148546457Y-64359971D02*
X148655314Y-64396257D01*
X148691599Y-64432543D01*
X148727885Y-64505114D01*
X148727885Y-64613971D01*
X148691599Y-64686543D01*
X148655314Y-64722829D01*
X148582742Y-64759114D01*
X148292457Y-64759114D01*
X148292457Y-63997114D01*
X148546457Y-63997114D01*
X148619028Y-64033400D01*
X148655314Y-64069686D01*
X148691599Y-64142257D01*
X148691599Y-64214829D01*
X148655314Y-64287400D01*
X148619028Y-64323686D01*
X148546457Y-64359971D01*
X148292457Y-64359971D01*
X149054457Y-63997114D02*
X149054457Y-64613971D01*
X149090742Y-64686543D01*
X149127028Y-64722829D01*
X149199599Y-64759114D01*
X149344742Y-64759114D01*
X149417314Y-64722829D01*
X149453599Y-64686543D01*
X149489885Y-64613971D01*
X149489885Y-63997114D01*
X149816457Y-64722829D02*
X149925314Y-64759114D01*
X150106743Y-64759114D01*
X150179314Y-64722829D01*
X150215600Y-64686543D01*
X150251885Y-64613971D01*
X150251885Y-64541400D01*
X150215600Y-64468829D01*
X150179314Y-64432543D01*
X150106743Y-64396257D01*
X149961600Y-64359971D01*
X149889028Y-64323686D01*
X149852743Y-64287400D01*
X149816457Y-64214829D01*
X149816457Y-64142257D01*
X149852743Y-64069686D01*
X149889028Y-64033400D01*
X149961600Y-63997114D01*
X150143028Y-63997114D01*
X150251885Y-64033400D01*
X144047029Y-65978314D02*
X144047029Y-65216314D01*
X144337314Y-65216314D01*
X144409886Y-65252600D01*
X144446171Y-65288886D01*
X144482457Y-65361457D01*
X144482457Y-65470314D01*
X144446171Y-65542886D01*
X144409886Y-65579171D01*
X144337314Y-65615457D01*
X144047029Y-65615457D01*
X144809029Y-65978314D02*
X144809029Y-65216314D01*
X145171886Y-65978314D02*
X145171886Y-65216314D01*
X145607314Y-65978314D01*
X145607314Y-65216314D01*
X145897600Y-65216314D02*
X146369314Y-65216314D01*
X146115314Y-65506600D01*
X146224172Y-65506600D01*
X146296743Y-65542886D01*
X146333029Y-65579171D01*
X146369314Y-65651743D01*
X146369314Y-65833171D01*
X146333029Y-65905743D01*
X146296743Y-65942029D01*
X146224172Y-65978314D01*
X146006457Y-65978314D01*
X145933886Y-65942029D01*
X145897600Y-65905743D01*
X146695886Y-65905743D02*
X146732171Y-65942029D01*
X146695886Y-65978314D01*
X146659600Y-65942029D01*
X146695886Y-65905743D01*
X146695886Y-65978314D01*
X146695886Y-65506600D02*
X146732171Y-65542886D01*
X146695886Y-65579171D01*
X146659600Y-65542886D01*
X146695886Y-65506600D01*
X146695886Y-65579171D01*
X147639314Y-65978314D02*
X147639314Y-65216314D01*
X148002171Y-65688029D02*
X148582742Y-65688029D01*
X148292456Y-65978314D02*
X148292456Y-65397743D01*
X144047029Y-67197514D02*
X144047029Y-66435514D01*
X144337314Y-66435514D01*
X144409886Y-66471800D01*
X144446171Y-66508086D01*
X144482457Y-66580657D01*
X144482457Y-66689514D01*
X144446171Y-66762086D01*
X144409886Y-66798371D01*
X144337314Y-66834657D01*
X144047029Y-66834657D01*
X144809029Y-67197514D02*
X144809029Y-66435514D01*
X145171886Y-67197514D02*
X145171886Y-66435514D01*
X145607314Y-67197514D01*
X145607314Y-66435514D01*
X146296743Y-66689514D02*
X146296743Y-67197514D01*
X146115314Y-66399229D02*
X145933886Y-66943514D01*
X146405600Y-66943514D01*
X146695886Y-67124943D02*
X146732171Y-67161229D01*
X146695886Y-67197514D01*
X146659600Y-67161229D01*
X146695886Y-67124943D01*
X146695886Y-67197514D01*
X146695886Y-66725800D02*
X146732171Y-66762086D01*
X146695886Y-66798371D01*
X146659600Y-66762086D01*
X146695886Y-66725800D01*
X146695886Y-66798371D01*
X147639314Y-67197514D02*
X147639314Y-66435514D01*
X148002171Y-66907229D02*
X148582742Y-66907229D01*
X137882086Y-61507914D02*
X137628086Y-61145057D01*
X137446658Y-61507914D02*
X137446658Y-60745914D01*
X137736943Y-60745914D01*
X137809515Y-60782200D01*
X137845800Y-60818486D01*
X137882086Y-60891057D01*
X137882086Y-60999914D01*
X137845800Y-61072486D01*
X137809515Y-61108771D01*
X137736943Y-61145057D01*
X137446658Y-61145057D01*
X138208658Y-61108771D02*
X138462658Y-61108771D01*
X138571515Y-61507914D02*
X138208658Y-61507914D01*
X138208658Y-60745914D01*
X138571515Y-60745914D01*
X138861801Y-61471629D02*
X138970658Y-61507914D01*
X139152087Y-61507914D01*
X139224658Y-61471629D01*
X139260944Y-61435343D01*
X139297229Y-61362771D01*
X139297229Y-61290200D01*
X139260944Y-61217629D01*
X139224658Y-61181343D01*
X139152087Y-61145057D01*
X139006944Y-61108771D01*
X138934372Y-61072486D01*
X138898087Y-61036200D01*
X138861801Y-60963629D01*
X138861801Y-60891057D01*
X138898087Y-60818486D01*
X138934372Y-60782200D01*
X139006944Y-60745914D01*
X139188372Y-60745914D01*
X139297229Y-60782200D01*
X139623801Y-61108771D02*
X139877801Y-61108771D01*
X139986658Y-61507914D02*
X139623801Y-61507914D01*
X139623801Y-60745914D01*
X139986658Y-60745914D01*
X140204372Y-60745914D02*
X140639801Y-60745914D01*
X140422087Y-61507914D02*
X140422087Y-60745914D01*
X165793058Y-93214371D02*
X165901915Y-93250657D01*
X165938200Y-93286943D01*
X165974486Y-93359514D01*
X165974486Y-93468371D01*
X165938200Y-93540943D01*
X165901915Y-93577229D01*
X165829343Y-93613514D01*
X165539058Y-93613514D01*
X165539058Y-92851514D01*
X165793058Y-92851514D01*
X165865629Y-92887800D01*
X165901915Y-92924086D01*
X165938200Y-92996657D01*
X165938200Y-93069229D01*
X165901915Y-93141800D01*
X165865629Y-93178086D01*
X165793058Y-93214371D01*
X165539058Y-93214371D01*
X166446200Y-92851514D02*
X166591343Y-92851514D01*
X166663915Y-92887800D01*
X166736486Y-92960371D01*
X166772772Y-93105514D01*
X166772772Y-93359514D01*
X166736486Y-93504657D01*
X166663915Y-93577229D01*
X166591343Y-93613514D01*
X166446200Y-93613514D01*
X166373629Y-93577229D01*
X166301058Y-93504657D01*
X166264772Y-93359514D01*
X166264772Y-93105514D01*
X166301058Y-92960371D01*
X166373629Y-92887800D01*
X166446200Y-92851514D01*
X167244486Y-92851514D02*
X167389629Y-92851514D01*
X167462201Y-92887800D01*
X167534772Y-92960371D01*
X167571058Y-93105514D01*
X167571058Y-93359514D01*
X167534772Y-93504657D01*
X167462201Y-93577229D01*
X167389629Y-93613514D01*
X167244486Y-93613514D01*
X167171915Y-93577229D01*
X167099344Y-93504657D01*
X167063058Y-93359514D01*
X167063058Y-93105514D01*
X167099344Y-92960371D01*
X167171915Y-92887800D01*
X167244486Y-92851514D01*
X167788772Y-92851514D02*
X168224201Y-92851514D01*
X168006487Y-93613514D02*
X168006487Y-92851514D01*
X165466486Y-74309514D02*
X165466486Y-73547514D01*
X165756771Y-73547514D01*
X165829343Y-73583800D01*
X165865628Y-73620086D01*
X165901914Y-73692657D01*
X165901914Y-73801514D01*
X165865628Y-73874086D01*
X165829343Y-73910371D01*
X165756771Y-73946657D01*
X165466486Y-73946657D01*
X166663914Y-74309514D02*
X166409914Y-73946657D01*
X166228486Y-74309514D02*
X166228486Y-73547514D01*
X166518771Y-73547514D01*
X166591343Y-73583800D01*
X166627628Y-73620086D01*
X166663914Y-73692657D01*
X166663914Y-73801514D01*
X166627628Y-73874086D01*
X166591343Y-73910371D01*
X166518771Y-73946657D01*
X166228486Y-73946657D01*
X167135628Y-73547514D02*
X167280771Y-73547514D01*
X167353343Y-73583800D01*
X167425914Y-73656371D01*
X167462200Y-73801514D01*
X167462200Y-74055514D01*
X167425914Y-74200657D01*
X167353343Y-74273229D01*
X167280771Y-74309514D01*
X167135628Y-74309514D01*
X167063057Y-74273229D01*
X166990486Y-74200657D01*
X166954200Y-74055514D01*
X166954200Y-73801514D01*
X166990486Y-73656371D01*
X167063057Y-73583800D01*
X167135628Y-73547514D01*
X168187914Y-73583800D02*
X168115343Y-73547514D01*
X168006486Y-73547514D01*
X167897629Y-73583800D01*
X167825057Y-73656371D01*
X167788772Y-73728943D01*
X167752486Y-73874086D01*
X167752486Y-73982943D01*
X167788772Y-74128086D01*
X167825057Y-74200657D01*
X167897629Y-74273229D01*
X168006486Y-74309514D01*
X168079057Y-74309514D01*
X168187914Y-74273229D01*
X168224200Y-74236943D01*
X168224200Y-73982943D01*
X168079057Y-73982943D01*
X122494620Y-99279760D02*
X121545000Y-99279760D01*
X123495380Y-99279760D02*
X124445000Y-99279760D01*
X122494620Y-100720240D02*
X121545000Y-100720240D01*
X124445000Y-100720240D02*
X123495380Y-100720240D01*
X121545000Y-100720240D02*
X121545000Y-99279760D01*
X124445000Y-99279760D02*
X124445000Y-100720240D01*
X140928240Y-86870620D02*
X140928240Y-85921000D01*
X140928240Y-87871380D02*
X140928240Y-88821000D01*
X139487760Y-86870620D02*
X139487760Y-85921000D01*
X139487760Y-88821000D02*
X139487760Y-87871380D01*
X139487760Y-85921000D02*
X140928240Y-85921000D01*
X140928240Y-88821000D02*
X139487760Y-88821000D01*
X132005380Y-92970240D02*
X132955000Y-92970240D01*
X131004620Y-92970240D02*
X130055000Y-92970240D01*
X132005380Y-91529760D02*
X132955000Y-91529760D01*
X130055000Y-91529760D02*
X131004620Y-91529760D01*
X132955000Y-91529760D02*
X132955000Y-92970240D01*
X130055000Y-92970240D02*
X130055000Y-91529760D01*
X130994620Y-96029760D02*
X130045000Y-96029760D01*
X131995380Y-96029760D02*
X132945000Y-96029760D01*
X130994620Y-97470240D02*
X130045000Y-97470240D01*
X132945000Y-97470240D02*
X131995380Y-97470240D01*
X130045000Y-97470240D02*
X130045000Y-96029760D01*
X132945000Y-96029760D02*
X132945000Y-97470240D01*
X135220240Y-88494620D02*
X135220240Y-87545000D01*
X135220240Y-89495380D02*
X135220240Y-90445000D01*
X133779760Y-88494620D02*
X133779760Y-87545000D01*
X133779760Y-90445000D02*
X133779760Y-89495380D01*
X133779760Y-87545000D02*
X135220240Y-87545000D01*
X135220240Y-90445000D02*
X133779760Y-90445000D01*
X140143000Y-99665000D02*
X137857000Y-99665000D01*
X137857000Y-99665000D02*
X137857000Y-101116000D01*
X140143000Y-102894000D02*
X140143000Y-104345000D01*
X140143000Y-104345000D02*
X137857000Y-104345000D01*
X137857000Y-104345000D02*
X137857000Y-102894000D01*
X140143000Y-101116000D02*
X140143000Y-99665000D01*
X143143000Y-99665000D02*
X140857000Y-99665000D01*
X140857000Y-99665000D02*
X140857000Y-101116000D01*
X143143000Y-102894000D02*
X143143000Y-104345000D01*
X143143000Y-104345000D02*
X140857000Y-104345000D01*
X140857000Y-104345000D02*
X140857000Y-102894000D01*
X143143000Y-101116000D02*
X143143000Y-99665000D01*
X149244620Y-102779760D02*
X148295000Y-102779760D01*
X150245380Y-102779760D02*
X151195000Y-102779760D01*
X149244620Y-104220240D02*
X148295000Y-104220240D01*
X151195000Y-104220240D02*
X150245380Y-104220240D01*
X148295000Y-104220240D02*
X148295000Y-102779760D01*
X151195000Y-102779760D02*
X151195000Y-104220240D01*
X158247000Y-108962000D02*
X157031000Y-108962000D01*
X157031000Y-108962000D02*
X157031000Y-107038000D01*
X157031000Y-107038000D02*
X158247000Y-107038000D01*
X159263000Y-107038000D02*
X160479000Y-107038000D01*
X160479000Y-107038000D02*
X160479000Y-108962000D01*
X160479000Y-108962000D02*
X159263000Y-108962000D01*
X158247000Y-106212000D02*
X157031000Y-106212000D01*
X157031000Y-106212000D02*
X157031000Y-104288000D01*
X157031000Y-104288000D02*
X158247000Y-104288000D01*
X159263000Y-104288000D02*
X160479000Y-104288000D01*
X160479000Y-104288000D02*
X160479000Y-106212000D01*
X160479000Y-106212000D02*
X159263000Y-106212000D01*
D13*
X135900000Y-102546000D02*
X135900000Y-105454000D01*
X136209600Y-102546000D02*
X136209600Y-105454000D01*
X128100200Y-102546000D02*
X128100200Y-105454000D01*
D11*
X131600000Y-103990000D02*
X131350000Y-103990000D01*
X128100000Y-102546000D02*
X136200000Y-102546000D01*
X128100000Y-105454000D02*
X136200000Y-105454000D01*
X132278000Y-103990000D02*
X131643000Y-103515020D01*
X131643000Y-103515020D02*
X131643000Y-103990000D01*
X131643000Y-103990000D02*
X131643000Y-104464980D01*
X131643000Y-104464980D02*
X132278000Y-103990000D01*
X132278000Y-103990000D02*
X132278000Y-103672500D01*
X132278000Y-103672500D02*
X132120520Y-103515020D01*
X132278000Y-103990000D02*
X132278000Y-104307500D01*
X132278000Y-104307500D02*
X132435480Y-104464980D01*
X132278000Y-103990000D02*
X132650000Y-103990000D01*
D13*
X156274000Y-101694000D02*
X156274000Y-101186000D01*
X156274000Y-101186000D02*
X153226000Y-101186000D01*
X153226000Y-101186000D02*
X153226000Y-101694000D01*
X153226000Y-108806000D02*
X153226000Y-101694000D01*
X153226000Y-101694000D02*
X156274000Y-101694000D01*
X156274000Y-101694000D02*
X156274000Y-108806000D01*
X156274000Y-108806000D02*
X153226000Y-108806000D01*
X146774000Y-100194000D02*
X146774000Y-99686000D01*
X146774000Y-99686000D02*
X143726000Y-99686000D01*
X143726000Y-99686000D02*
X143726000Y-100194000D01*
X143726000Y-107306000D02*
X143726000Y-100194000D01*
X143726000Y-100194000D02*
X146774000Y-100194000D01*
X146774000Y-100194000D02*
X146774000Y-107306000D01*
X146774000Y-107306000D02*
X143726000Y-107306000D01*
X162485000Y-97600000D02*
X162485000Y-102100000D01*
X160515000Y-97600000D02*
X160515000Y-102100000D01*
D11*
X162485000Y-97600000D02*
X160515000Y-97600000D01*
X162485000Y-102100000D02*
X160515000Y-102100000D01*
X160515000Y-97900000D02*
X162485000Y-97900000D01*
X136505380Y-100720240D02*
X137455000Y-100720240D01*
X135504620Y-100720240D02*
X134555000Y-100720240D01*
X136505380Y-99279760D02*
X137455000Y-99279760D01*
X134555000Y-99279760D02*
X135504620Y-99279760D01*
X137455000Y-99279760D02*
X137455000Y-100720240D01*
X134555000Y-100720240D02*
X134555000Y-99279760D01*
X132005380Y-95220240D02*
X132955000Y-95220240D01*
X131004620Y-95220240D02*
X130055000Y-95220240D01*
X132005380Y-93779760D02*
X132955000Y-93779760D01*
X130055000Y-93779760D02*
X131004620Y-93779760D01*
X132955000Y-93779760D02*
X132955000Y-95220240D01*
X130055000Y-95220240D02*
X130055000Y-93779760D01*
D14*
X132124000Y-102032000D02*
X133775000Y-102032000D01*
X133775000Y-102032000D02*
X133775000Y-97968000D01*
X133775000Y-97968000D02*
X132124000Y-97968000D01*
X127776000Y-97968000D02*
X126125000Y-97968000D01*
X126125000Y-97968000D02*
X126125000Y-102032000D01*
X126125000Y-102032000D02*
X127776000Y-102032000D01*
D12*
X165400000Y-96500000D02*
G75*
G03X165400000Y-96500000I-100000J0D01*
G01*
D15*
X165730000Y-95460000D02*
X168270000Y-95460000D01*
X168270000Y-95460000D02*
X168270000Y-100540000D01*
X168270000Y-100540000D02*
X165730000Y-100540000D01*
X165730000Y-100540000D02*
X165730000Y-95460000D01*
D12*
X120809000Y-95144000D02*
G75*
G03X120809000Y-95144000I-127000J0D01*
G01*
D15*
X121444000Y-97176000D02*
X121444000Y-74824000D01*
X121444000Y-74824000D02*
X128556000Y-74824000D01*
X128556000Y-74824000D02*
X128556000Y-97176000D01*
X128556000Y-97176000D02*
X121444000Y-97176000D01*
D16*
X168905000Y-90604000D02*
G75*
G03X168905000Y-90604000I-127000J0D01*
G01*
D15*
X168270000Y-91620000D02*
X165730000Y-91620000D01*
X165730000Y-91620000D02*
X165730000Y-76380000D01*
X165730000Y-76380000D02*
X168270000Y-76380000D01*
X168270000Y-76380000D02*
X168270000Y-91620000D01*
X168270000Y-89080000D02*
X165730000Y-89080000D01*
D11*
X131070000Y-81950000D02*
X131930000Y-81950000D01*
X131070000Y-84553500D02*
X131930000Y-84553500D01*
X131930000Y-81950000D02*
X131930000Y-84553500D01*
X131070000Y-84553500D02*
X131070000Y-81950000D01*
X131070000Y-78200000D02*
X131930000Y-78200000D01*
X131070000Y-80803500D02*
X131930000Y-80803500D01*
X131930000Y-78200000D02*
X131930000Y-80803500D01*
X131070000Y-80803500D02*
X131070000Y-78200000D01*
X135745380Y-95238500D02*
X136730000Y-95238500D01*
X136730000Y-95238500D02*
X136730000Y-93761500D01*
X136730000Y-93761500D02*
X135745380Y-93761500D01*
X133770000Y-95238500D02*
X134744620Y-95238500D01*
X133770000Y-95238500D02*
X133770000Y-93761500D01*
X133770000Y-93761500D02*
X134744620Y-93761500D01*
X131995380Y-90738500D02*
X132980000Y-90738500D01*
X132980000Y-90738500D02*
X132980000Y-89261500D01*
X132980000Y-89261500D02*
X131995380Y-89261500D01*
X130020000Y-90738500D02*
X130994620Y-90738500D01*
X130020000Y-90738500D02*
X130020000Y-89261500D01*
X130020000Y-89261500D02*
X130994620Y-89261500D01*
X131995380Y-88488500D02*
X132980000Y-88488500D01*
X132980000Y-88488500D02*
X132980000Y-87011500D01*
X132980000Y-87011500D02*
X131995380Y-87011500D01*
X130020000Y-88488500D02*
X130994620Y-88488500D01*
X130020000Y-88488500D02*
X130020000Y-87011500D01*
X130020000Y-87011500D02*
X130994620Y-87011500D01*
X135254620Y-81511500D02*
X134270000Y-81511500D01*
X134270000Y-81511500D02*
X134270000Y-82988500D01*
X134270000Y-82988500D02*
X135254620Y-82988500D01*
X137230000Y-81511500D02*
X136255380Y-81511500D01*
X137230000Y-81511500D02*
X137230000Y-82988500D01*
X137230000Y-82988500D02*
X136255380Y-82988500D01*
X146495380Y-99238500D02*
X147480000Y-99238500D01*
X147480000Y-99238500D02*
X147480000Y-97761500D01*
X147480000Y-97761500D02*
X146495380Y-97761500D01*
X144520000Y-99238500D02*
X145494620Y-99238500D01*
X144520000Y-99238500D02*
X144520000Y-97761500D01*
X144520000Y-97761500D02*
X145494620Y-97761500D01*
X157011500Y-99995380D02*
X157011500Y-100980000D01*
X157011500Y-100980000D02*
X158488500Y-100980000D01*
X158488500Y-100980000D02*
X158488500Y-99995380D01*
X157011500Y-98020000D02*
X157011500Y-98994620D01*
X157011500Y-98020000D02*
X158488500Y-98020000D01*
X158488500Y-98020000D02*
X158488500Y-98994620D01*
X153504620Y-98011500D02*
X152520000Y-98011500D01*
X152520000Y-98011500D02*
X152520000Y-99488500D01*
X152520000Y-99488500D02*
X153504620Y-99488500D01*
X155480000Y-98011500D02*
X154505380Y-98011500D01*
X155480000Y-98011500D02*
X155480000Y-99488500D01*
X155480000Y-99488500D02*
X154505380Y-99488500D01*
D13*
X142000000Y-63000000D02*
X142000000Y-69000000D01*
X142000000Y-69000000D02*
X136000000Y-69000000D01*
X136000000Y-69000000D02*
X136000000Y-63000000D01*
X136000000Y-63000000D02*
X142000000Y-63000000D01*
D14*
X140750000Y-66000000D02*
G75*
G03X140750000Y-66000000I-1750000J0D01*
G01*
D13*
X164000000Y-71000000D02*
X164000000Y-97000000D01*
X164000000Y-97000000D02*
X144000000Y-97000000D01*
X144000000Y-97000000D02*
X144000000Y-71000000D01*
X144000000Y-71000000D02*
X164000000Y-71000000D01*
X150965200Y-101930400D02*
G75*
G03X150965200Y-101930400I-50800J0D01*
G01*
D14*
X149111000Y-98476000D02*
X150889000Y-98476000D01*
X150889000Y-98476000D02*
X150889000Y-101524000D01*
X150889000Y-101524000D02*
X149111000Y-101524000D01*
X149111000Y-101524000D02*
X149111000Y-98476000D01*
D11*
X147206000Y-105976000D02*
X147206000Y-109024000D01*
X147206000Y-109024000D02*
X152794000Y-109024000D01*
X152794000Y-109024000D02*
X152794000Y-105976000D01*
X152794000Y-105976000D02*
X147206000Y-105976000D01*
X127810000Y-106000000D02*
G75*
G03X127810000Y-106000000I-3810000J0D01*
G01*
X169810000Y-106000000D02*
G75*
G03X169810000Y-106000000I-3810000J0D01*
G01*
X169810000Y-64000000D02*
G75*
G03X169810000Y-64000000I-3810000J0D01*
G01*
X127810000Y-64000000D02*
G75*
G03X127810000Y-64000000I-3810000J0D01*
G01*
X137577600Y-94434400D02*
G75*
G03X137577600Y-94434400I-50800J0D01*
G01*
X137730000Y-92504000D02*
G75*
G03X137730000Y-91996000I-254000J254000D01*
G01*
X137730000Y-90980000D02*
X137730000Y-91996000D01*
X137730000Y-90980000D02*
X140270000Y-90980000D01*
X140270000Y-90980000D02*
X140270000Y-93520000D01*
X140270000Y-93520000D02*
X137730000Y-93520000D01*
X137730000Y-93520000D02*
X137730000Y-92504000D01*
X121996200Y-98824143D02*
X121959914Y-98860429D01*
X121851057Y-98896714D01*
X121778486Y-98896714D01*
X121669629Y-98860429D01*
X121597057Y-98787857D01*
X121560772Y-98715286D01*
X121524486Y-98570143D01*
X121524486Y-98461286D01*
X121560772Y-98316143D01*
X121597057Y-98243571D01*
X121669629Y-98171000D01*
X121778486Y-98134714D01*
X121851057Y-98134714D01*
X121959914Y-98171000D01*
X121996200Y-98207286D01*
X122721914Y-98896714D02*
X122286486Y-98896714D01*
X122504200Y-98896714D02*
X122504200Y-98134714D01*
X122431629Y-98243571D01*
X122359057Y-98316143D01*
X122286486Y-98352429D01*
X139877800Y-85412943D02*
X139841514Y-85449229D01*
X139732657Y-85485514D01*
X139660086Y-85485514D01*
X139551229Y-85449229D01*
X139478657Y-85376657D01*
X139442372Y-85304086D01*
X139406086Y-85158943D01*
X139406086Y-85050086D01*
X139442372Y-84904943D01*
X139478657Y-84832371D01*
X139551229Y-84759800D01*
X139660086Y-84723514D01*
X139732657Y-84723514D01*
X139841514Y-84759800D01*
X139877800Y-84796086D01*
X140168086Y-84796086D02*
X140204372Y-84759800D01*
X140276943Y-84723514D01*
X140458372Y-84723514D01*
X140530943Y-84759800D01*
X140567229Y-84796086D01*
X140603514Y-84868657D01*
X140603514Y-84941229D01*
X140567229Y-85050086D01*
X140131800Y-85485514D01*
X140603514Y-85485514D01*
X129710543Y-92176600D02*
X129746829Y-92212886D01*
X129783114Y-92321743D01*
X129783114Y-92394314D01*
X129746829Y-92503171D01*
X129674257Y-92575743D01*
X129601686Y-92612028D01*
X129456543Y-92648314D01*
X129347686Y-92648314D01*
X129202543Y-92612028D01*
X129129971Y-92575743D01*
X129057400Y-92503171D01*
X129021114Y-92394314D01*
X129021114Y-92321743D01*
X129057400Y-92212886D01*
X129093686Y-92176600D01*
X129021114Y-91922600D02*
X129021114Y-91450886D01*
X129311400Y-91704886D01*
X129311400Y-91596028D01*
X129347686Y-91523457D01*
X129383971Y-91487171D01*
X129456543Y-91450886D01*
X129637971Y-91450886D01*
X129710543Y-91487171D01*
X129746829Y-91523457D01*
X129783114Y-91596028D01*
X129783114Y-91813743D01*
X129746829Y-91886314D01*
X129710543Y-91922600D01*
X129710543Y-96850200D02*
X129746829Y-96886486D01*
X129783114Y-96995343D01*
X129783114Y-97067914D01*
X129746829Y-97176771D01*
X129674257Y-97249343D01*
X129601686Y-97285628D01*
X129456543Y-97321914D01*
X129347686Y-97321914D01*
X129202543Y-97285628D01*
X129129971Y-97249343D01*
X129057400Y-97176771D01*
X129021114Y-97067914D01*
X129021114Y-96995343D01*
X129057400Y-96886486D01*
X129093686Y-96850200D01*
X129275114Y-96197057D02*
X129783114Y-96197057D01*
X128984829Y-96378486D02*
X129529114Y-96559914D01*
X129529114Y-96088200D01*
X134391400Y-87038543D02*
X134355114Y-87074829D01*
X134246257Y-87111114D01*
X134173686Y-87111114D01*
X134064829Y-87074829D01*
X133992257Y-87002257D01*
X133955972Y-86929686D01*
X133919686Y-86784543D01*
X133919686Y-86675686D01*
X133955972Y-86530543D01*
X133992257Y-86457971D01*
X134064829Y-86385400D01*
X134173686Y-86349114D01*
X134246257Y-86349114D01*
X134355114Y-86385400D01*
X134391400Y-86421686D01*
X135044543Y-86349114D02*
X134899400Y-86349114D01*
X134826829Y-86385400D01*
X134790543Y-86421686D01*
X134717972Y-86530543D01*
X134681686Y-86675686D01*
X134681686Y-86965971D01*
X134717972Y-87038543D01*
X134754257Y-87074829D01*
X134826829Y-87111114D01*
X134971972Y-87111114D01*
X135044543Y-87074829D01*
X135080829Y-87038543D01*
X135117114Y-86965971D01*
X135117114Y-86784543D01*
X135080829Y-86711971D01*
X135044543Y-86675686D01*
X134971972Y-86639400D01*
X134826829Y-86639400D01*
X134754257Y-86675686D01*
X134717972Y-86711971D01*
X134681686Y-86784543D01*
X138861800Y-99230543D02*
X138825514Y-99266829D01*
X138716657Y-99303114D01*
X138644086Y-99303114D01*
X138535229Y-99266829D01*
X138462657Y-99194257D01*
X138426372Y-99121686D01*
X138390086Y-98976543D01*
X138390086Y-98867686D01*
X138426372Y-98722543D01*
X138462657Y-98649971D01*
X138535229Y-98577400D01*
X138644086Y-98541114D01*
X138716657Y-98541114D01*
X138825514Y-98577400D01*
X138861800Y-98613686D01*
X139115800Y-98541114D02*
X139623800Y-98541114D01*
X139297229Y-99303114D01*
X141706600Y-99230543D02*
X141670314Y-99266829D01*
X141561457Y-99303114D01*
X141488886Y-99303114D01*
X141380029Y-99266829D01*
X141307457Y-99194257D01*
X141271172Y-99121686D01*
X141234886Y-98976543D01*
X141234886Y-98867686D01*
X141271172Y-98722543D01*
X141307457Y-98649971D01*
X141380029Y-98577400D01*
X141488886Y-98541114D01*
X141561457Y-98541114D01*
X141670314Y-98577400D01*
X141706600Y-98613686D01*
X142142029Y-98867686D02*
X142069457Y-98831400D01*
X142033172Y-98795114D01*
X141996886Y-98722543D01*
X141996886Y-98686257D01*
X142033172Y-98613686D01*
X142069457Y-98577400D01*
X142142029Y-98541114D01*
X142287172Y-98541114D01*
X142359743Y-98577400D01*
X142396029Y-98613686D01*
X142432314Y-98686257D01*
X142432314Y-98722543D01*
X142396029Y-98795114D01*
X142359743Y-98831400D01*
X142287172Y-98867686D01*
X142142029Y-98867686D01*
X142069457Y-98903971D01*
X142033172Y-98940257D01*
X141996886Y-99012829D01*
X141996886Y-99157971D01*
X142033172Y-99230543D01*
X142069457Y-99266829D01*
X142142029Y-99303114D01*
X142287172Y-99303114D01*
X142359743Y-99266829D01*
X142396029Y-99230543D01*
X142432314Y-99157971D01*
X142432314Y-99012829D01*
X142396029Y-98940257D01*
X142359743Y-98903971D01*
X142287172Y-98867686D01*
X149428200Y-102481743D02*
X149391914Y-102518029D01*
X149283057Y-102554314D01*
X149210486Y-102554314D01*
X149101629Y-102518029D01*
X149029057Y-102445457D01*
X148992772Y-102372886D01*
X148956486Y-102227743D01*
X148956486Y-102118886D01*
X148992772Y-101973743D01*
X149029057Y-101901171D01*
X149101629Y-101828600D01*
X149210486Y-101792314D01*
X149283057Y-101792314D01*
X149391914Y-101828600D01*
X149428200Y-101864886D01*
X149791057Y-102554314D02*
X149936200Y-102554314D01*
X150008772Y-102518029D01*
X150045057Y-102481743D01*
X150117629Y-102372886D01*
X150153914Y-102227743D01*
X150153914Y-101937457D01*
X150117629Y-101864886D01*
X150081343Y-101828600D01*
X150008772Y-101792314D01*
X149863629Y-101792314D01*
X149791057Y-101828600D01*
X149754772Y-101864886D01*
X149718486Y-101937457D01*
X149718486Y-102118886D01*
X149754772Y-102191457D01*
X149791057Y-102227743D01*
X149863629Y-102264029D01*
X150008772Y-102264029D01*
X150081343Y-102227743D01*
X150117629Y-102191457D01*
X150153914Y-102118886D01*
X162222543Y-108998657D02*
X162258829Y-109034943D01*
X162295114Y-109143800D01*
X162295114Y-109216371D01*
X162258829Y-109325228D01*
X162186257Y-109397800D01*
X162113686Y-109434085D01*
X161968543Y-109470371D01*
X161859686Y-109470371D01*
X161714543Y-109434085D01*
X161641971Y-109397800D01*
X161569400Y-109325228D01*
X161533114Y-109216371D01*
X161533114Y-109143800D01*
X161569400Y-109034943D01*
X161605686Y-108998657D01*
X162295114Y-108272943D02*
X162295114Y-108708371D01*
X162295114Y-108490657D02*
X161533114Y-108490657D01*
X161641971Y-108563228D01*
X161714543Y-108635800D01*
X161750829Y-108708371D01*
X161533114Y-107801229D02*
X161533114Y-107728657D01*
X161569400Y-107656086D01*
X161605686Y-107619800D01*
X161678257Y-107583514D01*
X161823400Y-107547229D01*
X162004829Y-107547229D01*
X162149971Y-107583514D01*
X162222543Y-107619800D01*
X162258829Y-107656086D01*
X162295114Y-107728657D01*
X162295114Y-107801229D01*
X162258829Y-107873800D01*
X162222543Y-107910086D01*
X162149971Y-107946371D01*
X162004829Y-107982657D01*
X161823400Y-107982657D01*
X161678257Y-107946371D01*
X161605686Y-107910086D01*
X161569400Y-107873800D01*
X161533114Y-107801229D01*
X159631743Y-103700943D02*
X159595457Y-103737229D01*
X159486600Y-103773514D01*
X159414029Y-103773514D01*
X159305172Y-103737229D01*
X159232600Y-103664657D01*
X159196315Y-103592086D01*
X159160029Y-103446943D01*
X159160029Y-103338086D01*
X159196315Y-103192943D01*
X159232600Y-103120371D01*
X159305172Y-103047800D01*
X159414029Y-103011514D01*
X159486600Y-103011514D01*
X159595457Y-103047800D01*
X159631743Y-103084086D01*
X160357457Y-103773514D02*
X159922029Y-103773514D01*
X160139743Y-103773514D02*
X160139743Y-103011514D01*
X160067172Y-103120371D01*
X159994600Y-103192943D01*
X159922029Y-103229229D01*
X161083171Y-103773514D02*
X160647743Y-103773514D01*
X160865457Y-103773514D02*
X160865457Y-103011514D01*
X160792886Y-103120371D01*
X160720314Y-103192943D01*
X160647743Y-103229229D01*
X131572000Y-106545743D02*
X131535714Y-106582029D01*
X131426857Y-106618314D01*
X131354286Y-106618314D01*
X131245429Y-106582029D01*
X131172857Y-106509457D01*
X131136572Y-106436886D01*
X131100286Y-106291743D01*
X131100286Y-106182886D01*
X131136572Y-106037743D01*
X131172857Y-105965171D01*
X131245429Y-105892600D01*
X131354286Y-105856314D01*
X131426857Y-105856314D01*
X131535714Y-105892600D01*
X131572000Y-105928886D01*
X132334000Y-106618314D02*
X132080000Y-106255457D01*
X131898572Y-106618314D02*
X131898572Y-105856314D01*
X132188857Y-105856314D01*
X132261429Y-105892600D01*
X132297714Y-105928886D01*
X132334000Y-106001457D01*
X132334000Y-106110314D01*
X132297714Y-106182886D01*
X132261429Y-106219171D01*
X132188857Y-106255457D01*
X131898572Y-106255457D01*
X133059714Y-106618314D02*
X132624286Y-106618314D01*
X132842000Y-106618314D02*
X132842000Y-105856314D01*
X132769429Y-105965171D01*
X132696857Y-106037743D01*
X132624286Y-106074029D01*
X152875343Y-103530400D02*
X152911629Y-103566686D01*
X152947914Y-103675543D01*
X152947914Y-103748114D01*
X152911629Y-103856971D01*
X152839057Y-103929543D01*
X152766486Y-103965828D01*
X152621343Y-104002114D01*
X152512486Y-104002114D01*
X152367343Y-103965828D01*
X152294771Y-103929543D01*
X152222200Y-103856971D01*
X152185914Y-103748114D01*
X152185914Y-103675543D01*
X152222200Y-103566686D01*
X152258486Y-103530400D01*
X152947914Y-102768400D02*
X152585057Y-103022400D01*
X152947914Y-103203828D02*
X152185914Y-103203828D01*
X152185914Y-102913543D01*
X152222200Y-102840971D01*
X152258486Y-102804686D01*
X152331057Y-102768400D01*
X152439914Y-102768400D01*
X152512486Y-102804686D01*
X152548771Y-102840971D01*
X152585057Y-102913543D01*
X152585057Y-103203828D01*
X152439914Y-102115257D02*
X152947914Y-102115257D01*
X152149629Y-102296686D02*
X152693914Y-102478114D01*
X152693914Y-102006400D01*
X144576800Y-108374543D02*
X144540514Y-108410829D01*
X144431657Y-108447114D01*
X144359086Y-108447114D01*
X144250229Y-108410829D01*
X144177657Y-108338257D01*
X144141372Y-108265686D01*
X144105086Y-108120543D01*
X144105086Y-108011686D01*
X144141372Y-107866543D01*
X144177657Y-107793971D01*
X144250229Y-107721400D01*
X144359086Y-107685114D01*
X144431657Y-107685114D01*
X144540514Y-107721400D01*
X144576800Y-107757686D01*
X145338800Y-108447114D02*
X145084800Y-108084257D01*
X144903372Y-108447114D02*
X144903372Y-107685114D01*
X145193657Y-107685114D01*
X145266229Y-107721400D01*
X145302514Y-107757686D01*
X145338800Y-107830257D01*
X145338800Y-107939114D01*
X145302514Y-108011686D01*
X145266229Y-108047971D01*
X145193657Y-108084257D01*
X144903372Y-108084257D01*
X146028229Y-107685114D02*
X145665372Y-107685114D01*
X145629086Y-108047971D01*
X145665372Y-108011686D01*
X145737943Y-107975400D01*
X145919372Y-107975400D01*
X145991943Y-108011686D01*
X146028229Y-108047971D01*
X146064514Y-108120543D01*
X146064514Y-108301971D01*
X146028229Y-108374543D01*
X145991943Y-108410829D01*
X145919372Y-108447114D01*
X145737943Y-108447114D01*
X145665372Y-108410829D01*
X145629086Y-108374543D01*
X160263114Y-102118885D02*
X159501114Y-102118885D01*
X159501114Y-101937457D01*
X159537400Y-101828600D01*
X159609971Y-101756028D01*
X159682543Y-101719743D01*
X159827686Y-101683457D01*
X159936543Y-101683457D01*
X160081686Y-101719743D01*
X160154257Y-101756028D01*
X160226829Y-101828600D01*
X160263114Y-101937457D01*
X160263114Y-102118885D01*
X160226829Y-101393171D02*
X160263114Y-101284314D01*
X160263114Y-101102885D01*
X160226829Y-101030314D01*
X160190543Y-100994028D01*
X160117971Y-100957743D01*
X160045400Y-100957743D01*
X159972829Y-100994028D01*
X159936543Y-101030314D01*
X159900257Y-101102885D01*
X159863971Y-101248028D01*
X159827686Y-101320600D01*
X159791400Y-101356885D01*
X159718829Y-101393171D01*
X159646257Y-101393171D01*
X159573686Y-101356885D01*
X159537400Y-101320600D01*
X159501114Y-101248028D01*
X159501114Y-101066600D01*
X159537400Y-100957743D01*
X160263114Y-100232029D02*
X160263114Y-100667457D01*
X160263114Y-100449743D02*
X159501114Y-100449743D01*
X159609971Y-100522314D01*
X159682543Y-100594886D01*
X159718829Y-100667457D01*
X135617858Y-101342371D02*
X135871858Y-101342371D01*
X135980715Y-101741514D02*
X135617858Y-101741514D01*
X135617858Y-100979514D01*
X135980715Y-100979514D01*
X136706429Y-101741514D02*
X136271001Y-101741514D01*
X136488715Y-101741514D02*
X136488715Y-100979514D01*
X136416144Y-101088371D01*
X136343572Y-101160943D01*
X136271001Y-101197229D01*
X129383971Y-95014142D02*
X129383971Y-94760142D01*
X129783114Y-94651285D02*
X129783114Y-95014142D01*
X129021114Y-95014142D01*
X129021114Y-94651285D01*
X129093686Y-94360999D02*
X129057400Y-94324713D01*
X129021114Y-94252142D01*
X129021114Y-94070713D01*
X129057400Y-93998142D01*
X129093686Y-93961856D01*
X129166257Y-93925571D01*
X129238829Y-93925571D01*
X129347686Y-93961856D01*
X129783114Y-94397285D01*
X129783114Y-93925571D01*
X124917201Y-98294371D02*
X124663201Y-98294371D01*
X124663201Y-98693514D02*
X124663201Y-97931514D01*
X125026058Y-97931514D01*
X125715486Y-98693514D02*
X125280058Y-98693514D01*
X125497772Y-98693514D02*
X125497772Y-97931514D01*
X125425201Y-98040371D01*
X125352629Y-98112943D01*
X125280058Y-98149229D01*
X166776401Y-93867514D02*
X166776401Y-94411800D01*
X166740115Y-94520657D01*
X166667544Y-94593229D01*
X166558687Y-94629514D01*
X166486115Y-94629514D01*
X167538400Y-94629514D02*
X167102972Y-94629514D01*
X167320686Y-94629514D02*
X167320686Y-93867514D01*
X167248115Y-93976371D01*
X167175543Y-94048943D01*
X167102972Y-94085229D01*
X124714001Y-73547514D02*
X124714001Y-74091800D01*
X124677715Y-74200657D01*
X124605144Y-74273229D01*
X124496287Y-74309514D01*
X124423715Y-74309514D01*
X125040572Y-73620086D02*
X125076858Y-73583800D01*
X125149429Y-73547514D01*
X125330858Y-73547514D01*
X125403429Y-73583800D01*
X125439715Y-73620086D01*
X125476000Y-73692657D01*
X125476000Y-73765229D01*
X125439715Y-73874086D01*
X125004286Y-74309514D01*
X125476000Y-74309514D01*
X166776401Y-74766714D02*
X166776401Y-75311000D01*
X166740115Y-75419857D01*
X166667544Y-75492429D01*
X166558687Y-75528714D01*
X166486115Y-75528714D01*
X167066686Y-74766714D02*
X167538400Y-74766714D01*
X167284400Y-75057000D01*
X167393258Y-75057000D01*
X167465829Y-75093286D01*
X167502115Y-75129571D01*
X167538400Y-75202143D01*
X167538400Y-75383571D01*
X167502115Y-75456143D01*
X167465829Y-75492429D01*
X167393258Y-75528714D01*
X167175543Y-75528714D01*
X167102972Y-75492429D01*
X167066686Y-75456143D01*
X131397829Y-85761286D02*
X131325257Y-85725000D01*
X131252686Y-85652429D01*
X131143829Y-85543571D01*
X131071257Y-85507286D01*
X130998686Y-85507286D01*
X131034971Y-85688714D02*
X130962400Y-85652429D01*
X130889829Y-85579857D01*
X130853543Y-85434714D01*
X130853543Y-85180714D01*
X130889829Y-85035571D01*
X130962400Y-84963000D01*
X131034971Y-84926714D01*
X131180114Y-84926714D01*
X131252686Y-84963000D01*
X131325257Y-85035571D01*
X131361543Y-85180714D01*
X131361543Y-85434714D01*
X131325257Y-85579857D01*
X131252686Y-85652429D01*
X131180114Y-85688714D01*
X131034971Y-85688714D01*
X132087257Y-85688714D02*
X131651829Y-85688714D01*
X131869543Y-85688714D02*
X131869543Y-84926714D01*
X131796972Y-85035571D01*
X131724400Y-85108143D01*
X131651829Y-85144429D01*
X133226629Y-77633286D02*
X133154057Y-77597000D01*
X133081486Y-77524429D01*
X132972629Y-77415571D01*
X132900057Y-77379286D01*
X132827486Y-77379286D01*
X132863771Y-77560714D02*
X132791200Y-77524429D01*
X132718629Y-77451857D01*
X132682343Y-77306714D01*
X132682343Y-77052714D01*
X132718629Y-76907571D01*
X132791200Y-76835000D01*
X132863771Y-76798714D01*
X133008914Y-76798714D01*
X133081486Y-76835000D01*
X133154057Y-76907571D01*
X133190343Y-77052714D01*
X133190343Y-77306714D01*
X133154057Y-77451857D01*
X133081486Y-77524429D01*
X133008914Y-77560714D01*
X132863771Y-77560714D01*
X133480629Y-76871286D02*
X133516915Y-76835000D01*
X133589486Y-76798714D01*
X133770915Y-76798714D01*
X133843486Y-76835000D01*
X133879772Y-76871286D01*
X133916057Y-76943857D01*
X133916057Y-77016429D01*
X133879772Y-77125286D01*
X133444343Y-77560714D01*
X133916057Y-77560714D01*
X134594600Y-93410314D02*
X134340600Y-93047457D01*
X134159172Y-93410314D02*
X134159172Y-92648314D01*
X134449457Y-92648314D01*
X134522029Y-92684600D01*
X134558314Y-92720886D01*
X134594600Y-92793457D01*
X134594600Y-92902314D01*
X134558314Y-92974886D01*
X134522029Y-93011171D01*
X134449457Y-93047457D01*
X134159172Y-93047457D01*
X134848600Y-92648314D02*
X135320314Y-92648314D01*
X135066314Y-92938600D01*
X135175172Y-92938600D01*
X135247743Y-92974886D01*
X135284029Y-93011171D01*
X135320314Y-93083743D01*
X135320314Y-93265171D01*
X135284029Y-93337743D01*
X135247743Y-93374029D01*
X135175172Y-93410314D01*
X134957457Y-93410314D01*
X134884886Y-93374029D01*
X134848600Y-93337743D01*
X129783114Y-90144600D02*
X129420257Y-90398600D01*
X129783114Y-90580028D02*
X129021114Y-90580028D01*
X129021114Y-90289743D01*
X129057400Y-90217171D01*
X129093686Y-90180886D01*
X129166257Y-90144600D01*
X129275114Y-90144600D01*
X129347686Y-90180886D01*
X129383971Y-90217171D01*
X129420257Y-90289743D01*
X129420257Y-90580028D01*
X129275114Y-89491457D02*
X129783114Y-89491457D01*
X128984829Y-89672886D02*
X129529114Y-89854314D01*
X129529114Y-89382600D01*
X129783114Y-87706200D02*
X129420257Y-87960200D01*
X129783114Y-88141628D02*
X129021114Y-88141628D01*
X129021114Y-87851343D01*
X129057400Y-87778771D01*
X129093686Y-87742486D01*
X129166257Y-87706200D01*
X129275114Y-87706200D01*
X129347686Y-87742486D01*
X129383971Y-87778771D01*
X129420257Y-87851343D01*
X129420257Y-88141628D01*
X129347686Y-87270771D02*
X129311400Y-87343343D01*
X129275114Y-87379628D01*
X129202543Y-87415914D01*
X129166257Y-87415914D01*
X129093686Y-87379628D01*
X129057400Y-87343343D01*
X129021114Y-87270771D01*
X129021114Y-87125628D01*
X129057400Y-87053057D01*
X129093686Y-87016771D01*
X129166257Y-86980486D01*
X129202543Y-86980486D01*
X129275114Y-87016771D01*
X129311400Y-87053057D01*
X129347686Y-87125628D01*
X129347686Y-87270771D01*
X129383971Y-87343343D01*
X129420257Y-87379628D01*
X129492829Y-87415914D01*
X129637971Y-87415914D01*
X129710543Y-87379628D01*
X129746829Y-87343343D01*
X129783114Y-87270771D01*
X129783114Y-87125628D01*
X129746829Y-87053057D01*
X129710543Y-87016771D01*
X129637971Y-86980486D01*
X129492829Y-86980486D01*
X129420257Y-87016771D01*
X129383971Y-87053057D01*
X129347686Y-87125628D01*
X136017000Y-81218314D02*
X135763000Y-80855457D01*
X135581572Y-81218314D02*
X135581572Y-80456314D01*
X135871857Y-80456314D01*
X135944429Y-80492600D01*
X135980714Y-80528886D01*
X136017000Y-80601457D01*
X136017000Y-80710314D01*
X135980714Y-80782886D01*
X135944429Y-80819171D01*
X135871857Y-80855457D01*
X135581572Y-80855457D01*
X136379857Y-81218314D02*
X136525000Y-81218314D01*
X136597572Y-81182029D01*
X136633857Y-81145743D01*
X136706429Y-81036886D01*
X136742714Y-80891743D01*
X136742714Y-80601457D01*
X136706429Y-80528886D01*
X136670143Y-80492600D01*
X136597572Y-80456314D01*
X136452429Y-80456314D01*
X136379857Y-80492600D01*
X136343572Y-80528886D01*
X136307286Y-80601457D01*
X136307286Y-80782886D01*
X136343572Y-80855457D01*
X136379857Y-80891743D01*
X136452429Y-80928029D01*
X136597572Y-80928029D01*
X136670143Y-80891743D01*
X136706429Y-80855457D01*
X136742714Y-80782886D01*
X142766143Y-98083914D02*
X142512143Y-97721057D01*
X142330715Y-98083914D02*
X142330715Y-97321914D01*
X142621000Y-97321914D01*
X142693572Y-97358200D01*
X142729857Y-97394486D01*
X142766143Y-97467057D01*
X142766143Y-97575914D01*
X142729857Y-97648486D01*
X142693572Y-97684771D01*
X142621000Y-97721057D01*
X142330715Y-97721057D01*
X143491857Y-98083914D02*
X143056429Y-98083914D01*
X143274143Y-98083914D02*
X143274143Y-97321914D01*
X143201572Y-97430771D01*
X143129000Y-97503343D01*
X143056429Y-97539629D01*
X143963571Y-97321914D02*
X144036143Y-97321914D01*
X144108714Y-97358200D01*
X144145000Y-97394486D01*
X144181286Y-97467057D01*
X144217571Y-97612200D01*
X144217571Y-97793629D01*
X144181286Y-97938771D01*
X144145000Y-98011343D01*
X144108714Y-98047629D01*
X144036143Y-98083914D01*
X143963571Y-98083914D01*
X143891000Y-98047629D01*
X143854714Y-98011343D01*
X143818429Y-97938771D01*
X143782143Y-97793629D01*
X143782143Y-97612200D01*
X143818429Y-97467057D01*
X143854714Y-97394486D01*
X143891000Y-97358200D01*
X143963571Y-97321914D01*
X159653514Y-99245057D02*
X159290657Y-99499057D01*
X159653514Y-99680485D02*
X158891514Y-99680485D01*
X158891514Y-99390200D01*
X158927800Y-99317628D01*
X158964086Y-99281343D01*
X159036657Y-99245057D01*
X159145514Y-99245057D01*
X159218086Y-99281343D01*
X159254371Y-99317628D01*
X159290657Y-99390200D01*
X159290657Y-99680485D01*
X159653514Y-98519343D02*
X159653514Y-98954771D01*
X159653514Y-98737057D02*
X158891514Y-98737057D01*
X159000371Y-98809628D01*
X159072943Y-98882200D01*
X159109229Y-98954771D01*
X158891514Y-98265343D02*
X158891514Y-97793629D01*
X159181800Y-98047629D01*
X159181800Y-97938771D01*
X159218086Y-97866200D01*
X159254371Y-97829914D01*
X159326943Y-97793629D01*
X159508371Y-97793629D01*
X159580943Y-97829914D01*
X159617229Y-97866200D01*
X159653514Y-97938771D01*
X159653514Y-98156486D01*
X159617229Y-98229057D01*
X159580943Y-98265343D01*
X153738943Y-100725514D02*
X153484943Y-100362657D01*
X153303515Y-100725514D02*
X153303515Y-99963514D01*
X153593800Y-99963514D01*
X153666372Y-99999800D01*
X153702657Y-100036086D01*
X153738943Y-100108657D01*
X153738943Y-100217514D01*
X153702657Y-100290086D01*
X153666372Y-100326371D01*
X153593800Y-100362657D01*
X153303515Y-100362657D01*
X154464657Y-100725514D02*
X154029229Y-100725514D01*
X154246943Y-100725514D02*
X154246943Y-99963514D01*
X154174372Y-100072371D01*
X154101800Y-100144943D01*
X154029229Y-100181229D01*
X155117800Y-100217514D02*
X155117800Y-100725514D01*
X154936371Y-99927229D02*
X154754943Y-100471514D01*
X155226657Y-100471514D01*
X134547429Y-64570429D02*
X134656286Y-64606714D01*
X134837715Y-64606714D01*
X134910286Y-64570429D01*
X134946572Y-64534143D01*
X134982857Y-64461571D01*
X134982857Y-64389000D01*
X134946572Y-64316429D01*
X134910286Y-64280143D01*
X134837715Y-64243857D01*
X134692572Y-64207571D01*
X134620000Y-64171286D01*
X134583715Y-64135000D01*
X134547429Y-64062429D01*
X134547429Y-63989857D01*
X134583715Y-63917286D01*
X134620000Y-63881000D01*
X134692572Y-63844714D01*
X134874000Y-63844714D01*
X134982857Y-63881000D01*
X135708571Y-64606714D02*
X135273143Y-64606714D01*
X135490857Y-64606714D02*
X135490857Y-63844714D01*
X135418286Y-63953571D01*
X135345714Y-64026143D01*
X135273143Y-64062429D01*
X153445029Y-69686714D02*
X153445029Y-70303571D01*
X153481314Y-70376143D01*
X153517600Y-70412429D01*
X153590171Y-70448714D01*
X153735314Y-70448714D01*
X153807886Y-70412429D01*
X153844171Y-70376143D01*
X153880457Y-70303571D01*
X153880457Y-69686714D01*
X154207029Y-69759286D02*
X154243315Y-69723000D01*
X154315886Y-69686714D01*
X154497315Y-69686714D01*
X154569886Y-69723000D01*
X154606172Y-69759286D01*
X154642457Y-69831857D01*
X154642457Y-69904429D01*
X154606172Y-70013286D01*
X154170743Y-70448714D01*
X154642457Y-70448714D01*
X149119709Y-97383074D02*
X149119709Y-97999931D01*
X149155994Y-98072503D01*
X149192280Y-98108789D01*
X149264851Y-98145074D01*
X149409994Y-98145074D01*
X149482566Y-98108789D01*
X149518851Y-98072503D01*
X149555137Y-97999931D01*
X149555137Y-97383074D01*
X149845423Y-97383074D02*
X150317137Y-97383074D01*
X150063137Y-97673360D01*
X150171995Y-97673360D01*
X150244566Y-97709646D01*
X150280852Y-97745931D01*
X150317137Y-97818503D01*
X150317137Y-97999931D01*
X150280852Y-98072503D01*
X150244566Y-98108789D01*
X150171995Y-98145074D01*
X149954280Y-98145074D01*
X149881709Y-98108789D01*
X149845423Y-98072503D01*
X150850601Y-105602314D02*
X150487744Y-105602314D01*
X150487744Y-104840314D01*
X151503743Y-105602314D02*
X151068315Y-105602314D01*
X151286029Y-105602314D02*
X151286029Y-104840314D01*
X151213458Y-104949171D01*
X151140886Y-105021743D01*
X151068315Y-105058029D01*
X136173029Y-91835514D02*
X136173029Y-92452371D01*
X136209314Y-92524943D01*
X136245600Y-92561229D01*
X136318171Y-92597514D01*
X136463314Y-92597514D01*
X136535886Y-92561229D01*
X136572171Y-92524943D01*
X136608457Y-92452371D01*
X136608457Y-91835514D01*
X137370457Y-92597514D02*
X136935029Y-92597514D01*
X137152743Y-92597514D02*
X137152743Y-91835514D01*
X137080172Y-91944371D01*
X137007600Y-92016943D01*
X136935029Y-92053229D01*
M02*
