G04 #@! TF.FileFunction,Copper,L1,Top,Signal*
%FSLAX46Y46*%
G04 Gerber Fmt 4.6, Leading zero omitted, Abs format (unit mm)*
G04 Created by KiCad (PCBNEW (2015-06-05 BZR 5717)-product) date Fri 31 Jul 2015 19:12:08 PDT*
%MOMM*%
G01*
G04 APERTURE LIST*
%ADD10C,0.100000*%
%ADD11R,0.800000X0.800000*%
%ADD12R,1.600000X0.900000*%
%ADD13R,0.900000X1.300000*%
%ADD14R,2.160000X2.260000*%
%ADD15R,2.100000X1.400000*%
%ADD16R,1.200000X1.200000*%
%ADD17R,1.780000X3.150000*%
%ADD18R,1.524000X1.524000*%
%ADD19C,1.524000*%
%ADD20R,0.900000X0.800000*%
%ADD21R,0.950000X0.950000*%
%ADD22C,1.750000*%
%ADD23R,3.500000X1.000000*%
%ADD24R,1.000000X0.700000*%
%ADD25R,1.200000X2.000000*%
%ADD26R,0.300000X1.450000*%
%ADD27C,0.609600*%
%ADD28C,0.203200*%
%ADD29C,0.609600*%
%ADD30C,0.254000*%
G04 APERTURE END LIST*
D10*
D11*
X123750000Y-99990000D03*
X122250000Y-99990000D03*
X140218000Y-88126000D03*
X140218000Y-86626000D03*
X130750000Y-92260000D03*
X132250000Y-92260000D03*
X132250000Y-96740000D03*
X130750000Y-96740000D03*
X134510000Y-89750000D03*
X134510000Y-88250000D03*
D12*
X138990000Y-100450000D03*
X138990000Y-103550000D03*
X141990000Y-100450000D03*
X141990000Y-103550000D03*
D11*
X150500000Y-103490000D03*
X149000000Y-103490000D03*
D13*
X157797500Y-108010000D03*
X159702500Y-108010000D03*
X157797500Y-105260000D03*
X159702500Y-105260000D03*
D14*
X129550000Y-104000000D03*
X134450000Y-104000000D03*
D15*
X154750000Y-103050000D03*
X154750000Y-107450000D03*
X145250000Y-101550000D03*
X145250000Y-105950000D03*
D16*
X161500000Y-101050000D03*
X161500000Y-98950000D03*
D11*
X135250000Y-100010000D03*
X136750000Y-100010000D03*
X130750000Y-94510000D03*
X132250000Y-94510000D03*
D17*
X127355000Y-100010000D03*
X132585000Y-100010000D03*
D18*
X167000000Y-96730000D03*
D19*
X167000000Y-99270000D03*
D18*
X125000000Y-94890000D03*
D19*
X125000000Y-92350000D03*
X125000000Y-89810000D03*
X125000000Y-87270000D03*
X125000000Y-84730000D03*
X125000000Y-82190000D03*
X125000000Y-79650000D03*
X125000000Y-77110000D03*
D18*
X167000000Y-90350000D03*
D19*
X167000000Y-87810000D03*
X167000000Y-85270000D03*
X167000000Y-82730000D03*
X167000000Y-80190000D03*
X167000000Y-77650000D03*
D20*
X130510000Y-83280000D03*
X132510000Y-82330000D03*
X132510000Y-84230000D03*
X130510000Y-79530000D03*
X132510000Y-78580000D03*
X132510000Y-80480000D03*
D21*
X135975000Y-94490000D03*
X134525000Y-94490000D03*
X132225000Y-89990000D03*
X130775000Y-89990000D03*
X132225000Y-87740000D03*
X130775000Y-87740000D03*
X135025000Y-82260000D03*
X136475000Y-82260000D03*
X146725000Y-98490000D03*
X145275000Y-98490000D03*
X157760000Y-100225000D03*
X157760000Y-98775000D03*
X153275000Y-98760000D03*
X154725000Y-98760000D03*
D22*
X141250000Y-69250000D03*
X136750000Y-69250000D03*
X141250000Y-62750000D03*
X136750000Y-62750000D03*
D23*
X146000000Y-80400000D03*
X146000000Y-82400000D03*
X146000000Y-84400000D03*
X146000000Y-86400000D03*
X146000000Y-88400000D03*
X146000000Y-90400000D03*
X146000000Y-92400000D03*
X146000000Y-94400000D03*
X162000000Y-94400000D03*
X162000000Y-92400000D03*
X162000000Y-90400000D03*
X162000000Y-88400000D03*
X162000000Y-86400000D03*
X162000000Y-84400000D03*
X162000000Y-82400000D03*
X162000000Y-80400000D03*
D24*
X148800000Y-100950000D03*
X151200000Y-100950000D03*
X151200000Y-99050000D03*
X148800000Y-100000000D03*
X151200000Y-100000000D03*
X148800000Y-99050000D03*
D25*
X148400000Y-107500000D03*
X151600000Y-107500000D03*
D26*
X138500000Y-94450000D03*
X139000000Y-94450000D03*
X139500000Y-94450000D03*
X140000000Y-94450000D03*
X140000000Y-90050000D03*
X139500000Y-90050000D03*
X139000000Y-90050000D03*
X138500000Y-90050000D03*
X138000000Y-90050000D03*
X138000000Y-94450000D03*
D27*
X160731200Y-61772800D03*
X129235200Y-61772800D03*
X156057600Y-98755200D03*
X149148800Y-95707200D03*
X138988800Y-87376000D03*
X133705600Y-92049600D03*
X134112000Y-96113600D03*
X130657600Y-98145600D03*
X122123200Y-101193600D03*
X130657600Y-106070400D03*
X129438400Y-106070400D03*
X160934400Y-106070400D03*
X160934400Y-104444800D03*
X160934400Y-108712000D03*
X160934400Y-107086400D03*
X160934400Y-107899200D03*
X160934400Y-105257600D03*
X137769600Y-82296000D03*
X148336000Y-82296000D03*
X139229169Y-91682989D03*
X152196800Y-99974400D03*
X159715200Y-94488000D03*
X159715200Y-92456000D03*
X145288000Y-104648000D03*
X143052800Y-106070400D03*
X143052800Y-106883200D03*
X142036800Y-104851200D03*
X141224000Y-104851200D03*
X142849600Y-104851200D03*
X138988800Y-104851200D03*
X139801600Y-104851200D03*
X138176000Y-104851200D03*
X142849600Y-82296000D03*
X141224000Y-84531200D03*
X141020800Y-94488000D03*
X151993600Y-94488000D03*
X156464000Y-95300800D03*
X145897600Y-95300800D03*
X154635200Y-80467200D03*
X155041600Y-90424000D03*
X141020800Y-88188800D03*
X135940800Y-90017600D03*
X135940800Y-88188800D03*
X135940800Y-95300800D03*
X161544000Y-96926400D03*
X153822400Y-96926400D03*
X153822400Y-88188800D03*
X159308800Y-88798400D03*
X134924800Y-84734400D03*
X133908800Y-83515200D03*
X134112000Y-80467200D03*
X149352000Y-81483200D03*
X149758400Y-86156800D03*
X153212790Y-95954991D03*
X159308800Y-90627200D03*
X148742400Y-90424000D03*
X143256000Y-95820990D03*
X143256000Y-93587190D03*
X148742400Y-92252800D03*
X148945600Y-80264000D03*
X159308800Y-84328000D03*
X159308800Y-86563200D03*
X149148800Y-87985600D03*
D28*
X136750000Y-62750000D02*
X136995600Y-62750000D01*
X136995600Y-62750000D02*
X138582400Y-61163200D01*
X147929600Y-61772800D02*
X160731200Y-61772800D01*
X147320000Y-61163200D02*
X147929600Y-61772800D01*
X138582400Y-61163200D02*
X147320000Y-61163200D01*
X154725000Y-98760000D02*
X156052800Y-98760000D01*
X156052800Y-98760000D02*
X156057600Y-98755200D01*
X132250000Y-92260000D02*
X133495200Y-92260000D01*
X133495200Y-92260000D02*
X133705600Y-92049600D01*
X130750000Y-96740000D02*
X130750000Y-98053200D01*
X130750000Y-98053200D02*
X130657600Y-98145600D01*
X122250000Y-99990000D02*
X122250000Y-101066800D01*
X122250000Y-101066800D02*
X122123200Y-101193600D01*
X129550000Y-104000000D02*
X129550000Y-105958800D01*
X129550000Y-105958800D02*
X129438400Y-106070400D01*
X160934400Y-104444800D02*
X160934400Y-106070400D01*
X160934400Y-107899200D02*
X160934400Y-107086400D01*
X159702500Y-108010000D02*
X160823600Y-108010000D01*
X160823600Y-108010000D02*
X160934400Y-107899200D01*
X159702500Y-105260000D02*
X160932000Y-105260000D01*
X160932000Y-105260000D02*
X160934400Y-105257600D01*
X136475000Y-82260000D02*
X137733600Y-82260000D01*
X137733600Y-82260000D02*
X137769600Y-82296000D01*
X146000000Y-82400000D02*
X147953200Y-82400000D01*
X147953200Y-82400000D02*
X148057200Y-82296000D01*
X148057200Y-82296000D02*
X148336000Y-82296000D01*
X139500000Y-90050000D02*
X139500000Y-91042590D01*
X139229169Y-91313421D02*
X139229169Y-91682989D01*
X139500000Y-91042590D02*
X139229169Y-91313421D01*
X151200000Y-100000000D02*
X152171200Y-100000000D01*
X152171200Y-100000000D02*
X152196800Y-99974400D01*
X162000000Y-94400000D02*
X160046800Y-94400000D01*
X160046800Y-94400000D02*
X159958800Y-94488000D01*
X159958800Y-94488000D02*
X159715200Y-94488000D01*
X162000000Y-92400000D02*
X160046800Y-92400000D01*
X160046800Y-92400000D02*
X159990800Y-92456000D01*
X159990800Y-92456000D02*
X159715200Y-92456000D01*
X145250000Y-105950000D02*
X145250000Y-104686000D01*
X145250000Y-104686000D02*
X145288000Y-104648000D01*
X143052800Y-106883200D02*
X143052800Y-106070400D01*
X143173200Y-105950000D02*
X143052800Y-106070400D01*
X143173200Y-105950000D02*
X145250000Y-105950000D01*
X142036800Y-104851200D02*
X141224000Y-104851200D01*
X142849600Y-104851200D02*
X142036800Y-104851200D01*
X141990000Y-104804400D02*
X142036800Y-104851200D01*
X141990000Y-104804400D02*
X141990000Y-103550000D01*
X138988800Y-104851200D02*
X139801600Y-104851200D01*
X138176000Y-104851200D02*
X138988800Y-104851200D01*
X138990000Y-104850000D02*
X138990000Y-103550000D01*
X138990000Y-104850000D02*
X138988800Y-104851200D01*
X142953600Y-82400000D02*
X142849600Y-82296000D01*
X146000000Y-82400000D02*
X142953600Y-82400000D01*
D29*
X145868800Y-84531200D02*
X146000000Y-84400000D01*
X141224000Y-84531200D02*
X145868800Y-84531200D01*
X141108800Y-94400000D02*
X141020800Y-94488000D01*
X146000000Y-94400000D02*
X141108800Y-94400000D01*
X151993600Y-94488000D02*
X146088000Y-94488000D01*
X146088000Y-94488000D02*
X146000000Y-94400000D01*
X159546631Y-96148231D02*
X158699200Y-95300800D01*
X158699200Y-95300800D02*
X156464000Y-95300800D01*
X159546631Y-101050000D02*
X157946540Y-101050000D01*
X161500000Y-101050000D02*
X159546631Y-101050000D01*
X159546631Y-101050000D02*
X159546631Y-96148231D01*
X157797500Y-105260000D02*
X157797500Y-100900960D01*
X157797500Y-100900960D02*
X157797500Y-100262500D01*
X157946540Y-101050000D02*
X157797500Y-100900960D01*
X157797500Y-100262500D02*
X157760000Y-100225000D01*
D28*
X146000000Y-94400000D02*
X146000000Y-95198400D01*
X146000000Y-95198400D02*
X145897600Y-95300800D01*
X157760000Y-105222500D02*
X157797500Y-105260000D01*
X138500000Y-94450000D02*
X138000000Y-94450000D01*
D29*
X154635200Y-80467200D02*
X155041600Y-80873600D01*
X155041600Y-80873600D02*
X155041600Y-90424000D01*
D28*
X140000000Y-88344000D02*
X140218000Y-88126000D01*
X140000000Y-90050000D02*
X140000000Y-88344000D01*
X140958000Y-88126000D02*
X141020800Y-88188800D01*
X140218000Y-88126000D02*
X140958000Y-88126000D01*
X140000000Y-92257600D02*
X139192000Y-93065600D01*
X139192000Y-93065600D02*
X138785600Y-93065600D01*
X138785600Y-93065600D02*
X138500000Y-93351200D01*
X138500000Y-93351200D02*
X138500000Y-94450000D01*
X140000000Y-90050000D02*
X140000000Y-92257600D01*
X130750000Y-92260000D02*
X125090000Y-92260000D01*
X125090000Y-92260000D02*
X125000000Y-92350000D01*
X130750000Y-92260000D02*
X130750000Y-94510000D01*
X134525000Y-94490000D02*
X132270000Y-94490000D01*
X132270000Y-94490000D02*
X132250000Y-94510000D01*
X132250000Y-96740000D02*
X132250000Y-94510000D01*
X132920400Y-89990000D02*
X133160400Y-89750000D01*
X133160400Y-89750000D02*
X134510000Y-89750000D01*
X132225000Y-89990000D02*
X132920400Y-89990000D01*
X135940800Y-90050000D02*
X134810000Y-90050000D01*
X138000000Y-90050000D02*
X135940800Y-90050000D01*
X134810000Y-90050000D02*
X134510000Y-89750000D01*
X135940800Y-90017600D02*
X135940800Y-90050000D01*
X132225000Y-87740000D02*
X132903200Y-87740000D01*
X132903200Y-87740000D02*
X133413200Y-88250000D01*
X133413200Y-88250000D02*
X134510000Y-88250000D01*
X135940800Y-88250000D02*
X137628200Y-88250000D01*
X134510000Y-88250000D02*
X135940800Y-88250000D01*
X137628200Y-88250000D02*
X138500000Y-89121800D01*
X138500000Y-89121800D02*
X138500000Y-90050000D01*
X135940800Y-88188800D02*
X135940800Y-88250000D01*
D29*
X148800000Y-100000000D02*
X145923200Y-100000000D01*
X145275000Y-99351800D02*
X145275000Y-98490000D01*
X145923200Y-100000000D02*
X145275000Y-99351800D01*
X145275000Y-98490000D02*
X142505200Y-98490000D01*
X141990000Y-99005200D02*
X141990000Y-100450000D01*
X142505200Y-98490000D02*
X141990000Y-99005200D01*
X138990000Y-100450000D02*
X141990000Y-100450000D01*
X136750000Y-100010000D02*
X138550000Y-100010000D01*
X138550000Y-100010000D02*
X138990000Y-100450000D01*
D28*
X151200000Y-100950000D02*
X153553200Y-100950000D01*
X153553200Y-100950000D02*
X154750000Y-102146800D01*
X154750000Y-102146800D02*
X154750000Y-103050000D01*
X151200000Y-100950000D02*
X151200000Y-103393200D01*
X151103200Y-103490000D02*
X150500000Y-103490000D01*
X151200000Y-103393200D02*
X151103200Y-103490000D01*
X135940800Y-95300800D02*
X135940800Y-94524200D01*
X135940800Y-94524200D02*
X135975000Y-94490000D01*
X136550400Y-93065600D02*
X135975000Y-93641000D01*
X135975000Y-93641000D02*
X135975000Y-94490000D01*
X137972800Y-93065600D02*
X136550400Y-93065600D01*
X138379200Y-92659200D02*
X137972800Y-93065600D01*
X138379200Y-91588640D02*
X138379200Y-92659200D01*
X139000000Y-90050000D02*
X139000000Y-90967840D01*
X139000000Y-90967840D02*
X138379200Y-91588640D01*
X161544000Y-96926400D02*
X161544000Y-98906000D01*
X161544000Y-98906000D02*
X161500000Y-98950000D01*
X153822400Y-88188800D02*
X153822400Y-96926400D01*
X164795200Y-96113600D02*
X165411600Y-96730000D01*
X165411600Y-96730000D02*
X167000000Y-96730000D01*
X164795200Y-88798400D02*
X164795200Y-96113600D01*
X164396800Y-88400000D02*
X164795200Y-88798400D01*
X162000000Y-88400000D02*
X164396800Y-88400000D01*
X162000000Y-88400000D02*
X160750000Y-88400000D01*
X160750000Y-88400000D02*
X160351600Y-88798400D01*
X160351600Y-88798400D02*
X159308800Y-88798400D01*
X130775000Y-89990000D02*
X125180000Y-89990000D01*
X125180000Y-89990000D02*
X125000000Y-89810000D01*
X130775000Y-87740000D02*
X125470000Y-87740000D01*
X125470000Y-87740000D02*
X125000000Y-87270000D01*
D29*
X134924800Y-84734400D02*
X135025000Y-84634200D01*
X135025000Y-84634200D02*
X135025000Y-82260000D01*
X135025000Y-79551400D02*
X134053600Y-78580000D01*
X134053600Y-78580000D02*
X132510000Y-78580000D01*
X135025000Y-82260000D02*
X135025000Y-79551400D01*
X134955000Y-82330000D02*
X135025000Y-82260000D01*
X132510000Y-82330000D02*
X134955000Y-82330000D01*
X130145200Y-82190000D02*
X130510000Y-82554800D01*
X130510000Y-82554800D02*
X130510000Y-83280000D01*
X125000000Y-82190000D02*
X130145200Y-82190000D01*
X125120000Y-79530000D02*
X125000000Y-79650000D01*
X130510000Y-79530000D02*
X125120000Y-79530000D01*
D28*
X164899200Y-82400000D02*
X165229200Y-82730000D01*
X165229200Y-82730000D02*
X167000000Y-82730000D01*
X162000000Y-82400000D02*
X164899200Y-82400000D01*
X164862400Y-80400000D02*
X165072400Y-80190000D01*
X165072400Y-80190000D02*
X167000000Y-80190000D01*
X162000000Y-80400000D02*
X164862400Y-80400000D01*
X133194000Y-84230000D02*
X133908800Y-83515200D01*
X132510000Y-84230000D02*
X133194000Y-84230000D01*
X134099200Y-80480000D02*
X134112000Y-80467200D01*
X149352000Y-81483200D02*
X149758400Y-81889600D01*
X149758400Y-81889600D02*
X149758400Y-86156800D01*
X132510000Y-80480000D02*
X134099200Y-80480000D01*
X139000000Y-94450000D02*
X139000000Y-96102400D01*
X139000000Y-96102400D02*
X139328200Y-96430600D01*
X139328200Y-96430600D02*
X152692600Y-96430600D01*
X152692600Y-96430600D02*
X153168209Y-95954991D01*
X153168209Y-95954991D02*
X153212790Y-95954991D01*
X162000000Y-90400000D02*
X160750000Y-90400000D01*
X160750000Y-90400000D02*
X160522800Y-90627200D01*
X160522800Y-90627200D02*
X159308800Y-90627200D01*
X142240000Y-91033600D02*
X142873600Y-90400000D01*
X142873600Y-90400000D02*
X146000000Y-90400000D01*
X142240000Y-93268800D02*
X142240000Y-91033600D01*
X141833600Y-93675200D02*
X142240000Y-93268800D01*
X140614400Y-93675200D02*
X141833600Y-93675200D01*
X140411191Y-93878409D02*
X140614400Y-93675200D01*
X140000000Y-94450000D02*
X140353200Y-94450000D01*
X140353200Y-94450000D02*
X140411191Y-94392009D01*
X140411191Y-94392009D02*
X140411191Y-93878409D01*
X146000000Y-90400000D02*
X147250000Y-90400000D01*
X147250000Y-90400000D02*
X147274000Y-90424000D01*
X147274000Y-90424000D02*
X148742400Y-90424000D01*
X143256000Y-95820990D02*
X139942790Y-95820990D01*
X139942790Y-95820990D02*
X139500000Y-95378200D01*
X139500000Y-95378200D02*
X139500000Y-94450000D01*
X146000000Y-92400000D02*
X144046800Y-92400000D01*
X144046800Y-92400000D02*
X143256000Y-93190800D01*
X143256000Y-93190800D02*
X143256000Y-93587190D01*
X146000000Y-92400000D02*
X148595200Y-92400000D01*
X148595200Y-92400000D02*
X148742400Y-92252800D01*
X142376000Y-80400000D02*
X141250000Y-79274000D01*
X141250000Y-79274000D02*
X141250000Y-69250000D01*
X146000000Y-80400000D02*
X142376000Y-80400000D01*
X148945600Y-80264000D02*
X148809600Y-80400000D01*
X148809600Y-80400000D02*
X146000000Y-80400000D01*
X141250000Y-62750000D02*
X141250000Y-69250000D01*
X148800000Y-99050000D02*
X148800000Y-98609600D01*
X148680400Y-98490000D02*
X146725000Y-98490000D01*
X148800000Y-98609600D02*
X148680400Y-98490000D01*
X162000000Y-84400000D02*
X160750000Y-84400000D01*
X160750000Y-84400000D02*
X160678000Y-84328000D01*
X160678000Y-84328000D02*
X159308800Y-84328000D01*
X162000000Y-86400000D02*
X160750000Y-86400000D01*
X160750000Y-86400000D02*
X160586800Y-86563200D01*
X160586800Y-86563200D02*
X159308800Y-86563200D01*
X157402400Y-97739200D02*
X153617600Y-97739200D01*
X153617600Y-97739200D02*
X153275000Y-98081800D01*
X153275000Y-98081800D02*
X153275000Y-98760000D01*
X157760000Y-98775000D02*
X157760000Y-98096800D01*
X157760000Y-98096800D02*
X157402400Y-97739200D01*
X151200000Y-98939200D02*
X151379200Y-98760000D01*
X151379200Y-98760000D02*
X153275000Y-98760000D01*
X151200000Y-99050000D02*
X151200000Y-98939200D01*
X146000000Y-88400000D02*
X147250000Y-88400000D01*
X147250000Y-88400000D02*
X147664400Y-87985600D01*
X147664400Y-87985600D02*
X149148800Y-87985600D01*
D30*
G36*
X149428200Y-108585000D02*
X147650200Y-108585000D01*
X147650200Y-103225600D01*
X147647772Y-103213397D01*
X147647786Y-103200954D01*
X147642986Y-103189332D01*
X147640533Y-103176999D01*
X147633618Y-103166650D01*
X147628870Y-103155153D01*
X147222470Y-102545553D01*
X147213590Y-102536654D01*
X147206603Y-102526197D01*
X147196255Y-102519283D01*
X147187468Y-102510477D01*
X147175856Y-102505653D01*
X147165401Y-102498667D01*
X147153197Y-102496239D01*
X147141707Y-102491466D01*
X147129131Y-102491452D01*
X147116800Y-102489000D01*
X144195800Y-102489000D01*
X144195800Y-100711000D01*
X149428200Y-100711000D01*
X149428200Y-108585000D01*
X149428200Y-108585000D01*
G37*
X149428200Y-108585000D02*
X147650200Y-108585000D01*
X147650200Y-103225600D01*
X147647772Y-103213397D01*
X147647786Y-103200954D01*
X147642986Y-103189332D01*
X147640533Y-103176999D01*
X147633618Y-103166650D01*
X147628870Y-103155153D01*
X147222470Y-102545553D01*
X147213590Y-102536654D01*
X147206603Y-102526197D01*
X147196255Y-102519283D01*
X147187468Y-102510477D01*
X147175856Y-102505653D01*
X147165401Y-102498667D01*
X147153197Y-102496239D01*
X147141707Y-102491466D01*
X147129131Y-102491452D01*
X147116800Y-102489000D01*
X144195800Y-102489000D01*
X144195800Y-100711000D01*
X149428200Y-100711000D01*
X149428200Y-108585000D01*
G36*
X158369000Y-108991400D02*
X150495000Y-108991400D01*
X150495000Y-106197400D01*
X156057600Y-106197400D01*
X156058372Y-106197246D01*
X156059149Y-106197391D01*
X156082678Y-106192411D01*
X156106201Y-106187733D01*
X156106855Y-106187295D01*
X156107628Y-106187132D01*
X156127426Y-106173550D01*
X156147403Y-106160203D01*
X156147841Y-106159546D01*
X156148491Y-106159101D01*
X156161585Y-106138977D01*
X156174933Y-106119001D01*
X156175086Y-106118228D01*
X156175517Y-106117567D01*
X156956383Y-104165400D01*
X158369000Y-104165400D01*
X158369000Y-108991400D01*
X158369000Y-108991400D01*
G37*
X158369000Y-108991400D02*
X150495000Y-108991400D01*
X150495000Y-106197400D01*
X156057600Y-106197400D01*
X156058372Y-106197246D01*
X156059149Y-106197391D01*
X156082678Y-106192411D01*
X156106201Y-106187733D01*
X156106855Y-106187295D01*
X156107628Y-106187132D01*
X156127426Y-106173550D01*
X156147403Y-106160203D01*
X156147841Y-106159546D01*
X156148491Y-106159101D01*
X156161585Y-106138977D01*
X156174933Y-106119001D01*
X156175086Y-106118228D01*
X156175517Y-106117567D01*
X156956383Y-104165400D01*
X158369000Y-104165400D01*
X158369000Y-108991400D01*
G36*
X135813800Y-105130600D02*
X133019800Y-105130600D01*
X133019800Y-102819200D01*
X133017743Y-102808858D01*
X133018072Y-102798321D01*
X133012955Y-102784790D01*
X133010133Y-102770599D01*
X133004274Y-102761830D01*
X133000546Y-102751971D01*
X132990643Y-102741430D01*
X132982603Y-102729397D01*
X132973833Y-102723537D01*
X132966617Y-102715856D01*
X131597400Y-101737843D01*
X131597400Y-98475800D01*
X133830310Y-98475800D01*
X134201608Y-99218396D01*
X134214084Y-99234472D01*
X134225397Y-99251403D01*
X134229191Y-99253938D01*
X134231989Y-99257543D01*
X134249672Y-99267623D01*
X134266599Y-99278933D01*
X134271074Y-99279823D01*
X134275039Y-99282083D01*
X134295237Y-99284629D01*
X134315200Y-99288600D01*
X135813800Y-99288600D01*
X135813800Y-105130600D01*
X135813800Y-105130600D01*
G37*
X135813800Y-105130600D02*
X133019800Y-105130600D01*
X133019800Y-102819200D01*
X133017743Y-102808858D01*
X133018072Y-102798321D01*
X133012955Y-102784790D01*
X133010133Y-102770599D01*
X133004274Y-102761830D01*
X133000546Y-102751971D01*
X132990643Y-102741430D01*
X132982603Y-102729397D01*
X132973833Y-102723537D01*
X132966617Y-102715856D01*
X131597400Y-101737843D01*
X131597400Y-98475800D01*
X133830310Y-98475800D01*
X134201608Y-99218396D01*
X134214084Y-99234472D01*
X134225397Y-99251403D01*
X134229191Y-99253938D01*
X134231989Y-99257543D01*
X134249672Y-99267623D01*
X134266599Y-99278933D01*
X134271074Y-99279823D01*
X134275039Y-99282083D01*
X134295237Y-99284629D01*
X134315200Y-99288600D01*
X135813800Y-99288600D01*
X135813800Y-105130600D01*
G36*
X128295400Y-101676200D02*
X126252556Y-101676200D01*
X125274544Y-100306983D01*
X125266862Y-100299765D01*
X125261003Y-100290997D01*
X125248972Y-100282958D01*
X125238429Y-100273053D01*
X125228566Y-100269323D01*
X125219801Y-100263467D01*
X125205615Y-100260645D01*
X125192079Y-100255527D01*
X125181536Y-100255856D01*
X125171200Y-100253800D01*
X123266200Y-100253800D01*
X123266200Y-94081600D01*
X123266200Y-94005400D01*
X128295400Y-94005400D01*
X128295400Y-101676200D01*
X128295400Y-101676200D01*
G37*
X128295400Y-101676200D02*
X126252556Y-101676200D01*
X125274544Y-100306983D01*
X125266862Y-100299765D01*
X125261003Y-100290997D01*
X125248972Y-100282958D01*
X125238429Y-100273053D01*
X125228566Y-100269323D01*
X125219801Y-100263467D01*
X125205615Y-100260645D01*
X125192079Y-100255527D01*
X125181536Y-100255856D01*
X125171200Y-100253800D01*
X123266200Y-100253800D01*
X123266200Y-94081600D01*
X123266200Y-94005400D01*
X128295400Y-94005400D01*
X128295400Y-101676200D01*
G36*
X162030524Y-101986669D02*
X162026600Y-102006400D01*
X162026600Y-109194600D01*
X158811042Y-109194600D01*
X158826200Y-109118400D01*
X158826200Y-104038400D01*
X158801065Y-103912038D01*
X158729487Y-103804913D01*
X158622362Y-103733335D01*
X158496000Y-103708200D01*
X158432500Y-103708200D01*
X158432500Y-101685000D01*
X159546631Y-101685000D01*
X160570121Y-101685000D01*
X160587759Y-101775904D01*
X160660450Y-101886562D01*
X160770187Y-101960636D01*
X160900000Y-101986669D01*
X162030524Y-101986669D01*
X162030524Y-101986669D01*
G37*
X162030524Y-101986669D02*
X162026600Y-102006400D01*
X162026600Y-109194600D01*
X158811042Y-109194600D01*
X158826200Y-109118400D01*
X158826200Y-104038400D01*
X158801065Y-103912038D01*
X158729487Y-103804913D01*
X158622362Y-103733335D01*
X158496000Y-103708200D01*
X158432500Y-103708200D01*
X158432500Y-101685000D01*
X159546631Y-101685000D01*
X160570121Y-101685000D01*
X160587759Y-101775904D01*
X160660450Y-101886562D01*
X160770187Y-101960636D01*
X160900000Y-101986669D01*
X162030524Y-101986669D01*
G36*
X169138600Y-101879400D02*
X168409144Y-101879400D01*
X168409144Y-99477698D01*
X168397000Y-99235068D01*
X168397000Y-91238309D01*
X168397000Y-90635750D01*
X168397000Y-90064250D01*
X168397000Y-89461691D01*
X168300327Y-89228302D01*
X168121699Y-89049673D01*
X168092389Y-89037532D01*
X168092389Y-87593701D01*
X168092389Y-85053701D01*
X168092389Y-82513701D01*
X168092389Y-79973701D01*
X168092389Y-77433701D01*
X167926462Y-77032127D01*
X167619489Y-76724618D01*
X167218205Y-76557990D01*
X166783701Y-76557611D01*
X166382127Y-76723538D01*
X166074618Y-77030511D01*
X165907990Y-77431795D01*
X165907611Y-77866299D01*
X166073538Y-78267873D01*
X166380511Y-78575382D01*
X166781795Y-78742010D01*
X167216299Y-78742389D01*
X167617873Y-78576462D01*
X167925382Y-78269489D01*
X168092010Y-77868205D01*
X168092389Y-77433701D01*
X168092389Y-79973701D01*
X167926462Y-79572127D01*
X167619489Y-79264618D01*
X167218205Y-79097990D01*
X166783701Y-79097611D01*
X166382127Y-79263538D01*
X166074618Y-79570511D01*
X165996682Y-79758200D01*
X165072405Y-79758200D01*
X165072400Y-79758199D01*
X164934573Y-79785615D01*
X164907157Y-79791069D01*
X164767071Y-79884671D01*
X164683542Y-79968200D01*
X164086669Y-79968200D01*
X164086669Y-79900000D01*
X164062241Y-79774096D01*
X163989550Y-79663438D01*
X163906200Y-79607175D01*
X163906200Y-79248000D01*
X163906200Y-71120000D01*
X163896533Y-71071399D01*
X163869003Y-71030197D01*
X163827801Y-71002667D01*
X163779200Y-70993000D01*
X144272000Y-70993000D01*
X144223399Y-71002667D01*
X144182197Y-71030197D01*
X144154667Y-71071399D01*
X144145000Y-71120000D01*
X144145000Y-79248000D01*
X144154667Y-79296601D01*
X144182197Y-79337803D01*
X144223399Y-79365333D01*
X144272000Y-79375000D01*
X163779200Y-79375000D01*
X163827801Y-79365333D01*
X163869003Y-79337803D01*
X163896533Y-79296601D01*
X163906200Y-79248000D01*
X163906200Y-79607175D01*
X163879813Y-79589364D01*
X163750000Y-79563331D01*
X160250000Y-79563331D01*
X160124096Y-79587759D01*
X160013438Y-79660450D01*
X159939364Y-79770187D01*
X159913331Y-79900000D01*
X159913331Y-80900000D01*
X159937759Y-81025904D01*
X160010450Y-81136562D01*
X160120187Y-81210636D01*
X160250000Y-81236669D01*
X163750000Y-81236669D01*
X163875904Y-81212241D01*
X163986562Y-81139550D01*
X164060636Y-81029813D01*
X164086669Y-80900000D01*
X164086669Y-80831800D01*
X164862400Y-80831800D01*
X165027642Y-80798931D01*
X165027643Y-80798931D01*
X165167729Y-80705329D01*
X165251258Y-80621800D01*
X165996654Y-80621800D01*
X166073538Y-80807873D01*
X166380511Y-81115382D01*
X166781795Y-81282010D01*
X167216299Y-81282389D01*
X167617873Y-81116462D01*
X167925382Y-80809489D01*
X168092010Y-80408205D01*
X168092389Y-79973701D01*
X168092389Y-82513701D01*
X167926462Y-82112127D01*
X167619489Y-81804618D01*
X167218205Y-81637990D01*
X166783701Y-81637611D01*
X166382127Y-81803538D01*
X166074618Y-82110511D01*
X165996682Y-82298200D01*
X165408057Y-82298200D01*
X165204529Y-82094671D01*
X165064443Y-82001069D01*
X164899200Y-81968200D01*
X164086669Y-81968200D01*
X164086669Y-81900000D01*
X164062241Y-81774096D01*
X163989550Y-81663438D01*
X163879813Y-81589364D01*
X163750000Y-81563331D01*
X160250000Y-81563331D01*
X160124096Y-81587759D01*
X160013438Y-81660450D01*
X159939364Y-81770187D01*
X159913331Y-81900000D01*
X159913331Y-82900000D01*
X159937759Y-83025904D01*
X160010450Y-83136562D01*
X160120187Y-83210636D01*
X160250000Y-83236669D01*
X163750000Y-83236669D01*
X163875904Y-83212241D01*
X163986562Y-83139550D01*
X164060636Y-83029813D01*
X164086669Y-82900000D01*
X164086669Y-82831800D01*
X164720342Y-82831800D01*
X164923868Y-83035325D01*
X164923871Y-83035329D01*
X165063957Y-83128931D01*
X165229200Y-83161800D01*
X165996654Y-83161800D01*
X166073538Y-83347873D01*
X166380511Y-83655382D01*
X166781795Y-83822010D01*
X167216299Y-83822389D01*
X167617873Y-83656462D01*
X167925382Y-83349489D01*
X168092010Y-82948205D01*
X168092389Y-82513701D01*
X168092389Y-85053701D01*
X167926462Y-84652127D01*
X167619489Y-84344618D01*
X167218205Y-84177990D01*
X166783701Y-84177611D01*
X166382127Y-84343538D01*
X166074618Y-84650511D01*
X165907990Y-85051795D01*
X165907611Y-85486299D01*
X166073538Y-85887873D01*
X166380511Y-86195382D01*
X166781795Y-86362010D01*
X167216299Y-86362389D01*
X167617873Y-86196462D01*
X167925382Y-85889489D01*
X168092010Y-85488205D01*
X168092389Y-85053701D01*
X168092389Y-87593701D01*
X167926462Y-87192127D01*
X167619489Y-86884618D01*
X167218205Y-86717990D01*
X166783701Y-86717611D01*
X166382127Y-86883538D01*
X166074618Y-87190511D01*
X165907990Y-87591795D01*
X165907611Y-88026299D01*
X166073538Y-88427873D01*
X166380511Y-88735382D01*
X166781795Y-88902010D01*
X167216299Y-88902389D01*
X167617873Y-88736462D01*
X167925382Y-88429489D01*
X168092010Y-88028205D01*
X168092389Y-87593701D01*
X168092389Y-89037532D01*
X167888310Y-88953000D01*
X167635691Y-88953000D01*
X167285750Y-88953000D01*
X167127000Y-89111750D01*
X167127000Y-90223000D01*
X168238250Y-90223000D01*
X168397000Y-90064250D01*
X168397000Y-90635750D01*
X168238250Y-90477000D01*
X167127000Y-90477000D01*
X167127000Y-91588250D01*
X167285750Y-91747000D01*
X167635691Y-91747000D01*
X167888310Y-91747000D01*
X168121699Y-91650327D01*
X168300327Y-91471698D01*
X168397000Y-91238309D01*
X168397000Y-99235068D01*
X168381362Y-98922632D01*
X168222397Y-98538857D01*
X168098669Y-98503368D01*
X168098669Y-97492000D01*
X168098669Y-95968000D01*
X168074241Y-95842096D01*
X168001550Y-95731438D01*
X167891813Y-95657364D01*
X167762000Y-95631331D01*
X166873000Y-95631331D01*
X166873000Y-91588250D01*
X166873000Y-90477000D01*
X166873000Y-90223000D01*
X166873000Y-89111750D01*
X166714250Y-88953000D01*
X166364309Y-88953000D01*
X166111690Y-88953000D01*
X165878301Y-89049673D01*
X165699673Y-89228302D01*
X165603000Y-89461691D01*
X165603000Y-90064250D01*
X165761750Y-90223000D01*
X166873000Y-90223000D01*
X166873000Y-90477000D01*
X165761750Y-90477000D01*
X165603000Y-90635750D01*
X165603000Y-91238309D01*
X165699673Y-91471698D01*
X165878301Y-91650327D01*
X166111690Y-91747000D01*
X166364309Y-91747000D01*
X166714250Y-91747000D01*
X166873000Y-91588250D01*
X166873000Y-95631331D01*
X166238000Y-95631331D01*
X166112096Y-95655759D01*
X166001438Y-95728450D01*
X165927364Y-95838187D01*
X165901331Y-95968000D01*
X165901331Y-96298200D01*
X165590458Y-96298200D01*
X165227000Y-95934742D01*
X165227000Y-88798405D01*
X165227000Y-88798400D01*
X165227001Y-88798400D01*
X165199584Y-88660573D01*
X165194131Y-88633158D01*
X165194131Y-88633157D01*
X165100529Y-88493072D01*
X165100529Y-88493071D01*
X165100525Y-88493068D01*
X164702129Y-88094671D01*
X164562043Y-88001069D01*
X164396800Y-87968200D01*
X164086669Y-87968200D01*
X164086669Y-87900000D01*
X164086669Y-86900000D01*
X164086669Y-85900000D01*
X164086669Y-84900000D01*
X164086669Y-83900000D01*
X164062241Y-83774096D01*
X163989550Y-83663438D01*
X163879813Y-83589364D01*
X163750000Y-83563331D01*
X160250000Y-83563331D01*
X160124096Y-83587759D01*
X160013438Y-83660450D01*
X159939364Y-83770187D01*
X159914093Y-83896200D01*
X159774995Y-83896200D01*
X159668968Y-83789987D01*
X159435663Y-83693111D01*
X159183045Y-83692890D01*
X158949572Y-83789360D01*
X158770787Y-83967832D01*
X158673911Y-84201137D01*
X158673690Y-84453755D01*
X158770160Y-84687228D01*
X158948632Y-84866013D01*
X159181937Y-84962889D01*
X159434555Y-84963110D01*
X159668028Y-84866640D01*
X159775055Y-84759800D01*
X159913331Y-84759800D01*
X159913331Y-84900000D01*
X159937759Y-85025904D01*
X160010450Y-85136562D01*
X160120187Y-85210636D01*
X160250000Y-85236669D01*
X163750000Y-85236669D01*
X163875904Y-85212241D01*
X163986562Y-85139550D01*
X164060636Y-85029813D01*
X164086669Y-84900000D01*
X164086669Y-85900000D01*
X164062241Y-85774096D01*
X163989550Y-85663438D01*
X163879813Y-85589364D01*
X163750000Y-85563331D01*
X160250000Y-85563331D01*
X160124096Y-85587759D01*
X160013438Y-85660450D01*
X159939364Y-85770187D01*
X159913331Y-85900000D01*
X159913331Y-86131400D01*
X159774995Y-86131400D01*
X159668968Y-86025187D01*
X159435663Y-85928311D01*
X159183045Y-85928090D01*
X158949572Y-86024560D01*
X158770787Y-86203032D01*
X158673911Y-86436337D01*
X158673690Y-86688955D01*
X158770160Y-86922428D01*
X158948632Y-87101213D01*
X159181937Y-87198089D01*
X159434555Y-87198310D01*
X159668028Y-87101840D01*
X159775055Y-86995000D01*
X159931762Y-86995000D01*
X159937759Y-87025904D01*
X160010450Y-87136562D01*
X160120187Y-87210636D01*
X160250000Y-87236669D01*
X163750000Y-87236669D01*
X163875904Y-87212241D01*
X163986562Y-87139550D01*
X164060636Y-87029813D01*
X164086669Y-86900000D01*
X164086669Y-87900000D01*
X164062241Y-87774096D01*
X163989550Y-87663438D01*
X163879813Y-87589364D01*
X163750000Y-87563331D01*
X160250000Y-87563331D01*
X160124096Y-87587759D01*
X160013438Y-87660450D01*
X159939364Y-87770187D01*
X159913331Y-87900000D01*
X159913331Y-88366600D01*
X159774995Y-88366600D01*
X159668968Y-88260387D01*
X159435663Y-88163511D01*
X159183045Y-88163290D01*
X158949572Y-88259760D01*
X158770787Y-88438232D01*
X158673911Y-88671537D01*
X158673690Y-88924155D01*
X158770160Y-89157628D01*
X158948632Y-89336413D01*
X159181937Y-89433289D01*
X159434555Y-89433510D01*
X159668028Y-89337040D01*
X159775055Y-89230200D01*
X160217742Y-89230200D01*
X160250000Y-89236669D01*
X163750000Y-89236669D01*
X163875904Y-89212241D01*
X163986562Y-89139550D01*
X164060636Y-89029813D01*
X164086669Y-88900000D01*
X164086669Y-88831800D01*
X164217942Y-88831800D01*
X164363400Y-88977257D01*
X164363400Y-91721544D01*
X164288327Y-91540302D01*
X164109699Y-91361673D01*
X164086669Y-91352133D01*
X164086669Y-90900000D01*
X164086669Y-89900000D01*
X164062241Y-89774096D01*
X163989550Y-89663438D01*
X163879813Y-89589364D01*
X163750000Y-89563331D01*
X160250000Y-89563331D01*
X160124096Y-89587759D01*
X160013438Y-89660450D01*
X159939364Y-89770187D01*
X159913331Y-89900000D01*
X159913331Y-90195400D01*
X159774995Y-90195400D01*
X159668968Y-90089187D01*
X159435663Y-89992311D01*
X159183045Y-89992090D01*
X158949572Y-90088560D01*
X158770787Y-90267032D01*
X158673911Y-90500337D01*
X158673690Y-90752955D01*
X158770160Y-90986428D01*
X158948632Y-91165213D01*
X159181937Y-91262089D01*
X159434555Y-91262310D01*
X159668028Y-91165840D01*
X159775055Y-91059000D01*
X159959499Y-91059000D01*
X160010450Y-91136562D01*
X160120187Y-91210636D01*
X160250000Y-91236669D01*
X163750000Y-91236669D01*
X163875904Y-91212241D01*
X163986562Y-91139550D01*
X164060636Y-91029813D01*
X164086669Y-90900000D01*
X164086669Y-91352133D01*
X163876310Y-91265000D01*
X163623691Y-91265000D01*
X162285750Y-91265000D01*
X162127000Y-91423750D01*
X162127000Y-92273000D01*
X162147000Y-92273000D01*
X162147000Y-92527000D01*
X162127000Y-92527000D01*
X162127000Y-93376250D01*
X162150750Y-93400000D01*
X162127000Y-93423750D01*
X162127000Y-94273000D01*
X162147000Y-94273000D01*
X162147000Y-94527000D01*
X162127000Y-94527000D01*
X162127000Y-95376250D01*
X162285750Y-95535000D01*
X163623691Y-95535000D01*
X163876310Y-95535000D01*
X164109699Y-95438327D01*
X164288327Y-95259698D01*
X164363400Y-95078455D01*
X164363400Y-96113600D01*
X164396269Y-96278843D01*
X164489871Y-96418929D01*
X165106271Y-97035329D01*
X165246357Y-97128931D01*
X165411600Y-97161800D01*
X165901331Y-97161800D01*
X165901331Y-97492000D01*
X165925759Y-97617904D01*
X165998450Y-97728562D01*
X166108187Y-97802636D01*
X166238000Y-97828669D01*
X167762000Y-97828669D01*
X167887904Y-97804241D01*
X167998562Y-97731550D01*
X168072636Y-97621813D01*
X168098669Y-97492000D01*
X168098669Y-98503368D01*
X167980213Y-98469392D01*
X167800608Y-98648997D01*
X167800608Y-98289787D01*
X167731143Y-98047603D01*
X167207698Y-97860856D01*
X166652632Y-97888638D01*
X166268857Y-98047603D01*
X166199392Y-98289787D01*
X167000000Y-99090395D01*
X167800608Y-98289787D01*
X167800608Y-98648997D01*
X167179605Y-99270000D01*
X167980213Y-100070608D01*
X168222397Y-100001143D01*
X168409144Y-99477698D01*
X168409144Y-101879400D01*
X167800608Y-101879400D01*
X167800608Y-100250213D01*
X167000000Y-99449605D01*
X166820395Y-99629210D01*
X166820395Y-99270000D01*
X166019787Y-98469392D01*
X165777603Y-98538857D01*
X165590856Y-99062302D01*
X165618638Y-99617368D01*
X165777603Y-100001143D01*
X166019787Y-100070608D01*
X166820395Y-99270000D01*
X166820395Y-99629210D01*
X166199392Y-100250213D01*
X166268857Y-100492397D01*
X166792302Y-100679144D01*
X167347368Y-100651362D01*
X167731143Y-100492397D01*
X167800608Y-100250213D01*
X167800608Y-101879400D01*
X162343413Y-101879400D01*
X162410636Y-101779813D01*
X162436669Y-101650000D01*
X162436669Y-100450000D01*
X162436669Y-99550000D01*
X162436669Y-98350000D01*
X162412241Y-98224096D01*
X162339550Y-98113438D01*
X162229813Y-98039364D01*
X162100000Y-98013331D01*
X161975800Y-98013331D01*
X161975800Y-97392595D01*
X162082013Y-97286568D01*
X162178889Y-97053263D01*
X162179110Y-96800645D01*
X162082640Y-96567172D01*
X161904168Y-96388387D01*
X161873000Y-96375445D01*
X161873000Y-95376250D01*
X161873000Y-94527000D01*
X161873000Y-94273000D01*
X161873000Y-93423750D01*
X161849250Y-93400000D01*
X161873000Y-93376250D01*
X161873000Y-92527000D01*
X161873000Y-92273000D01*
X161873000Y-91423750D01*
X161714250Y-91265000D01*
X160376309Y-91265000D01*
X160123690Y-91265000D01*
X159890301Y-91361673D01*
X159711673Y-91540302D01*
X159615000Y-91773691D01*
X159615000Y-92114250D01*
X159773750Y-92273000D01*
X161873000Y-92273000D01*
X161873000Y-92527000D01*
X159773750Y-92527000D01*
X159615000Y-92685750D01*
X159615000Y-93026309D01*
X159711673Y-93259698D01*
X159851974Y-93400000D01*
X159711673Y-93540302D01*
X159615000Y-93773691D01*
X159615000Y-94114250D01*
X159773750Y-94273000D01*
X161873000Y-94273000D01*
X161873000Y-94527000D01*
X159773750Y-94527000D01*
X159615000Y-94685750D01*
X159615000Y-95026309D01*
X159711673Y-95259698D01*
X159890301Y-95438327D01*
X160123690Y-95535000D01*
X160376309Y-95535000D01*
X161714250Y-95535000D01*
X161873000Y-95376250D01*
X161873000Y-96375445D01*
X161670863Y-96291511D01*
X161418245Y-96291290D01*
X161184772Y-96387760D01*
X161005987Y-96566232D01*
X160909111Y-96799537D01*
X160908890Y-97052155D01*
X161005360Y-97285628D01*
X161112200Y-97392655D01*
X161112200Y-98013331D01*
X160900000Y-98013331D01*
X160774096Y-98037759D01*
X160663438Y-98110450D01*
X160589364Y-98220187D01*
X160563331Y-98350000D01*
X160563331Y-99550000D01*
X160587759Y-99675904D01*
X160660450Y-99786562D01*
X160770187Y-99860636D01*
X160900000Y-99886669D01*
X162100000Y-99886669D01*
X162225904Y-99862241D01*
X162336562Y-99789550D01*
X162410636Y-99679813D01*
X162436669Y-99550000D01*
X162436669Y-100450000D01*
X162412241Y-100324096D01*
X162339550Y-100213438D01*
X162229813Y-100139364D01*
X162100000Y-100113331D01*
X160900000Y-100113331D01*
X160774096Y-100137759D01*
X160663438Y-100210450D01*
X160589364Y-100320187D01*
X160570349Y-100415000D01*
X160181631Y-100415000D01*
X160181631Y-96148231D01*
X160133295Y-95905227D01*
X160133295Y-95905226D01*
X159995644Y-95699218D01*
X159148213Y-94851787D01*
X158942204Y-94714136D01*
X158699200Y-94665800D01*
X156464000Y-94665800D01*
X156463999Y-94665800D01*
X156338245Y-94665690D01*
X156220999Y-94714135D01*
X156220996Y-94714136D01*
X156220993Y-94714137D01*
X156104772Y-94762160D01*
X156014989Y-94851785D01*
X156014987Y-94851787D01*
X156014985Y-94851789D01*
X155925987Y-94940632D01*
X155877337Y-95057793D01*
X155877336Y-95057796D01*
X155877335Y-95057798D01*
X155829111Y-95173937D01*
X155829000Y-95300799D01*
X155829000Y-95300800D01*
X155828890Y-95426555D01*
X155877335Y-95543800D01*
X155877336Y-95543804D01*
X155877337Y-95543806D01*
X155925360Y-95660028D01*
X156014985Y-95749810D01*
X156014987Y-95749813D01*
X156014989Y-95749814D01*
X156103832Y-95838813D01*
X156220993Y-95887462D01*
X156220996Y-95887464D01*
X156220998Y-95887464D01*
X156337137Y-95935689D01*
X156463999Y-95935799D01*
X156464000Y-95935800D01*
X156464017Y-95935800D01*
X156589755Y-95935910D01*
X156590021Y-95935800D01*
X158436174Y-95935800D01*
X158911631Y-96411257D01*
X158911631Y-100415000D01*
X158571669Y-100415000D01*
X158571669Y-99750000D01*
X158547241Y-99624096D01*
X158474550Y-99513438D01*
X158455141Y-99500336D01*
X158471562Y-99489550D01*
X158545636Y-99379813D01*
X158571669Y-99250000D01*
X158571669Y-98300000D01*
X158547241Y-98174096D01*
X158474550Y-98063438D01*
X158364813Y-97989364D01*
X158235000Y-97963331D01*
X158165251Y-97963331D01*
X158164384Y-97958973D01*
X158158931Y-97931558D01*
X158158931Y-97931557D01*
X158065329Y-97791471D01*
X157707729Y-97433871D01*
X157567643Y-97340269D01*
X157402400Y-97307400D01*
X154339544Y-97307400D01*
X154360413Y-97286568D01*
X154457289Y-97053263D01*
X154457510Y-96800645D01*
X154361040Y-96567172D01*
X154254200Y-96460144D01*
X154254200Y-88654995D01*
X154360413Y-88548968D01*
X154406600Y-88437736D01*
X154406600Y-90424000D01*
X154406490Y-90549755D01*
X154454935Y-90667000D01*
X154454936Y-90667004D01*
X154454937Y-90667006D01*
X154502960Y-90783228D01*
X154592585Y-90873010D01*
X154592587Y-90873013D01*
X154592589Y-90873014D01*
X154681432Y-90962013D01*
X154798593Y-91010662D01*
X154798596Y-91010664D01*
X154798598Y-91010664D01*
X154914737Y-91058889D01*
X155041599Y-91058999D01*
X155041600Y-91059000D01*
X155041600Y-91058999D01*
X155167355Y-91059110D01*
X155284600Y-91010664D01*
X155284604Y-91010664D01*
X155284606Y-91010662D01*
X155400828Y-90962640D01*
X155490610Y-90873014D01*
X155490613Y-90873013D01*
X155490614Y-90873010D01*
X155579613Y-90784168D01*
X155628262Y-90667006D01*
X155628264Y-90667004D01*
X155628264Y-90667001D01*
X155676489Y-90550863D01*
X155676599Y-90424000D01*
X155676600Y-90424000D01*
X155676600Y-90423982D01*
X155676710Y-90298245D01*
X155676600Y-90297978D01*
X155676600Y-80873600D01*
X155628264Y-80630596D01*
X155628264Y-80630595D01*
X155490613Y-80424587D01*
X155084213Y-80018187D01*
X155084210Y-80018185D01*
X154995368Y-79929187D01*
X154878206Y-79880537D01*
X154878204Y-79880536D01*
X154878201Y-79880535D01*
X154762063Y-79832311D01*
X154635200Y-79832200D01*
X154635199Y-79832200D01*
X154509445Y-79832090D01*
X154392199Y-79880535D01*
X154392196Y-79880536D01*
X154392193Y-79880537D01*
X154275972Y-79928560D01*
X154186189Y-80018185D01*
X154186187Y-80018187D01*
X154186185Y-80018189D01*
X154097187Y-80107032D01*
X154048537Y-80224193D01*
X154048536Y-80224196D01*
X154048535Y-80224198D01*
X154000311Y-80340337D01*
X154000200Y-80467199D01*
X154000200Y-80467200D01*
X154000090Y-80592955D01*
X154048535Y-80710200D01*
X154048536Y-80710204D01*
X154048537Y-80710206D01*
X154096560Y-80826428D01*
X154186185Y-80916210D01*
X154186187Y-80916213D01*
X154186651Y-80916677D01*
X154275032Y-81005213D01*
X154275297Y-81005323D01*
X154406600Y-81136626D01*
X154406600Y-87939834D01*
X154361040Y-87829572D01*
X154182568Y-87650787D01*
X153949263Y-87553911D01*
X153696645Y-87553690D01*
X153463172Y-87650160D01*
X153284387Y-87828632D01*
X153187511Y-88061937D01*
X153187290Y-88314555D01*
X153283760Y-88548028D01*
X153390600Y-88655055D01*
X153390600Y-95341256D01*
X153339653Y-95320102D01*
X153087035Y-95319881D01*
X152853562Y-95416351D01*
X152674777Y-95594823D01*
X152577901Y-95828128D01*
X152577807Y-95934734D01*
X152513742Y-95998800D01*
X143869734Y-95998800D01*
X143890889Y-95947853D01*
X143891110Y-95695235D01*
X143794640Y-95461762D01*
X143616168Y-95282977D01*
X143382863Y-95186101D01*
X143130245Y-95185880D01*
X142896772Y-95282350D01*
X142789744Y-95389190D01*
X140403680Y-95389190D01*
X140460636Y-95304813D01*
X140486669Y-95175000D01*
X140486669Y-94855251D01*
X140489589Y-94854670D01*
X140571785Y-94937010D01*
X140571787Y-94937013D01*
X140571789Y-94937014D01*
X140660632Y-95026013D01*
X140777793Y-95074662D01*
X140777796Y-95074664D01*
X140777798Y-95074664D01*
X140893937Y-95122889D01*
X141020799Y-95122999D01*
X141020800Y-95123000D01*
X141020800Y-95122999D01*
X141146555Y-95123110D01*
X141263800Y-95074664D01*
X141263804Y-95074664D01*
X141263806Y-95074662D01*
X141359795Y-95035000D01*
X143943734Y-95035000D01*
X144010450Y-95136562D01*
X144120187Y-95210636D01*
X144250000Y-95236669D01*
X145262656Y-95236669D01*
X145262490Y-95426555D01*
X145358960Y-95660028D01*
X145537432Y-95838813D01*
X145770737Y-95935689D01*
X146023355Y-95935910D01*
X146256828Y-95839440D01*
X146435613Y-95660968D01*
X146532489Y-95427663D01*
X146532656Y-95236669D01*
X147750000Y-95236669D01*
X147875904Y-95212241D01*
X147986562Y-95139550D01*
X147997733Y-95123000D01*
X151993600Y-95123000D01*
X151993600Y-95122999D01*
X152119355Y-95123110D01*
X152236600Y-95074664D01*
X152236604Y-95074664D01*
X152236606Y-95074662D01*
X152352828Y-95026640D01*
X152442610Y-94937014D01*
X152442613Y-94937013D01*
X152442614Y-94937010D01*
X152531613Y-94848168D01*
X152580262Y-94731006D01*
X152580264Y-94731004D01*
X152580264Y-94731001D01*
X152628489Y-94614863D01*
X152628599Y-94488000D01*
X152628600Y-94488000D01*
X152628599Y-94487999D01*
X152628710Y-94362245D01*
X152580264Y-94244999D01*
X152580264Y-94244996D01*
X152580262Y-94244993D01*
X152532240Y-94128772D01*
X152442614Y-94038989D01*
X152442613Y-94038987D01*
X152442610Y-94038985D01*
X152353768Y-93949987D01*
X152236606Y-93901337D01*
X152236604Y-93901336D01*
X152236601Y-93901335D01*
X152120463Y-93853111D01*
X151993600Y-93853000D01*
X151993582Y-93853000D01*
X151867845Y-93852890D01*
X151867578Y-93853000D01*
X150393510Y-93853000D01*
X150393510Y-86031045D01*
X150297040Y-85797572D01*
X150190200Y-85690544D01*
X150190200Y-81889600D01*
X150157331Y-81724357D01*
X150063729Y-81584271D01*
X150063725Y-81584268D01*
X149986978Y-81507521D01*
X149987110Y-81357445D01*
X149890640Y-81123972D01*
X149712168Y-80945187D01*
X149580710Y-80890601D01*
X149580710Y-80138245D01*
X149484240Y-79904772D01*
X149305768Y-79725987D01*
X149072463Y-79629111D01*
X148819845Y-79628890D01*
X148586372Y-79725360D01*
X148407587Y-79903832D01*
X148380859Y-79968200D01*
X148086669Y-79968200D01*
X148086669Y-79900000D01*
X148062241Y-79774096D01*
X147989550Y-79663438D01*
X147879813Y-79589364D01*
X147750000Y-79563331D01*
X144250000Y-79563331D01*
X144124096Y-79587759D01*
X144013438Y-79660450D01*
X143939364Y-79770187D01*
X143913331Y-79900000D01*
X143913331Y-79968200D01*
X142554857Y-79968200D01*
X141681800Y-79095142D01*
X141681800Y-70375611D01*
X141931799Y-70272314D01*
X142271123Y-69933582D01*
X142454990Y-69490781D01*
X142455408Y-69011323D01*
X142272314Y-68568201D01*
X141933582Y-68228877D01*
X141681800Y-68124328D01*
X141681800Y-63875611D01*
X141931799Y-63772314D01*
X142271123Y-63433582D01*
X142454990Y-62990781D01*
X142455408Y-62511323D01*
X142272314Y-62068201D01*
X141933582Y-61728877D01*
X141490781Y-61545010D01*
X141011323Y-61544592D01*
X140568201Y-61727686D01*
X140228877Y-62066418D01*
X140045010Y-62509219D01*
X140044592Y-62988677D01*
X140227686Y-63431799D01*
X140566418Y-63771123D01*
X140818200Y-63875671D01*
X140818200Y-68124388D01*
X140568201Y-68227686D01*
X140228877Y-68566418D01*
X140045010Y-69009219D01*
X140044592Y-69488677D01*
X140227686Y-69931799D01*
X140566418Y-70271123D01*
X140818200Y-70375671D01*
X140818200Y-79274000D01*
X140851069Y-79439243D01*
X140944671Y-79579329D01*
X142070668Y-80705325D01*
X142070671Y-80705329D01*
X142210757Y-80798931D01*
X142376000Y-80831800D01*
X143913331Y-80831800D01*
X143913331Y-80900000D01*
X143937759Y-81025904D01*
X144010450Y-81136562D01*
X144120187Y-81210636D01*
X144250000Y-81236669D01*
X147750000Y-81236669D01*
X147875904Y-81212241D01*
X147986562Y-81139550D01*
X148060636Y-81029813D01*
X148086669Y-80900000D01*
X148086669Y-80831800D01*
X148657167Y-80831800D01*
X148818737Y-80898889D01*
X149071355Y-80899110D01*
X149304828Y-80802640D01*
X149483613Y-80624168D01*
X149580489Y-80390863D01*
X149580710Y-80138245D01*
X149580710Y-80890601D01*
X149478863Y-80848311D01*
X149226245Y-80848090D01*
X148992772Y-80944560D01*
X148813987Y-81123032D01*
X148717111Y-81356337D01*
X148716890Y-81608955D01*
X148813360Y-81842428D01*
X148991832Y-82021213D01*
X149225137Y-82118089D01*
X149326600Y-82118177D01*
X149326600Y-85690604D01*
X149220387Y-85796632D01*
X149123511Y-86029937D01*
X149123290Y-86282555D01*
X149219760Y-86516028D01*
X149398232Y-86694813D01*
X149631537Y-86791689D01*
X149884155Y-86791910D01*
X150117628Y-86695440D01*
X150296413Y-86516968D01*
X150393289Y-86283663D01*
X150393510Y-86031045D01*
X150393510Y-93853000D01*
X149783910Y-93853000D01*
X149783910Y-87859845D01*
X149687440Y-87626372D01*
X149508968Y-87447587D01*
X149275663Y-87350711D01*
X149023045Y-87350490D01*
X148789572Y-87446960D01*
X148682544Y-87553800D01*
X148385000Y-87553800D01*
X148385000Y-83026309D01*
X148385000Y-82685750D01*
X148385000Y-82114250D01*
X148385000Y-81773691D01*
X148288327Y-81540302D01*
X148109699Y-81361673D01*
X147876310Y-81265000D01*
X147623691Y-81265000D01*
X146285750Y-81265000D01*
X146127000Y-81423750D01*
X146127000Y-82273000D01*
X148226250Y-82273000D01*
X148385000Y-82114250D01*
X148385000Y-82685750D01*
X148226250Y-82527000D01*
X146127000Y-82527000D01*
X146127000Y-83376250D01*
X146285750Y-83535000D01*
X147623691Y-83535000D01*
X147876310Y-83535000D01*
X148109699Y-83438327D01*
X148288327Y-83259698D01*
X148385000Y-83026309D01*
X148385000Y-87553800D01*
X148086669Y-87553800D01*
X148086669Y-86900000D01*
X148086669Y-85900000D01*
X148086669Y-84900000D01*
X148086669Y-83900000D01*
X148062241Y-83774096D01*
X147989550Y-83663438D01*
X147879813Y-83589364D01*
X147750000Y-83563331D01*
X145873000Y-83563331D01*
X145873000Y-83376250D01*
X145873000Y-82527000D01*
X145873000Y-82273000D01*
X145873000Y-81423750D01*
X145714250Y-81265000D01*
X144376309Y-81265000D01*
X144123690Y-81265000D01*
X143890301Y-81361673D01*
X143711673Y-81540302D01*
X143615000Y-81773691D01*
X143615000Y-82114250D01*
X143773750Y-82273000D01*
X145873000Y-82273000D01*
X145873000Y-82527000D01*
X143773750Y-82527000D01*
X143615000Y-82685750D01*
X143615000Y-83026309D01*
X143711673Y-83259698D01*
X143890301Y-83438327D01*
X144123690Y-83535000D01*
X144376309Y-83535000D01*
X145714250Y-83535000D01*
X145873000Y-83376250D01*
X145873000Y-83563331D01*
X144250000Y-83563331D01*
X144124096Y-83587759D01*
X144013438Y-83660450D01*
X143939364Y-83770187D01*
X143914093Y-83896200D01*
X141224000Y-83896200D01*
X141223999Y-83896200D01*
X141098245Y-83896090D01*
X140980999Y-83944535D01*
X140980996Y-83944536D01*
X140980993Y-83944537D01*
X140864772Y-83992560D01*
X140774989Y-84082185D01*
X140774987Y-84082187D01*
X140774985Y-84082189D01*
X140685987Y-84171032D01*
X140637337Y-84288193D01*
X140637336Y-84288196D01*
X140637335Y-84288198D01*
X140589111Y-84404337D01*
X140589000Y-84531199D01*
X140589000Y-84531200D01*
X140588890Y-84656955D01*
X140637335Y-84774200D01*
X140637336Y-84774204D01*
X140637337Y-84774206D01*
X140685360Y-84890428D01*
X140774985Y-84980210D01*
X140774987Y-84980213D01*
X140774989Y-84980214D01*
X140863832Y-85069213D01*
X140980993Y-85117862D01*
X140980996Y-85117864D01*
X140980998Y-85117864D01*
X141097137Y-85166089D01*
X141223999Y-85166199D01*
X141224000Y-85166200D01*
X141224017Y-85166200D01*
X141349755Y-85166310D01*
X141350021Y-85166200D01*
X144054357Y-85166200D01*
X144120187Y-85210636D01*
X144250000Y-85236669D01*
X147750000Y-85236669D01*
X147875904Y-85212241D01*
X147986562Y-85139550D01*
X148060636Y-85029813D01*
X148086669Y-84900000D01*
X148086669Y-85900000D01*
X148062241Y-85774096D01*
X147989550Y-85663438D01*
X147879813Y-85589364D01*
X147750000Y-85563331D01*
X144250000Y-85563331D01*
X144124096Y-85587759D01*
X144013438Y-85660450D01*
X143939364Y-85770187D01*
X143913331Y-85900000D01*
X143913331Y-86900000D01*
X143937759Y-87025904D01*
X144010450Y-87136562D01*
X144120187Y-87210636D01*
X144250000Y-87236669D01*
X147750000Y-87236669D01*
X147875904Y-87212241D01*
X147986562Y-87139550D01*
X148060636Y-87029813D01*
X148086669Y-86900000D01*
X148086669Y-87553800D01*
X147664400Y-87553800D01*
X147616484Y-87563331D01*
X144250000Y-87563331D01*
X144124096Y-87587759D01*
X144013438Y-87660450D01*
X143939364Y-87770187D01*
X143913331Y-87900000D01*
X143913331Y-88900000D01*
X143937759Y-89025904D01*
X144010450Y-89136562D01*
X144120187Y-89210636D01*
X144250000Y-89236669D01*
X147750000Y-89236669D01*
X147875904Y-89212241D01*
X147986562Y-89139550D01*
X148060636Y-89029813D01*
X148086669Y-88900000D01*
X148086669Y-88417400D01*
X148682604Y-88417400D01*
X148788632Y-88523613D01*
X149021937Y-88620489D01*
X149274555Y-88620710D01*
X149508028Y-88524240D01*
X149686813Y-88345768D01*
X149783689Y-88112463D01*
X149783910Y-87859845D01*
X149783910Y-93853000D01*
X148077550Y-93853000D01*
X148062241Y-93774096D01*
X147989550Y-93663438D01*
X147879813Y-93589364D01*
X147750000Y-93563331D01*
X144250000Y-93563331D01*
X144124096Y-93587759D01*
X144013438Y-93660450D01*
X143942865Y-93765000D01*
X143869734Y-93765000D01*
X143890889Y-93714053D01*
X143891110Y-93461435D01*
X143804831Y-93252626D01*
X143974945Y-93082512D01*
X144010450Y-93136562D01*
X144120187Y-93210636D01*
X144250000Y-93236669D01*
X147750000Y-93236669D01*
X147875904Y-93212241D01*
X147986562Y-93139550D01*
X148060636Y-93029813D01*
X148086669Y-92900000D01*
X148086669Y-92831800D01*
X148480940Y-92831800D01*
X148615537Y-92887689D01*
X148868155Y-92887910D01*
X149101628Y-92791440D01*
X149280413Y-92612968D01*
X149377289Y-92379663D01*
X149377510Y-92127045D01*
X149281040Y-91893572D01*
X149102568Y-91714787D01*
X148869263Y-91617911D01*
X148616645Y-91617690D01*
X148383172Y-91714160D01*
X148204387Y-91892632D01*
X148173008Y-91968200D01*
X148086669Y-91968200D01*
X148086669Y-91900000D01*
X148062241Y-91774096D01*
X147989550Y-91663438D01*
X147879813Y-91589364D01*
X147750000Y-91563331D01*
X144250000Y-91563331D01*
X144124096Y-91587759D01*
X144013438Y-91660450D01*
X143939364Y-91770187D01*
X143913331Y-91900000D01*
X143913331Y-91994748D01*
X143881557Y-92001069D01*
X143741471Y-92094671D01*
X142950671Y-92885471D01*
X142857069Y-93025557D01*
X142841525Y-93103699D01*
X142717987Y-93227022D01*
X142645281Y-93402118D01*
X142671800Y-93268800D01*
X142671800Y-91212458D01*
X143052458Y-90831800D01*
X143913331Y-90831800D01*
X143913331Y-90900000D01*
X143937759Y-91025904D01*
X144010450Y-91136562D01*
X144120187Y-91210636D01*
X144250000Y-91236669D01*
X147750000Y-91236669D01*
X147875904Y-91212241D01*
X147986562Y-91139550D01*
X148060636Y-91029813D01*
X148086669Y-90900000D01*
X148086669Y-90855800D01*
X148276204Y-90855800D01*
X148382232Y-90962013D01*
X148615537Y-91058889D01*
X148868155Y-91059110D01*
X149101628Y-90962640D01*
X149280413Y-90784168D01*
X149377289Y-90550863D01*
X149377510Y-90298245D01*
X149281040Y-90064772D01*
X149102568Y-89885987D01*
X148869263Y-89789111D01*
X148616645Y-89788890D01*
X148383172Y-89885360D01*
X148276144Y-89992200D01*
X148086669Y-89992200D01*
X148086669Y-89900000D01*
X148062241Y-89774096D01*
X147989550Y-89663438D01*
X147879813Y-89589364D01*
X147750000Y-89563331D01*
X144250000Y-89563331D01*
X144124096Y-89587759D01*
X144013438Y-89660450D01*
X143939364Y-89770187D01*
X143913331Y-89900000D01*
X143913331Y-89968200D01*
X142873605Y-89968200D01*
X142873600Y-89968199D01*
X142735773Y-89995615D01*
X142708357Y-90001069D01*
X142568271Y-90094671D01*
X141934671Y-90728271D01*
X141841069Y-90868357D01*
X141808200Y-91033600D01*
X141808200Y-93089942D01*
X141654742Y-93243400D01*
X140614400Y-93243400D01*
X140449157Y-93276269D01*
X140309071Y-93369871D01*
X140267122Y-93411819D01*
X140150000Y-93388331D01*
X139850000Y-93388331D01*
X139748347Y-93408053D01*
X139650000Y-93388331D01*
X139471284Y-93388331D01*
X139497329Y-93370929D01*
X140305325Y-92562931D01*
X140305329Y-92562929D01*
X140305329Y-92562928D01*
X140367872Y-92469326D01*
X140398931Y-92422843D01*
X140398932Y-92422842D01*
X140431800Y-92257600D01*
X140431801Y-92257600D01*
X140431800Y-92257594D01*
X140431800Y-90947532D01*
X140460636Y-90904813D01*
X140486669Y-90775000D01*
X140486669Y-89325000D01*
X140462241Y-89199096D01*
X140431800Y-89152755D01*
X140431800Y-88862669D01*
X140618000Y-88862669D01*
X140743904Y-88838241D01*
X140815584Y-88791154D01*
X140893937Y-88823689D01*
X141146555Y-88823910D01*
X141380028Y-88727440D01*
X141558813Y-88548968D01*
X141655689Y-88315663D01*
X141655910Y-88063045D01*
X141559440Y-87829572D01*
X141380968Y-87650787D01*
X141147663Y-87553911D01*
X140988254Y-87553771D01*
X141156327Y-87385698D01*
X141253000Y-87152309D01*
X141253000Y-86911750D01*
X141253000Y-86340250D01*
X141253000Y-86099691D01*
X141156327Y-85866302D01*
X140977699Y-85687673D01*
X140744310Y-85591000D01*
X140503750Y-85591000D01*
X140345000Y-85749750D01*
X140345000Y-86499000D01*
X141094250Y-86499000D01*
X141253000Y-86340250D01*
X141253000Y-86911750D01*
X141094250Y-86753000D01*
X140345000Y-86753000D01*
X140345000Y-86773000D01*
X140091000Y-86773000D01*
X140091000Y-86753000D01*
X140091000Y-86499000D01*
X140091000Y-85749750D01*
X139932250Y-85591000D01*
X139691690Y-85591000D01*
X139458301Y-85687673D01*
X139279673Y-85866302D01*
X139183000Y-86099691D01*
X139183000Y-86340250D01*
X139341750Y-86499000D01*
X140091000Y-86499000D01*
X140091000Y-86753000D01*
X139341750Y-86753000D01*
X139183000Y-86911750D01*
X139183000Y-87152309D01*
X139279673Y-87385698D01*
X139458301Y-87564327D01*
X139513450Y-87587170D01*
X139507364Y-87596187D01*
X139481331Y-87726000D01*
X139481331Y-88526000D01*
X139505759Y-88651904D01*
X139568200Y-88746958D01*
X139568200Y-89152467D01*
X139539364Y-89195187D01*
X139513331Y-89325000D01*
X139513331Y-90775000D01*
X139537759Y-90900904D01*
X139568200Y-90947244D01*
X139568200Y-92078742D01*
X139013142Y-92633800D01*
X138811000Y-92633800D01*
X138811000Y-91767498D01*
X139184663Y-91393834D01*
X139223691Y-91410000D01*
X139266250Y-91410000D01*
X139425000Y-91251250D01*
X139425000Y-91002029D01*
X139425000Y-91002025D01*
X139431800Y-90967840D01*
X139431801Y-90967840D01*
X139431800Y-90967834D01*
X139431800Y-90947532D01*
X139460636Y-90904813D01*
X139486669Y-90775000D01*
X139486669Y-89325000D01*
X139462241Y-89199096D01*
X139425000Y-89142403D01*
X139425000Y-88848750D01*
X139266250Y-88690000D01*
X139223691Y-88690000D01*
X138990302Y-88786673D01*
X138867482Y-88909491D01*
X138805329Y-88816471D01*
X138805325Y-88816468D01*
X138271590Y-88282732D01*
X138271590Y-69484694D01*
X138271590Y-62984694D01*
X138245579Y-62384542D01*
X138065953Y-61950884D01*
X137812060Y-61867545D01*
X137632455Y-62047150D01*
X137632455Y-61687940D01*
X137549116Y-61434047D01*
X136984694Y-61228410D01*
X136384542Y-61254421D01*
X135950884Y-61434047D01*
X135867545Y-61687940D01*
X136750000Y-62570395D01*
X137632455Y-61687940D01*
X137632455Y-62047150D01*
X136929605Y-62750000D01*
X137812060Y-63632455D01*
X138065953Y-63549116D01*
X138271590Y-62984694D01*
X138271590Y-69484694D01*
X138245579Y-68884542D01*
X138065953Y-68450884D01*
X137812060Y-68367545D01*
X137632455Y-68547150D01*
X137632455Y-68187940D01*
X137632455Y-63812060D01*
X136750000Y-62929605D01*
X136570395Y-63109210D01*
X136570395Y-62750000D01*
X135687940Y-61867545D01*
X135434047Y-61950884D01*
X135228410Y-62515306D01*
X135254421Y-63115458D01*
X135434047Y-63549116D01*
X135687940Y-63632455D01*
X136570395Y-62750000D01*
X136570395Y-63109210D01*
X135867545Y-63812060D01*
X135950884Y-64065953D01*
X136515306Y-64271590D01*
X137115458Y-64245579D01*
X137549116Y-64065953D01*
X137632455Y-63812060D01*
X137632455Y-68187940D01*
X137549116Y-67934047D01*
X136984694Y-67728410D01*
X136384542Y-67754421D01*
X135950884Y-67934047D01*
X135867545Y-68187940D01*
X136750000Y-69070395D01*
X137632455Y-68187940D01*
X137632455Y-68547150D01*
X136929605Y-69250000D01*
X137812060Y-70132455D01*
X138065953Y-70049116D01*
X138271590Y-69484694D01*
X138271590Y-88282732D01*
X137933529Y-87944671D01*
X137793443Y-87851069D01*
X137632455Y-87819046D01*
X137632455Y-70312060D01*
X136750000Y-69429605D01*
X136570395Y-69609210D01*
X136570395Y-69250000D01*
X135687940Y-68367545D01*
X135434047Y-68450884D01*
X135228410Y-69015306D01*
X135254421Y-69615458D01*
X135434047Y-70049116D01*
X135687940Y-70132455D01*
X136570395Y-69250000D01*
X136570395Y-69609210D01*
X135867545Y-70312060D01*
X135950884Y-70565953D01*
X136515306Y-70771590D01*
X137115458Y-70745579D01*
X137549116Y-70565953D01*
X137632455Y-70312060D01*
X137632455Y-87819046D01*
X137628200Y-87818200D01*
X137585000Y-87818200D01*
X137585000Y-82861310D01*
X137585000Y-82608691D01*
X137585000Y-82545750D01*
X137585000Y-81974250D01*
X137585000Y-81911309D01*
X137585000Y-81658690D01*
X137488327Y-81425301D01*
X137309698Y-81246673D01*
X137076309Y-81150000D01*
X136760750Y-81150000D01*
X136602000Y-81308750D01*
X136602000Y-82133000D01*
X137426250Y-82133000D01*
X137585000Y-81974250D01*
X137585000Y-82545750D01*
X137426250Y-82387000D01*
X136602000Y-82387000D01*
X136602000Y-83211250D01*
X136760750Y-83370000D01*
X137076309Y-83370000D01*
X137309698Y-83273327D01*
X137488327Y-83094699D01*
X137585000Y-82861310D01*
X137585000Y-87818200D01*
X136468087Y-87818200D01*
X136348000Y-87697901D01*
X136348000Y-83211250D01*
X136348000Y-82387000D01*
X136328000Y-82387000D01*
X136328000Y-82133000D01*
X136348000Y-82133000D01*
X136348000Y-81308750D01*
X136189250Y-81150000D01*
X135873691Y-81150000D01*
X135660000Y-81238513D01*
X135660000Y-79551400D01*
X135611664Y-79308396D01*
X135474013Y-79102387D01*
X134502613Y-78130987D01*
X134296604Y-77993336D01*
X134053600Y-77945000D01*
X133200576Y-77945000D01*
X133199550Y-77943438D01*
X133089813Y-77869364D01*
X132960000Y-77843331D01*
X132060000Y-77843331D01*
X131934096Y-77867759D01*
X131823438Y-77940450D01*
X131749364Y-78050187D01*
X131723331Y-78180000D01*
X131723331Y-78980000D01*
X131747759Y-79105904D01*
X131820450Y-79216562D01*
X131930187Y-79290636D01*
X132060000Y-79316669D01*
X132960000Y-79316669D01*
X133085904Y-79292241D01*
X133196562Y-79219550D01*
X133199633Y-79215000D01*
X133790574Y-79215000D01*
X134390000Y-79814426D01*
X134390000Y-79895068D01*
X134238863Y-79832311D01*
X133986245Y-79832090D01*
X133752772Y-79928560D01*
X133632922Y-80048200D01*
X133290499Y-80048200D01*
X133272241Y-79954096D01*
X133199550Y-79843438D01*
X133089813Y-79769364D01*
X132960000Y-79743331D01*
X132060000Y-79743331D01*
X131934096Y-79767759D01*
X131823438Y-79840450D01*
X131749364Y-79950187D01*
X131723331Y-80080000D01*
X131723331Y-80880000D01*
X131747759Y-81005904D01*
X131820450Y-81116562D01*
X131930187Y-81190636D01*
X132060000Y-81216669D01*
X132960000Y-81216669D01*
X133085904Y-81192241D01*
X133196562Y-81119550D01*
X133270636Y-81009813D01*
X133290291Y-80911800D01*
X133658582Y-80911800D01*
X133751832Y-81005213D01*
X133985137Y-81102089D01*
X134237755Y-81102310D01*
X134390000Y-81039403D01*
X134390000Y-81495156D01*
X134313438Y-81545450D01*
X134239364Y-81655187D01*
X134231379Y-81695000D01*
X133200576Y-81695000D01*
X133199550Y-81693438D01*
X133089813Y-81619364D01*
X132960000Y-81593331D01*
X132060000Y-81593331D01*
X131934096Y-81617759D01*
X131823438Y-81690450D01*
X131749364Y-81800187D01*
X131723331Y-81930000D01*
X131723331Y-82730000D01*
X131747759Y-82855904D01*
X131820450Y-82966562D01*
X131930187Y-83040636D01*
X132060000Y-83066669D01*
X132960000Y-83066669D01*
X133085904Y-83042241D01*
X133196562Y-82969550D01*
X133199633Y-82965000D01*
X133577549Y-82965000D01*
X133549572Y-82976560D01*
X133370787Y-83155032D01*
X133273911Y-83388337D01*
X133273778Y-83539563D01*
X133207619Y-83605722D01*
X133199550Y-83593438D01*
X133089813Y-83519364D01*
X132960000Y-83493331D01*
X132060000Y-83493331D01*
X131934096Y-83517759D01*
X131823438Y-83590450D01*
X131749364Y-83700187D01*
X131723331Y-83830000D01*
X131723331Y-84630000D01*
X131747759Y-84755904D01*
X131820450Y-84866562D01*
X131930187Y-84940636D01*
X132060000Y-84966669D01*
X132960000Y-84966669D01*
X133085904Y-84942241D01*
X133196562Y-84869550D01*
X133270636Y-84759813D01*
X133294292Y-84641850D01*
X133359242Y-84628931D01*
X133359243Y-84628931D01*
X133499329Y-84535329D01*
X133884479Y-84150178D01*
X134034555Y-84150310D01*
X134268028Y-84053840D01*
X134390000Y-83932081D01*
X134390000Y-84371024D01*
X134386787Y-84374232D01*
X134338137Y-84491393D01*
X134338136Y-84491396D01*
X134338135Y-84491398D01*
X134289911Y-84607537D01*
X134289800Y-84734399D01*
X134289800Y-84734400D01*
X134289690Y-84860155D01*
X134338135Y-84977400D01*
X134338136Y-84977404D01*
X134338137Y-84977406D01*
X134386160Y-85093628D01*
X134475785Y-85183410D01*
X134475787Y-85183413D01*
X134475789Y-85183414D01*
X134564632Y-85272413D01*
X134681793Y-85321062D01*
X134681796Y-85321064D01*
X134681798Y-85321064D01*
X134797937Y-85369289D01*
X134924799Y-85369399D01*
X134924800Y-85369400D01*
X134924800Y-85369399D01*
X135050555Y-85369510D01*
X135167800Y-85321064D01*
X135167804Y-85321064D01*
X135167806Y-85321062D01*
X135284028Y-85273040D01*
X135373810Y-85183414D01*
X135373813Y-85183413D01*
X135374277Y-85182948D01*
X135462813Y-85094568D01*
X135462923Y-85094302D01*
X135474013Y-85083213D01*
X135611664Y-84877204D01*
X135660000Y-84634200D01*
X135660000Y-83281486D01*
X135873691Y-83370000D01*
X136189250Y-83370000D01*
X136348000Y-83211250D01*
X136348000Y-87697901D01*
X136300968Y-87650787D01*
X136067663Y-87553911D01*
X135815045Y-87553690D01*
X135581572Y-87650160D01*
X135413237Y-87818200D01*
X135240499Y-87818200D01*
X135222241Y-87724096D01*
X135149550Y-87613438D01*
X135039813Y-87539364D01*
X134910000Y-87513331D01*
X134110000Y-87513331D01*
X133984096Y-87537759D01*
X133873438Y-87610450D01*
X133799364Y-87720187D01*
X133779708Y-87818200D01*
X133592058Y-87818200D01*
X133208529Y-87434671D01*
X133068443Y-87341069D01*
X133036669Y-87334748D01*
X133036669Y-87265000D01*
X133012241Y-87139096D01*
X132939550Y-87028438D01*
X132829813Y-86954364D01*
X132700000Y-86928331D01*
X131750000Y-86928331D01*
X131624096Y-86952759D01*
X131513438Y-87025450D01*
X131500336Y-87044858D01*
X131489550Y-87028438D01*
X131379813Y-86954364D01*
X131296669Y-86937690D01*
X131296669Y-83680000D01*
X131296669Y-82880000D01*
X131296669Y-79930000D01*
X131296669Y-79130000D01*
X131272241Y-79004096D01*
X131199550Y-78893438D01*
X131089813Y-78819364D01*
X130960000Y-78793331D01*
X130060000Y-78793331D01*
X129934096Y-78817759D01*
X129823438Y-78890450D01*
X129820366Y-78895000D01*
X126409144Y-78895000D01*
X126409144Y-77317698D01*
X126381362Y-76762632D01*
X126222397Y-76378857D01*
X125980213Y-76309392D01*
X125800608Y-76488997D01*
X125800608Y-76129787D01*
X125731143Y-75887603D01*
X125207698Y-75700856D01*
X124652632Y-75728638D01*
X124268857Y-75887603D01*
X124199392Y-76129787D01*
X125000000Y-76930395D01*
X125800608Y-76129787D01*
X125800608Y-76488997D01*
X125179605Y-77110000D01*
X125980213Y-77910608D01*
X126222397Y-77841143D01*
X126409144Y-77317698D01*
X126409144Y-78895000D01*
X125800608Y-78895000D01*
X125800608Y-78090213D01*
X125000000Y-77289605D01*
X124820395Y-77469210D01*
X124820395Y-77110000D01*
X124019787Y-76309392D01*
X123777603Y-76378857D01*
X123590856Y-76902302D01*
X123618638Y-77457368D01*
X123777603Y-77841143D01*
X124019787Y-77910608D01*
X124820395Y-77110000D01*
X124820395Y-77469210D01*
X124199392Y-78090213D01*
X124268857Y-78332397D01*
X124792302Y-78519144D01*
X125347368Y-78491362D01*
X125731143Y-78332397D01*
X125800608Y-78090213D01*
X125800608Y-78895000D01*
X125789574Y-78895000D01*
X125619489Y-78724618D01*
X125218205Y-78557990D01*
X124783701Y-78557611D01*
X124382127Y-78723538D01*
X124074618Y-79030511D01*
X123907990Y-79431795D01*
X123907611Y-79866299D01*
X124073538Y-80267873D01*
X124380511Y-80575382D01*
X124781795Y-80742010D01*
X125216299Y-80742389D01*
X125617873Y-80576462D01*
X125925382Y-80269489D01*
X125968769Y-80165000D01*
X129819423Y-80165000D01*
X129820450Y-80166562D01*
X129930187Y-80240636D01*
X130060000Y-80266669D01*
X130960000Y-80266669D01*
X131085904Y-80242241D01*
X131196562Y-80169550D01*
X131270636Y-80059813D01*
X131296669Y-79930000D01*
X131296669Y-82880000D01*
X131272241Y-82754096D01*
X131199550Y-82643438D01*
X131145000Y-82606615D01*
X131145000Y-82554800D01*
X131096664Y-82311796D01*
X130959013Y-82105787D01*
X130594213Y-81740987D01*
X130388204Y-81603336D01*
X130145200Y-81555000D01*
X125909364Y-81555000D01*
X125619489Y-81264618D01*
X125218205Y-81097990D01*
X124783701Y-81097611D01*
X124382127Y-81263538D01*
X124074618Y-81570511D01*
X123907990Y-81971795D01*
X123907611Y-82406299D01*
X124073538Y-82807873D01*
X124380511Y-83115382D01*
X124781795Y-83282010D01*
X125216299Y-83282389D01*
X125617873Y-83116462D01*
X125909843Y-82825000D01*
X129734360Y-82825000D01*
X129723331Y-82880000D01*
X129723331Y-83680000D01*
X129747759Y-83805904D01*
X129820450Y-83916562D01*
X129930187Y-83990636D01*
X130060000Y-84016669D01*
X130960000Y-84016669D01*
X131085904Y-83992241D01*
X131196562Y-83919550D01*
X131270636Y-83809813D01*
X131296669Y-83680000D01*
X131296669Y-86937690D01*
X131250000Y-86928331D01*
X130300000Y-86928331D01*
X130174096Y-86952759D01*
X130063438Y-87025450D01*
X129989364Y-87135187D01*
X129963331Y-87265000D01*
X129963331Y-87308200D01*
X126092167Y-87308200D01*
X126092389Y-87053701D01*
X126092389Y-84513701D01*
X125926462Y-84112127D01*
X125619489Y-83804618D01*
X125218205Y-83637990D01*
X124783701Y-83637611D01*
X124382127Y-83803538D01*
X124074618Y-84110511D01*
X123907990Y-84511795D01*
X123907611Y-84946299D01*
X124073538Y-85347873D01*
X124380511Y-85655382D01*
X124781795Y-85822010D01*
X125216299Y-85822389D01*
X125617873Y-85656462D01*
X125925382Y-85349489D01*
X126092010Y-84948205D01*
X126092389Y-84513701D01*
X126092389Y-87053701D01*
X125926462Y-86652127D01*
X125619489Y-86344618D01*
X125218205Y-86177990D01*
X124783701Y-86177611D01*
X124382127Y-86343538D01*
X124074618Y-86650511D01*
X123907990Y-87051795D01*
X123907611Y-87486299D01*
X124073538Y-87887873D01*
X124380511Y-88195382D01*
X124781795Y-88362010D01*
X125216299Y-88362389D01*
X125617873Y-88196462D01*
X125642578Y-88171800D01*
X129963331Y-88171800D01*
X129963331Y-88215000D01*
X129987759Y-88340904D01*
X130060450Y-88451562D01*
X130170187Y-88525636D01*
X130300000Y-88551669D01*
X131250000Y-88551669D01*
X131375904Y-88527241D01*
X131486562Y-88454550D01*
X131499663Y-88435141D01*
X131510450Y-88451562D01*
X131620187Y-88525636D01*
X131750000Y-88551669D01*
X132700000Y-88551669D01*
X132825904Y-88527241D01*
X132936562Y-88454550D01*
X132964984Y-88412442D01*
X133107871Y-88555329D01*
X133247957Y-88648931D01*
X133247958Y-88648931D01*
X133413200Y-88681800D01*
X133779500Y-88681800D01*
X133797759Y-88775904D01*
X133870450Y-88886562D01*
X133980187Y-88960636D01*
X134110000Y-88986669D01*
X134910000Y-88986669D01*
X135035904Y-88962241D01*
X135146562Y-88889550D01*
X135220636Y-88779813D01*
X135240291Y-88681800D01*
X135535697Y-88681800D01*
X135580632Y-88726813D01*
X135813937Y-88823689D01*
X136066555Y-88823910D01*
X136300028Y-88727440D01*
X136345748Y-88681800D01*
X137449342Y-88681800D01*
X137771168Y-89003625D01*
X137724096Y-89012759D01*
X137613438Y-89085450D01*
X137539364Y-89195187D01*
X137513331Y-89325000D01*
X137513331Y-89618200D01*
X136439338Y-89618200D01*
X136300968Y-89479587D01*
X136067663Y-89382711D01*
X135815045Y-89382490D01*
X135581572Y-89478960D01*
X135442087Y-89618200D01*
X135246669Y-89618200D01*
X135246669Y-89350000D01*
X135222241Y-89224096D01*
X135149550Y-89113438D01*
X135039813Y-89039364D01*
X134910000Y-89013331D01*
X134110000Y-89013331D01*
X133984096Y-89037759D01*
X133873438Y-89110450D01*
X133799364Y-89220187D01*
X133779708Y-89318200D01*
X133160400Y-89318200D01*
X132995157Y-89351069D01*
X132989669Y-89354735D01*
X132939550Y-89278438D01*
X132829813Y-89204364D01*
X132700000Y-89178331D01*
X131750000Y-89178331D01*
X131624096Y-89202759D01*
X131513438Y-89275450D01*
X131500336Y-89294858D01*
X131489550Y-89278438D01*
X131379813Y-89204364D01*
X131250000Y-89178331D01*
X130300000Y-89178331D01*
X130174096Y-89202759D01*
X130063438Y-89275450D01*
X129989364Y-89385187D01*
X129963331Y-89515000D01*
X129963331Y-89558200D01*
X126077720Y-89558200D01*
X125926462Y-89192127D01*
X125619489Y-88884618D01*
X125218205Y-88717990D01*
X124783701Y-88717611D01*
X124382127Y-88883538D01*
X124074618Y-89190511D01*
X123907990Y-89591795D01*
X123907611Y-90026299D01*
X124073538Y-90427873D01*
X124380511Y-90735382D01*
X124781795Y-90902010D01*
X125216299Y-90902389D01*
X125617873Y-90736462D01*
X125925382Y-90429489D01*
X125928574Y-90421800D01*
X129963331Y-90421800D01*
X129963331Y-90465000D01*
X129987759Y-90590904D01*
X130060450Y-90701562D01*
X130170187Y-90775636D01*
X130300000Y-90801669D01*
X131250000Y-90801669D01*
X131375904Y-90777241D01*
X131486562Y-90704550D01*
X131499663Y-90685141D01*
X131510450Y-90701562D01*
X131620187Y-90775636D01*
X131750000Y-90801669D01*
X132700000Y-90801669D01*
X132825904Y-90777241D01*
X132936562Y-90704550D01*
X133010636Y-90594813D01*
X133036669Y-90465000D01*
X133036669Y-90398672D01*
X133085642Y-90388931D01*
X133085643Y-90388931D01*
X133225729Y-90295329D01*
X133339258Y-90181800D01*
X133779500Y-90181800D01*
X133797759Y-90275904D01*
X133870450Y-90386562D01*
X133980187Y-90460636D01*
X134110000Y-90486669D01*
X134910000Y-90486669D01*
X134935095Y-90481800D01*
X135506948Y-90481800D01*
X135580632Y-90555613D01*
X135813937Y-90652489D01*
X136066555Y-90652710D01*
X136300028Y-90556240D01*
X136374598Y-90481800D01*
X137513331Y-90481800D01*
X137513331Y-90775000D01*
X137537759Y-90900904D01*
X137610450Y-91011562D01*
X137720187Y-91085636D01*
X137850000Y-91111669D01*
X138150000Y-91111669D01*
X138251652Y-91091946D01*
X138262966Y-91094215D01*
X138073871Y-91283311D01*
X137980269Y-91423397D01*
X137947400Y-91588640D01*
X137947400Y-92480342D01*
X137793942Y-92633800D01*
X136550400Y-92633800D01*
X136385157Y-92666669D01*
X136245071Y-92760271D01*
X136245068Y-92760274D01*
X135669671Y-93335671D01*
X135576069Y-93475757D01*
X135543200Y-93641000D01*
X135543200Y-93678331D01*
X135500000Y-93678331D01*
X135374096Y-93702759D01*
X135263438Y-93775450D01*
X135250336Y-93794858D01*
X135239550Y-93778438D01*
X135129813Y-93704364D01*
X135000000Y-93678331D01*
X134050000Y-93678331D01*
X133924096Y-93702759D01*
X133813438Y-93775450D01*
X133739364Y-93885187D01*
X133713331Y-94015000D01*
X133713331Y-94058200D01*
X133285000Y-94058200D01*
X133285000Y-92786310D01*
X133285000Y-92545750D01*
X133285000Y-91974250D01*
X133285000Y-91733690D01*
X133188327Y-91500301D01*
X133009698Y-91321673D01*
X132776309Y-91225000D01*
X132535750Y-91225000D01*
X132377000Y-91383750D01*
X132377000Y-92133000D01*
X133126250Y-92133000D01*
X133285000Y-91974250D01*
X133285000Y-92545750D01*
X133126250Y-92387000D01*
X132377000Y-92387000D01*
X132377000Y-93136250D01*
X132535750Y-93295000D01*
X132776309Y-93295000D01*
X133009698Y-93198327D01*
X133188327Y-93019699D01*
X133285000Y-92786310D01*
X133285000Y-94058200D01*
X132976618Y-94058200D01*
X132962241Y-93984096D01*
X132889550Y-93873438D01*
X132779813Y-93799364D01*
X132650000Y-93773331D01*
X132123000Y-93773331D01*
X132123000Y-93136250D01*
X132123000Y-92387000D01*
X132103000Y-92387000D01*
X132103000Y-92133000D01*
X132123000Y-92133000D01*
X132123000Y-91383750D01*
X131964250Y-91225000D01*
X131723691Y-91225000D01*
X131490302Y-91321673D01*
X131311673Y-91500301D01*
X131288829Y-91555450D01*
X131279813Y-91549364D01*
X131150000Y-91523331D01*
X130350000Y-91523331D01*
X130224096Y-91547759D01*
X130113438Y-91620450D01*
X130039364Y-91730187D01*
X130019708Y-91828200D01*
X125966158Y-91828200D01*
X125926462Y-91732127D01*
X125619489Y-91424618D01*
X125218205Y-91257990D01*
X124783701Y-91257611D01*
X124382127Y-91423538D01*
X124074618Y-91730511D01*
X123907990Y-92131795D01*
X123907611Y-92566299D01*
X124073538Y-92967873D01*
X124380511Y-93275382D01*
X124781795Y-93442010D01*
X125216299Y-93442389D01*
X125617873Y-93276462D01*
X125925382Y-92969489D01*
X126040688Y-92691800D01*
X130019500Y-92691800D01*
X130037759Y-92785904D01*
X130110450Y-92896562D01*
X130220187Y-92970636D01*
X130318200Y-92990291D01*
X130318200Y-93779500D01*
X130224096Y-93797759D01*
X130113438Y-93870450D01*
X130039364Y-93980187D01*
X130013331Y-94110000D01*
X130013331Y-94910000D01*
X130037759Y-95035904D01*
X130110450Y-95146562D01*
X130220187Y-95220636D01*
X130350000Y-95246669D01*
X131150000Y-95246669D01*
X131275904Y-95222241D01*
X131386562Y-95149550D01*
X131460636Y-95039813D01*
X131486669Y-94910000D01*
X131486669Y-94110000D01*
X131462241Y-93984096D01*
X131389550Y-93873438D01*
X131279813Y-93799364D01*
X131181800Y-93779708D01*
X131181800Y-92990499D01*
X131275904Y-92972241D01*
X131288569Y-92963921D01*
X131311673Y-93019699D01*
X131490302Y-93198327D01*
X131723691Y-93295000D01*
X131964250Y-93295000D01*
X132123000Y-93136250D01*
X132123000Y-93773331D01*
X131850000Y-93773331D01*
X131724096Y-93797759D01*
X131613438Y-93870450D01*
X131539364Y-93980187D01*
X131513331Y-94110000D01*
X131513331Y-94910000D01*
X131537759Y-95035904D01*
X131610450Y-95146562D01*
X131720187Y-95220636D01*
X131818200Y-95240291D01*
X131818200Y-96009500D01*
X131724096Y-96027759D01*
X131711430Y-96036078D01*
X131688327Y-95980301D01*
X131509698Y-95801673D01*
X131276309Y-95705000D01*
X131035750Y-95705000D01*
X130877000Y-95863750D01*
X130877000Y-96613000D01*
X130897000Y-96613000D01*
X130897000Y-96867000D01*
X130877000Y-96867000D01*
X130877000Y-97616250D01*
X131035750Y-97775000D01*
X131276309Y-97775000D01*
X131509698Y-97678327D01*
X131688327Y-97499699D01*
X131711170Y-97444549D01*
X131720187Y-97450636D01*
X131850000Y-97476669D01*
X132650000Y-97476669D01*
X132775904Y-97452241D01*
X132886562Y-97379550D01*
X132960636Y-97269813D01*
X132986669Y-97140000D01*
X132986669Y-96340000D01*
X132962241Y-96214096D01*
X132889550Y-96103438D01*
X132779813Y-96029364D01*
X132681800Y-96009708D01*
X132681800Y-95240499D01*
X132775904Y-95222241D01*
X132886562Y-95149550D01*
X132960636Y-95039813D01*
X132984302Y-94921800D01*
X133713331Y-94921800D01*
X133713331Y-94965000D01*
X133737759Y-95090904D01*
X133810450Y-95201562D01*
X133920187Y-95275636D01*
X134050000Y-95301669D01*
X135000000Y-95301669D01*
X135125904Y-95277241D01*
X135236562Y-95204550D01*
X135249663Y-95185141D01*
X135260450Y-95201562D01*
X135305860Y-95232214D01*
X135305690Y-95426555D01*
X135402160Y-95660028D01*
X135580632Y-95838813D01*
X135813937Y-95935689D01*
X136066555Y-95935910D01*
X136300028Y-95839440D01*
X136478813Y-95660968D01*
X136575689Y-95427663D01*
X136575820Y-95277257D01*
X136575904Y-95277241D01*
X136686562Y-95204550D01*
X136760636Y-95094813D01*
X136786669Y-94965000D01*
X136786669Y-94015000D01*
X136762241Y-93889096D01*
X136689550Y-93778438D01*
X136579813Y-93704364D01*
X136531901Y-93694755D01*
X136729257Y-93497400D01*
X137605371Y-93497400D01*
X137539364Y-93595187D01*
X137513331Y-93725000D01*
X137513331Y-95175000D01*
X137537759Y-95300904D01*
X137610450Y-95411562D01*
X137720187Y-95485636D01*
X137850000Y-95511669D01*
X138150000Y-95511669D01*
X138251652Y-95491946D01*
X138350000Y-95511669D01*
X138568200Y-95511669D01*
X138568200Y-96102400D01*
X138601069Y-96267643D01*
X138694671Y-96407729D01*
X139022871Y-96735929D01*
X139162957Y-96829531D01*
X139162958Y-96829531D01*
X139328200Y-96862400D01*
X152692600Y-96862400D01*
X152857842Y-96829531D01*
X152857843Y-96829531D01*
X152997929Y-96735929D01*
X153143926Y-96589930D01*
X153274499Y-96590044D01*
X153187511Y-96799537D01*
X153187290Y-97052155D01*
X153283760Y-97285628D01*
X153383939Y-97385983D01*
X153312271Y-97433871D01*
X153312268Y-97433874D01*
X152969671Y-97776471D01*
X152876069Y-97916557D01*
X152869748Y-97948331D01*
X152800000Y-97948331D01*
X152674096Y-97972759D01*
X152563438Y-98045450D01*
X152489364Y-98155187D01*
X152463331Y-98285000D01*
X152463331Y-98328200D01*
X151379200Y-98328200D01*
X151213957Y-98361069D01*
X151210571Y-98363331D01*
X150700000Y-98363331D01*
X150574096Y-98387759D01*
X150463438Y-98460450D01*
X150389364Y-98570187D01*
X150363331Y-98700000D01*
X150363331Y-99102133D01*
X150340301Y-99111673D01*
X150161673Y-99290302D01*
X150065000Y-99523691D01*
X150065000Y-99714250D01*
X150223750Y-99873000D01*
X151073000Y-99873000D01*
X151073000Y-99853000D01*
X151327000Y-99853000D01*
X151327000Y-99873000D01*
X152176250Y-99873000D01*
X152335000Y-99714250D01*
X152335000Y-99523691D01*
X152238327Y-99290302D01*
X152139825Y-99191800D01*
X152463331Y-99191800D01*
X152463331Y-99235000D01*
X152487759Y-99360904D01*
X152560450Y-99471562D01*
X152670187Y-99545636D01*
X152800000Y-99571669D01*
X153702133Y-99571669D01*
X153711673Y-99594699D01*
X153890302Y-99773327D01*
X154123691Y-99870000D01*
X154439250Y-99870000D01*
X154598000Y-99711250D01*
X154598000Y-98887000D01*
X154578000Y-98887000D01*
X154578000Y-98633000D01*
X154598000Y-98633000D01*
X154598000Y-98613000D01*
X154852000Y-98613000D01*
X154852000Y-98633000D01*
X155676250Y-98633000D01*
X155835000Y-98474250D01*
X155835000Y-98411309D01*
X155835000Y-98171000D01*
X156974200Y-98171000D01*
X156948331Y-98300000D01*
X156948331Y-99250000D01*
X156972759Y-99375904D01*
X157045450Y-99486562D01*
X157064858Y-99499663D01*
X157048438Y-99510450D01*
X156974364Y-99620187D01*
X156948331Y-99750000D01*
X156948331Y-100700000D01*
X156972759Y-100825904D01*
X157045450Y-100936562D01*
X157155187Y-101010636D01*
X157162500Y-101012102D01*
X157162500Y-103708200D01*
X156870400Y-103708200D01*
X156868388Y-103708600D01*
X156866374Y-103708225D01*
X156805288Y-103721151D01*
X156744038Y-103733335D01*
X156742334Y-103734473D01*
X156740328Y-103734898D01*
X156688858Y-103770204D01*
X156636913Y-103804913D01*
X156635772Y-103806619D01*
X156634084Y-103807778D01*
X156600046Y-103860087D01*
X156565335Y-103912038D01*
X156564935Y-103914048D01*
X156563817Y-103915767D01*
X156136669Y-104983635D01*
X156136669Y-103750000D01*
X156136669Y-102350000D01*
X156112241Y-102224096D01*
X156039550Y-102113438D01*
X155929813Y-102039364D01*
X155835000Y-102020349D01*
X155835000Y-99361310D01*
X155835000Y-99108691D01*
X155835000Y-99045750D01*
X155676250Y-98887000D01*
X154852000Y-98887000D01*
X154852000Y-99711250D01*
X155010750Y-99870000D01*
X155326309Y-99870000D01*
X155559698Y-99773327D01*
X155738327Y-99594699D01*
X155835000Y-99361310D01*
X155835000Y-102020349D01*
X155800000Y-102013331D01*
X155155251Y-102013331D01*
X155154384Y-102008973D01*
X155148931Y-101981558D01*
X155148931Y-101981557D01*
X155055329Y-101841471D01*
X153858529Y-100644671D01*
X153718443Y-100551069D01*
X153553200Y-100518200D01*
X152317648Y-100518200D01*
X152335000Y-100476309D01*
X152335000Y-100285750D01*
X152176250Y-100127000D01*
X151327000Y-100127000D01*
X151327000Y-100147000D01*
X151073000Y-100147000D01*
X151073000Y-100127000D01*
X150223750Y-100127000D01*
X150065000Y-100285750D01*
X150065000Y-100476309D01*
X150161673Y-100709698D01*
X150340301Y-100888327D01*
X150363331Y-100897866D01*
X150363331Y-101300000D01*
X150387759Y-101425904D01*
X150460450Y-101536562D01*
X150570187Y-101610636D01*
X150700000Y-101636669D01*
X150768200Y-101636669D01*
X150768200Y-102753331D01*
X150100000Y-102753331D01*
X149974096Y-102777759D01*
X149885400Y-102836023D01*
X149885400Y-100584000D01*
X149860265Y-100457638D01*
X149788687Y-100350513D01*
X149681562Y-100278935D01*
X149636669Y-100270005D01*
X149636669Y-99650000D01*
X149612241Y-99524096D01*
X149611889Y-99523561D01*
X149636669Y-99400000D01*
X149636669Y-98700000D01*
X149612241Y-98574096D01*
X149539550Y-98463438D01*
X149429813Y-98389364D01*
X149300000Y-98363331D01*
X149144791Y-98363331D01*
X149105329Y-98304271D01*
X148985729Y-98184671D01*
X148845643Y-98091069D01*
X148680400Y-98058200D01*
X147536669Y-98058200D01*
X147536669Y-98015000D01*
X147512241Y-97889096D01*
X147439550Y-97778438D01*
X147329813Y-97704364D01*
X147200000Y-97678331D01*
X146250000Y-97678331D01*
X146124096Y-97702759D01*
X146013438Y-97775450D01*
X146000336Y-97794858D01*
X145989550Y-97778438D01*
X145879813Y-97704364D01*
X145750000Y-97678331D01*
X144800000Y-97678331D01*
X144674096Y-97702759D01*
X144563438Y-97775450D01*
X144509740Y-97855000D01*
X142505200Y-97855000D01*
X142262196Y-97903336D01*
X142056187Y-98040987D01*
X141540987Y-98556187D01*
X141403336Y-98762196D01*
X141355000Y-99005200D01*
X141355000Y-99663331D01*
X141190000Y-99663331D01*
X141064096Y-99687759D01*
X140953438Y-99760450D01*
X140916615Y-99815000D01*
X140063420Y-99815000D01*
X140029550Y-99763438D01*
X139919813Y-99689364D01*
X139790000Y-99663331D01*
X139101357Y-99663331D01*
X138999013Y-99560987D01*
X138793004Y-99423336D01*
X138550000Y-99375000D01*
X137390576Y-99375000D01*
X137389550Y-99373438D01*
X137279813Y-99299364D01*
X137150000Y-99273331D01*
X136350000Y-99273331D01*
X136271000Y-99288658D01*
X136271000Y-99161600D01*
X136245865Y-99035238D01*
X136174287Y-98928113D01*
X136067162Y-98856535D01*
X135940800Y-98831400D01*
X134519275Y-98831400D01*
X134204140Y-98201130D01*
X134171690Y-98159319D01*
X134142287Y-98115313D01*
X134132421Y-98108721D01*
X134125148Y-98099349D01*
X134079163Y-98073135D01*
X134035162Y-98043735D01*
X134023528Y-98041420D01*
X134013219Y-98035544D01*
X133960703Y-98028924D01*
X133908800Y-98018600D01*
X131470400Y-98018600D01*
X131344038Y-98043735D01*
X131236913Y-98115313D01*
X131165335Y-98222438D01*
X131140200Y-98348800D01*
X131140200Y-101803200D01*
X131145547Y-101830083D01*
X131144692Y-101857485D01*
X131157997Y-101892671D01*
X131165335Y-101929562D01*
X131180565Y-101952355D01*
X131190260Y-101977995D01*
X131216012Y-102005407D01*
X131236913Y-102036687D01*
X131259706Y-102051917D01*
X131278475Y-102071895D01*
X132562600Y-102989127D01*
X132562600Y-105257600D01*
X132587735Y-105383962D01*
X132659313Y-105491087D01*
X132766438Y-105562665D01*
X132892800Y-105587800D01*
X135940800Y-105587800D01*
X136067162Y-105562665D01*
X136174287Y-105491087D01*
X136245865Y-105383962D01*
X136271000Y-105257600D01*
X136271000Y-100730826D01*
X136350000Y-100746669D01*
X137150000Y-100746669D01*
X137275904Y-100722241D01*
X137386562Y-100649550D01*
X137389633Y-100645000D01*
X137853331Y-100645000D01*
X137853331Y-100900000D01*
X137877759Y-101025904D01*
X137950450Y-101136562D01*
X138060187Y-101210636D01*
X138190000Y-101236669D01*
X139790000Y-101236669D01*
X139915904Y-101212241D01*
X140026562Y-101139550D01*
X140063384Y-101085000D01*
X140916579Y-101085000D01*
X140950450Y-101136562D01*
X141060187Y-101210636D01*
X141190000Y-101236669D01*
X142790000Y-101236669D01*
X142915904Y-101212241D01*
X143026562Y-101139550D01*
X143100636Y-101029813D01*
X143126669Y-100900000D01*
X143126669Y-100000000D01*
X143102241Y-99874096D01*
X143029550Y-99763438D01*
X142919813Y-99689364D01*
X142790000Y-99663331D01*
X142625000Y-99663331D01*
X142625000Y-99268226D01*
X142768226Y-99125000D01*
X144510156Y-99125000D01*
X144560450Y-99201562D01*
X144640000Y-99255259D01*
X144640000Y-99351800D01*
X144688336Y-99594804D01*
X144825987Y-99800813D01*
X145278974Y-100253800D01*
X144068800Y-100253800D01*
X143942438Y-100278935D01*
X143835313Y-100350513D01*
X143763735Y-100457638D01*
X143738600Y-100584000D01*
X143738600Y-102616000D01*
X143763735Y-102742362D01*
X143835313Y-102849487D01*
X143942438Y-102921065D01*
X144068800Y-102946200D01*
X146940082Y-102946200D01*
X147193000Y-103325576D01*
X147193000Y-108712000D01*
X147218135Y-108838362D01*
X147289713Y-108945487D01*
X147396838Y-109017065D01*
X147523200Y-109042200D01*
X149555200Y-109042200D01*
X149681562Y-109017065D01*
X149788687Y-108945487D01*
X149860265Y-108838362D01*
X149885400Y-108712000D01*
X149885400Y-104143403D01*
X149970187Y-104200636D01*
X150100000Y-104226669D01*
X150900000Y-104226669D01*
X151025904Y-104202241D01*
X151136562Y-104129550D01*
X151210636Y-104019813D01*
X151235572Y-103895469D01*
X151268442Y-103888931D01*
X151268443Y-103888931D01*
X151408529Y-103795329D01*
X151505329Y-103698529D01*
X151598931Y-103558443D01*
X151598931Y-103558442D01*
X151604384Y-103531026D01*
X151631800Y-103393200D01*
X151631801Y-103393200D01*
X151631800Y-103393194D01*
X151631800Y-101636669D01*
X151700000Y-101636669D01*
X151825904Y-101612241D01*
X151936562Y-101539550D01*
X152010636Y-101429813D01*
X152020264Y-101381800D01*
X153374342Y-101381800D01*
X154005873Y-102013331D01*
X153700000Y-102013331D01*
X153574096Y-102037759D01*
X153463438Y-102110450D01*
X153389364Y-102220187D01*
X153363331Y-102350000D01*
X153363331Y-103750000D01*
X153387759Y-103875904D01*
X153460450Y-103986562D01*
X153570187Y-104060636D01*
X153700000Y-104086669D01*
X155800000Y-104086669D01*
X155925904Y-104062241D01*
X156036562Y-103989550D01*
X156110636Y-103879813D01*
X156136669Y-103750000D01*
X156136669Y-104983635D01*
X155834043Y-105740200D01*
X150368000Y-105740200D01*
X150241638Y-105765335D01*
X150134513Y-105836913D01*
X150062935Y-105944038D01*
X150037800Y-106070400D01*
X150037800Y-109118400D01*
X150052957Y-109194600D01*
X130623000Y-109194600D01*
X130623000Y-97616250D01*
X130623000Y-96867000D01*
X130623000Y-96613000D01*
X130623000Y-95863750D01*
X130464250Y-95705000D01*
X130223691Y-95705000D01*
X129990302Y-95801673D01*
X129811673Y-95980301D01*
X129715000Y-96213690D01*
X129715000Y-96454250D01*
X129873750Y-96613000D01*
X130623000Y-96613000D01*
X130623000Y-96867000D01*
X129873750Y-96867000D01*
X129715000Y-97025750D01*
X129715000Y-97266310D01*
X129811673Y-97499699D01*
X129990302Y-97678327D01*
X130223691Y-97775000D01*
X130464250Y-97775000D01*
X130623000Y-97616250D01*
X130623000Y-109194600D01*
X128143000Y-109194600D01*
X128143000Y-102133400D01*
X128422400Y-102133400D01*
X128548762Y-102108265D01*
X128655887Y-102036687D01*
X128727465Y-101929562D01*
X128752600Y-101803200D01*
X128752600Y-93878400D01*
X128727465Y-93752038D01*
X128655887Y-93644913D01*
X128548762Y-93573335D01*
X128422400Y-93548200D01*
X123139200Y-93548200D01*
X123012838Y-93573335D01*
X122905713Y-93644913D01*
X122834135Y-93752038D01*
X122809000Y-93878400D01*
X122809000Y-94081600D01*
X122809000Y-98968541D01*
X122776309Y-98955000D01*
X122535750Y-98955000D01*
X122377000Y-99113750D01*
X122377000Y-99863000D01*
X122397000Y-99863000D01*
X122397000Y-100117000D01*
X122377000Y-100117000D01*
X122377000Y-100866250D01*
X122535750Y-101025000D01*
X122776309Y-101025000D01*
X123009698Y-100928327D01*
X123188327Y-100749699D01*
X123204356Y-100711000D01*
X123271866Y-100711000D01*
X123350000Y-100726669D01*
X124150000Y-100726669D01*
X124230759Y-100711000D01*
X125001272Y-100711000D01*
X125835844Y-101879400D01*
X122123000Y-101879400D01*
X122123000Y-100866250D01*
X122123000Y-100117000D01*
X122123000Y-99863000D01*
X122123000Y-99113750D01*
X121964250Y-98955000D01*
X121723691Y-98955000D01*
X121490302Y-99051673D01*
X121311673Y-99230301D01*
X121215000Y-99463690D01*
X121215000Y-99704250D01*
X121373750Y-99863000D01*
X122123000Y-99863000D01*
X122123000Y-100117000D01*
X121373750Y-100117000D01*
X121215000Y-100275750D01*
X121215000Y-100516310D01*
X121311673Y-100749699D01*
X121490302Y-100928327D01*
X121723691Y-101025000D01*
X121964250Y-101025000D01*
X122123000Y-100866250D01*
X122123000Y-101879400D01*
X120827800Y-101879400D01*
X120827800Y-67995800D01*
X128016000Y-67995800D01*
X128064601Y-67986133D01*
X128105803Y-67958603D01*
X128133333Y-67917401D01*
X128143000Y-67868800D01*
X128143000Y-60680600D01*
X162026600Y-60680600D01*
X162026600Y-67868800D01*
X162036267Y-67917401D01*
X162063797Y-67958603D01*
X162104999Y-67986133D01*
X162153600Y-67995800D01*
X169138600Y-67995800D01*
X169138600Y-101879400D01*
X169138600Y-101879400D01*
G37*
X169138600Y-101879400D02*
X168409144Y-101879400D01*
X168409144Y-99477698D01*
X168397000Y-99235068D01*
X168397000Y-91238309D01*
X168397000Y-90635750D01*
X168397000Y-90064250D01*
X168397000Y-89461691D01*
X168300327Y-89228302D01*
X168121699Y-89049673D01*
X168092389Y-89037532D01*
X168092389Y-87593701D01*
X168092389Y-85053701D01*
X168092389Y-82513701D01*
X168092389Y-79973701D01*
X168092389Y-77433701D01*
X167926462Y-77032127D01*
X167619489Y-76724618D01*
X167218205Y-76557990D01*
X166783701Y-76557611D01*
X166382127Y-76723538D01*
X166074618Y-77030511D01*
X165907990Y-77431795D01*
X165907611Y-77866299D01*
X166073538Y-78267873D01*
X166380511Y-78575382D01*
X166781795Y-78742010D01*
X167216299Y-78742389D01*
X167617873Y-78576462D01*
X167925382Y-78269489D01*
X168092010Y-77868205D01*
X168092389Y-77433701D01*
X168092389Y-79973701D01*
X167926462Y-79572127D01*
X167619489Y-79264618D01*
X167218205Y-79097990D01*
X166783701Y-79097611D01*
X166382127Y-79263538D01*
X166074618Y-79570511D01*
X165996682Y-79758200D01*
X165072405Y-79758200D01*
X165072400Y-79758199D01*
X164934573Y-79785615D01*
X164907157Y-79791069D01*
X164767071Y-79884671D01*
X164683542Y-79968200D01*
X164086669Y-79968200D01*
X164086669Y-79900000D01*
X164062241Y-79774096D01*
X163989550Y-79663438D01*
X163906200Y-79607175D01*
X163906200Y-79248000D01*
X163906200Y-71120000D01*
X163896533Y-71071399D01*
X163869003Y-71030197D01*
X163827801Y-71002667D01*
X163779200Y-70993000D01*
X144272000Y-70993000D01*
X144223399Y-71002667D01*
X144182197Y-71030197D01*
X144154667Y-71071399D01*
X144145000Y-71120000D01*
X144145000Y-79248000D01*
X144154667Y-79296601D01*
X144182197Y-79337803D01*
X144223399Y-79365333D01*
X144272000Y-79375000D01*
X163779200Y-79375000D01*
X163827801Y-79365333D01*
X163869003Y-79337803D01*
X163896533Y-79296601D01*
X163906200Y-79248000D01*
X163906200Y-79607175D01*
X163879813Y-79589364D01*
X163750000Y-79563331D01*
X160250000Y-79563331D01*
X160124096Y-79587759D01*
X160013438Y-79660450D01*
X159939364Y-79770187D01*
X159913331Y-79900000D01*
X159913331Y-80900000D01*
X159937759Y-81025904D01*
X160010450Y-81136562D01*
X160120187Y-81210636D01*
X160250000Y-81236669D01*
X163750000Y-81236669D01*
X163875904Y-81212241D01*
X163986562Y-81139550D01*
X164060636Y-81029813D01*
X164086669Y-80900000D01*
X164086669Y-80831800D01*
X164862400Y-80831800D01*
X165027642Y-80798931D01*
X165027643Y-80798931D01*
X165167729Y-80705329D01*
X165251258Y-80621800D01*
X165996654Y-80621800D01*
X166073538Y-80807873D01*
X166380511Y-81115382D01*
X166781795Y-81282010D01*
X167216299Y-81282389D01*
X167617873Y-81116462D01*
X167925382Y-80809489D01*
X168092010Y-80408205D01*
X168092389Y-79973701D01*
X168092389Y-82513701D01*
X167926462Y-82112127D01*
X167619489Y-81804618D01*
X167218205Y-81637990D01*
X166783701Y-81637611D01*
X166382127Y-81803538D01*
X166074618Y-82110511D01*
X165996682Y-82298200D01*
X165408057Y-82298200D01*
X165204529Y-82094671D01*
X165064443Y-82001069D01*
X164899200Y-81968200D01*
X164086669Y-81968200D01*
X164086669Y-81900000D01*
X164062241Y-81774096D01*
X163989550Y-81663438D01*
X163879813Y-81589364D01*
X163750000Y-81563331D01*
X160250000Y-81563331D01*
X160124096Y-81587759D01*
X160013438Y-81660450D01*
X159939364Y-81770187D01*
X159913331Y-81900000D01*
X159913331Y-82900000D01*
X159937759Y-83025904D01*
X160010450Y-83136562D01*
X160120187Y-83210636D01*
X160250000Y-83236669D01*
X163750000Y-83236669D01*
X163875904Y-83212241D01*
X163986562Y-83139550D01*
X164060636Y-83029813D01*
X164086669Y-82900000D01*
X164086669Y-82831800D01*
X164720342Y-82831800D01*
X164923868Y-83035325D01*
X164923871Y-83035329D01*
X165063957Y-83128931D01*
X165229200Y-83161800D01*
X165996654Y-83161800D01*
X166073538Y-83347873D01*
X166380511Y-83655382D01*
X166781795Y-83822010D01*
X167216299Y-83822389D01*
X167617873Y-83656462D01*
X167925382Y-83349489D01*
X168092010Y-82948205D01*
X168092389Y-82513701D01*
X168092389Y-85053701D01*
X167926462Y-84652127D01*
X167619489Y-84344618D01*
X167218205Y-84177990D01*
X166783701Y-84177611D01*
X166382127Y-84343538D01*
X166074618Y-84650511D01*
X165907990Y-85051795D01*
X165907611Y-85486299D01*
X166073538Y-85887873D01*
X166380511Y-86195382D01*
X166781795Y-86362010D01*
X167216299Y-86362389D01*
X167617873Y-86196462D01*
X167925382Y-85889489D01*
X168092010Y-85488205D01*
X168092389Y-85053701D01*
X168092389Y-87593701D01*
X167926462Y-87192127D01*
X167619489Y-86884618D01*
X167218205Y-86717990D01*
X166783701Y-86717611D01*
X166382127Y-86883538D01*
X166074618Y-87190511D01*
X165907990Y-87591795D01*
X165907611Y-88026299D01*
X166073538Y-88427873D01*
X166380511Y-88735382D01*
X166781795Y-88902010D01*
X167216299Y-88902389D01*
X167617873Y-88736462D01*
X167925382Y-88429489D01*
X168092010Y-88028205D01*
X168092389Y-87593701D01*
X168092389Y-89037532D01*
X167888310Y-88953000D01*
X167635691Y-88953000D01*
X167285750Y-88953000D01*
X167127000Y-89111750D01*
X167127000Y-90223000D01*
X168238250Y-90223000D01*
X168397000Y-90064250D01*
X168397000Y-90635750D01*
X168238250Y-90477000D01*
X167127000Y-90477000D01*
X167127000Y-91588250D01*
X167285750Y-91747000D01*
X167635691Y-91747000D01*
X167888310Y-91747000D01*
X168121699Y-91650327D01*
X168300327Y-91471698D01*
X168397000Y-91238309D01*
X168397000Y-99235068D01*
X168381362Y-98922632D01*
X168222397Y-98538857D01*
X168098669Y-98503368D01*
X168098669Y-97492000D01*
X168098669Y-95968000D01*
X168074241Y-95842096D01*
X168001550Y-95731438D01*
X167891813Y-95657364D01*
X167762000Y-95631331D01*
X166873000Y-95631331D01*
X166873000Y-91588250D01*
X166873000Y-90477000D01*
X166873000Y-90223000D01*
X166873000Y-89111750D01*
X166714250Y-88953000D01*
X166364309Y-88953000D01*
X166111690Y-88953000D01*
X165878301Y-89049673D01*
X165699673Y-89228302D01*
X165603000Y-89461691D01*
X165603000Y-90064250D01*
X165761750Y-90223000D01*
X166873000Y-90223000D01*
X166873000Y-90477000D01*
X165761750Y-90477000D01*
X165603000Y-90635750D01*
X165603000Y-91238309D01*
X165699673Y-91471698D01*
X165878301Y-91650327D01*
X166111690Y-91747000D01*
X166364309Y-91747000D01*
X166714250Y-91747000D01*
X166873000Y-91588250D01*
X166873000Y-95631331D01*
X166238000Y-95631331D01*
X166112096Y-95655759D01*
X166001438Y-95728450D01*
X165927364Y-95838187D01*
X165901331Y-95968000D01*
X165901331Y-96298200D01*
X165590458Y-96298200D01*
X165227000Y-95934742D01*
X165227000Y-88798405D01*
X165227000Y-88798400D01*
X165227001Y-88798400D01*
X165199584Y-88660573D01*
X165194131Y-88633158D01*
X165194131Y-88633157D01*
X165100529Y-88493072D01*
X165100529Y-88493071D01*
X165100525Y-88493068D01*
X164702129Y-88094671D01*
X164562043Y-88001069D01*
X164396800Y-87968200D01*
X164086669Y-87968200D01*
X164086669Y-87900000D01*
X164086669Y-86900000D01*
X164086669Y-85900000D01*
X164086669Y-84900000D01*
X164086669Y-83900000D01*
X164062241Y-83774096D01*
X163989550Y-83663438D01*
X163879813Y-83589364D01*
X163750000Y-83563331D01*
X160250000Y-83563331D01*
X160124096Y-83587759D01*
X160013438Y-83660450D01*
X159939364Y-83770187D01*
X159914093Y-83896200D01*
X159774995Y-83896200D01*
X159668968Y-83789987D01*
X159435663Y-83693111D01*
X159183045Y-83692890D01*
X158949572Y-83789360D01*
X158770787Y-83967832D01*
X158673911Y-84201137D01*
X158673690Y-84453755D01*
X158770160Y-84687228D01*
X158948632Y-84866013D01*
X159181937Y-84962889D01*
X159434555Y-84963110D01*
X159668028Y-84866640D01*
X159775055Y-84759800D01*
X159913331Y-84759800D01*
X159913331Y-84900000D01*
X159937759Y-85025904D01*
X160010450Y-85136562D01*
X160120187Y-85210636D01*
X160250000Y-85236669D01*
X163750000Y-85236669D01*
X163875904Y-85212241D01*
X163986562Y-85139550D01*
X164060636Y-85029813D01*
X164086669Y-84900000D01*
X164086669Y-85900000D01*
X164062241Y-85774096D01*
X163989550Y-85663438D01*
X163879813Y-85589364D01*
X163750000Y-85563331D01*
X160250000Y-85563331D01*
X160124096Y-85587759D01*
X160013438Y-85660450D01*
X159939364Y-85770187D01*
X159913331Y-85900000D01*
X159913331Y-86131400D01*
X159774995Y-86131400D01*
X159668968Y-86025187D01*
X159435663Y-85928311D01*
X159183045Y-85928090D01*
X158949572Y-86024560D01*
X158770787Y-86203032D01*
X158673911Y-86436337D01*
X158673690Y-86688955D01*
X158770160Y-86922428D01*
X158948632Y-87101213D01*
X159181937Y-87198089D01*
X159434555Y-87198310D01*
X159668028Y-87101840D01*
X159775055Y-86995000D01*
X159931762Y-86995000D01*
X159937759Y-87025904D01*
X160010450Y-87136562D01*
X160120187Y-87210636D01*
X160250000Y-87236669D01*
X163750000Y-87236669D01*
X163875904Y-87212241D01*
X163986562Y-87139550D01*
X164060636Y-87029813D01*
X164086669Y-86900000D01*
X164086669Y-87900000D01*
X164062241Y-87774096D01*
X163989550Y-87663438D01*
X163879813Y-87589364D01*
X163750000Y-87563331D01*
X160250000Y-87563331D01*
X160124096Y-87587759D01*
X160013438Y-87660450D01*
X159939364Y-87770187D01*
X159913331Y-87900000D01*
X159913331Y-88366600D01*
X159774995Y-88366600D01*
X159668968Y-88260387D01*
X159435663Y-88163511D01*
X159183045Y-88163290D01*
X158949572Y-88259760D01*
X158770787Y-88438232D01*
X158673911Y-88671537D01*
X158673690Y-88924155D01*
X158770160Y-89157628D01*
X158948632Y-89336413D01*
X159181937Y-89433289D01*
X159434555Y-89433510D01*
X159668028Y-89337040D01*
X159775055Y-89230200D01*
X160217742Y-89230200D01*
X160250000Y-89236669D01*
X163750000Y-89236669D01*
X163875904Y-89212241D01*
X163986562Y-89139550D01*
X164060636Y-89029813D01*
X164086669Y-88900000D01*
X164086669Y-88831800D01*
X164217942Y-88831800D01*
X164363400Y-88977257D01*
X164363400Y-91721544D01*
X164288327Y-91540302D01*
X164109699Y-91361673D01*
X164086669Y-91352133D01*
X164086669Y-90900000D01*
X164086669Y-89900000D01*
X164062241Y-89774096D01*
X163989550Y-89663438D01*
X163879813Y-89589364D01*
X163750000Y-89563331D01*
X160250000Y-89563331D01*
X160124096Y-89587759D01*
X160013438Y-89660450D01*
X159939364Y-89770187D01*
X159913331Y-89900000D01*
X159913331Y-90195400D01*
X159774995Y-90195400D01*
X159668968Y-90089187D01*
X159435663Y-89992311D01*
X159183045Y-89992090D01*
X158949572Y-90088560D01*
X158770787Y-90267032D01*
X158673911Y-90500337D01*
X158673690Y-90752955D01*
X158770160Y-90986428D01*
X158948632Y-91165213D01*
X159181937Y-91262089D01*
X159434555Y-91262310D01*
X159668028Y-91165840D01*
X159775055Y-91059000D01*
X159959499Y-91059000D01*
X160010450Y-91136562D01*
X160120187Y-91210636D01*
X160250000Y-91236669D01*
X163750000Y-91236669D01*
X163875904Y-91212241D01*
X163986562Y-91139550D01*
X164060636Y-91029813D01*
X164086669Y-90900000D01*
X164086669Y-91352133D01*
X163876310Y-91265000D01*
X163623691Y-91265000D01*
X162285750Y-91265000D01*
X162127000Y-91423750D01*
X162127000Y-92273000D01*
X162147000Y-92273000D01*
X162147000Y-92527000D01*
X162127000Y-92527000D01*
X162127000Y-93376250D01*
X162150750Y-93400000D01*
X162127000Y-93423750D01*
X162127000Y-94273000D01*
X162147000Y-94273000D01*
X162147000Y-94527000D01*
X162127000Y-94527000D01*
X162127000Y-95376250D01*
X162285750Y-95535000D01*
X163623691Y-95535000D01*
X163876310Y-95535000D01*
X164109699Y-95438327D01*
X164288327Y-95259698D01*
X164363400Y-95078455D01*
X164363400Y-96113600D01*
X164396269Y-96278843D01*
X164489871Y-96418929D01*
X165106271Y-97035329D01*
X165246357Y-97128931D01*
X165411600Y-97161800D01*
X165901331Y-97161800D01*
X165901331Y-97492000D01*
X165925759Y-97617904D01*
X165998450Y-97728562D01*
X166108187Y-97802636D01*
X166238000Y-97828669D01*
X167762000Y-97828669D01*
X167887904Y-97804241D01*
X167998562Y-97731550D01*
X168072636Y-97621813D01*
X168098669Y-97492000D01*
X168098669Y-98503368D01*
X167980213Y-98469392D01*
X167800608Y-98648997D01*
X167800608Y-98289787D01*
X167731143Y-98047603D01*
X167207698Y-97860856D01*
X166652632Y-97888638D01*
X166268857Y-98047603D01*
X166199392Y-98289787D01*
X167000000Y-99090395D01*
X167800608Y-98289787D01*
X167800608Y-98648997D01*
X167179605Y-99270000D01*
X167980213Y-100070608D01*
X168222397Y-100001143D01*
X168409144Y-99477698D01*
X168409144Y-101879400D01*
X167800608Y-101879400D01*
X167800608Y-100250213D01*
X167000000Y-99449605D01*
X166820395Y-99629210D01*
X166820395Y-99270000D01*
X166019787Y-98469392D01*
X165777603Y-98538857D01*
X165590856Y-99062302D01*
X165618638Y-99617368D01*
X165777603Y-100001143D01*
X166019787Y-100070608D01*
X166820395Y-99270000D01*
X166820395Y-99629210D01*
X166199392Y-100250213D01*
X166268857Y-100492397D01*
X166792302Y-100679144D01*
X167347368Y-100651362D01*
X167731143Y-100492397D01*
X167800608Y-100250213D01*
X167800608Y-101879400D01*
X162343413Y-101879400D01*
X162410636Y-101779813D01*
X162436669Y-101650000D01*
X162436669Y-100450000D01*
X162436669Y-99550000D01*
X162436669Y-98350000D01*
X162412241Y-98224096D01*
X162339550Y-98113438D01*
X162229813Y-98039364D01*
X162100000Y-98013331D01*
X161975800Y-98013331D01*
X161975800Y-97392595D01*
X162082013Y-97286568D01*
X162178889Y-97053263D01*
X162179110Y-96800645D01*
X162082640Y-96567172D01*
X161904168Y-96388387D01*
X161873000Y-96375445D01*
X161873000Y-95376250D01*
X161873000Y-94527000D01*
X161873000Y-94273000D01*
X161873000Y-93423750D01*
X161849250Y-93400000D01*
X161873000Y-93376250D01*
X161873000Y-92527000D01*
X161873000Y-92273000D01*
X161873000Y-91423750D01*
X161714250Y-91265000D01*
X160376309Y-91265000D01*
X160123690Y-91265000D01*
X159890301Y-91361673D01*
X159711673Y-91540302D01*
X159615000Y-91773691D01*
X159615000Y-92114250D01*
X159773750Y-92273000D01*
X161873000Y-92273000D01*
X161873000Y-92527000D01*
X159773750Y-92527000D01*
X159615000Y-92685750D01*
X159615000Y-93026309D01*
X159711673Y-93259698D01*
X159851974Y-93400000D01*
X159711673Y-93540302D01*
X159615000Y-93773691D01*
X159615000Y-94114250D01*
X159773750Y-94273000D01*
X161873000Y-94273000D01*
X161873000Y-94527000D01*
X159773750Y-94527000D01*
X159615000Y-94685750D01*
X159615000Y-95026309D01*
X159711673Y-95259698D01*
X159890301Y-95438327D01*
X160123690Y-95535000D01*
X160376309Y-95535000D01*
X161714250Y-95535000D01*
X161873000Y-95376250D01*
X161873000Y-96375445D01*
X161670863Y-96291511D01*
X161418245Y-96291290D01*
X161184772Y-96387760D01*
X161005987Y-96566232D01*
X160909111Y-96799537D01*
X160908890Y-97052155D01*
X161005360Y-97285628D01*
X161112200Y-97392655D01*
X161112200Y-98013331D01*
X160900000Y-98013331D01*
X160774096Y-98037759D01*
X160663438Y-98110450D01*
X160589364Y-98220187D01*
X160563331Y-98350000D01*
X160563331Y-99550000D01*
X160587759Y-99675904D01*
X160660450Y-99786562D01*
X160770187Y-99860636D01*
X160900000Y-99886669D01*
X162100000Y-99886669D01*
X162225904Y-99862241D01*
X162336562Y-99789550D01*
X162410636Y-99679813D01*
X162436669Y-99550000D01*
X162436669Y-100450000D01*
X162412241Y-100324096D01*
X162339550Y-100213438D01*
X162229813Y-100139364D01*
X162100000Y-100113331D01*
X160900000Y-100113331D01*
X160774096Y-100137759D01*
X160663438Y-100210450D01*
X160589364Y-100320187D01*
X160570349Y-100415000D01*
X160181631Y-100415000D01*
X160181631Y-96148231D01*
X160133295Y-95905227D01*
X160133295Y-95905226D01*
X159995644Y-95699218D01*
X159148213Y-94851787D01*
X158942204Y-94714136D01*
X158699200Y-94665800D01*
X156464000Y-94665800D01*
X156463999Y-94665800D01*
X156338245Y-94665690D01*
X156220999Y-94714135D01*
X156220996Y-94714136D01*
X156220993Y-94714137D01*
X156104772Y-94762160D01*
X156014989Y-94851785D01*
X156014987Y-94851787D01*
X156014985Y-94851789D01*
X155925987Y-94940632D01*
X155877337Y-95057793D01*
X155877336Y-95057796D01*
X155877335Y-95057798D01*
X155829111Y-95173937D01*
X155829000Y-95300799D01*
X155829000Y-95300800D01*
X155828890Y-95426555D01*
X155877335Y-95543800D01*
X155877336Y-95543804D01*
X155877337Y-95543806D01*
X155925360Y-95660028D01*
X156014985Y-95749810D01*
X156014987Y-95749813D01*
X156014989Y-95749814D01*
X156103832Y-95838813D01*
X156220993Y-95887462D01*
X156220996Y-95887464D01*
X156220998Y-95887464D01*
X156337137Y-95935689D01*
X156463999Y-95935799D01*
X156464000Y-95935800D01*
X156464017Y-95935800D01*
X156589755Y-95935910D01*
X156590021Y-95935800D01*
X158436174Y-95935800D01*
X158911631Y-96411257D01*
X158911631Y-100415000D01*
X158571669Y-100415000D01*
X158571669Y-99750000D01*
X158547241Y-99624096D01*
X158474550Y-99513438D01*
X158455141Y-99500336D01*
X158471562Y-99489550D01*
X158545636Y-99379813D01*
X158571669Y-99250000D01*
X158571669Y-98300000D01*
X158547241Y-98174096D01*
X158474550Y-98063438D01*
X158364813Y-97989364D01*
X158235000Y-97963331D01*
X158165251Y-97963331D01*
X158164384Y-97958973D01*
X158158931Y-97931558D01*
X158158931Y-97931557D01*
X158065329Y-97791471D01*
X157707729Y-97433871D01*
X157567643Y-97340269D01*
X157402400Y-97307400D01*
X154339544Y-97307400D01*
X154360413Y-97286568D01*
X154457289Y-97053263D01*
X154457510Y-96800645D01*
X154361040Y-96567172D01*
X154254200Y-96460144D01*
X154254200Y-88654995D01*
X154360413Y-88548968D01*
X154406600Y-88437736D01*
X154406600Y-90424000D01*
X154406490Y-90549755D01*
X154454935Y-90667000D01*
X154454936Y-90667004D01*
X154454937Y-90667006D01*
X154502960Y-90783228D01*
X154592585Y-90873010D01*
X154592587Y-90873013D01*
X154592589Y-90873014D01*
X154681432Y-90962013D01*
X154798593Y-91010662D01*
X154798596Y-91010664D01*
X154798598Y-91010664D01*
X154914737Y-91058889D01*
X155041599Y-91058999D01*
X155041600Y-91059000D01*
X155041600Y-91058999D01*
X155167355Y-91059110D01*
X155284600Y-91010664D01*
X155284604Y-91010664D01*
X155284606Y-91010662D01*
X155400828Y-90962640D01*
X155490610Y-90873014D01*
X155490613Y-90873013D01*
X155490614Y-90873010D01*
X155579613Y-90784168D01*
X155628262Y-90667006D01*
X155628264Y-90667004D01*
X155628264Y-90667001D01*
X155676489Y-90550863D01*
X155676599Y-90424000D01*
X155676600Y-90424000D01*
X155676600Y-90423982D01*
X155676710Y-90298245D01*
X155676600Y-90297978D01*
X155676600Y-80873600D01*
X155628264Y-80630596D01*
X155628264Y-80630595D01*
X155490613Y-80424587D01*
X155084213Y-80018187D01*
X155084210Y-80018185D01*
X154995368Y-79929187D01*
X154878206Y-79880537D01*
X154878204Y-79880536D01*
X154878201Y-79880535D01*
X154762063Y-79832311D01*
X154635200Y-79832200D01*
X154635199Y-79832200D01*
X154509445Y-79832090D01*
X154392199Y-79880535D01*
X154392196Y-79880536D01*
X154392193Y-79880537D01*
X154275972Y-79928560D01*
X154186189Y-80018185D01*
X154186187Y-80018187D01*
X154186185Y-80018189D01*
X154097187Y-80107032D01*
X154048537Y-80224193D01*
X154048536Y-80224196D01*
X154048535Y-80224198D01*
X154000311Y-80340337D01*
X154000200Y-80467199D01*
X154000200Y-80467200D01*
X154000090Y-80592955D01*
X154048535Y-80710200D01*
X154048536Y-80710204D01*
X154048537Y-80710206D01*
X154096560Y-80826428D01*
X154186185Y-80916210D01*
X154186187Y-80916213D01*
X154186651Y-80916677D01*
X154275032Y-81005213D01*
X154275297Y-81005323D01*
X154406600Y-81136626D01*
X154406600Y-87939834D01*
X154361040Y-87829572D01*
X154182568Y-87650787D01*
X153949263Y-87553911D01*
X153696645Y-87553690D01*
X153463172Y-87650160D01*
X153284387Y-87828632D01*
X153187511Y-88061937D01*
X153187290Y-88314555D01*
X153283760Y-88548028D01*
X153390600Y-88655055D01*
X153390600Y-95341256D01*
X153339653Y-95320102D01*
X153087035Y-95319881D01*
X152853562Y-95416351D01*
X152674777Y-95594823D01*
X152577901Y-95828128D01*
X152577807Y-95934734D01*
X152513742Y-95998800D01*
X143869734Y-95998800D01*
X143890889Y-95947853D01*
X143891110Y-95695235D01*
X143794640Y-95461762D01*
X143616168Y-95282977D01*
X143382863Y-95186101D01*
X143130245Y-95185880D01*
X142896772Y-95282350D01*
X142789744Y-95389190D01*
X140403680Y-95389190D01*
X140460636Y-95304813D01*
X140486669Y-95175000D01*
X140486669Y-94855251D01*
X140489589Y-94854670D01*
X140571785Y-94937010D01*
X140571787Y-94937013D01*
X140571789Y-94937014D01*
X140660632Y-95026013D01*
X140777793Y-95074662D01*
X140777796Y-95074664D01*
X140777798Y-95074664D01*
X140893937Y-95122889D01*
X141020799Y-95122999D01*
X141020800Y-95123000D01*
X141020800Y-95122999D01*
X141146555Y-95123110D01*
X141263800Y-95074664D01*
X141263804Y-95074664D01*
X141263806Y-95074662D01*
X141359795Y-95035000D01*
X143943734Y-95035000D01*
X144010450Y-95136562D01*
X144120187Y-95210636D01*
X144250000Y-95236669D01*
X145262656Y-95236669D01*
X145262490Y-95426555D01*
X145358960Y-95660028D01*
X145537432Y-95838813D01*
X145770737Y-95935689D01*
X146023355Y-95935910D01*
X146256828Y-95839440D01*
X146435613Y-95660968D01*
X146532489Y-95427663D01*
X146532656Y-95236669D01*
X147750000Y-95236669D01*
X147875904Y-95212241D01*
X147986562Y-95139550D01*
X147997733Y-95123000D01*
X151993600Y-95123000D01*
X151993600Y-95122999D01*
X152119355Y-95123110D01*
X152236600Y-95074664D01*
X152236604Y-95074664D01*
X152236606Y-95074662D01*
X152352828Y-95026640D01*
X152442610Y-94937014D01*
X152442613Y-94937013D01*
X152442614Y-94937010D01*
X152531613Y-94848168D01*
X152580262Y-94731006D01*
X152580264Y-94731004D01*
X152580264Y-94731001D01*
X152628489Y-94614863D01*
X152628599Y-94488000D01*
X152628600Y-94488000D01*
X152628599Y-94487999D01*
X152628710Y-94362245D01*
X152580264Y-94244999D01*
X152580264Y-94244996D01*
X152580262Y-94244993D01*
X152532240Y-94128772D01*
X152442614Y-94038989D01*
X152442613Y-94038987D01*
X152442610Y-94038985D01*
X152353768Y-93949987D01*
X152236606Y-93901337D01*
X152236604Y-93901336D01*
X152236601Y-93901335D01*
X152120463Y-93853111D01*
X151993600Y-93853000D01*
X151993582Y-93853000D01*
X151867845Y-93852890D01*
X151867578Y-93853000D01*
X150393510Y-93853000D01*
X150393510Y-86031045D01*
X150297040Y-85797572D01*
X150190200Y-85690544D01*
X150190200Y-81889600D01*
X150157331Y-81724357D01*
X150063729Y-81584271D01*
X150063725Y-81584268D01*
X149986978Y-81507521D01*
X149987110Y-81357445D01*
X149890640Y-81123972D01*
X149712168Y-80945187D01*
X149580710Y-80890601D01*
X149580710Y-80138245D01*
X149484240Y-79904772D01*
X149305768Y-79725987D01*
X149072463Y-79629111D01*
X148819845Y-79628890D01*
X148586372Y-79725360D01*
X148407587Y-79903832D01*
X148380859Y-79968200D01*
X148086669Y-79968200D01*
X148086669Y-79900000D01*
X148062241Y-79774096D01*
X147989550Y-79663438D01*
X147879813Y-79589364D01*
X147750000Y-79563331D01*
X144250000Y-79563331D01*
X144124096Y-79587759D01*
X144013438Y-79660450D01*
X143939364Y-79770187D01*
X143913331Y-79900000D01*
X143913331Y-79968200D01*
X142554857Y-79968200D01*
X141681800Y-79095142D01*
X141681800Y-70375611D01*
X141931799Y-70272314D01*
X142271123Y-69933582D01*
X142454990Y-69490781D01*
X142455408Y-69011323D01*
X142272314Y-68568201D01*
X141933582Y-68228877D01*
X141681800Y-68124328D01*
X141681800Y-63875611D01*
X141931799Y-63772314D01*
X142271123Y-63433582D01*
X142454990Y-62990781D01*
X142455408Y-62511323D01*
X142272314Y-62068201D01*
X141933582Y-61728877D01*
X141490781Y-61545010D01*
X141011323Y-61544592D01*
X140568201Y-61727686D01*
X140228877Y-62066418D01*
X140045010Y-62509219D01*
X140044592Y-62988677D01*
X140227686Y-63431799D01*
X140566418Y-63771123D01*
X140818200Y-63875671D01*
X140818200Y-68124388D01*
X140568201Y-68227686D01*
X140228877Y-68566418D01*
X140045010Y-69009219D01*
X140044592Y-69488677D01*
X140227686Y-69931799D01*
X140566418Y-70271123D01*
X140818200Y-70375671D01*
X140818200Y-79274000D01*
X140851069Y-79439243D01*
X140944671Y-79579329D01*
X142070668Y-80705325D01*
X142070671Y-80705329D01*
X142210757Y-80798931D01*
X142376000Y-80831800D01*
X143913331Y-80831800D01*
X143913331Y-80900000D01*
X143937759Y-81025904D01*
X144010450Y-81136562D01*
X144120187Y-81210636D01*
X144250000Y-81236669D01*
X147750000Y-81236669D01*
X147875904Y-81212241D01*
X147986562Y-81139550D01*
X148060636Y-81029813D01*
X148086669Y-80900000D01*
X148086669Y-80831800D01*
X148657167Y-80831800D01*
X148818737Y-80898889D01*
X149071355Y-80899110D01*
X149304828Y-80802640D01*
X149483613Y-80624168D01*
X149580489Y-80390863D01*
X149580710Y-80138245D01*
X149580710Y-80890601D01*
X149478863Y-80848311D01*
X149226245Y-80848090D01*
X148992772Y-80944560D01*
X148813987Y-81123032D01*
X148717111Y-81356337D01*
X148716890Y-81608955D01*
X148813360Y-81842428D01*
X148991832Y-82021213D01*
X149225137Y-82118089D01*
X149326600Y-82118177D01*
X149326600Y-85690604D01*
X149220387Y-85796632D01*
X149123511Y-86029937D01*
X149123290Y-86282555D01*
X149219760Y-86516028D01*
X149398232Y-86694813D01*
X149631537Y-86791689D01*
X149884155Y-86791910D01*
X150117628Y-86695440D01*
X150296413Y-86516968D01*
X150393289Y-86283663D01*
X150393510Y-86031045D01*
X150393510Y-93853000D01*
X149783910Y-93853000D01*
X149783910Y-87859845D01*
X149687440Y-87626372D01*
X149508968Y-87447587D01*
X149275663Y-87350711D01*
X149023045Y-87350490D01*
X148789572Y-87446960D01*
X148682544Y-87553800D01*
X148385000Y-87553800D01*
X148385000Y-83026309D01*
X148385000Y-82685750D01*
X148385000Y-82114250D01*
X148385000Y-81773691D01*
X148288327Y-81540302D01*
X148109699Y-81361673D01*
X147876310Y-81265000D01*
X147623691Y-81265000D01*
X146285750Y-81265000D01*
X146127000Y-81423750D01*
X146127000Y-82273000D01*
X148226250Y-82273000D01*
X148385000Y-82114250D01*
X148385000Y-82685750D01*
X148226250Y-82527000D01*
X146127000Y-82527000D01*
X146127000Y-83376250D01*
X146285750Y-83535000D01*
X147623691Y-83535000D01*
X147876310Y-83535000D01*
X148109699Y-83438327D01*
X148288327Y-83259698D01*
X148385000Y-83026309D01*
X148385000Y-87553800D01*
X148086669Y-87553800D01*
X148086669Y-86900000D01*
X148086669Y-85900000D01*
X148086669Y-84900000D01*
X148086669Y-83900000D01*
X148062241Y-83774096D01*
X147989550Y-83663438D01*
X147879813Y-83589364D01*
X147750000Y-83563331D01*
X145873000Y-83563331D01*
X145873000Y-83376250D01*
X145873000Y-82527000D01*
X145873000Y-82273000D01*
X145873000Y-81423750D01*
X145714250Y-81265000D01*
X144376309Y-81265000D01*
X144123690Y-81265000D01*
X143890301Y-81361673D01*
X143711673Y-81540302D01*
X143615000Y-81773691D01*
X143615000Y-82114250D01*
X143773750Y-82273000D01*
X145873000Y-82273000D01*
X145873000Y-82527000D01*
X143773750Y-82527000D01*
X143615000Y-82685750D01*
X143615000Y-83026309D01*
X143711673Y-83259698D01*
X143890301Y-83438327D01*
X144123690Y-83535000D01*
X144376309Y-83535000D01*
X145714250Y-83535000D01*
X145873000Y-83376250D01*
X145873000Y-83563331D01*
X144250000Y-83563331D01*
X144124096Y-83587759D01*
X144013438Y-83660450D01*
X143939364Y-83770187D01*
X143914093Y-83896200D01*
X141224000Y-83896200D01*
X141223999Y-83896200D01*
X141098245Y-83896090D01*
X140980999Y-83944535D01*
X140980996Y-83944536D01*
X140980993Y-83944537D01*
X140864772Y-83992560D01*
X140774989Y-84082185D01*
X140774987Y-84082187D01*
X140774985Y-84082189D01*
X140685987Y-84171032D01*
X140637337Y-84288193D01*
X140637336Y-84288196D01*
X140637335Y-84288198D01*
X140589111Y-84404337D01*
X140589000Y-84531199D01*
X140589000Y-84531200D01*
X140588890Y-84656955D01*
X140637335Y-84774200D01*
X140637336Y-84774204D01*
X140637337Y-84774206D01*
X140685360Y-84890428D01*
X140774985Y-84980210D01*
X140774987Y-84980213D01*
X140774989Y-84980214D01*
X140863832Y-85069213D01*
X140980993Y-85117862D01*
X140980996Y-85117864D01*
X140980998Y-85117864D01*
X141097137Y-85166089D01*
X141223999Y-85166199D01*
X141224000Y-85166200D01*
X141224017Y-85166200D01*
X141349755Y-85166310D01*
X141350021Y-85166200D01*
X144054357Y-85166200D01*
X144120187Y-85210636D01*
X144250000Y-85236669D01*
X147750000Y-85236669D01*
X147875904Y-85212241D01*
X147986562Y-85139550D01*
X148060636Y-85029813D01*
X148086669Y-84900000D01*
X148086669Y-85900000D01*
X148062241Y-85774096D01*
X147989550Y-85663438D01*
X147879813Y-85589364D01*
X147750000Y-85563331D01*
X144250000Y-85563331D01*
X144124096Y-85587759D01*
X144013438Y-85660450D01*
X143939364Y-85770187D01*
X143913331Y-85900000D01*
X143913331Y-86900000D01*
X143937759Y-87025904D01*
X144010450Y-87136562D01*
X144120187Y-87210636D01*
X144250000Y-87236669D01*
X147750000Y-87236669D01*
X147875904Y-87212241D01*
X147986562Y-87139550D01*
X148060636Y-87029813D01*
X148086669Y-86900000D01*
X148086669Y-87553800D01*
X147664400Y-87553800D01*
X147616484Y-87563331D01*
X144250000Y-87563331D01*
X144124096Y-87587759D01*
X144013438Y-87660450D01*
X143939364Y-87770187D01*
X143913331Y-87900000D01*
X143913331Y-88900000D01*
X143937759Y-89025904D01*
X144010450Y-89136562D01*
X144120187Y-89210636D01*
X144250000Y-89236669D01*
X147750000Y-89236669D01*
X147875904Y-89212241D01*
X147986562Y-89139550D01*
X148060636Y-89029813D01*
X148086669Y-88900000D01*
X148086669Y-88417400D01*
X148682604Y-88417400D01*
X148788632Y-88523613D01*
X149021937Y-88620489D01*
X149274555Y-88620710D01*
X149508028Y-88524240D01*
X149686813Y-88345768D01*
X149783689Y-88112463D01*
X149783910Y-87859845D01*
X149783910Y-93853000D01*
X148077550Y-93853000D01*
X148062241Y-93774096D01*
X147989550Y-93663438D01*
X147879813Y-93589364D01*
X147750000Y-93563331D01*
X144250000Y-93563331D01*
X144124096Y-93587759D01*
X144013438Y-93660450D01*
X143942865Y-93765000D01*
X143869734Y-93765000D01*
X143890889Y-93714053D01*
X143891110Y-93461435D01*
X143804831Y-93252626D01*
X143974945Y-93082512D01*
X144010450Y-93136562D01*
X144120187Y-93210636D01*
X144250000Y-93236669D01*
X147750000Y-93236669D01*
X147875904Y-93212241D01*
X147986562Y-93139550D01*
X148060636Y-93029813D01*
X148086669Y-92900000D01*
X148086669Y-92831800D01*
X148480940Y-92831800D01*
X148615537Y-92887689D01*
X148868155Y-92887910D01*
X149101628Y-92791440D01*
X149280413Y-92612968D01*
X149377289Y-92379663D01*
X149377510Y-92127045D01*
X149281040Y-91893572D01*
X149102568Y-91714787D01*
X148869263Y-91617911D01*
X148616645Y-91617690D01*
X148383172Y-91714160D01*
X148204387Y-91892632D01*
X148173008Y-91968200D01*
X148086669Y-91968200D01*
X148086669Y-91900000D01*
X148062241Y-91774096D01*
X147989550Y-91663438D01*
X147879813Y-91589364D01*
X147750000Y-91563331D01*
X144250000Y-91563331D01*
X144124096Y-91587759D01*
X144013438Y-91660450D01*
X143939364Y-91770187D01*
X143913331Y-91900000D01*
X143913331Y-91994748D01*
X143881557Y-92001069D01*
X143741471Y-92094671D01*
X142950671Y-92885471D01*
X142857069Y-93025557D01*
X142841525Y-93103699D01*
X142717987Y-93227022D01*
X142645281Y-93402118D01*
X142671800Y-93268800D01*
X142671800Y-91212458D01*
X143052458Y-90831800D01*
X143913331Y-90831800D01*
X143913331Y-90900000D01*
X143937759Y-91025904D01*
X144010450Y-91136562D01*
X144120187Y-91210636D01*
X144250000Y-91236669D01*
X147750000Y-91236669D01*
X147875904Y-91212241D01*
X147986562Y-91139550D01*
X148060636Y-91029813D01*
X148086669Y-90900000D01*
X148086669Y-90855800D01*
X148276204Y-90855800D01*
X148382232Y-90962013D01*
X148615537Y-91058889D01*
X148868155Y-91059110D01*
X149101628Y-90962640D01*
X149280413Y-90784168D01*
X149377289Y-90550863D01*
X149377510Y-90298245D01*
X149281040Y-90064772D01*
X149102568Y-89885987D01*
X148869263Y-89789111D01*
X148616645Y-89788890D01*
X148383172Y-89885360D01*
X148276144Y-89992200D01*
X148086669Y-89992200D01*
X148086669Y-89900000D01*
X148062241Y-89774096D01*
X147989550Y-89663438D01*
X147879813Y-89589364D01*
X147750000Y-89563331D01*
X144250000Y-89563331D01*
X144124096Y-89587759D01*
X144013438Y-89660450D01*
X143939364Y-89770187D01*
X143913331Y-89900000D01*
X143913331Y-89968200D01*
X142873605Y-89968200D01*
X142873600Y-89968199D01*
X142735773Y-89995615D01*
X142708357Y-90001069D01*
X142568271Y-90094671D01*
X141934671Y-90728271D01*
X141841069Y-90868357D01*
X141808200Y-91033600D01*
X141808200Y-93089942D01*
X141654742Y-93243400D01*
X140614400Y-93243400D01*
X140449157Y-93276269D01*
X140309071Y-93369871D01*
X140267122Y-93411819D01*
X140150000Y-93388331D01*
X139850000Y-93388331D01*
X139748347Y-93408053D01*
X139650000Y-93388331D01*
X139471284Y-93388331D01*
X139497329Y-93370929D01*
X140305325Y-92562931D01*
X140305329Y-92562929D01*
X140305329Y-92562928D01*
X140367872Y-92469326D01*
X140398931Y-92422843D01*
X140398932Y-92422842D01*
X140431800Y-92257600D01*
X140431801Y-92257600D01*
X140431800Y-92257594D01*
X140431800Y-90947532D01*
X140460636Y-90904813D01*
X140486669Y-90775000D01*
X140486669Y-89325000D01*
X140462241Y-89199096D01*
X140431800Y-89152755D01*
X140431800Y-88862669D01*
X140618000Y-88862669D01*
X140743904Y-88838241D01*
X140815584Y-88791154D01*
X140893937Y-88823689D01*
X141146555Y-88823910D01*
X141380028Y-88727440D01*
X141558813Y-88548968D01*
X141655689Y-88315663D01*
X141655910Y-88063045D01*
X141559440Y-87829572D01*
X141380968Y-87650787D01*
X141147663Y-87553911D01*
X140988254Y-87553771D01*
X141156327Y-87385698D01*
X141253000Y-87152309D01*
X141253000Y-86911750D01*
X141253000Y-86340250D01*
X141253000Y-86099691D01*
X141156327Y-85866302D01*
X140977699Y-85687673D01*
X140744310Y-85591000D01*
X140503750Y-85591000D01*
X140345000Y-85749750D01*
X140345000Y-86499000D01*
X141094250Y-86499000D01*
X141253000Y-86340250D01*
X141253000Y-86911750D01*
X141094250Y-86753000D01*
X140345000Y-86753000D01*
X140345000Y-86773000D01*
X140091000Y-86773000D01*
X140091000Y-86753000D01*
X140091000Y-86499000D01*
X140091000Y-85749750D01*
X139932250Y-85591000D01*
X139691690Y-85591000D01*
X139458301Y-85687673D01*
X139279673Y-85866302D01*
X139183000Y-86099691D01*
X139183000Y-86340250D01*
X139341750Y-86499000D01*
X140091000Y-86499000D01*
X140091000Y-86753000D01*
X139341750Y-86753000D01*
X139183000Y-86911750D01*
X139183000Y-87152309D01*
X139279673Y-87385698D01*
X139458301Y-87564327D01*
X139513450Y-87587170D01*
X139507364Y-87596187D01*
X139481331Y-87726000D01*
X139481331Y-88526000D01*
X139505759Y-88651904D01*
X139568200Y-88746958D01*
X139568200Y-89152467D01*
X139539364Y-89195187D01*
X139513331Y-89325000D01*
X139513331Y-90775000D01*
X139537759Y-90900904D01*
X139568200Y-90947244D01*
X139568200Y-92078742D01*
X139013142Y-92633800D01*
X138811000Y-92633800D01*
X138811000Y-91767498D01*
X139184663Y-91393834D01*
X139223691Y-91410000D01*
X139266250Y-91410000D01*
X139425000Y-91251250D01*
X139425000Y-91002029D01*
X139425000Y-91002025D01*
X139431800Y-90967840D01*
X139431801Y-90967840D01*
X139431800Y-90967834D01*
X139431800Y-90947532D01*
X139460636Y-90904813D01*
X139486669Y-90775000D01*
X139486669Y-89325000D01*
X139462241Y-89199096D01*
X139425000Y-89142403D01*
X139425000Y-88848750D01*
X139266250Y-88690000D01*
X139223691Y-88690000D01*
X138990302Y-88786673D01*
X138867482Y-88909491D01*
X138805329Y-88816471D01*
X138805325Y-88816468D01*
X138271590Y-88282732D01*
X138271590Y-69484694D01*
X138271590Y-62984694D01*
X138245579Y-62384542D01*
X138065953Y-61950884D01*
X137812060Y-61867545D01*
X137632455Y-62047150D01*
X137632455Y-61687940D01*
X137549116Y-61434047D01*
X136984694Y-61228410D01*
X136384542Y-61254421D01*
X135950884Y-61434047D01*
X135867545Y-61687940D01*
X136750000Y-62570395D01*
X137632455Y-61687940D01*
X137632455Y-62047150D01*
X136929605Y-62750000D01*
X137812060Y-63632455D01*
X138065953Y-63549116D01*
X138271590Y-62984694D01*
X138271590Y-69484694D01*
X138245579Y-68884542D01*
X138065953Y-68450884D01*
X137812060Y-68367545D01*
X137632455Y-68547150D01*
X137632455Y-68187940D01*
X137632455Y-63812060D01*
X136750000Y-62929605D01*
X136570395Y-63109210D01*
X136570395Y-62750000D01*
X135687940Y-61867545D01*
X135434047Y-61950884D01*
X135228410Y-62515306D01*
X135254421Y-63115458D01*
X135434047Y-63549116D01*
X135687940Y-63632455D01*
X136570395Y-62750000D01*
X136570395Y-63109210D01*
X135867545Y-63812060D01*
X135950884Y-64065953D01*
X136515306Y-64271590D01*
X137115458Y-64245579D01*
X137549116Y-64065953D01*
X137632455Y-63812060D01*
X137632455Y-68187940D01*
X137549116Y-67934047D01*
X136984694Y-67728410D01*
X136384542Y-67754421D01*
X135950884Y-67934047D01*
X135867545Y-68187940D01*
X136750000Y-69070395D01*
X137632455Y-68187940D01*
X137632455Y-68547150D01*
X136929605Y-69250000D01*
X137812060Y-70132455D01*
X138065953Y-70049116D01*
X138271590Y-69484694D01*
X138271590Y-88282732D01*
X137933529Y-87944671D01*
X137793443Y-87851069D01*
X137632455Y-87819046D01*
X137632455Y-70312060D01*
X136750000Y-69429605D01*
X136570395Y-69609210D01*
X136570395Y-69250000D01*
X135687940Y-68367545D01*
X135434047Y-68450884D01*
X135228410Y-69015306D01*
X135254421Y-69615458D01*
X135434047Y-70049116D01*
X135687940Y-70132455D01*
X136570395Y-69250000D01*
X136570395Y-69609210D01*
X135867545Y-70312060D01*
X135950884Y-70565953D01*
X136515306Y-70771590D01*
X137115458Y-70745579D01*
X137549116Y-70565953D01*
X137632455Y-70312060D01*
X137632455Y-87819046D01*
X137628200Y-87818200D01*
X137585000Y-87818200D01*
X137585000Y-82861310D01*
X137585000Y-82608691D01*
X137585000Y-82545750D01*
X137585000Y-81974250D01*
X137585000Y-81911309D01*
X137585000Y-81658690D01*
X137488327Y-81425301D01*
X137309698Y-81246673D01*
X137076309Y-81150000D01*
X136760750Y-81150000D01*
X136602000Y-81308750D01*
X136602000Y-82133000D01*
X137426250Y-82133000D01*
X137585000Y-81974250D01*
X137585000Y-82545750D01*
X137426250Y-82387000D01*
X136602000Y-82387000D01*
X136602000Y-83211250D01*
X136760750Y-83370000D01*
X137076309Y-83370000D01*
X137309698Y-83273327D01*
X137488327Y-83094699D01*
X137585000Y-82861310D01*
X137585000Y-87818200D01*
X136468087Y-87818200D01*
X136348000Y-87697901D01*
X136348000Y-83211250D01*
X136348000Y-82387000D01*
X136328000Y-82387000D01*
X136328000Y-82133000D01*
X136348000Y-82133000D01*
X136348000Y-81308750D01*
X136189250Y-81150000D01*
X135873691Y-81150000D01*
X135660000Y-81238513D01*
X135660000Y-79551400D01*
X135611664Y-79308396D01*
X135474013Y-79102387D01*
X134502613Y-78130987D01*
X134296604Y-77993336D01*
X134053600Y-77945000D01*
X133200576Y-77945000D01*
X133199550Y-77943438D01*
X133089813Y-77869364D01*
X132960000Y-77843331D01*
X132060000Y-77843331D01*
X131934096Y-77867759D01*
X131823438Y-77940450D01*
X131749364Y-78050187D01*
X131723331Y-78180000D01*
X131723331Y-78980000D01*
X131747759Y-79105904D01*
X131820450Y-79216562D01*
X131930187Y-79290636D01*
X132060000Y-79316669D01*
X132960000Y-79316669D01*
X133085904Y-79292241D01*
X133196562Y-79219550D01*
X133199633Y-79215000D01*
X133790574Y-79215000D01*
X134390000Y-79814426D01*
X134390000Y-79895068D01*
X134238863Y-79832311D01*
X133986245Y-79832090D01*
X133752772Y-79928560D01*
X133632922Y-80048200D01*
X133290499Y-80048200D01*
X133272241Y-79954096D01*
X133199550Y-79843438D01*
X133089813Y-79769364D01*
X132960000Y-79743331D01*
X132060000Y-79743331D01*
X131934096Y-79767759D01*
X131823438Y-79840450D01*
X131749364Y-79950187D01*
X131723331Y-80080000D01*
X131723331Y-80880000D01*
X131747759Y-81005904D01*
X131820450Y-81116562D01*
X131930187Y-81190636D01*
X132060000Y-81216669D01*
X132960000Y-81216669D01*
X133085904Y-81192241D01*
X133196562Y-81119550D01*
X133270636Y-81009813D01*
X133290291Y-80911800D01*
X133658582Y-80911800D01*
X133751832Y-81005213D01*
X133985137Y-81102089D01*
X134237755Y-81102310D01*
X134390000Y-81039403D01*
X134390000Y-81495156D01*
X134313438Y-81545450D01*
X134239364Y-81655187D01*
X134231379Y-81695000D01*
X133200576Y-81695000D01*
X133199550Y-81693438D01*
X133089813Y-81619364D01*
X132960000Y-81593331D01*
X132060000Y-81593331D01*
X131934096Y-81617759D01*
X131823438Y-81690450D01*
X131749364Y-81800187D01*
X131723331Y-81930000D01*
X131723331Y-82730000D01*
X131747759Y-82855904D01*
X131820450Y-82966562D01*
X131930187Y-83040636D01*
X132060000Y-83066669D01*
X132960000Y-83066669D01*
X133085904Y-83042241D01*
X133196562Y-82969550D01*
X133199633Y-82965000D01*
X133577549Y-82965000D01*
X133549572Y-82976560D01*
X133370787Y-83155032D01*
X133273911Y-83388337D01*
X133273778Y-83539563D01*
X133207619Y-83605722D01*
X133199550Y-83593438D01*
X133089813Y-83519364D01*
X132960000Y-83493331D01*
X132060000Y-83493331D01*
X131934096Y-83517759D01*
X131823438Y-83590450D01*
X131749364Y-83700187D01*
X131723331Y-83830000D01*
X131723331Y-84630000D01*
X131747759Y-84755904D01*
X131820450Y-84866562D01*
X131930187Y-84940636D01*
X132060000Y-84966669D01*
X132960000Y-84966669D01*
X133085904Y-84942241D01*
X133196562Y-84869550D01*
X133270636Y-84759813D01*
X133294292Y-84641850D01*
X133359242Y-84628931D01*
X133359243Y-84628931D01*
X133499329Y-84535329D01*
X133884479Y-84150178D01*
X134034555Y-84150310D01*
X134268028Y-84053840D01*
X134390000Y-83932081D01*
X134390000Y-84371024D01*
X134386787Y-84374232D01*
X134338137Y-84491393D01*
X134338136Y-84491396D01*
X134338135Y-84491398D01*
X134289911Y-84607537D01*
X134289800Y-84734399D01*
X134289800Y-84734400D01*
X134289690Y-84860155D01*
X134338135Y-84977400D01*
X134338136Y-84977404D01*
X134338137Y-84977406D01*
X134386160Y-85093628D01*
X134475785Y-85183410D01*
X134475787Y-85183413D01*
X134475789Y-85183414D01*
X134564632Y-85272413D01*
X134681793Y-85321062D01*
X134681796Y-85321064D01*
X134681798Y-85321064D01*
X134797937Y-85369289D01*
X134924799Y-85369399D01*
X134924800Y-85369400D01*
X134924800Y-85369399D01*
X135050555Y-85369510D01*
X135167800Y-85321064D01*
X135167804Y-85321064D01*
X135167806Y-85321062D01*
X135284028Y-85273040D01*
X135373810Y-85183414D01*
X135373813Y-85183413D01*
X135374277Y-85182948D01*
X135462813Y-85094568D01*
X135462923Y-85094302D01*
X135474013Y-85083213D01*
X135611664Y-84877204D01*
X135660000Y-84634200D01*
X135660000Y-83281486D01*
X135873691Y-83370000D01*
X136189250Y-83370000D01*
X136348000Y-83211250D01*
X136348000Y-87697901D01*
X136300968Y-87650787D01*
X136067663Y-87553911D01*
X135815045Y-87553690D01*
X135581572Y-87650160D01*
X135413237Y-87818200D01*
X135240499Y-87818200D01*
X135222241Y-87724096D01*
X135149550Y-87613438D01*
X135039813Y-87539364D01*
X134910000Y-87513331D01*
X134110000Y-87513331D01*
X133984096Y-87537759D01*
X133873438Y-87610450D01*
X133799364Y-87720187D01*
X133779708Y-87818200D01*
X133592058Y-87818200D01*
X133208529Y-87434671D01*
X133068443Y-87341069D01*
X133036669Y-87334748D01*
X133036669Y-87265000D01*
X133012241Y-87139096D01*
X132939550Y-87028438D01*
X132829813Y-86954364D01*
X132700000Y-86928331D01*
X131750000Y-86928331D01*
X131624096Y-86952759D01*
X131513438Y-87025450D01*
X131500336Y-87044858D01*
X131489550Y-87028438D01*
X131379813Y-86954364D01*
X131296669Y-86937690D01*
X131296669Y-83680000D01*
X131296669Y-82880000D01*
X131296669Y-79930000D01*
X131296669Y-79130000D01*
X131272241Y-79004096D01*
X131199550Y-78893438D01*
X131089813Y-78819364D01*
X130960000Y-78793331D01*
X130060000Y-78793331D01*
X129934096Y-78817759D01*
X129823438Y-78890450D01*
X129820366Y-78895000D01*
X126409144Y-78895000D01*
X126409144Y-77317698D01*
X126381362Y-76762632D01*
X126222397Y-76378857D01*
X125980213Y-76309392D01*
X125800608Y-76488997D01*
X125800608Y-76129787D01*
X125731143Y-75887603D01*
X125207698Y-75700856D01*
X124652632Y-75728638D01*
X124268857Y-75887603D01*
X124199392Y-76129787D01*
X125000000Y-76930395D01*
X125800608Y-76129787D01*
X125800608Y-76488997D01*
X125179605Y-77110000D01*
X125980213Y-77910608D01*
X126222397Y-77841143D01*
X126409144Y-77317698D01*
X126409144Y-78895000D01*
X125800608Y-78895000D01*
X125800608Y-78090213D01*
X125000000Y-77289605D01*
X124820395Y-77469210D01*
X124820395Y-77110000D01*
X124019787Y-76309392D01*
X123777603Y-76378857D01*
X123590856Y-76902302D01*
X123618638Y-77457368D01*
X123777603Y-77841143D01*
X124019787Y-77910608D01*
X124820395Y-77110000D01*
X124820395Y-77469210D01*
X124199392Y-78090213D01*
X124268857Y-78332397D01*
X124792302Y-78519144D01*
X125347368Y-78491362D01*
X125731143Y-78332397D01*
X125800608Y-78090213D01*
X125800608Y-78895000D01*
X125789574Y-78895000D01*
X125619489Y-78724618D01*
X125218205Y-78557990D01*
X124783701Y-78557611D01*
X124382127Y-78723538D01*
X124074618Y-79030511D01*
X123907990Y-79431795D01*
X123907611Y-79866299D01*
X124073538Y-80267873D01*
X124380511Y-80575382D01*
X124781795Y-80742010D01*
X125216299Y-80742389D01*
X125617873Y-80576462D01*
X125925382Y-80269489D01*
X125968769Y-80165000D01*
X129819423Y-80165000D01*
X129820450Y-80166562D01*
X129930187Y-80240636D01*
X130060000Y-80266669D01*
X130960000Y-80266669D01*
X131085904Y-80242241D01*
X131196562Y-80169550D01*
X131270636Y-80059813D01*
X131296669Y-79930000D01*
X131296669Y-82880000D01*
X131272241Y-82754096D01*
X131199550Y-82643438D01*
X131145000Y-82606615D01*
X131145000Y-82554800D01*
X131096664Y-82311796D01*
X130959013Y-82105787D01*
X130594213Y-81740987D01*
X130388204Y-81603336D01*
X130145200Y-81555000D01*
X125909364Y-81555000D01*
X125619489Y-81264618D01*
X125218205Y-81097990D01*
X124783701Y-81097611D01*
X124382127Y-81263538D01*
X124074618Y-81570511D01*
X123907990Y-81971795D01*
X123907611Y-82406299D01*
X124073538Y-82807873D01*
X124380511Y-83115382D01*
X124781795Y-83282010D01*
X125216299Y-83282389D01*
X125617873Y-83116462D01*
X125909843Y-82825000D01*
X129734360Y-82825000D01*
X129723331Y-82880000D01*
X129723331Y-83680000D01*
X129747759Y-83805904D01*
X129820450Y-83916562D01*
X129930187Y-83990636D01*
X130060000Y-84016669D01*
X130960000Y-84016669D01*
X131085904Y-83992241D01*
X131196562Y-83919550D01*
X131270636Y-83809813D01*
X131296669Y-83680000D01*
X131296669Y-86937690D01*
X131250000Y-86928331D01*
X130300000Y-86928331D01*
X130174096Y-86952759D01*
X130063438Y-87025450D01*
X129989364Y-87135187D01*
X129963331Y-87265000D01*
X129963331Y-87308200D01*
X126092167Y-87308200D01*
X126092389Y-87053701D01*
X126092389Y-84513701D01*
X125926462Y-84112127D01*
X125619489Y-83804618D01*
X125218205Y-83637990D01*
X124783701Y-83637611D01*
X124382127Y-83803538D01*
X124074618Y-84110511D01*
X123907990Y-84511795D01*
X123907611Y-84946299D01*
X124073538Y-85347873D01*
X124380511Y-85655382D01*
X124781795Y-85822010D01*
X125216299Y-85822389D01*
X125617873Y-85656462D01*
X125925382Y-85349489D01*
X126092010Y-84948205D01*
X126092389Y-84513701D01*
X126092389Y-87053701D01*
X125926462Y-86652127D01*
X125619489Y-86344618D01*
X125218205Y-86177990D01*
X124783701Y-86177611D01*
X124382127Y-86343538D01*
X124074618Y-86650511D01*
X123907990Y-87051795D01*
X123907611Y-87486299D01*
X124073538Y-87887873D01*
X124380511Y-88195382D01*
X124781795Y-88362010D01*
X125216299Y-88362389D01*
X125617873Y-88196462D01*
X125642578Y-88171800D01*
X129963331Y-88171800D01*
X129963331Y-88215000D01*
X129987759Y-88340904D01*
X130060450Y-88451562D01*
X130170187Y-88525636D01*
X130300000Y-88551669D01*
X131250000Y-88551669D01*
X131375904Y-88527241D01*
X131486562Y-88454550D01*
X131499663Y-88435141D01*
X131510450Y-88451562D01*
X131620187Y-88525636D01*
X131750000Y-88551669D01*
X132700000Y-88551669D01*
X132825904Y-88527241D01*
X132936562Y-88454550D01*
X132964984Y-88412442D01*
X133107871Y-88555329D01*
X133247957Y-88648931D01*
X133247958Y-88648931D01*
X133413200Y-88681800D01*
X133779500Y-88681800D01*
X133797759Y-88775904D01*
X133870450Y-88886562D01*
X133980187Y-88960636D01*
X134110000Y-88986669D01*
X134910000Y-88986669D01*
X135035904Y-88962241D01*
X135146562Y-88889550D01*
X135220636Y-88779813D01*
X135240291Y-88681800D01*
X135535697Y-88681800D01*
X135580632Y-88726813D01*
X135813937Y-88823689D01*
X136066555Y-88823910D01*
X136300028Y-88727440D01*
X136345748Y-88681800D01*
X137449342Y-88681800D01*
X137771168Y-89003625D01*
X137724096Y-89012759D01*
X137613438Y-89085450D01*
X137539364Y-89195187D01*
X137513331Y-89325000D01*
X137513331Y-89618200D01*
X136439338Y-89618200D01*
X136300968Y-89479587D01*
X136067663Y-89382711D01*
X135815045Y-89382490D01*
X135581572Y-89478960D01*
X135442087Y-89618200D01*
X135246669Y-89618200D01*
X135246669Y-89350000D01*
X135222241Y-89224096D01*
X135149550Y-89113438D01*
X135039813Y-89039364D01*
X134910000Y-89013331D01*
X134110000Y-89013331D01*
X133984096Y-89037759D01*
X133873438Y-89110450D01*
X133799364Y-89220187D01*
X133779708Y-89318200D01*
X133160400Y-89318200D01*
X132995157Y-89351069D01*
X132989669Y-89354735D01*
X132939550Y-89278438D01*
X132829813Y-89204364D01*
X132700000Y-89178331D01*
X131750000Y-89178331D01*
X131624096Y-89202759D01*
X131513438Y-89275450D01*
X131500336Y-89294858D01*
X131489550Y-89278438D01*
X131379813Y-89204364D01*
X131250000Y-89178331D01*
X130300000Y-89178331D01*
X130174096Y-89202759D01*
X130063438Y-89275450D01*
X129989364Y-89385187D01*
X129963331Y-89515000D01*
X129963331Y-89558200D01*
X126077720Y-89558200D01*
X125926462Y-89192127D01*
X125619489Y-88884618D01*
X125218205Y-88717990D01*
X124783701Y-88717611D01*
X124382127Y-88883538D01*
X124074618Y-89190511D01*
X123907990Y-89591795D01*
X123907611Y-90026299D01*
X124073538Y-90427873D01*
X124380511Y-90735382D01*
X124781795Y-90902010D01*
X125216299Y-90902389D01*
X125617873Y-90736462D01*
X125925382Y-90429489D01*
X125928574Y-90421800D01*
X129963331Y-90421800D01*
X129963331Y-90465000D01*
X129987759Y-90590904D01*
X130060450Y-90701562D01*
X130170187Y-90775636D01*
X130300000Y-90801669D01*
X131250000Y-90801669D01*
X131375904Y-90777241D01*
X131486562Y-90704550D01*
X131499663Y-90685141D01*
X131510450Y-90701562D01*
X131620187Y-90775636D01*
X131750000Y-90801669D01*
X132700000Y-90801669D01*
X132825904Y-90777241D01*
X132936562Y-90704550D01*
X133010636Y-90594813D01*
X133036669Y-90465000D01*
X133036669Y-90398672D01*
X133085642Y-90388931D01*
X133085643Y-90388931D01*
X133225729Y-90295329D01*
X133339258Y-90181800D01*
X133779500Y-90181800D01*
X133797759Y-90275904D01*
X133870450Y-90386562D01*
X133980187Y-90460636D01*
X134110000Y-90486669D01*
X134910000Y-90486669D01*
X134935095Y-90481800D01*
X135506948Y-90481800D01*
X135580632Y-90555613D01*
X135813937Y-90652489D01*
X136066555Y-90652710D01*
X136300028Y-90556240D01*
X136374598Y-90481800D01*
X137513331Y-90481800D01*
X137513331Y-90775000D01*
X137537759Y-90900904D01*
X137610450Y-91011562D01*
X137720187Y-91085636D01*
X137850000Y-91111669D01*
X138150000Y-91111669D01*
X138251652Y-91091946D01*
X138262966Y-91094215D01*
X138073871Y-91283311D01*
X137980269Y-91423397D01*
X137947400Y-91588640D01*
X137947400Y-92480342D01*
X137793942Y-92633800D01*
X136550400Y-92633800D01*
X136385157Y-92666669D01*
X136245071Y-92760271D01*
X136245068Y-92760274D01*
X135669671Y-93335671D01*
X135576069Y-93475757D01*
X135543200Y-93641000D01*
X135543200Y-93678331D01*
X135500000Y-93678331D01*
X135374096Y-93702759D01*
X135263438Y-93775450D01*
X135250336Y-93794858D01*
X135239550Y-93778438D01*
X135129813Y-93704364D01*
X135000000Y-93678331D01*
X134050000Y-93678331D01*
X133924096Y-93702759D01*
X133813438Y-93775450D01*
X133739364Y-93885187D01*
X133713331Y-94015000D01*
X133713331Y-94058200D01*
X133285000Y-94058200D01*
X133285000Y-92786310D01*
X133285000Y-92545750D01*
X133285000Y-91974250D01*
X133285000Y-91733690D01*
X133188327Y-91500301D01*
X133009698Y-91321673D01*
X132776309Y-91225000D01*
X132535750Y-91225000D01*
X132377000Y-91383750D01*
X132377000Y-92133000D01*
X133126250Y-92133000D01*
X133285000Y-91974250D01*
X133285000Y-92545750D01*
X133126250Y-92387000D01*
X132377000Y-92387000D01*
X132377000Y-93136250D01*
X132535750Y-93295000D01*
X132776309Y-93295000D01*
X133009698Y-93198327D01*
X133188327Y-93019699D01*
X133285000Y-92786310D01*
X133285000Y-94058200D01*
X132976618Y-94058200D01*
X132962241Y-93984096D01*
X132889550Y-93873438D01*
X132779813Y-93799364D01*
X132650000Y-93773331D01*
X132123000Y-93773331D01*
X132123000Y-93136250D01*
X132123000Y-92387000D01*
X132103000Y-92387000D01*
X132103000Y-92133000D01*
X132123000Y-92133000D01*
X132123000Y-91383750D01*
X131964250Y-91225000D01*
X131723691Y-91225000D01*
X131490302Y-91321673D01*
X131311673Y-91500301D01*
X131288829Y-91555450D01*
X131279813Y-91549364D01*
X131150000Y-91523331D01*
X130350000Y-91523331D01*
X130224096Y-91547759D01*
X130113438Y-91620450D01*
X130039364Y-91730187D01*
X130019708Y-91828200D01*
X125966158Y-91828200D01*
X125926462Y-91732127D01*
X125619489Y-91424618D01*
X125218205Y-91257990D01*
X124783701Y-91257611D01*
X124382127Y-91423538D01*
X124074618Y-91730511D01*
X123907990Y-92131795D01*
X123907611Y-92566299D01*
X124073538Y-92967873D01*
X124380511Y-93275382D01*
X124781795Y-93442010D01*
X125216299Y-93442389D01*
X125617873Y-93276462D01*
X125925382Y-92969489D01*
X126040688Y-92691800D01*
X130019500Y-92691800D01*
X130037759Y-92785904D01*
X130110450Y-92896562D01*
X130220187Y-92970636D01*
X130318200Y-92990291D01*
X130318200Y-93779500D01*
X130224096Y-93797759D01*
X130113438Y-93870450D01*
X130039364Y-93980187D01*
X130013331Y-94110000D01*
X130013331Y-94910000D01*
X130037759Y-95035904D01*
X130110450Y-95146562D01*
X130220187Y-95220636D01*
X130350000Y-95246669D01*
X131150000Y-95246669D01*
X131275904Y-95222241D01*
X131386562Y-95149550D01*
X131460636Y-95039813D01*
X131486669Y-94910000D01*
X131486669Y-94110000D01*
X131462241Y-93984096D01*
X131389550Y-93873438D01*
X131279813Y-93799364D01*
X131181800Y-93779708D01*
X131181800Y-92990499D01*
X131275904Y-92972241D01*
X131288569Y-92963921D01*
X131311673Y-93019699D01*
X131490302Y-93198327D01*
X131723691Y-93295000D01*
X131964250Y-93295000D01*
X132123000Y-93136250D01*
X132123000Y-93773331D01*
X131850000Y-93773331D01*
X131724096Y-93797759D01*
X131613438Y-93870450D01*
X131539364Y-93980187D01*
X131513331Y-94110000D01*
X131513331Y-94910000D01*
X131537759Y-95035904D01*
X131610450Y-95146562D01*
X131720187Y-95220636D01*
X131818200Y-95240291D01*
X131818200Y-96009500D01*
X131724096Y-96027759D01*
X131711430Y-96036078D01*
X131688327Y-95980301D01*
X131509698Y-95801673D01*
X131276309Y-95705000D01*
X131035750Y-95705000D01*
X130877000Y-95863750D01*
X130877000Y-96613000D01*
X130897000Y-96613000D01*
X130897000Y-96867000D01*
X130877000Y-96867000D01*
X130877000Y-97616250D01*
X131035750Y-97775000D01*
X131276309Y-97775000D01*
X131509698Y-97678327D01*
X131688327Y-97499699D01*
X131711170Y-97444549D01*
X131720187Y-97450636D01*
X131850000Y-97476669D01*
X132650000Y-97476669D01*
X132775904Y-97452241D01*
X132886562Y-97379550D01*
X132960636Y-97269813D01*
X132986669Y-97140000D01*
X132986669Y-96340000D01*
X132962241Y-96214096D01*
X132889550Y-96103438D01*
X132779813Y-96029364D01*
X132681800Y-96009708D01*
X132681800Y-95240499D01*
X132775904Y-95222241D01*
X132886562Y-95149550D01*
X132960636Y-95039813D01*
X132984302Y-94921800D01*
X133713331Y-94921800D01*
X133713331Y-94965000D01*
X133737759Y-95090904D01*
X133810450Y-95201562D01*
X133920187Y-95275636D01*
X134050000Y-95301669D01*
X135000000Y-95301669D01*
X135125904Y-95277241D01*
X135236562Y-95204550D01*
X135249663Y-95185141D01*
X135260450Y-95201562D01*
X135305860Y-95232214D01*
X135305690Y-95426555D01*
X135402160Y-95660028D01*
X135580632Y-95838813D01*
X135813937Y-95935689D01*
X136066555Y-95935910D01*
X136300028Y-95839440D01*
X136478813Y-95660968D01*
X136575689Y-95427663D01*
X136575820Y-95277257D01*
X136575904Y-95277241D01*
X136686562Y-95204550D01*
X136760636Y-95094813D01*
X136786669Y-94965000D01*
X136786669Y-94015000D01*
X136762241Y-93889096D01*
X136689550Y-93778438D01*
X136579813Y-93704364D01*
X136531901Y-93694755D01*
X136729257Y-93497400D01*
X137605371Y-93497400D01*
X137539364Y-93595187D01*
X137513331Y-93725000D01*
X137513331Y-95175000D01*
X137537759Y-95300904D01*
X137610450Y-95411562D01*
X137720187Y-95485636D01*
X137850000Y-95511669D01*
X138150000Y-95511669D01*
X138251652Y-95491946D01*
X138350000Y-95511669D01*
X138568200Y-95511669D01*
X138568200Y-96102400D01*
X138601069Y-96267643D01*
X138694671Y-96407729D01*
X139022871Y-96735929D01*
X139162957Y-96829531D01*
X139162958Y-96829531D01*
X139328200Y-96862400D01*
X152692600Y-96862400D01*
X152857842Y-96829531D01*
X152857843Y-96829531D01*
X152997929Y-96735929D01*
X153143926Y-96589930D01*
X153274499Y-96590044D01*
X153187511Y-96799537D01*
X153187290Y-97052155D01*
X153283760Y-97285628D01*
X153383939Y-97385983D01*
X153312271Y-97433871D01*
X153312268Y-97433874D01*
X152969671Y-97776471D01*
X152876069Y-97916557D01*
X152869748Y-97948331D01*
X152800000Y-97948331D01*
X152674096Y-97972759D01*
X152563438Y-98045450D01*
X152489364Y-98155187D01*
X152463331Y-98285000D01*
X152463331Y-98328200D01*
X151379200Y-98328200D01*
X151213957Y-98361069D01*
X151210571Y-98363331D01*
X150700000Y-98363331D01*
X150574096Y-98387759D01*
X150463438Y-98460450D01*
X150389364Y-98570187D01*
X150363331Y-98700000D01*
X150363331Y-99102133D01*
X150340301Y-99111673D01*
X150161673Y-99290302D01*
X150065000Y-99523691D01*
X150065000Y-99714250D01*
X150223750Y-99873000D01*
X151073000Y-99873000D01*
X151073000Y-99853000D01*
X151327000Y-99853000D01*
X151327000Y-99873000D01*
X152176250Y-99873000D01*
X152335000Y-99714250D01*
X152335000Y-99523691D01*
X152238327Y-99290302D01*
X152139825Y-99191800D01*
X152463331Y-99191800D01*
X152463331Y-99235000D01*
X152487759Y-99360904D01*
X152560450Y-99471562D01*
X152670187Y-99545636D01*
X152800000Y-99571669D01*
X153702133Y-99571669D01*
X153711673Y-99594699D01*
X153890302Y-99773327D01*
X154123691Y-99870000D01*
X154439250Y-99870000D01*
X154598000Y-99711250D01*
X154598000Y-98887000D01*
X154578000Y-98887000D01*
X154578000Y-98633000D01*
X154598000Y-98633000D01*
X154598000Y-98613000D01*
X154852000Y-98613000D01*
X154852000Y-98633000D01*
X155676250Y-98633000D01*
X155835000Y-98474250D01*
X155835000Y-98411309D01*
X155835000Y-98171000D01*
X156974200Y-98171000D01*
X156948331Y-98300000D01*
X156948331Y-99250000D01*
X156972759Y-99375904D01*
X157045450Y-99486562D01*
X157064858Y-99499663D01*
X157048438Y-99510450D01*
X156974364Y-99620187D01*
X156948331Y-99750000D01*
X156948331Y-100700000D01*
X156972759Y-100825904D01*
X157045450Y-100936562D01*
X157155187Y-101010636D01*
X157162500Y-101012102D01*
X157162500Y-103708200D01*
X156870400Y-103708200D01*
X156868388Y-103708600D01*
X156866374Y-103708225D01*
X156805288Y-103721151D01*
X156744038Y-103733335D01*
X156742334Y-103734473D01*
X156740328Y-103734898D01*
X156688858Y-103770204D01*
X156636913Y-103804913D01*
X156635772Y-103806619D01*
X156634084Y-103807778D01*
X156600046Y-103860087D01*
X156565335Y-103912038D01*
X156564935Y-103914048D01*
X156563817Y-103915767D01*
X156136669Y-104983635D01*
X156136669Y-103750000D01*
X156136669Y-102350000D01*
X156112241Y-102224096D01*
X156039550Y-102113438D01*
X155929813Y-102039364D01*
X155835000Y-102020349D01*
X155835000Y-99361310D01*
X155835000Y-99108691D01*
X155835000Y-99045750D01*
X155676250Y-98887000D01*
X154852000Y-98887000D01*
X154852000Y-99711250D01*
X155010750Y-99870000D01*
X155326309Y-99870000D01*
X155559698Y-99773327D01*
X155738327Y-99594699D01*
X155835000Y-99361310D01*
X155835000Y-102020349D01*
X155800000Y-102013331D01*
X155155251Y-102013331D01*
X155154384Y-102008973D01*
X155148931Y-101981558D01*
X155148931Y-101981557D01*
X155055329Y-101841471D01*
X153858529Y-100644671D01*
X153718443Y-100551069D01*
X153553200Y-100518200D01*
X152317648Y-100518200D01*
X152335000Y-100476309D01*
X152335000Y-100285750D01*
X152176250Y-100127000D01*
X151327000Y-100127000D01*
X151327000Y-100147000D01*
X151073000Y-100147000D01*
X151073000Y-100127000D01*
X150223750Y-100127000D01*
X150065000Y-100285750D01*
X150065000Y-100476309D01*
X150161673Y-100709698D01*
X150340301Y-100888327D01*
X150363331Y-100897866D01*
X150363331Y-101300000D01*
X150387759Y-101425904D01*
X150460450Y-101536562D01*
X150570187Y-101610636D01*
X150700000Y-101636669D01*
X150768200Y-101636669D01*
X150768200Y-102753331D01*
X150100000Y-102753331D01*
X149974096Y-102777759D01*
X149885400Y-102836023D01*
X149885400Y-100584000D01*
X149860265Y-100457638D01*
X149788687Y-100350513D01*
X149681562Y-100278935D01*
X149636669Y-100270005D01*
X149636669Y-99650000D01*
X149612241Y-99524096D01*
X149611889Y-99523561D01*
X149636669Y-99400000D01*
X149636669Y-98700000D01*
X149612241Y-98574096D01*
X149539550Y-98463438D01*
X149429813Y-98389364D01*
X149300000Y-98363331D01*
X149144791Y-98363331D01*
X149105329Y-98304271D01*
X148985729Y-98184671D01*
X148845643Y-98091069D01*
X148680400Y-98058200D01*
X147536669Y-98058200D01*
X147536669Y-98015000D01*
X147512241Y-97889096D01*
X147439550Y-97778438D01*
X147329813Y-97704364D01*
X147200000Y-97678331D01*
X146250000Y-97678331D01*
X146124096Y-97702759D01*
X146013438Y-97775450D01*
X146000336Y-97794858D01*
X145989550Y-97778438D01*
X145879813Y-97704364D01*
X145750000Y-97678331D01*
X144800000Y-97678331D01*
X144674096Y-97702759D01*
X144563438Y-97775450D01*
X144509740Y-97855000D01*
X142505200Y-97855000D01*
X142262196Y-97903336D01*
X142056187Y-98040987D01*
X141540987Y-98556187D01*
X141403336Y-98762196D01*
X141355000Y-99005200D01*
X141355000Y-99663331D01*
X141190000Y-99663331D01*
X141064096Y-99687759D01*
X140953438Y-99760450D01*
X140916615Y-99815000D01*
X140063420Y-99815000D01*
X140029550Y-99763438D01*
X139919813Y-99689364D01*
X139790000Y-99663331D01*
X139101357Y-99663331D01*
X138999013Y-99560987D01*
X138793004Y-99423336D01*
X138550000Y-99375000D01*
X137390576Y-99375000D01*
X137389550Y-99373438D01*
X137279813Y-99299364D01*
X137150000Y-99273331D01*
X136350000Y-99273331D01*
X136271000Y-99288658D01*
X136271000Y-99161600D01*
X136245865Y-99035238D01*
X136174287Y-98928113D01*
X136067162Y-98856535D01*
X135940800Y-98831400D01*
X134519275Y-98831400D01*
X134204140Y-98201130D01*
X134171690Y-98159319D01*
X134142287Y-98115313D01*
X134132421Y-98108721D01*
X134125148Y-98099349D01*
X134079163Y-98073135D01*
X134035162Y-98043735D01*
X134023528Y-98041420D01*
X134013219Y-98035544D01*
X133960703Y-98028924D01*
X133908800Y-98018600D01*
X131470400Y-98018600D01*
X131344038Y-98043735D01*
X131236913Y-98115313D01*
X131165335Y-98222438D01*
X131140200Y-98348800D01*
X131140200Y-101803200D01*
X131145547Y-101830083D01*
X131144692Y-101857485D01*
X131157997Y-101892671D01*
X131165335Y-101929562D01*
X131180565Y-101952355D01*
X131190260Y-101977995D01*
X131216012Y-102005407D01*
X131236913Y-102036687D01*
X131259706Y-102051917D01*
X131278475Y-102071895D01*
X132562600Y-102989127D01*
X132562600Y-105257600D01*
X132587735Y-105383962D01*
X132659313Y-105491087D01*
X132766438Y-105562665D01*
X132892800Y-105587800D01*
X135940800Y-105587800D01*
X136067162Y-105562665D01*
X136174287Y-105491087D01*
X136245865Y-105383962D01*
X136271000Y-105257600D01*
X136271000Y-100730826D01*
X136350000Y-100746669D01*
X137150000Y-100746669D01*
X137275904Y-100722241D01*
X137386562Y-100649550D01*
X137389633Y-100645000D01*
X137853331Y-100645000D01*
X137853331Y-100900000D01*
X137877759Y-101025904D01*
X137950450Y-101136562D01*
X138060187Y-101210636D01*
X138190000Y-101236669D01*
X139790000Y-101236669D01*
X139915904Y-101212241D01*
X140026562Y-101139550D01*
X140063384Y-101085000D01*
X140916579Y-101085000D01*
X140950450Y-101136562D01*
X141060187Y-101210636D01*
X141190000Y-101236669D01*
X142790000Y-101236669D01*
X142915904Y-101212241D01*
X143026562Y-101139550D01*
X143100636Y-101029813D01*
X143126669Y-100900000D01*
X143126669Y-100000000D01*
X143102241Y-99874096D01*
X143029550Y-99763438D01*
X142919813Y-99689364D01*
X142790000Y-99663331D01*
X142625000Y-99663331D01*
X142625000Y-99268226D01*
X142768226Y-99125000D01*
X144510156Y-99125000D01*
X144560450Y-99201562D01*
X144640000Y-99255259D01*
X144640000Y-99351800D01*
X144688336Y-99594804D01*
X144825987Y-99800813D01*
X145278974Y-100253800D01*
X144068800Y-100253800D01*
X143942438Y-100278935D01*
X143835313Y-100350513D01*
X143763735Y-100457638D01*
X143738600Y-100584000D01*
X143738600Y-102616000D01*
X143763735Y-102742362D01*
X143835313Y-102849487D01*
X143942438Y-102921065D01*
X144068800Y-102946200D01*
X146940082Y-102946200D01*
X147193000Y-103325576D01*
X147193000Y-108712000D01*
X147218135Y-108838362D01*
X147289713Y-108945487D01*
X147396838Y-109017065D01*
X147523200Y-109042200D01*
X149555200Y-109042200D01*
X149681562Y-109017065D01*
X149788687Y-108945487D01*
X149860265Y-108838362D01*
X149885400Y-108712000D01*
X149885400Y-104143403D01*
X149970187Y-104200636D01*
X150100000Y-104226669D01*
X150900000Y-104226669D01*
X151025904Y-104202241D01*
X151136562Y-104129550D01*
X151210636Y-104019813D01*
X151235572Y-103895469D01*
X151268442Y-103888931D01*
X151268443Y-103888931D01*
X151408529Y-103795329D01*
X151505329Y-103698529D01*
X151598931Y-103558443D01*
X151598931Y-103558442D01*
X151604384Y-103531026D01*
X151631800Y-103393200D01*
X151631801Y-103393200D01*
X151631800Y-103393194D01*
X151631800Y-101636669D01*
X151700000Y-101636669D01*
X151825904Y-101612241D01*
X151936562Y-101539550D01*
X152010636Y-101429813D01*
X152020264Y-101381800D01*
X153374342Y-101381800D01*
X154005873Y-102013331D01*
X153700000Y-102013331D01*
X153574096Y-102037759D01*
X153463438Y-102110450D01*
X153389364Y-102220187D01*
X153363331Y-102350000D01*
X153363331Y-103750000D01*
X153387759Y-103875904D01*
X153460450Y-103986562D01*
X153570187Y-104060636D01*
X153700000Y-104086669D01*
X155800000Y-104086669D01*
X155925904Y-104062241D01*
X156036562Y-103989550D01*
X156110636Y-103879813D01*
X156136669Y-103750000D01*
X156136669Y-104983635D01*
X155834043Y-105740200D01*
X150368000Y-105740200D01*
X150241638Y-105765335D01*
X150134513Y-105836913D01*
X150062935Y-105944038D01*
X150037800Y-106070400D01*
X150037800Y-109118400D01*
X150052957Y-109194600D01*
X130623000Y-109194600D01*
X130623000Y-97616250D01*
X130623000Y-96867000D01*
X130623000Y-96613000D01*
X130623000Y-95863750D01*
X130464250Y-95705000D01*
X130223691Y-95705000D01*
X129990302Y-95801673D01*
X129811673Y-95980301D01*
X129715000Y-96213690D01*
X129715000Y-96454250D01*
X129873750Y-96613000D01*
X130623000Y-96613000D01*
X130623000Y-96867000D01*
X129873750Y-96867000D01*
X129715000Y-97025750D01*
X129715000Y-97266310D01*
X129811673Y-97499699D01*
X129990302Y-97678327D01*
X130223691Y-97775000D01*
X130464250Y-97775000D01*
X130623000Y-97616250D01*
X130623000Y-109194600D01*
X128143000Y-109194600D01*
X128143000Y-102133400D01*
X128422400Y-102133400D01*
X128548762Y-102108265D01*
X128655887Y-102036687D01*
X128727465Y-101929562D01*
X128752600Y-101803200D01*
X128752600Y-93878400D01*
X128727465Y-93752038D01*
X128655887Y-93644913D01*
X128548762Y-93573335D01*
X128422400Y-93548200D01*
X123139200Y-93548200D01*
X123012838Y-93573335D01*
X122905713Y-93644913D01*
X122834135Y-93752038D01*
X122809000Y-93878400D01*
X122809000Y-94081600D01*
X122809000Y-98968541D01*
X122776309Y-98955000D01*
X122535750Y-98955000D01*
X122377000Y-99113750D01*
X122377000Y-99863000D01*
X122397000Y-99863000D01*
X122397000Y-100117000D01*
X122377000Y-100117000D01*
X122377000Y-100866250D01*
X122535750Y-101025000D01*
X122776309Y-101025000D01*
X123009698Y-100928327D01*
X123188327Y-100749699D01*
X123204356Y-100711000D01*
X123271866Y-100711000D01*
X123350000Y-100726669D01*
X124150000Y-100726669D01*
X124230759Y-100711000D01*
X125001272Y-100711000D01*
X125835844Y-101879400D01*
X122123000Y-101879400D01*
X122123000Y-100866250D01*
X122123000Y-100117000D01*
X122123000Y-99863000D01*
X122123000Y-99113750D01*
X121964250Y-98955000D01*
X121723691Y-98955000D01*
X121490302Y-99051673D01*
X121311673Y-99230301D01*
X121215000Y-99463690D01*
X121215000Y-99704250D01*
X121373750Y-99863000D01*
X122123000Y-99863000D01*
X122123000Y-100117000D01*
X121373750Y-100117000D01*
X121215000Y-100275750D01*
X121215000Y-100516310D01*
X121311673Y-100749699D01*
X121490302Y-100928327D01*
X121723691Y-101025000D01*
X121964250Y-101025000D01*
X122123000Y-100866250D01*
X122123000Y-101879400D01*
X120827800Y-101879400D01*
X120827800Y-67995800D01*
X128016000Y-67995800D01*
X128064601Y-67986133D01*
X128105803Y-67958603D01*
X128133333Y-67917401D01*
X128143000Y-67868800D01*
X128143000Y-60680600D01*
X162026600Y-60680600D01*
X162026600Y-67868800D01*
X162036267Y-67917401D01*
X162063797Y-67958603D01*
X162104999Y-67986133D01*
X162153600Y-67995800D01*
X169138600Y-67995800D01*
X169138600Y-101879400D01*
M02*
