G04 #@! TF.FileFunction,Soldermask,Bot*
%FSLAX46Y46*%
G04 Gerber Fmt 4.6, Leading zero omitted, Abs format (unit mm)*
G04 Created by KiCad (PCBNEW (2015-06-05 BZR 5717)-product) date Fri 31 Jul 2015 19:12:08 PDT*
%MOMM*%
G01*
G04 APERTURE LIST*
%ADD10C,0.100000*%
%ADD11R,0.800000X0.800000*%
%ADD12R,0.900000X0.800000*%
%ADD13R,1.524000X1.524000*%
%ADD14C,1.524000*%
%ADD15R,0.950000X0.950000*%
%ADD16R,1.100000X1.400000*%
%ADD17C,1.750000*%
%ADD18C,3.175000*%
G04 APERTURE END LIST*
D10*
D11*
X146250000Y-96240000D03*
X147750000Y-96240000D03*
D12*
X134138000Y-97099600D03*
X136138000Y-98049600D03*
X136138000Y-96149600D03*
X138990000Y-89030000D03*
X136990000Y-88080000D03*
X136990000Y-89980000D03*
D13*
X167000000Y-96730000D03*
D14*
X167000000Y-99270000D03*
D13*
X125000000Y-94890000D03*
D14*
X125000000Y-92350000D03*
X125000000Y-89810000D03*
X125000000Y-87270000D03*
X125000000Y-84730000D03*
X125000000Y-82190000D03*
X125000000Y-79650000D03*
X125000000Y-77110000D03*
D13*
X167000000Y-90350000D03*
D14*
X167000000Y-87810000D03*
X167000000Y-85270000D03*
X167000000Y-82730000D03*
X167000000Y-80190000D03*
X167000000Y-77650000D03*
D15*
X156525000Y-88740000D03*
X157975000Y-88740000D03*
X156525000Y-90740000D03*
X157975000Y-90740000D03*
X152225000Y-90510000D03*
X150775000Y-90510000D03*
X152225000Y-92510000D03*
X150775000Y-92510000D03*
X151975000Y-80510000D03*
X150525000Y-80510000D03*
X156525000Y-84490000D03*
X157975000Y-84490000D03*
X156525000Y-86740000D03*
X157975000Y-86740000D03*
D16*
X150625000Y-87990000D03*
X152375000Y-87990000D03*
D17*
X141250000Y-69250000D03*
X136750000Y-69250000D03*
X141250000Y-62750000D03*
X136750000Y-62750000D03*
D18*
X124000000Y-106000000D03*
X166000000Y-106000000D03*
X166000000Y-64000000D03*
X124000000Y-64000000D03*
M02*
