M48
INCH,TZ
T1C0.014
T2C0.032
T3C0.038
T4C0.039
T5C0.125
%
G90
G05
T1
X48080Y-39840
X50880Y-24320
X50960Y-41760
X51440Y-38640
X51440Y-41760
X52640Y-36240
X52720Y-32880
X52800Y-31680
X52800Y-37840
X53120Y-33360
X53520Y-34720
X53520Y-35440
X53520Y-37520
X54240Y-32400
X54400Y-41280
X54720Y-34400
X54720Y-41280
X54815Y-36096
X55040Y-41280
X55520Y-34720
X55520Y-37200
X55600Y-33280
X55600Y-41280
X55920Y-41280
X56240Y-32400
X56240Y-41280
X56320Y-41760
X56320Y-42080
X56400Y-36845
X56400Y-37725
X57200Y-41200
X57440Y-37520
X58400Y-32400
X58560Y-35600
X58560Y-36320
X58640Y-31600
X58720Y-34640
X58720Y-37680
X58800Y-32080
X58960Y-33920
X59840Y-37200
X59920Y-39360
X60320Y-37778
X60560Y-34720
X60560Y-38160
X60880Y-31680
X61040Y-35600
X61440Y-38880
X61600Y-37520
X62720Y-33200
X62720Y-34080
X62720Y-34960
X62720Y-35680
X62880Y-36400
X62880Y-37200
X63280Y-24320
X63360Y-41120
X63360Y-41440
X63360Y-41760
X63360Y-42160
X63360Y-42480
X63360Y-42800
X63600Y-38160
T2
X65748Y-39083
T3
X49213Y-30358
X49213Y-31358
X49213Y-32358
X49213Y-33358
X49213Y-34358
X49213Y-35358
X49213Y-36358
X49213Y-37358
X65748Y-30571
X65748Y-31571
X65748Y-32571
X65748Y-33571
X65748Y-34571
X65748Y-35571
X65748Y-38083
T4
X53839Y-24705
X53839Y-27264
X55610Y-24705
X55610Y-27264
T5
X48819Y-25197
X48819Y-41732
X65354Y-25197
X65354Y-41732
T0
M30
